<svg width="200" height="37" viewBox="0 0 200 37" fill="none" xmlns="http://www.w3.org/2000/svg">
<rect width="200" height="37" rx="18.5" fill="#7694FF"/>
<path d="M181.802 22.3347C182.094 22.0427 182.094 21.6048 181.802 21.3129L179.247 18.7584L181.802 16.2039C182.094 15.9119 182.094 15.474 181.802 15.1821C181.51 14.8901 181.072 14.8901 180.78 15.1821L177.715 18.2475C177.569 18.3935 177.496 18.5394 177.496 18.7584C177.496 18.9773 177.569 19.1233 177.715 19.2693L180.78 22.3347C181.072 22.6266 181.51 22.6266 181.802 22.3347Z" fill="white"/>
<path d="M26.946 22.606H21.942L21.114 25H18.468L22.986 12.418H25.92L30.438 25H27.774L26.946 22.606ZM26.262 20.59L24.444 15.334L22.626 20.59H26.262ZM31.4788 20.014C31.4788 18.982 31.6888 18.082 32.1088 17.314C32.5288 16.534 33.1108 15.934 33.8548 15.514C34.5988 15.082 35.4508 14.866 36.4108 14.866C37.6468 14.866 38.6668 15.178 39.4708 15.802C40.2868 16.414 40.8328 17.278 41.1088 18.394H38.3908C38.2468 17.962 38.0008 17.626 37.6528 17.386C37.3168 17.134 36.8968 17.008 36.3928 17.008C35.6728 17.008 35.1028 17.272 34.6828 17.8C34.2628 18.316 34.0528 19.054 34.0528 20.014C34.0528 20.962 34.2628 21.7 34.6828 22.228C35.1028 22.744 35.6728 23.002 36.3928 23.002C37.4128 23.002 38.0788 22.546 38.3908 21.634H41.1088C40.8328 22.714 40.2868 23.572 39.4708 24.208C38.6548 24.844 37.6348 25.162 36.4108 25.162C35.4508 25.162 34.5988 24.952 33.8548 24.532C33.1108 24.1 32.5288 23.5 32.1088 22.732C31.6888 21.952 31.4788 21.046 31.4788 20.014ZM42.3069 19.978C42.3069 18.97 42.5049 18.076 42.9009 17.296C43.3089 16.516 43.8549 15.916 44.5389 15.496C45.2349 15.076 46.0089 14.866 46.8609 14.866C47.6049 14.866 48.2529 15.016 48.8049 15.316C49.3689 15.616 49.8189 15.994 50.1549 16.45V15.028H52.6929V25H50.1549V23.542C49.8309 24.01 49.3809 24.4 48.8049 24.712C48.2409 25.012 47.5869 25.162 46.8429 25.162C46.0029 25.162 45.2349 24.946 44.5389 24.514C43.8549 24.082 43.3089 23.476 42.9009 22.696C42.5049 21.904 42.3069 20.998 42.3069 19.978ZM50.1549 20.014C50.1549 19.402 50.0349 18.88 49.7949 18.448C49.5549 18.004 49.2309 17.668 48.8229 17.44C48.4149 17.2 47.9769 17.08 47.5089 17.08C47.0409 17.08 46.6089 17.194 46.2129 17.422C45.8169 17.65 45.4929 17.986 45.2409 18.43C45.0009 18.862 44.8809 19.378 44.8809 19.978C44.8809 20.578 45.0009 21.106 45.2409 21.562C45.4929 22.006 45.8169 22.348 46.2129 22.588C46.6209 22.828 47.0529 22.948 47.5089 22.948C47.9769 22.948 48.4149 22.834 48.8229 22.606C49.2309 22.366 49.5549 22.03 49.7949 21.598C50.0349 21.154 50.1549 20.626 50.1549 20.014ZM54.5061 19.978C54.5061 18.97 54.7041 18.076 55.1001 17.296C55.5081 16.516 56.0601 15.916 56.7561 15.496C57.4521 15.076 58.2261 14.866 59.0781 14.866C59.7261 14.866 60.3441 15.01 60.9321 15.298C61.5201 15.574 61.9881 15.946 62.3361 16.414V11.68H64.8921V25H62.3361V23.524C62.0241 24.016 61.5861 24.412 61.0221 24.712C60.4581 25.012 59.8041 25.162 59.0601 25.162C58.2201 25.162 57.4521 24.946 56.7561 24.514C56.0601 24.082 55.5081 23.476 55.1001 22.696C54.7041 21.904 54.5061 20.998 54.5061 19.978ZM62.3541 20.014C62.3541 19.402 62.2341 18.88 61.9941 18.448C61.7541 18.004 61.4301 17.668 61.0221 17.44C60.6141 17.2 60.1761 17.08 59.7081 17.08C59.2401 17.08 58.8081 17.194 58.4121 17.422C58.0161 17.65 57.6921 17.986 57.4401 18.43C57.2001 18.862 57.0801 19.378 57.0801 19.978C57.0801 20.578 57.2001 21.106 57.4401 21.562C57.6921 22.006 58.0161 22.348 58.4121 22.588C58.8201 22.828 59.2521 22.948 59.7081 22.948C60.1761 22.948 60.6141 22.834 61.0221 22.606C61.4301 22.366 61.7541 22.03 61.9941 21.598C62.2341 21.154 62.3541 20.626 62.3541 20.014ZM76.6233 19.798C76.6233 20.158 76.5993 20.482 76.5513 20.77H69.2613C69.3213 21.49 69.5733 22.054 70.0173 22.462C70.4613 22.87 71.0073 23.074 71.6553 23.074C72.5913 23.074 73.2573 22.672 73.6533 21.868H76.3713C76.0833 22.828 75.5313 23.62 74.7153 24.244C73.8993 24.856 72.8973 25.162 71.7093 25.162C70.7493 25.162 69.8853 24.952 69.1173 24.532C68.3613 24.1 67.7673 23.494 67.3353 22.714C66.9153 21.934 66.7053 21.034 66.7053 20.014C66.7053 18.982 66.9153 18.076 67.3353 17.296C67.7553 16.516 68.3433 15.916 69.0993 15.496C69.8553 15.076 70.7253 14.866 71.7093 14.866C72.6573 14.866 73.5033 15.07 74.2473 15.478C75.0033 15.886 75.5853 16.468 75.9933 17.224C76.4133 17.968 76.6233 18.826 76.6233 19.798ZM74.0133 19.078C74.0013 18.43 73.7673 17.914 73.3113 17.53C72.8553 17.134 72.2973 16.936 71.6373 16.936C71.0133 16.936 70.4853 17.128 70.0533 17.512C69.6333 17.884 69.3753 18.406 69.2793 19.078H74.0133ZM90.8467 14.884C92.0707 14.884 93.0547 15.262 93.7987 16.018C94.5547 16.762 94.9327 17.806 94.9327 19.15V25H92.4127V19.492C92.4127 18.712 92.2147 18.118 91.8187 17.71C91.4227 17.29 90.8827 17.08 90.1987 17.08C89.5147 17.08 88.9687 17.29 88.5607 17.71C88.1647 18.118 87.9667 18.712 87.9667 19.492V25H85.4467V19.492C85.4467 18.712 85.2487 18.118 84.8527 17.71C84.4567 17.29 83.9167 17.08 83.2327 17.08C82.5367 17.08 81.9847 17.29 81.5767 17.71C81.1807 18.118 80.9827 18.712 80.9827 19.492V25H78.4627V15.028H80.9827V16.234C81.3067 15.814 81.7207 15.484 82.2247 15.244C82.7407 15.004 83.3047 14.884 83.9167 14.884C84.6967 14.884 85.3927 15.052 86.0047 15.388C86.6167 15.712 87.0907 16.18 87.4267 16.792C87.7507 16.216 88.2187 15.754 88.8307 15.406C89.4547 15.058 90.1267 14.884 90.8467 14.884ZM98.602 13.84C98.158 13.84 97.786 13.702 97.486 13.426C97.198 13.138 97.054 12.784 97.054 12.364C97.054 11.944 97.198 11.596 97.486 11.32C97.786 11.032 98.158 10.888 98.602 10.888C99.046 10.888 99.412 11.032 99.7 11.32C100 11.596 100.15 11.944 100.15 12.364C100.15 12.784 100 13.138 99.7 13.426C99.412 13.702 99.046 13.84 98.602 13.84ZM99.844 15.028V25H97.324V15.028H99.844ZM101.686 20.014C101.686 18.982 101.896 18.082 102.316 17.314C102.736 16.534 103.318 15.934 104.062 15.514C104.806 15.082 105.658 14.866 106.618 14.866C107.854 14.866 108.874 15.178 109.678 15.802C110.494 16.414 111.04 17.278 111.316 18.394H108.598C108.454 17.962 108.208 17.626 107.86 17.386C107.524 17.134 107.104 17.008 106.6 17.008C105.88 17.008 105.31 17.272 104.89 17.8C104.47 18.316 104.26 19.054 104.26 20.014C104.26 20.962 104.47 21.7 104.89 22.228C105.31 22.744 105.88 23.002 106.6 23.002C107.62 23.002 108.286 22.546 108.598 21.634H111.316C111.04 22.714 110.494 23.572 109.678 24.208C108.862 24.844 107.842 25.162 106.618 25.162C105.658 25.162 104.806 24.952 104.062 24.532C103.318 24.1 102.736 23.5 102.316 22.732C101.896 21.952 101.686 21.046 101.686 20.014ZM126.613 16.324C126.613 16.996 126.451 17.626 126.127 18.214C125.815 18.802 125.317 19.276 124.633 19.636C123.961 19.996 123.109 20.176 122.077 20.176H119.971V25H117.451V12.436H122.077C123.049 12.436 123.877 12.604 124.561 12.94C125.245 13.276 125.755 13.738 126.091 14.326C126.439 14.914 126.613 15.58 126.613 16.324ZM121.969 18.142C122.665 18.142 123.181 17.986 123.517 17.674C123.853 17.35 124.021 16.9 124.021 16.324C124.021 15.1 123.337 14.488 121.969 14.488H119.971V18.142H121.969ZM132.83 25.162C131.87 25.162 131.006 24.952 130.238 24.532C129.47 24.1 128.864 23.494 128.42 22.714C127.988 21.934 127.772 21.034 127.772 20.014C127.772 18.994 127.994 18.094 128.438 17.314C128.894 16.534 129.512 15.934 130.292 15.514C131.072 15.082 131.942 14.866 132.902 14.866C133.862 14.866 134.732 15.082 135.512 15.514C136.292 15.934 136.904 16.534 137.348 17.314C137.804 18.094 138.032 18.994 138.032 20.014C138.032 21.034 137.798 21.934 137.33 22.714C136.874 23.494 136.25 24.1 135.458 24.532C134.678 24.952 133.802 25.162 132.83 25.162ZM132.83 22.966C133.286 22.966 133.712 22.858 134.108 22.642C134.516 22.414 134.84 22.078 135.08 21.634C135.32 21.19 135.44 20.65 135.44 20.014C135.44 19.066 135.188 18.34 134.684 17.836C134.192 17.32 133.586 17.062 132.866 17.062C132.146 17.062 131.54 17.32 131.048 17.836C130.568 18.34 130.328 19.066 130.328 20.014C130.328 20.962 130.562 21.694 131.03 22.21C131.51 22.714 132.11 22.966 132.83 22.966ZM141.159 13.84C140.715 13.84 140.343 13.702 140.043 13.426C139.755 13.138 139.611 12.784 139.611 12.364C139.611 11.944 139.755 11.596 140.043 11.32C140.343 11.032 140.715 10.888 141.159 10.888C141.603 10.888 141.969 11.032 142.257 11.32C142.557 11.596 142.707 11.944 142.707 12.364C142.707 12.784 142.557 13.138 142.257 13.426C141.969 13.702 141.603 13.84 141.159 13.84ZM142.401 15.028V25H139.881V15.028H142.401ZM150.416 14.884C151.604 14.884 152.564 15.262 153.296 16.018C154.028 16.762 154.394 17.806 154.394 19.15V25H151.874V19.492C151.874 18.7 151.676 18.094 151.28 17.674C150.884 17.242 150.344 17.026 149.66 17.026C148.964 17.026 148.412 17.242 148.004 17.674C147.608 18.094 147.41 18.7 147.41 19.492V25H144.89V15.028H147.41V16.27C147.746 15.838 148.172 15.502 148.688 15.262C149.216 15.01 149.792 14.884 150.416 14.884ZM159.725 17.098V21.922C159.725 22.258 159.803 22.504 159.959 22.66C160.127 22.804 160.403 22.876 160.787 22.876H161.957V25H160.373C158.249 25 157.187 23.968 157.187 21.904V17.098H155.999V15.028H157.187V12.562H159.725V15.028H161.957V17.098H159.725Z" fill="white"/>
</svg>
