<svg width="12" height="15" viewBox="0 0 12 15" fill="none" xmlns="http://www.w3.org/2000/svg">
<path d="M4.66852 11.4612C4.84361 11.4612 5.01153 11.3916 5.13534 11.2678C5.25915 11.144 5.32871 10.9761 5.32871 10.801V6.83986C5.32871 6.66477 5.25915 6.49685 5.13534 6.37304C5.01153 6.24923 4.84361 6.17968 4.66852 6.17968C4.49343 6.17968 4.32551 6.24923 4.2017 6.37304C4.07789 6.49685 4.00834 6.66477 4.00834 6.83986V10.801C4.00834 10.9761 4.07789 11.144 4.2017 11.2678C4.32551 11.3916 4.49343 11.4612 4.66852 11.4612ZM11.2704 3.53893H8.62963V2.87875C8.62963 2.35347 8.42097 1.84971 8.04954 1.47828C7.67812 1.10686 7.17435 0.898193 6.64908 0.898193H5.32871C4.80343 0.898193 4.29967 1.10686 3.92824 1.47828C3.55682 1.84971 3.34815 2.35347 3.34815 2.87875V3.53893H0.707411C0.532319 3.53893 0.364398 3.60849 0.24059 3.7323C0.116781 3.85611 0.047226 4.02403 0.047226 4.19912C0.047226 4.37421 0.116781 4.54213 0.24059 4.66594C0.364398 4.78975 0.532319 4.8593 0.707411 4.8593H1.3676V12.1213C1.3676 12.6466 1.57626 13.1504 1.94769 13.5218C2.31911 13.8932 2.82288 14.1019 3.34815 14.1019H8.62963C9.15491 14.1019 9.65867 13.8932 10.0301 13.5218C10.4015 13.1504 10.6102 12.6466 10.6102 12.1213V4.8593H11.2704C11.4455 4.8593 11.6134 4.78975 11.7372 4.66594C11.861 4.54213 11.9306 4.37421 11.9306 4.19912C11.9306 4.02403 11.861 3.85611 11.7372 3.7323C11.6134 3.60849 11.4455 3.53893 11.2704 3.53893ZM4.66852 2.87875C4.66852 2.70366 4.73808 2.53574 4.86189 2.41193C4.98569 2.28812 5.15362 2.21856 5.32871 2.21856H6.64908C6.82417 2.21856 6.99209 2.28812 7.1159 2.41193C7.23971 2.53574 7.30926 2.70366 7.30926 2.87875V3.53893H4.66852V2.87875ZM9.28982 12.1213C9.28982 12.2964 9.22026 12.4644 9.09645 12.5882C8.97265 12.712 8.80473 12.7815 8.62963 12.7815H3.34815C3.17306 12.7815 3.00514 12.712 2.88133 12.5882C2.75752 12.4644 2.68797 12.2964 2.68797 12.1213V4.8593H9.28982V12.1213ZM7.30926 11.4612C7.48435 11.4612 7.65228 11.3916 7.77608 11.2678C7.89989 11.144 7.96945 10.9761 7.96945 10.801V6.83986C7.96945 6.66477 7.89989 6.49685 7.77608 6.37304C7.65228 6.24923 7.48435 6.17968 7.30926 6.17968C7.13417 6.17968 6.96625 6.24923 6.84244 6.37304C6.71863 6.49685 6.64908 6.66477 6.64908 6.83986V10.801C6.64908 10.9761 6.71863 11.144 6.84244 11.2678C6.96625 11.3916 7.13417 11.4612 7.30926 11.4612Z" fill="#DE5753"/>
</svg>
