<svg width="165" height="37" viewBox="0 0 165 37" fill="none" xmlns="http://www.w3.org/2000/svg">
<rect width="165" height="37" rx="18.5" fill="#7694FF"/>
<path d="M142.715 15.182C142.423 15.474 142.423 15.9119 142.715 16.2038L145.269 18.7583L142.715 21.3128C142.423 21.6048 142.423 22.0427 142.715 22.3346C143.007 22.6266 143.445 22.6266 143.736 22.3346L146.802 19.2692C146.948 19.1233 147.021 18.9773 147.021 18.7583C147.021 18.5394 146.948 18.3934 146.802 18.2474L143.736 15.182C143.445 14.8901 143.007 14.8901 142.715 15.182Z" fill="white"/>
<path d="M20.63 18.7C20.63 17.464 20.906 16.36 21.458 15.388C22.022 14.404 22.784 13.642 23.744 13.102C24.716 12.55 25.802 12.274 27.002 12.274C28.406 12.274 29.636 12.634 30.692 13.354C31.748 14.074 32.486 15.07 32.906 16.342H30.008C29.72 15.742 29.312 15.292 28.784 14.992C28.268 14.692 27.668 14.542 26.984 14.542C26.252 14.542 25.598 14.716 25.022 15.064C24.458 15.4 24.014 15.88 23.69 16.504C23.378 17.128 23.222 17.86 23.222 18.7C23.222 19.528 23.378 20.26 23.69 20.896C24.014 21.52 24.458 22.006 25.022 22.354C25.598 22.69 26.252 22.858 26.984 22.858C27.668 22.858 28.268 22.708 28.784 22.408C29.312 22.096 29.72 21.64 30.008 21.04H32.906C32.486 22.324 31.748 23.326 30.692 24.046C29.648 24.754 28.418 25.108 27.002 25.108C25.802 25.108 24.716 24.838 23.744 24.298C22.784 23.746 22.022 22.984 21.458 22.012C20.906 21.04 20.63 19.936 20.63 18.7ZM34.4104 19.978C34.4104 18.97 34.6084 18.076 35.0044 17.296C35.4124 16.516 35.9584 15.916 36.6424 15.496C37.3384 15.076 38.1124 14.866 38.9644 14.866C39.7084 14.866 40.3564 15.016 40.9084 15.316C41.4724 15.616 41.9224 15.994 42.2584 16.45V15.028H44.7964V25H42.2584V23.542C41.9344 24.01 41.4844 24.4 40.9084 24.712C40.3444 25.012 39.6904 25.162 38.9464 25.162C38.1064 25.162 37.3384 24.946 36.6424 24.514C35.9584 24.082 35.4124 23.476 35.0044 22.696C34.6084 21.904 34.4104 20.998 34.4104 19.978ZM42.2584 20.014C42.2584 19.402 42.1384 18.88 41.8984 18.448C41.6584 18.004 41.3344 17.668 40.9264 17.44C40.5184 17.2 40.0804 17.08 39.6124 17.08C39.1444 17.08 38.7124 17.194 38.3164 17.422C37.9204 17.65 37.5964 17.986 37.3444 18.43C37.1044 18.862 36.9844 19.378 36.9844 19.978C36.9844 20.578 37.1044 21.106 37.3444 21.562C37.5964 22.006 37.9204 22.348 38.3164 22.588C38.7244 22.828 39.1564 22.948 39.6124 22.948C40.0804 22.948 40.5184 22.834 40.9264 22.606C41.3344 22.366 41.6584 22.03 41.8984 21.598C42.1384 21.154 42.2584 20.626 42.2584 20.014ZM49.7776 16.576C50.1016 16.048 50.5216 15.634 51.0376 15.334C51.5656 15.034 52.1656 14.884 52.8376 14.884V17.53H52.1716C51.3796 17.53 50.7796 17.716 50.3716 18.088C49.9756 18.46 49.7776 19.108 49.7776 20.032V25H47.2576V15.028H49.7776V16.576ZM63.805 19.798C63.805 20.158 63.781 20.482 63.733 20.77H56.443C56.503 21.49 56.755 22.054 57.199 22.462C57.643 22.87 58.189 23.074 58.837 23.074C59.773 23.074 60.439 22.672 60.835 21.868H63.553C63.265 22.828 62.713 23.62 61.897 24.244C61.081 24.856 60.079 25.162 58.891 25.162C57.931 25.162 57.067 24.952 56.299 24.532C55.543 24.1 54.949 23.494 54.517 22.714C54.097 21.934 53.887 21.034 53.887 20.014C53.887 18.982 54.097 18.076 54.517 17.296C54.937 16.516 55.525 15.916 56.281 15.496C57.037 15.076 57.907 14.866 58.891 14.866C59.839 14.866 60.685 15.07 61.429 15.478C62.185 15.886 62.767 16.468 63.175 17.224C63.595 17.968 63.805 18.826 63.805 19.798ZM61.195 19.078C61.183 18.43 60.949 17.914 60.493 17.53C60.037 17.134 59.479 16.936 58.819 16.936C58.195 16.936 57.667 17.128 57.235 17.512C56.815 17.884 56.557 18.406 56.461 19.078H61.195ZM74.9143 19.798C74.9143 20.158 74.8903 20.482 74.8423 20.77H67.5523C67.6123 21.49 67.8643 22.054 68.3083 22.462C68.7523 22.87 69.2983 23.074 69.9463 23.074C70.8823 23.074 71.5483 22.672 71.9443 21.868H74.6623C74.3743 22.828 73.8223 23.62 73.0063 24.244C72.1903 24.856 71.1883 25.162 70.0003 25.162C69.0403 25.162 68.1763 24.952 67.4083 24.532C66.6523 24.1 66.0583 23.494 65.6263 22.714C65.2063 21.934 64.9963 21.034 64.9963 20.014C64.9963 18.982 65.2063 18.076 65.6263 17.296C66.0463 16.516 66.6343 15.916 67.3903 15.496C68.1463 15.076 69.0163 14.866 70.0003 14.866C70.9483 14.866 71.7943 15.07 72.5383 15.478C73.2943 15.886 73.8763 16.468 74.2843 17.224C74.7043 17.968 74.9143 18.826 74.9143 19.798ZM72.3043 19.078C72.2923 18.43 72.0583 17.914 71.6023 17.53C71.1463 17.134 70.5883 16.936 69.9283 16.936C69.3043 16.936 68.7763 17.128 68.3443 17.512C67.9243 17.884 67.6663 18.406 67.5703 19.078H72.3043ZM79.2737 16.576C79.5977 16.048 80.0177 15.634 80.5337 15.334C81.0617 15.034 81.6617 14.884 82.3337 14.884V17.53H81.6677C80.8757 17.53 80.2757 17.716 79.8677 18.088C79.4717 18.46 79.2737 19.108 79.2737 20.032V25H76.7537V15.028H79.2737V16.576ZM97.4821 16.324C97.4821 16.996 97.3201 17.626 96.9961 18.214C96.6841 18.802 96.1861 19.276 95.5021 19.636C94.8301 19.996 93.9781 20.176 92.9461 20.176H90.8401V25H88.3201V12.436H92.9461C93.9181 12.436 94.7461 12.604 95.4301 12.94C96.1141 13.276 96.6241 13.738 96.9601 14.326C97.3081 14.914 97.4821 15.58 97.4821 16.324ZM92.8381 18.142C93.5341 18.142 94.0501 17.986 94.3861 17.674C94.7221 17.35 94.8901 16.9 94.8901 16.324C94.8901 15.1 94.2061 14.488 92.8381 14.488H90.8401V18.142H92.8381ZM103.699 25.162C102.739 25.162 101.875 24.952 101.107 24.532C100.339 24.1 99.7333 23.494 99.2893 22.714C98.8573 21.934 98.6413 21.034 98.6413 20.014C98.6413 18.994 98.8633 18.094 99.3073 17.314C99.7633 16.534 100.381 15.934 101.161 15.514C101.941 15.082 102.811 14.866 103.771 14.866C104.731 14.866 105.601 15.082 106.381 15.514C107.161 15.934 107.773 16.534 108.217 17.314C108.673 18.094 108.901 18.994 108.901 20.014C108.901 21.034 108.667 21.934 108.199 22.714C107.743 23.494 107.119 24.1 106.327 24.532C105.547 24.952 104.671 25.162 103.699 25.162ZM103.699 22.966C104.155 22.966 104.581 22.858 104.977 22.642C105.385 22.414 105.709 22.078 105.949 21.634C106.189 21.19 106.309 20.65 106.309 20.014C106.309 19.066 106.057 18.34 105.553 17.836C105.061 17.32 104.455 17.062 103.735 17.062C103.015 17.062 102.409 17.32 101.917 17.836C101.437 18.34 101.197 19.066 101.197 20.014C101.197 20.962 101.431 21.694 101.899 22.21C102.379 22.714 102.979 22.966 103.699 22.966ZM112.028 13.84C111.584 13.84 111.212 13.702 110.912 13.426C110.624 13.138 110.48 12.784 110.48 12.364C110.48 11.944 110.624 11.596 110.912 11.32C111.212 11.032 111.584 10.888 112.028 10.888C112.472 10.888 112.838 11.032 113.126 11.32C113.426 11.596 113.576 11.944 113.576 12.364C113.576 12.784 113.426 13.138 113.126 13.426C112.838 13.702 112.472 13.84 112.028 13.84ZM113.27 15.028V25H110.75V15.028H113.27ZM121.286 14.884C122.474 14.884 123.434 15.262 124.166 16.018C124.898 16.762 125.264 17.806 125.264 19.15V25H122.744V19.492C122.744 18.7 122.546 18.094 122.15 17.674C121.754 17.242 121.214 17.026 120.53 17.026C119.834 17.026 119.282 17.242 118.874 17.674C118.478 18.094 118.28 18.7 118.28 19.492V25H115.76V15.028H118.28V16.27C118.616 15.838 119.042 15.502 119.558 15.262C120.086 15.01 120.662 14.884 121.286 14.884ZM130.594 17.098V21.922C130.594 22.258 130.672 22.504 130.828 22.66C130.996 22.804 131.272 22.876 131.656 22.876H132.826V25H131.242C129.118 25 128.056 23.968 128.056 21.904V17.098H126.868V15.028H128.056V12.562H130.594V15.028H132.826V17.098H130.594Z" fill="white"/>
</svg>
