<svg width="59" height="334" viewBox="0 0 59 334" fill="none" xmlns="http://www.w3.org/2000/svg">
<path d="M59 334H20C8.95431 334 0 325.046 0 314L0 20C0 8.95432 8.95431 0 20 0H59L59 334Z" fill="#7694FF"/>
<path d="M30.275 216.075C28.575 216.075 27.05 215.683 25.7 214.9C24.35 214.1 23.3 213.025 22.55 211.675C21.7833 210.308 21.4 208.817 21.4 207.2C21.4 205.35 21.8583 203.708 22.775 202.275C23.675 200.825 24.9583 199.775 26.625 199.125V202.55C25.7083 203 25.025 203.625 24.575 204.425C24.125 205.225 23.9 206.15 23.9 207.2C23.9 208.35 24.1583 209.375 24.675 210.275C25.1917 211.175 25.9333 211.883 26.9 212.4C27.8667 212.9 28.9917 213.15 30.275 213.15C31.5583 213.15 32.6833 212.9 33.65 212.4C34.6167 211.883 35.3667 211.175 35.9 210.275C36.4167 209.375 36.675 208.35 36.675 207.2C36.675 206.15 36.45 205.225 36 204.425C35.55 203.625 34.8667 203 33.95 202.55V199.125C35.6167 199.775 36.9 200.825 37.8 202.275C38.7 203.708 39.15 205.35 39.15 207.2C39.15 208.833 38.775 210.325 38.025 211.675C37.2583 213.025 36.2 214.1 34.85 214.9C33.5 215.683 31.975 216.075 30.275 216.075ZM32.05 196.739C30.6667 196.739 29.4417 196.456 28.375 195.889C27.3083 195.306 26.4833 194.522 25.9 193.539C25.3 192.539 25 191.439 25 190.239C25 189.156 25.2167 188.214 25.65 187.414C26.0667 186.597 26.5917 185.947 27.225 185.464H25.225V182.589H39V185.464H36.95C37.6 185.947 38.1417 186.606 38.575 187.439C39.0083 188.272 39.225 189.222 39.225 190.289C39.225 191.472 38.925 192.556 38.325 193.539C37.7083 194.522 36.8583 195.306 35.775 195.889C34.675 196.456 33.4333 196.739 32.05 196.739ZM32.1 185.464C31.15 185.464 30.325 185.664 29.625 186.064C28.925 186.447 28.3917 186.956 28.025 187.589C27.6583 188.222 27.475 188.906 27.475 189.639C27.475 190.372 27.6583 191.056 28.025 191.689C28.375 192.322 28.9 192.839 29.6 193.239C30.2833 193.622 31.1 193.814 32.05 193.814C33 193.814 33.8333 193.622 34.55 193.239C35.2667 192.839 35.8167 192.322 36.2 191.689C36.5667 191.039 36.75 190.356 36.75 189.639C36.75 188.906 36.5667 188.222 36.2 187.589C35.8333 186.956 35.3 186.447 34.6 186.064C33.8833 185.664 33.05 185.464 32.1 185.464ZM27.225 175.996C26.525 175.579 25.9833 175.029 25.6 174.346C25.2 173.646 25 172.821 25 171.871H27.95V172.596C27.95 173.712 28.2333 174.562 28.8 175.146C29.3667 175.712 30.35 175.996 31.75 175.996H39V178.846H25.225L25.225 175.996H27.225ZM31.775 156.626C32.2917 156.626 32.7583 156.659 33.175 156.726V167.251C34.275 167.168 35.1583 166.759 35.825 166.026C36.4917 165.293 36.825 164.393 36.825 163.326C36.825 161.793 36.1833 160.709 34.9 160.076V157.001C36.1667 157.418 37.2083 158.176 38.025 159.276C38.825 160.359 39.225 161.709 39.225 163.326C39.225 164.643 38.9333 165.826 38.35 166.876C37.75 167.909 36.9167 168.726 35.85 169.326C34.7667 169.909 33.5167 170.201 32.1 170.201C30.6833 170.201 29.4417 169.918 28.375 169.351C27.2917 168.768 26.4583 167.959 25.875 166.926C25.2917 165.876 25 164.676 25 163.326C25 162.026 25.2833 160.868 25.85 159.851C26.4167 158.834 27.2167 158.043 28.25 157.476C29.2667 156.909 30.4417 156.626 31.775 156.626ZM30.875 159.601C29.825 159.618 28.9833 159.993 28.35 160.726C27.7167 161.459 27.4 162.368 27.4 163.451C27.4 164.434 27.7167 165.276 28.35 165.976C28.9667 166.676 29.8083 167.093 30.875 167.226V159.601ZM31.775 141.196C32.2917 141.196 32.7583 141.23 33.175 141.296V151.821C34.275 151.738 35.1583 151.33 35.825 150.596C36.4917 149.863 36.825 148.963 36.825 147.896C36.825 146.363 36.1833 145.28 34.9 144.646V141.571C36.1667 141.988 37.2083 142.746 38.025 143.846C38.825 144.93 39.225 146.28 39.225 147.896C39.225 149.213 38.9333 150.396 38.35 151.446C37.75 152.48 36.9167 153.296 35.85 153.896C34.7667 154.48 33.5167 154.771 32.1 154.771C30.6833 154.771 29.4417 154.488 28.375 153.921C27.2917 153.338 26.4583 152.53 25.875 151.496C25.2917 150.446 25 149.246 25 147.896C25 146.596 25.2833 145.438 25.85 144.421C26.4167 143.405 27.2167 142.613 28.25 142.046C29.2667 141.48 30.4417 141.196 31.775 141.196ZM30.875 144.171C29.825 144.188 28.9833 144.563 28.35 145.296C27.7167 146.03 27.4 146.938 27.4 148.021C27.4 149.005 27.7167 149.846 28.35 150.546C28.9667 151.246 29.8083 151.663 30.875 151.796V144.171ZM27.225 135.542C26.525 135.125 25.9833 134.575 25.6 133.892C25.2 133.192 25 132.367 25 131.417H27.95V132.142C27.95 133.258 28.2333 134.108 28.8 134.692C29.3667 135.258 30.35 135.542 31.75 135.542H39V138.392H25.225V135.542H27.225ZM26.8 110.153C27.6833 110.153 28.5167 110.361 29.3 110.778C30.0833 111.194 30.725 111.861 31.225 112.778C31.7083 113.694 31.95 114.869 31.95 116.303V119.453H39V122.303H21.625L21.625 116.303C21.625 114.969 21.8583 113.844 22.325 112.928C22.775 111.994 23.3917 111.303 24.175 110.853C24.9583 110.386 25.8333 110.153 26.8 110.153ZM29.625 116.303C29.625 115.219 29.3833 114.411 28.9 113.878C28.4 113.344 27.7 113.078 26.8 113.078C24.9 113.078 23.95 114.153 23.95 116.303L23.95 119.453H29.625V116.303ZM39.225 101.46C39.225 102.76 38.9333 103.935 38.35 104.985C37.75 106.035 36.9167 106.86 35.85 107.46C34.7667 108.06 33.5167 108.36 32.1 108.36C30.7 108.36 29.4583 108.051 28.375 107.435C27.2917 106.818 26.4583 105.976 25.875 104.91C25.2917 103.843 25 102.651 25 101.335C25 100.018 25.2917 98.8262 25.875 97.7596C26.4583 96.6929 27.2917 95.8512 28.375 95.2346C29.4583 94.6179 30.7 94.3096 32.1 94.3096C33.5 94.3096 34.7417 94.6262 35.825 95.2596C36.9083 95.8929 37.75 96.7596 38.35 97.8596C38.9333 98.9429 39.225 100.143 39.225 101.46ZM36.75 101.46C36.75 100.726 36.575 100.043 36.225 99.4096C35.875 98.7596 35.35 98.2346 34.65 97.8346C33.95 97.4346 33.1 97.2346 32.1 97.2346C31.1 97.2346 30.2583 97.4262 29.575 97.8096C28.875 98.1929 28.35 98.7012 28 99.3346C27.65 99.9679 27.475 100.651 27.475 101.385C27.475 102.118 27.65 102.801 28 103.435C28.35 104.051 28.875 104.543 29.575 104.91C30.2583 105.276 31.1 105.46 32.1 105.46C33.5833 105.46 34.7333 105.085 35.55 104.335C36.35 103.568 36.75 102.61 36.75 101.46ZM23.4 90.0422C23.4 90.5589 23.225 90.9922 22.875 91.3422C22.525 91.6922 22.0917 91.8672 21.575 91.8672C21.0583 91.8672 20.625 91.6922 20.275 91.3422C19.925 90.9922 19.75 90.5589 19.75 90.0422C19.75 89.5422 19.925 89.1172 20.275 88.7672C20.625 88.4172 21.0583 88.2422 21.575 88.2422C22.0917 88.2422 22.525 88.4172 22.875 88.7672C23.225 89.1172 23.4 89.5422 23.4 90.0422ZM25.225 88.6422H39V91.4922H25.225V88.6422ZM25 77.9504C25 76.8671 25.225 75.9004 25.675 75.0504C26.125 74.1837 26.7917 73.5087 27.675 73.0254C28.5583 72.5421 29.625 72.3004 30.875 72.3004H39V75.1254H31.3C30.0667 75.1254 29.125 75.4337 28.475 76.0504C27.8083 76.6671 27.475 77.5087 27.475 78.5754C27.475 79.6421 27.8083 80.4921 28.475 81.1254C29.125 81.7421 30.0667 82.0504 31.3 82.0504H39V84.9004H25.225V82.0504H26.8C26.2333 81.5837 25.7917 80.9921 25.475 80.2754C25.1583 79.5421 25 78.7671 25 77.9504ZM27.55 65.34H35.175C35.6917 65.34 36.0667 65.2234 36.3 64.99C36.5167 64.74 36.625 64.3234 36.625 63.74V61.99H39V64.24C39 65.5234 38.7 66.5067 38.1 67.19C37.5 67.8734 36.525 68.215 35.175 68.215H27.55V69.84H25.225V68.215H21.8V65.34H25.225V61.99H27.55V65.34Z" fill="white"/>
<circle cx="29.5" cy="271.5" r="15.5" transform="rotate(-90 29.5 271.5)" fill="white"/>
<path d="M26.8167 266.804C26.4333 267.188 26.4333 267.763 26.8167 268.146L30.1708 271.5L26.8167 274.854C26.4333 275.238 26.4333 275.813 26.8167 276.196C27.2 276.579 27.775 276.579 28.1583 276.196L32.1833 272.171C32.375 271.979 32.4708 271.788 32.4708 271.5C32.4708 271.213 32.375 271.021 32.1833 270.829L28.1583 266.804C27.775 266.421 27.2 266.421 26.8167 266.804Z" fill="#7694FF"/>
</svg>
