<svg width="31" height="31" viewBox="0 0 31 31" fill="none" xmlns="http://www.w3.org/2000/svg">
<circle cx="15.5" cy="15.5" r="15.5" fill="#7694FF"/>
<path d="M20.5891 14.2343H13.3343L16.4886 11.0896C16.6686 10.9096 16.7697 10.6655 16.7697 10.4109C16.7697 10.1564 16.6686 9.91226 16.4886 9.73227C16.3086 9.55229 16.0645 9.45117 15.8099 9.45117C15.5554 9.45117 15.3113 9.55229 15.1313 9.73227L10.3521 14.5114C10.2651 14.6023 10.1969 14.7095 10.1514 14.8269C10.0558 15.0596 10.0558 15.3206 10.1514 15.5533C10.1969 15.6706 10.2651 15.7778 10.3521 15.8687L15.1313 20.6479C15.2202 20.7375 15.3259 20.8086 15.4424 20.8571C15.5588 20.9056 15.6838 20.9306 15.8099 20.9306C15.9361 20.9306 16.0611 20.9056 16.1775 20.8571C16.294 20.8086 16.3997 20.7375 16.4886 20.6479C16.5782 20.559 16.6493 20.4533 16.6978 20.3368C16.7463 20.2204 16.7713 20.0954 16.7713 19.9693C16.7713 19.8431 16.7463 19.7181 16.6978 19.6017C16.6493 19.4852 16.5782 19.3795 16.4886 19.2906L13.3343 16.1459H20.5891C20.8426 16.1459 21.0857 16.0452 21.265 15.866C21.4442 15.6867 21.5449 15.4436 21.5449 15.1901C21.5449 14.9366 21.4442 14.6935 21.265 14.5142C21.0857 14.335 20.8426 14.2343 20.5891 14.2343Z" fill="white"/>
</svg>
