<svg width="220" height="195" viewBox="0 0 220 195" fill="none" xmlns="http://www.w3.org/2000/svg">
<mask id="mask0_887_2955" style="mask-type:alpha" maskUnits="userSpaceOnUse" x="0" y="0" width="220" height="195">
<rect width="220" height="195" fill="#C4C4C4"/>
</mask>
<g mask="url(#mask0_887_2955)">
<path d="M134.146 82.9669C97.8468 67.7732 75.77 -18.5224 29.2868 21.0618C-3.68505 49.1248 27.9335 132.024 72.9414 128.622C100.182 126.558 95.8089 125.438 121.176 143.678C146.883 162.162 174.128 173.306 196.587 149.245C208.209 136.8 209.467 102.995 194.565 83.5029C175.927 59.123 156.276 92.2487 134.146 82.9669Z" fill="#7694FF"/>
<path opacity="0.9" d="M134.146 82.9669C97.8468 67.7732 75.77 -18.5224 29.2868 21.0618C-3.68505 49.1248 27.9335 132.024 72.9414 128.622C100.182 126.558 95.8089 125.438 121.176 143.678C146.883 162.162 174.128 173.306 196.587 149.245C208.209 136.8 209.467 102.995 194.565 83.5029C175.927 59.123 156.276 92.2487 134.146 82.9669Z" fill="white"/>
<path d="M108.673 194.832C165.501 194.832 211.569 192.142 211.569 188.824C211.569 185.506 165.501 182.817 108.673 182.817C51.8451 182.817 5.7771 185.506 5.7771 188.824C5.7771 192.142 51.8451 194.832 108.673 194.832Z" fill="#F5F5F5"/>
<path d="M212.8 186.245H174.378L181.537 165.001H199.591L211.346 173.19L212.8 186.245Z" fill="#263238"/>
<path opacity="0.3" d="M212.8 186.245H174.378L181.537 165.001H199.591L211.346 173.19L212.8 186.245Z" fill="white"/>
<path opacity="0.2" d="M199.591 165.001L194.974 186.245H174.378L181.537 165.001H199.591Z" fill="white"/>
<path d="M193.072 177.401C194.429 173.078 192.998 168.779 189.877 167.8C186.757 166.821 183.127 169.532 181.77 173.855C180.414 178.178 181.844 182.477 184.965 183.456C188.086 184.435 191.716 181.724 193.072 177.401Z" fill="#263238"/>
<path opacity="0.2" d="M193.072 177.401C194.429 173.078 192.998 168.779 189.877 167.8C186.757 166.821 183.127 169.532 181.77 173.855C180.414 178.178 181.844 182.477 184.965 183.456C188.086 184.435 191.716 181.724 193.072 177.401Z" fill="white"/>
<path opacity="0.2" d="M186.717 180.773C188.611 181.367 190.819 179.712 191.641 177.09C192.464 174.468 191.599 171.852 189.699 171.252C187.799 170.653 185.602 172.314 184.774 174.93C183.946 177.546 184.822 180.173 186.717 180.773ZM185.215 175.073C185.931 172.781 187.868 171.359 189.513 171.863C191.158 172.367 191.923 174.659 191.206 176.952C190.49 179.245 188.553 180.667 186.908 180.168C185.263 179.669 184.493 177.366 185.215 175.073Z" fill="black"/>
<path opacity="0.2" d="M188.308 175.997C188.579 175.137 189.301 174.596 189.901 174.792C190.5 174.989 190.808 175.854 190.537 176.703C190.267 177.552 189.545 178.104 188.945 177.907C188.346 177.711 188.043 176.857 188.308 175.997Z" fill="black"/>
<path d="M4.54614 186.245H42.9682L35.8092 165.001H17.755L6.00024 173.19L4.54614 186.245Z" fill="#263238"/>
<path opacity="0.3" d="M4.54614 186.245H42.9682L35.8092 165.001H17.755L6.00024 173.19L4.54614 186.245Z" fill="white"/>
<path opacity="0.2" d="M17.7549 165.001L22.3772 186.245H42.968L35.809 165.001H17.7549Z" fill="white"/>
<path d="M32.3865 183.444C35.5074 182.465 36.9377 178.166 35.5812 173.843C34.2247 169.519 30.595 166.808 27.4741 167.788C24.3532 168.767 22.9229 173.065 24.2794 177.389C25.636 181.712 29.2656 184.423 32.3865 183.444Z" fill="#263238"/>
<path opacity="0.2" d="M32.3865 183.444C35.5074 182.465 36.9377 178.166 35.5812 173.843C34.2247 169.519 30.595 166.808 27.4741 167.788C24.3532 168.767 22.9229 173.065 24.2794 177.389C25.636 181.712 29.2656 184.423 32.3865 183.444Z" fill="white"/>
<path opacity="0.2" d="M32.5718 174.936C31.7439 172.309 29.5415 170.664 27.647 171.258C25.7524 171.853 24.8821 174.442 25.7046 177.096C26.5272 179.749 28.7349 181.373 30.6295 180.779C32.524 180.184 33.3944 177.552 32.5718 174.936ZM30.449 180.168C28.7933 180.699 26.8722 179.245 26.1504 176.952C25.4287 174.66 26.1929 172.383 27.8433 171.863C29.4938 171.343 31.4255 172.781 32.1419 175.074C32.8584 177.366 32.0942 179.675 30.4384 180.168H30.449Z" fill="black"/>
<path opacity="0.2" d="M29.0376 175.997C28.767 175.137 28.0452 174.596 27.4456 174.792C26.8459 174.989 26.5381 175.854 26.8087 176.703C27.0794 177.552 27.8011 178.104 28.4008 177.907C29.0005 177.711 29.303 176.857 29.0376 175.997Z" fill="black"/>
<path d="M189.991 129.535C187.74 129.535 184.96 129.084 182.656 127.349C179.584 125.025 178.029 120.981 178.034 115.26C178.034 106.71 174.096 98.4103 167.203 92.4825C159.773 86.1142 145.529 79.3161 119.854 83.2538C105.674 85.4243 97.2789 84.8194 92.6353 81.285C88.1881 77.9044 87.5142 72.2048 86.6544 64.9821C86.1237 60.259 85.4604 54.899 83.6083 49.279C81.9472 44.2215 78.0307 40.6075 71.9702 38.5484C67.1038 36.8926 60.8257 36.224 53.396 36.5636C45.0121 37.0474 36.6983 38.3756 28.5809 40.5279C28.5471 40.5377 28.5108 40.5337 28.48 40.5168C28.4491 40.4999 28.4262 40.4714 28.4164 40.4377C28.4107 40.4209 28.4086 40.4032 28.4102 40.3857C28.4117 40.3681 28.4169 40.351 28.4254 40.3356C28.4338 40.3201 28.4454 40.3066 28.4594 40.2958C28.4734 40.2851 28.4895 40.2774 28.5066 40.2731C36.643 38.1152 44.9764 36.7835 53.3801 36.2983C60.8735 35.9586 67.1781 36.6273 72.0551 38.2937C78.2058 40.3846 82.1754 44.0517 83.8683 49.1941C85.7257 54.8512 86.3626 60.2165 86.9251 64.9503C87.7742 72.1093 88.4429 77.7612 92.7998 81.078C97.385 84.5646 105.717 85.1537 119.817 82.9885C145.593 79.0401 159.906 85.8648 167.378 92.2809C174.33 98.2618 178.315 106.636 178.305 115.26C178.305 120.869 179.817 124.865 182.821 127.137C187.438 130.623 194.045 128.792 194.114 128.771C194.149 128.761 194.186 128.766 194.217 128.783C194.248 128.8 194.271 128.83 194.281 128.864C194.291 128.899 194.287 128.936 194.269 128.967C194.252 128.998 194.223 129.021 194.188 129.031C192.815 129.368 191.405 129.537 189.991 129.535Z" fill="#263238"/>
<path d="M188.489 133.224C186.239 133.224 183.458 132.779 181.16 131.038C178.082 128.714 176.527 124.67 176.532 118.949C176.532 110.399 172.595 102.099 165.701 96.1769C158.271 89.8086 144.027 83.0051 118.358 86.9429C104.178 89.1187 95.7823 88.5349 91.1334 84.9793C86.6915 81.5988 86.0123 75.8939 85.1578 68.6712C84.5953 63.948 83.9585 58.588 82.1117 52.968C80.4453 47.9105 76.5288 44.3018 70.4683 42.2374C65.6019 40.5817 59.3503 39.9183 51.8941 40.2527C39.1575 40.8311 27.2011 44.1851 27.079 44.2169C27.0452 44.2268 27.0089 44.2228 26.9781 44.2059C26.9472 44.189 26.9243 44.1605 26.9145 44.1267C26.9046 44.0929 26.9086 44.0566 26.9255 44.0258C26.9424 43.9949 26.9709 43.972 27.0047 43.9622C27.1268 43.9303 39.131 40.5711 51.8782 39.9873C59.3716 39.6477 65.6762 40.3216 70.5585 41.988C76.7039 44.0736 80.6788 47.746 82.3664 52.8884C84.2238 58.5403 84.8607 63.9056 85.4232 68.6393C86.2723 75.7984 86.9463 81.4555 91.2979 84.767C95.8831 88.2537 104.22 88.8427 118.321 86.6828C144.091 82.7292 158.409 89.5539 165.881 95.9752C172.833 101.951 176.814 110.304 176.803 118.949C176.803 124.558 178.321 128.554 181.324 130.826C185.936 134.312 192.549 132.481 192.612 132.466C192.646 132.456 192.682 132.46 192.713 132.477C192.744 132.494 192.767 132.522 192.777 132.556C192.787 132.59 192.783 132.626 192.766 132.657C192.749 132.688 192.72 132.71 192.687 132.72C191.314 133.061 189.903 133.231 188.489 133.224Z" fill="#263238"/>
<path d="M186.992 136.918C184.737 136.918 181.961 136.467 179.658 134.731C176.585 132.407 175.025 128.336 175.036 122.642C175.036 114.093 171.098 105.793 164.199 99.8648C156.769 93.4965 142.531 86.6983 116.856 90.636C102.676 92.8066 94.2805 92.2016 89.6369 88.6672C85.1898 85.2867 84.5158 79.5817 83.6561 72.3643C83.0935 67.6412 82.462 62.2812 80.6099 56.6612C78.9488 51.5984 75.0323 47.9897 68.9718 45.9253C64.1054 44.2696 57.8539 43.6062 50.3976 43.9458C42.0121 44.4306 33.6966 45.7587 25.5772 47.9101C25.5605 47.9148 25.5429 47.9161 25.5257 47.9138C25.5085 47.9115 25.4919 47.9057 25.477 47.8968C25.462 47.8878 25.4491 47.8759 25.439 47.8618C25.4288 47.8476 25.4217 47.8316 25.418 47.8146C25.4132 47.7982 25.4117 47.781 25.4137 47.7641C25.4156 47.7471 25.421 47.7307 25.4294 47.7159C25.4378 47.701 25.4491 47.688 25.4627 47.6776C25.4762 47.6672 25.4917 47.6596 25.5082 47.6554C33.6444 45.4963 41.9779 44.1646 50.3817 43.6805C57.8751 43.3355 64.1797 44.0095 69.0567 45.6759C75.2022 47.7668 79.177 51.4339 80.8699 56.5763C82.7273 62.2281 83.3642 67.5987 83.9267 72.3325C84.7758 79.4915 85.4445 85.1434 89.8015 88.4549C94.3866 91.9415 102.718 92.5359 116.819 90.3707C142.595 86.4224 156.907 93.247 164.379 99.6631C171.332 105.639 175.317 113.992 175.306 122.642C175.306 128.251 176.819 132.248 179.823 134.519C184.44 138.006 191.047 136.175 191.116 136.153C191.133 136.149 191.151 136.147 191.168 136.15C191.186 136.152 191.203 136.158 191.218 136.166C191.233 136.175 191.247 136.187 191.258 136.201C191.268 136.216 191.276 136.232 191.28 136.249C191.285 136.265 191.286 136.283 191.285 136.299C191.283 136.316 191.277 136.333 191.269 136.348C191.26 136.363 191.249 136.376 191.236 136.386C191.222 136.396 191.207 136.404 191.19 136.408C189.817 136.752 188.407 136.923 186.992 136.918Z" fill="#263238"/>
<path d="M185.49 140.606C183.24 140.606 180.459 140.16 178.161 138.42C175.083 136.095 173.528 132.051 173.534 126.331C173.534 117.781 169.596 109.481 162.702 103.559C155.273 97.1904 141.029 90.3869 115.354 94.3246C101.179 96.5005 92.7838 95.9167 88.1349 92.3611C83.693 88.9806 83.0137 83.2756 82.1593 76.0529C81.5968 71.3298 80.96 65.9698 79.1131 60.3498C77.4468 55.2923 73.5303 51.6783 67.4698 49.6192C62.6033 47.9634 56.3253 47.2948 48.8956 47.6344C40.512 48.1219 32.1986 49.4499 24.0805 51.5987C24.0637 51.6035 24.0462 51.6051 24.0289 51.6032C24.0116 51.6013 23.9948 51.596 23.9795 51.5876C23.9642 51.5793 23.9508 51.568 23.9399 51.5544C23.929 51.5408 23.9208 51.5252 23.916 51.5085C23.9111 51.4917 23.9095 51.4742 23.9114 51.4569C23.9133 51.4396 23.9186 51.4228 23.927 51.4075C23.9354 51.3922 23.9467 51.3788 23.9603 51.3678C23.9738 51.3569 23.9894 51.3488 24.0062 51.3439C24.1282 51.3121 36.1325 47.9528 48.8797 47.3691C56.3783 47.0294 62.6776 47.6981 67.56 49.3645C73.7054 51.4554 77.6803 55.1225 79.3679 60.2702C81.2253 65.922 81.8621 71.2873 82.4247 76.0211C83.2738 83.1801 83.9477 88.8373 88.2994 92.1488C92.8846 95.6354 101.222 96.2245 115.322 94.0646C141.093 90.1109 155.411 96.9356 162.877 103.357C169.835 109.333 173.815 117.686 173.804 126.331C173.804 131.94 175.317 135.936 178.326 138.207C182.938 141.694 189.55 139.863 189.614 139.847C189.647 139.837 189.684 139.841 189.715 139.858C189.745 139.875 189.768 139.904 189.778 139.938C189.783 139.954 189.785 139.972 189.783 139.989C189.781 140.006 189.776 140.023 189.767 140.038C189.759 140.054 189.747 140.067 189.734 140.078C189.72 140.089 189.705 140.097 189.688 140.102C188.315 140.443 186.905 140.613 185.49 140.606Z" fill="#263238"/>
<path d="M183.994 144.295C181.738 144.295 178.963 143.849 176.66 142.113C173.587 139.789 172.027 135.719 172.037 130.019C172.037 121.475 168.1 113.175 161.201 107.247C153.771 100.879 139.533 94.0806 113.858 98.0131C99.6776 100.189 91.2821 99.6051 86.6385 96.0495C82.1914 92.669 81.5174 86.9641 80.6577 79.7414C80.0951 75.0235 79.4636 69.6582 77.6115 64.0435C75.9504 58.9807 72.0339 55.372 65.9734 53.3076C61.1017 51.6519 54.8289 50.9885 47.3992 51.3282C39.0133 51.8099 30.6976 53.138 22.5788 55.2924C22.5621 55.2972 22.5446 55.2984 22.5273 55.2961C22.5101 55.2939 22.4935 55.288 22.4786 55.2791C22.4636 55.2701 22.4507 55.2582 22.4406 55.2441C22.4304 55.23 22.4233 55.2139 22.4196 55.1969C22.4147 55.1802 22.4132 55.1627 22.4151 55.1453C22.417 55.128 22.4223 55.1112 22.4307 55.096C22.439 55.0807 22.4503 55.0672 22.4639 55.0563C22.4775 55.0454 22.4931 55.0373 22.5098 55.0324C30.6471 52.8795 38.9801 51.5496 47.3833 51.0628C54.8767 50.7179 61.1813 51.3918 66.0583 53.0582C72.2038 55.1491 76.1786 58.8162 77.8715 63.9586C79.729 69.6105 80.3658 74.9758 80.9283 79.7148C81.7774 86.8739 82.4461 92.5257 86.8031 95.8372C91.3882 99.3239 99.7201 99.9182 113.821 97.753C139.596 93.8047 153.909 100.624 161.381 107.045C168.333 113.021 172.319 121.374 172.308 130.019C172.308 135.634 173.82 139.63 176.824 141.896C181.436 145.383 188.048 143.557 188.117 143.536C188.134 143.531 188.152 143.529 188.169 143.531C188.186 143.533 188.203 143.538 188.218 143.547C188.234 143.555 188.247 143.566 188.258 143.58C188.269 143.594 188.277 143.609 188.282 143.626C188.29 143.66 188.286 143.695 188.269 143.726C188.252 143.756 188.225 143.779 188.192 143.79C186.818 144.131 185.409 144.3 183.994 144.295Z" fill="#263238"/>
<g opacity="0.7">
<path opacity="0.7" d="M189.991 129.535C187.74 129.535 184.96 129.084 182.656 127.349C179.584 125.025 178.029 120.981 178.034 115.26C178.034 106.71 174.096 98.4103 167.203 92.4825C159.773 86.1142 145.529 79.3161 119.854 83.2538C105.674 85.4243 97.2789 84.8194 92.6353 81.285C88.1881 77.9044 87.5142 72.2048 86.6544 64.9821C86.1237 60.259 85.4604 54.899 83.6083 49.279C81.9472 44.2215 78.0307 40.6075 71.9702 38.5484C67.1038 36.8926 60.8257 36.224 53.396 36.5636C45.0121 37.0474 36.6983 38.3756 28.5809 40.5279C28.5471 40.5377 28.5108 40.5337 28.48 40.5168C28.4491 40.4999 28.4262 40.4714 28.4164 40.4377C28.4107 40.4209 28.4086 40.4032 28.4102 40.3857C28.4117 40.3681 28.4169 40.351 28.4254 40.3356C28.4338 40.3201 28.4454 40.3066 28.4594 40.2958C28.4734 40.2851 28.4895 40.2774 28.5066 40.2731C36.643 38.1152 44.9764 36.7835 53.3801 36.2983C60.8735 35.9586 67.1781 36.6273 72.0551 38.2937C78.2058 40.3846 82.1754 44.0517 83.8683 49.1941C85.7257 54.8512 86.3626 60.2165 86.9251 64.9503C87.7742 72.1093 88.4429 77.7612 92.7998 81.078C97.385 84.5646 105.717 85.1537 119.817 82.9885C145.593 79.0401 159.906 85.8648 167.378 92.2809C174.33 98.2618 178.315 106.636 178.305 115.26C178.305 120.869 179.817 124.865 182.821 127.137C187.438 130.623 194.045 128.792 194.114 128.771C194.149 128.761 194.186 128.766 194.217 128.783C194.248 128.8 194.271 128.83 194.281 128.864C194.291 128.899 194.287 128.936 194.269 128.967C194.252 128.998 194.223 129.021 194.188 129.031C192.815 129.368 191.405 129.537 189.991 129.535Z" fill="white"/>
<path opacity="0.7" d="M188.489 133.223C186.239 133.223 183.458 132.778 181.16 131.037C178.082 128.713 176.527 124.669 176.532 118.948C176.532 110.398 172.595 102.098 165.701 96.1759C158.271 89.8076 144.027 83.0042 118.358 86.9419C104.178 89.1177 95.7823 88.534 91.1334 84.9783C86.6915 81.5978 86.0123 75.8929 85.1578 68.6702C84.5953 63.947 83.9585 58.5871 82.1117 52.967C80.4453 47.9096 76.5288 44.3009 70.4683 42.2365C65.6019 40.5807 59.3503 39.9173 51.8941 40.2517C39.1575 40.8301 27.2011 44.1841 27.079 44.2159C27.0452 44.2258 27.0089 44.2218 26.9781 44.2049C26.9472 44.188 26.9243 44.1595 26.9145 44.1257C26.9046 44.0919 26.9086 44.0556 26.9255 44.0248C26.9424 43.9939 26.9709 43.9711 27.0047 43.9612C27.1268 43.9294 39.131 40.5701 51.8782 39.9863C59.3716 39.6467 65.6762 40.3207 70.5585 41.987C76.7039 44.0727 80.6788 47.745 82.3664 52.8874C84.2238 58.5393 84.8607 63.9046 85.4232 68.6384C86.2723 75.7974 86.9463 81.4545 91.2979 84.7661C95.8831 88.2527 104.22 88.8418 118.321 86.6819C144.091 82.7282 158.409 89.5529 165.881 95.9743C172.833 101.95 176.814 110.303 176.803 118.948C176.803 124.557 178.321 128.553 181.324 130.825C185.936 134.311 192.549 132.481 192.612 132.465C192.646 132.455 192.682 132.459 192.713 132.476C192.744 132.493 192.767 132.521 192.777 132.555C192.787 132.589 192.783 132.625 192.766 132.656C192.749 132.687 192.72 132.709 192.687 132.719C191.314 133.06 189.903 133.23 188.489 133.223Z" fill="white"/>
<path opacity="0.7" d="M186.992 136.917C184.737 136.917 181.961 136.466 179.658 134.731C176.585 132.406 175.025 128.336 175.036 122.642C175.036 114.092 171.098 105.792 164.199 99.8643C156.769 93.496 142.531 86.6978 116.856 90.6356C102.676 92.8061 94.2805 92.2011 89.6369 88.6667C85.1898 85.2862 84.5158 79.5812 83.6561 72.3638C83.0935 67.6407 82.462 62.2807 80.6099 56.6607C78.9488 51.5979 75.0323 47.9892 68.9718 45.9248C64.1054 44.2691 57.8539 43.6057 50.3976 43.9453C42.0121 44.4301 33.6966 45.7582 25.5772 47.9096C25.5605 47.9144 25.5429 47.9156 25.5257 47.9133C25.5085 47.911 25.4919 47.9052 25.477 47.8963C25.462 47.8873 25.4491 47.8754 25.439 47.8613C25.4288 47.8471 25.4217 47.8311 25.418 47.8141C25.4132 47.7977 25.4117 47.7805 25.4137 47.7636C25.4156 47.7466 25.421 47.7302 25.4294 47.7154C25.4378 47.7005 25.4491 47.6875 25.4627 47.6771C25.4762 47.6667 25.4917 47.6592 25.5082 47.6549C33.6444 45.4958 41.9779 44.1641 50.3817 43.68C57.8751 43.3351 64.1797 44.009 69.0567 45.6754C75.2022 47.7663 79.177 51.4334 80.8699 56.5758C82.7273 62.2276 83.3642 67.5982 83.9267 72.332C84.7758 79.491 85.4445 85.1429 89.8015 88.4544C94.3866 91.9411 102.718 92.5354 116.819 90.3702C142.595 86.4219 156.907 93.2465 164.379 99.6626C171.332 105.638 175.317 113.991 175.306 122.642C175.306 128.251 176.819 132.247 179.823 134.518C184.44 138.005 191.047 136.174 191.116 136.153C191.133 136.148 191.151 136.147 191.168 136.149C191.186 136.151 191.203 136.157 191.218 136.166C191.233 136.175 191.247 136.187 191.258 136.201C191.268 136.215 191.276 136.231 191.28 136.248C191.285 136.265 191.286 136.282 191.285 136.299C191.283 136.316 191.277 136.332 191.269 136.347C191.26 136.362 191.249 136.375 191.236 136.385C191.222 136.396 191.207 136.403 191.19 136.408C189.817 136.751 188.407 136.922 186.992 136.917Z" fill="white"/>
<path opacity="0.7" d="M185.49 140.606C183.24 140.606 180.459 140.16 178.162 138.419C175.084 136.095 173.529 132.051 173.534 126.33C173.534 117.781 169.596 109.481 162.703 103.558C155.273 97.1899 141.029 90.3864 115.354 94.3241C101.18 96.5 92.784 95.9162 88.1351 92.3606C83.6933 88.9801 83.014 83.2751 82.1596 76.0524C81.597 71.3293 80.9602 65.9693 79.1134 60.3493C77.447 55.2918 73.5305 51.6778 67.47 49.6187C62.6036 47.9629 56.3255 47.2943 48.8958 47.6339C40.5123 48.1214 32.1989 49.4494 24.0807 51.5982C24.064 51.6031 24.0465 51.6046 24.0291 51.6027C24.0118 51.6008 23.995 51.5955 23.9798 51.5871C23.9645 51.5788 23.951 51.5675 23.9401 51.5539C23.9292 51.5403 23.9211 51.5247 23.9162 51.508C23.9113 51.4912 23.9098 51.4737 23.9117 51.4564C23.9136 51.4391 23.9189 51.4223 23.9272 51.407C23.9356 51.3917 23.9469 51.3783 23.9605 51.3674C23.9741 51.3564 23.9897 51.3483 24.0064 51.3434C24.1285 51.3116 36.1327 47.9523 48.8799 47.3686C56.3786 47.0289 62.6779 47.6976 67.5602 49.364C73.7056 51.4549 77.6805 55.122 79.3681 60.2697C81.2255 65.9215 81.8624 71.2868 82.4249 76.0206C83.274 83.1796 83.948 88.8368 88.2997 92.1483C92.8848 95.6349 101.222 96.224 115.322 94.0641C141.093 90.1104 155.411 96.9351 162.878 103.356C169.835 109.332 173.815 117.685 173.805 126.33C173.805 131.94 175.317 135.936 178.326 138.207C182.938 141.694 189.55 139.863 189.614 139.847C189.648 139.837 189.684 139.841 189.715 139.858C189.746 139.875 189.769 139.903 189.778 139.937C189.783 139.954 189.785 139.971 189.783 139.989C189.781 140.006 189.776 140.023 189.767 140.038C189.759 140.053 189.748 140.067 189.734 140.078C189.721 140.089 189.705 140.097 189.688 140.102C188.315 140.443 186.905 140.612 185.49 140.606Z" fill="white"/>
<path opacity="0.7" d="M183.994 144.294C181.738 144.294 178.963 143.848 176.66 142.113C173.587 139.788 172.027 135.718 172.037 130.018C172.037 121.474 168.1 113.174 161.201 107.246C153.771 100.878 139.533 94.0797 113.858 98.0121C99.6776 100.188 91.2821 99.6042 86.6385 96.0485C82.1914 92.668 81.5174 86.9631 80.6577 79.7404C80.0951 75.0225 79.4636 69.6573 77.6115 64.0425C75.9504 58.9797 72.0339 55.3711 65.9734 53.3067C61.1017 51.6509 54.8289 50.9875 47.3992 51.3272C39.0133 51.8089 30.6976 53.1371 22.5788 55.2914C22.5621 55.2962 22.5446 55.2975 22.5273 55.2952C22.5101 55.2929 22.4935 55.2871 22.4786 55.2781C22.4636 55.2692 22.4507 55.2573 22.4406 55.2431C22.4304 55.229 22.4233 55.2129 22.4196 55.1959C22.4147 55.1792 22.4132 55.1617 22.4151 55.1444C22.417 55.127 22.4223 55.1103 22.4307 55.095C22.439 55.0797 22.4503 55.0662 22.4639 55.0553C22.4775 55.0444 22.4931 55.0363 22.5098 55.0314C30.6471 52.8785 38.9801 51.5486 47.3833 51.0618C54.8767 50.7169 61.1813 51.3909 66.0583 53.0572C72.2038 55.1482 76.1786 58.8152 77.8715 63.9576C79.729 69.6095 80.3658 74.9748 80.9283 79.7139C81.7774 86.8729 82.4461 92.5247 86.8031 95.8363C91.3882 99.3229 99.7201 99.9173 113.821 97.752C139.596 93.8037 153.909 100.623 161.381 107.044C168.333 113.02 172.319 121.373 172.308 130.018C172.308 135.633 173.82 139.629 176.824 141.895C181.436 145.382 188.048 143.556 188.117 143.535C188.134 143.53 188.152 143.528 188.169 143.53C188.186 143.532 188.203 143.537 188.218 143.546C188.234 143.554 188.247 143.565 188.258 143.579C188.269 143.593 188.277 143.608 188.282 143.625C188.29 143.659 188.286 143.694 188.269 143.725C188.252 143.755 188.225 143.779 188.192 143.79C186.818 144.13 185.409 144.299 183.994 144.294Z" fill="white"/>
</g>
<path d="M172.887 133.506C172.717 133.935 171.963 134.036 171.215 133.744C170.467 133.453 169.989 132.853 170.154 132.423C170.318 131.993 171.072 131.892 171.825 132.184C172.579 132.476 173.04 133.06 172.887 133.506Z" fill="#7694FF"/>
<path d="M175.588 142.729C175.412 143.159 174.664 143.259 173.911 142.968C173.157 142.676 172.69 142.076 172.849 141.646C173.008 141.216 173.767 141.115 174.521 141.407C175.274 141.699 175.757 142.299 175.588 142.729Z" fill="#7694FF"/>
<path d="M172.87 133.49L174.431 126.341L176.638 135.188L175.137 142.549L175.582 142.729L177.535 132.662L175.046 121.862L172.557 133.182L172.87 133.49Z" fill="#7694FF"/>
<path d="M86.9462 56.1196L83.7302 42.2261L80.6469 56.2416C80.3558 55.9148 79.9923 55.6603 79.5855 55.4987C78.6144 55.1166 77.6538 55.2545 77.4309 55.8065C77.208 56.3584 77.8183 57.1226 78.7895 57.51C79.7607 57.8974 80.7265 57.7541 80.9441 57.2022L82.9554 47.9947L85.7999 59.3886L84.0433 68.0124C83.7681 67.7481 83.4435 67.5407 83.0881 67.4021C82.1169 67.02 81.1511 67.1579 80.9335 67.7099C80.7159 68.2618 81.3209 69.026 82.2868 69.4081C83.2526 69.7902 84.2238 69.6575 84.4414 69.1056C84.4704 69.0329 84.4866 68.9556 84.4891 68.8774L86.9462 56.1196Z" fill="#7694FF"/>
<path d="M139.946 78.7803L128.701 80.903V93.9421C128.229 93.8832 127.749 93.9491 127.311 94.1332C126.345 94.5206 125.719 95.2795 125.957 95.8367C126.196 96.3939 127.141 96.5266 128.107 96.1392C129.073 95.7518 129.699 94.9929 129.465 94.441V86.8786L139.198 84.9097V91.8087C138.721 91.7419 138.235 91.8061 137.792 91.9945C136.821 92.3819 136.2 93.1408 136.433 93.698C136.667 94.2552 137.617 94.3879 138.588 94.0058C139.559 93.6237 140.18 92.8542 139.946 92.3023V78.7803ZM129.465 85.9711V84.6816L139.198 82.5588V84.0129L129.465 85.9711Z" fill="#7694FF"/>
<path d="M90.5974 79.7622L88.7294 95.8846C88.2723 95.6534 87.7581 95.5594 87.2488 95.614C86.1874 95.7042 85.4072 96.2561 85.4603 96.8505C85.5134 97.4448 86.3943 97.8535 87.4345 97.7686C88.4746 97.6837 89.276 97.1264 89.2229 96.5321L90.7513 83.684C90.7513 83.684 91.282 86.0084 92.1152 86.9C92.9484 87.7916 92.7786 89.4686 92.7786 89.4686C92.7786 89.4686 93.7338 86.4012 92.6034 85.3769C91.4731 84.3527 90.5974 79.7622 90.5974 79.7622Z" fill="#7694FF"/>
<path d="M176.527 99.5412C175.567 98.3578 175.392 93.7036 175.392 93.7036L171.104 109.359C170.689 109.057 170.194 108.886 169.681 108.865C168.62 108.796 167.765 109.221 167.723 109.815C167.681 110.41 168.498 110.951 169.538 111.02C170.578 111.089 171.454 110.665 171.496 110.07L174.951 97.6042C174.951 97.6042 175.121 99.9764 175.816 100.99C176.511 102.004 176.076 103.643 176.076 103.643C176.076 103.643 177.488 100.709 176.527 99.5412Z" fill="#7694FF"/>
<path d="M110.472 82.9359C109.549 82.1664 108.88 80.776 108.397 79.5978L108.301 77.8678C108.301 77.8678 109.23 80.155 110.228 81.0519C111.226 81.9488 111.326 83.5674 111.326 83.5674C111.326 83.5674 111.751 80.5424 110.445 79.5341C109.14 78.5258 107.458 73.999 107.458 73.999L108.392 89.8932C107.918 89.6653 107.391 89.5735 106.869 89.6279C105.844 89.7128 105.139 90.2541 105.276 90.8432C105.414 91.4322 106.38 91.8302 107.399 91.7453C108.418 91.6604 109.135 91.1138 108.991 90.5301L108.514 81.9541C108.924 82.8835 109.508 83.7263 110.233 84.4377C110.832 85.1608 111.215 86.0383 111.337 86.9691C111.337 86.9691 111.74 83.9919 110.472 82.9359Z" fill="#7694FF"/>
<path d="M154.493 90.6152L152.227 106.371C151.808 106.055 151.311 105.86 150.788 105.809C149.764 105.687 148.963 106.08 149 106.685C149.037 107.29 149.886 107.873 150.905 107.995C151.924 108.117 152.731 107.725 152.699 107.12L153.946 98.6287C154.162 99.6212 154.565 100.563 155.135 101.404C155.575 102.233 155.773 103.169 155.708 104.105C155.708 104.105 156.684 101.266 155.65 99.9766C154.896 99.0426 154.498 97.5355 154.291 96.2936L154.54 94.5742C154.54 94.5742 154.992 97.0048 155.793 98.0661C156.594 99.1275 156.371 100.773 156.371 100.773C156.371 100.773 157.39 97.891 156.313 96.6386C155.236 95.3862 154.493 90.6152 154.493 90.6152Z" fill="#7694FF"/>
<path d="M68.8708 31.2253C68.6479 30.2647 68.0111 29.7552 67.1779 29.8667C65.6442 30.063 64.7792 33.6558 63.6806 41.128C62.8196 41.9635 61.7926 42.609 60.6663 43.0225C57.5883 44.0839 55.9219 46.143 56.2085 48.4886C56.3892 49.6001 56.9406 50.6178 57.7731 51.3761C58.6056 52.1344 59.6702 52.5887 60.7937 52.6652C61.1945 52.6995 61.5975 52.6995 61.9984 52.6652C61.5844 55.1064 61.2448 56.7356 60.7353 57.3247C60.5985 57.4607 60.4221 57.55 60.2314 57.5795C60.0407 57.6091 59.8455 57.5775 59.6739 57.4892C59.5282 57.4363 59.3968 57.3504 59.2898 57.2382C59.1829 57.126 59.1035 56.9905 59.0577 56.8424C59.0119 56.6943 59.0011 56.5377 59.0261 56.3847C59.051 56.2317 59.1111 56.0866 59.2016 55.9608C59.2016 55.9608 60.0401 56.38 60.3585 55.0533C60.6769 53.7266 58.8832 53.5037 58.05 55.6371C56.9196 58.5612 60.3585 60.1585 61.9506 57.3459C62.4441 56.4809 62.7254 54.8835 63.1234 52.4847C65.7769 51.8108 67.4273 49.5606 67.6237 47.7987C67.8041 46.1801 66.8754 45.0445 65.2037 44.8322C64.8852 44.7911 64.5644 44.7698 64.2432 44.7685C64.3812 43.7761 64.5297 42.6988 64.689 41.5843C67.7564 38.448 69.4015 33.5019 68.8708 31.2253ZM67.3106 30.9175H67.4008C67.5388 30.9175 67.7245 30.9864 67.8413 31.4482C68.2074 33.0031 67.1779 36.7551 64.9702 39.6632C65.6283 35.2904 66.4668 31.082 67.2787 30.9175H67.3106ZM62.7148 47.9845C62.1841 47.7457 61.871 47.3317 61.9559 46.9231C62.0362 46.6922 62.1771 46.4872 62.3638 46.3294C62.5505 46.1716 62.7762 46.0669 63.0173 46.0262C62.8793 46.6471 62.7838 47.3105 62.6883 47.9845H62.7148ZM60.9104 46.6896C60.7035 47.7032 61.3774 48.6638 62.5609 49.0618C62.4335 49.9162 62.3062 50.7706 62.1735 51.5879C61.7467 51.6359 61.316 51.6359 60.8892 51.5879C60.0063 51.5343 59.1673 51.1845 58.5076 50.5952C57.848 50.0059 57.4063 49.2114 57.254 48.3401C57.0364 46.5251 58.4427 44.9012 61.0113 44.0043C61.8879 43.688 62.7097 43.2368 63.4471 42.667C63.3463 43.3675 63.2455 44.0998 63.1393 44.8587C61.7967 45.1453 61.059 45.883 60.9104 46.6896ZM65.0551 45.8989C66.5092 46.0793 66.6207 47.0982 66.5517 47.6926C66.4031 49.03 65.1825 50.6486 63.2932 51.3172C63.5321 49.7888 63.7868 47.9792 64.0787 45.8458C64.398 45.8371 64.7175 45.8548 65.0339 45.8989H65.0551Z" fill="#7694FF"/>
<g opacity="0.5">
<path opacity="0.5" d="M86.946 56.1205L83.73 42.2271L80.6467 56.2426C80.3555 55.9157 79.9921 55.6613 79.5853 55.4996C78.6141 55.1175 77.6536 55.2555 77.4307 55.8074C77.2078 56.3594 77.8181 57.1236 78.7893 57.511C79.7604 57.8984 80.7263 57.7551 80.9439 57.2032L82.9552 47.9957L85.7997 59.3896L84.0431 68.0133C83.7679 67.7491 83.4433 67.5417 83.0878 67.403C82.1167 67.0209 81.1508 67.1589 80.9332 67.7108C80.7157 68.2628 81.3206 69.027 82.2865 69.4091C83.2524 69.7911 84.2235 69.6585 84.4411 69.1066C84.4702 69.0338 84.4863 68.9566 84.4889 68.8784L86.946 56.1205Z" fill="white"/>
<path opacity="0.5" d="M139.946 78.7808L128.701 80.9035V93.9426C128.229 93.8837 127.749 93.9495 127.31 94.1337C126.345 94.5211 125.718 95.2799 125.957 95.8372C126.196 96.3944 127.141 96.5271 128.106 96.1397C129.072 95.7523 129.699 94.9934 129.465 94.4415V86.8791L139.198 84.9102V91.8092C138.721 91.7424 138.235 91.8066 137.792 91.995C136.82 92.3824 136.2 93.1413 136.433 93.6985C136.667 94.2557 137.616 94.3884 138.588 94.0063C139.559 93.6242 140.18 92.8547 139.946 92.3028V78.7808ZM129.465 85.9716V84.682L139.198 82.5593V84.0134L129.465 85.9716Z" fill="white"/>
<path opacity="0.5" d="M90.5969 79.7627L88.7289 95.8851C88.2718 95.6539 87.7576 95.5599 87.2483 95.6144C86.1869 95.7047 85.4068 96.2566 85.4598 96.851C85.5129 97.4453 86.3938 97.854 87.434 97.7691C88.4742 97.6841 89.2755 97.1269 89.2224 96.5325L90.7508 83.6845C90.7508 83.6845 91.2815 86.0089 92.1147 86.9005C92.9479 87.7921 92.7781 89.469 92.7781 89.469C92.7781 89.469 93.7333 86.4016 92.6029 85.3774C91.4726 84.3532 90.5969 79.7627 90.5969 79.7627Z" fill="white"/>
<path opacity="0.5" d="M176.527 99.5412C175.566 98.3578 175.391 93.7036 175.391 93.7036L171.103 109.359C170.688 109.057 170.193 108.886 169.681 108.865C168.619 108.796 167.765 109.221 167.723 109.815C167.68 110.41 168.497 110.951 169.538 111.02C170.578 111.089 171.453 110.665 171.496 110.07L174.951 97.6042C174.951 97.6042 175.12 99.9764 175.816 100.99C176.511 102.004 176.076 103.643 176.076 103.643C176.076 103.643 177.487 100.709 176.527 99.5412Z" fill="white"/>
<path opacity="0.5" d="M110.471 82.9364C109.548 82.1669 108.879 80.7764 108.396 79.5983L108.301 77.8683C108.301 77.8683 109.23 80.1555 110.227 81.0524C111.225 81.9493 111.326 83.5679 111.326 83.5679C111.326 83.5679 111.75 80.5429 110.445 79.5346C109.139 78.5263 107.457 73.9995 107.457 73.9995L108.391 89.8937C107.918 89.6658 107.391 89.5739 106.868 89.6284C105.844 89.7133 105.138 90.2546 105.276 90.8437C105.414 91.4327 106.38 91.8307 107.399 91.7458C108.418 91.6609 109.134 91.1143 108.991 90.5305L108.513 81.9546C108.924 82.884 109.507 83.7268 110.233 84.4382C110.831 85.1613 111.214 86.0387 111.337 86.9696C111.337 86.9696 111.74 83.9924 110.471 82.9364Z" fill="white"/>
<path opacity="0.5" d="M154.492 90.6152L152.226 106.371C151.808 106.055 151.31 105.86 150.788 105.809C149.764 105.687 148.963 106.08 149 106.685C149.037 107.29 149.886 107.873 150.905 107.995C151.924 108.117 152.731 107.725 152.699 107.12L153.946 98.6287C154.161 99.6212 154.565 100.563 155.135 101.404C155.574 102.233 155.773 103.169 155.708 104.105C155.708 104.105 156.684 101.266 155.649 99.9766C154.896 99.0426 154.498 97.5355 154.291 96.2936L154.54 94.5742C154.54 94.5742 154.991 97.0048 155.793 98.0661C156.594 99.1275 156.371 100.773 156.371 100.773C156.371 100.773 157.39 97.891 156.313 96.6386C155.235 95.3862 154.492 90.6152 154.492 90.6152Z" fill="white"/>
<path opacity="0.5" d="M68.8708 31.2253C68.6479 30.2647 68.0111 29.7552 67.1779 29.8667C65.6442 30.063 64.7792 33.6558 63.6806 41.128C62.8196 41.9635 61.7926 42.609 60.6663 43.0225C57.5883 44.0839 55.9219 46.143 56.2085 48.4886C56.3892 49.6001 56.9406 50.6178 57.7731 51.3761C58.6056 52.1344 59.6702 52.5887 60.7937 52.6652C61.1945 52.6995 61.5975 52.6995 61.9984 52.6652C61.5844 55.1064 61.2448 56.7356 60.7353 57.3247C60.5985 57.4607 60.4221 57.55 60.2314 57.5795C60.0407 57.6091 59.8455 57.5775 59.6739 57.4892C59.5282 57.4363 59.3968 57.3504 59.2898 57.2382C59.1829 57.126 59.1035 56.9905 59.0577 56.8424C59.0119 56.6943 59.0011 56.5377 59.0261 56.3847C59.051 56.2317 59.1111 56.0866 59.2016 55.9608C59.2016 55.9608 60.0401 56.38 60.3585 55.0533C60.6769 53.7266 58.8832 53.5037 58.05 55.6371C56.9196 58.5612 60.3585 60.1585 61.9506 57.3459C62.4441 56.4809 62.7254 54.8835 63.1234 52.4847C65.7769 51.8108 67.4273 49.5606 67.6237 47.7987C67.8041 46.1801 66.8754 45.0445 65.2037 44.8322C64.8852 44.7911 64.5644 44.7698 64.2432 44.7685C64.3812 43.7761 64.5297 42.6988 64.689 41.5843C67.7564 38.448 69.4015 33.5019 68.8708 31.2253ZM67.3106 30.9175H67.4008C67.5388 30.9175 67.7245 30.9864 67.8413 31.4482C68.2074 33.0031 67.1779 36.7551 64.9702 39.6632C65.6283 35.2904 66.4668 31.082 67.2787 30.9175H67.3106ZM62.7148 47.9845C62.1841 47.7457 61.871 47.3317 61.9559 46.9231C62.0362 46.6922 62.1771 46.4872 62.3638 46.3294C62.5505 46.1716 62.7762 46.0669 63.0173 46.0262C62.8793 46.6471 62.7838 47.3105 62.6883 47.9845H62.7148ZM60.9104 46.6896C60.7035 47.7032 61.3774 48.6638 62.5609 49.0618C62.4335 49.9162 62.3062 50.7706 62.1735 51.5879C61.7467 51.6359 61.316 51.6359 60.8892 51.5879C60.0063 51.5343 59.1673 51.1845 58.5076 50.5952C57.848 50.0059 57.4063 49.2114 57.254 48.3401C57.0364 46.5251 58.4427 44.9012 61.0113 44.0043C61.8879 43.688 62.7097 43.2368 63.4471 42.667C63.3463 43.3675 63.2455 44.0998 63.1393 44.8587C61.7967 45.1453 61.059 45.883 60.9104 46.6896ZM65.0551 45.8989C66.5092 46.0793 66.6207 47.0982 66.5517 47.6926C66.4031 49.03 65.1825 50.6486 63.2932 51.3172C63.5321 49.7888 63.7868 47.9792 64.0787 45.8458C64.398 45.8371 64.7175 45.8548 65.0339 45.8989H65.0551Z" fill="white"/>
</g>
<path d="M170.397 94.844C170.397 94.844 172.828 106.434 168.975 114.851C165.122 123.268 147.779 106.217 147.779 106.217L152.89 91.6333L170.397 94.844Z" fill="#263238"/>
<path d="M154.095 69.5721C154.095 69.5721 160.808 66.786 166.831 67.5502C172.854 68.3144 178.628 73.9981 178.628 73.9981C178.628 73.9981 175.497 93.5063 171.162 95.7246C166.826 97.9429 152.587 93.5434 152.587 93.5434C152.587 93.5434 147.859 84.6278 154.095 69.5721Z" fill="#7694FF"/>
<path opacity="0.7" d="M178.618 74.0041C178.618 74.0041 177.869 78.6635 176.596 83.6945C175.264 88.9483 173.364 94.5896 171.151 95.7252C170.281 96.108 169.342 96.3102 168.391 96.3196C162.601 96.638 152.561 93.5441 152.561 93.5441C152.561 93.5441 147.859 84.6285 154.089 69.5728C154.089 69.5728 160.808 66.7867 166.826 67.5455C172.844 68.3044 178.618 74.0041 178.618 74.0041Z" fill="white"/>
<path opacity="0.2" d="M176.601 83.6941C175.269 88.948 173.369 94.5892 171.156 95.7249C170.286 96.1077 169.347 96.3099 168.397 96.3193C167.079 94.7775 165.918 93.1081 164.931 91.3361L166.131 82.2347L172.785 84.6812C172.76 83.4374 173.144 82.2197 173.879 81.2158C174.956 81.8329 175.886 82.6789 176.601 83.6941Z" fill="black"/>
<path d="M155.761 69.1213C152.683 69.3973 149.393 76.0203 148.204 75.7178C147.015 75.4153 144.489 68.856 143.019 67.7946L142.488 65.7886L139.761 65.3057L139.702 68.6968C139.702 68.6968 138.731 70.3791 139.469 73.7596C140.206 77.1401 143.783 85.8434 149.616 86.5439C155.448 87.2444 159.853 73.4358 159.853 73.4358L155.761 69.1213Z" fill="#7694FF"/>
<path opacity="0.7" d="M155.761 69.1213C152.683 69.3973 149.393 76.0203 148.204 75.7178C147.015 75.4153 144.489 68.856 143.019 67.7946L142.488 65.7886L139.761 65.3057L139.702 68.6968C139.702 68.6968 138.731 70.3791 139.469 73.7596C140.206 77.1401 143.783 85.8434 149.616 86.5439C155.448 87.2444 159.853 73.4358 159.853 73.4358L155.761 69.1213Z" fill="white"/>
<path d="M138.264 181.071L134.666 179.76L136.645 171.083L140.249 172.389L138.264 181.071Z" fill="#E4897B"/>
<path d="M166.672 185.852H162.846L161.763 177H165.584L166.672 185.852Z" fill="#E4897B"/>
<path d="M162.347 185.412H167.006C167.082 185.412 167.156 185.438 167.216 185.485C167.275 185.532 167.318 185.598 167.335 185.672L168.121 189.068C168.144 189.149 168.149 189.234 168.133 189.317C168.117 189.4 168.082 189.477 168.03 189.544C167.978 189.61 167.911 189.663 167.834 189.699C167.758 189.734 167.674 189.751 167.59 189.747C166.094 189.721 164.995 189.636 163.106 189.636C161.944 189.636 158.441 189.753 156.838 189.753C155.236 189.753 155.007 188.161 155.665 188.023C158.606 187.38 160.813 186.494 161.747 185.645C161.913 185.498 162.125 185.415 162.347 185.412Z" fill="#263238"/>
<path d="M134.533 179.028L138.625 179.909C138.699 179.925 138.765 179.966 138.813 180.025C138.862 180.083 138.889 180.156 138.89 180.232L138.949 183.708C138.952 183.792 138.935 183.875 138.9 183.951C138.865 184.027 138.812 184.093 138.747 184.145C138.681 184.197 138.604 184.232 138.522 184.249C138.44 184.265 138.355 184.262 138.275 184.239C136.799 183.921 134.677 183.39 132.835 182.976C130.665 182.509 129.322 182.074 126.775 181.527C125.241 181.198 125.129 179.553 125.803 179.553C128.866 179.553 130.718 180.142 133.567 179.128C133.874 179.006 134.208 178.971 134.533 179.028Z" fill="#263238"/>
<path opacity="0.2" d="M136.646 171.083L135.627 175.557L139.225 176.868L140.249 172.394L136.646 171.083Z" fill="black"/>
<path opacity="0.2" d="M165.584 177H161.763L162.32 181.564H166.147L165.584 177Z" fill="black"/>
<path d="M134.565 174.235L140.668 176.448C140.668 176.448 145.445 155.475 147.96 143.843C149.089 139.241 150.476 134.707 152.115 130.262C154.429 123.729 157.194 116.703 159.423 111.21C161.774 105.426 163.525 101.345 163.525 101.345L150.343 98.6914C150.343 98.6914 140.26 127.641 138.02 139.082C135.669 150.964 134.565 174.235 134.565 174.235Z" fill="#263238"/>
<path opacity="0.2" d="M152.115 130.262C154.429 123.729 157.194 116.703 159.423 111.21L158.404 108.058C154.63 111.55 152.274 123.581 152.115 130.262Z" fill="black"/>
<path d="M157.454 100.114C157.454 100.114 155.103 133.128 154.96 144.342C154.8 156.622 160.548 180.683 160.548 180.683H167.548C167.548 180.683 164.751 158.973 165.685 146.804C166.746 133.197 170.397 102.757 170.397 102.757L157.454 100.114Z" fill="#263238"/>
<path d="M159.709 180.831H167.956L167.93 178.369L159.322 177.87L159.709 180.831Z" fill="#263238"/>
<path d="M133.753 174.161L141.055 176.692L141.852 174.336L133.865 171.428L133.753 174.161Z" fill="#263238"/>
<path d="M161.089 186.075C160.829 186.095 160.569 186.028 160.352 185.884C160.282 185.826 160.228 185.751 160.193 185.667C160.159 185.583 160.146 185.492 160.155 185.401C160.156 185.349 160.171 185.298 160.198 185.253C160.225 185.208 160.263 185.172 160.309 185.146C160.728 184.929 161.97 185.677 162.113 185.773C162.128 185.783 162.14 185.797 162.147 185.814C162.154 185.83 162.156 185.848 162.153 185.866C162.151 185.884 162.143 185.9 162.131 185.914C162.119 185.927 162.104 185.937 162.087 185.942C161.76 186.023 161.426 186.068 161.089 186.075ZM160.511 185.284C160.47 185.284 160.43 185.293 160.394 185.311C160.394 185.311 160.341 185.343 160.336 185.417C160.33 185.478 160.338 185.54 160.36 185.597C160.382 185.654 160.418 185.705 160.463 185.746C160.891 185.939 161.376 185.964 161.822 185.815C161.423 185.556 160.978 185.376 160.511 185.284Z" fill="#7694FF"/>
<path d="M162.066 185.942H162.023C161.625 185.725 160.85 184.881 160.93 184.462C160.942 184.396 160.977 184.337 161.029 184.294C161.08 184.251 161.145 184.228 161.211 184.228C161.28 184.219 161.351 184.225 161.417 184.245C161.484 184.265 161.546 184.299 161.599 184.345C162.05 184.706 162.129 185.809 162.129 185.857C162.129 185.873 162.126 185.888 162.118 185.902C162.111 185.916 162.1 185.928 162.087 185.937C162.08 185.94 162.073 185.941 162.066 185.942ZM161.28 184.393H161.238C161.121 184.393 161.11 184.462 161.105 184.488C161.063 184.737 161.556 185.369 161.949 185.671C161.918 185.235 161.757 184.817 161.487 184.472C161.43 184.422 161.357 184.393 161.28 184.393Z" fill="#7694FF"/>
<path d="M134.056 179.468C133.429 179.468 132.326 179.372 131.986 178.937C131.936 178.871 131.903 178.794 131.89 178.713C131.877 178.631 131.884 178.548 131.912 178.47C131.923 178.423 131.947 178.379 131.981 178.344C132.014 178.309 132.056 178.283 132.103 178.268C132.633 178.109 133.96 179.197 134.114 179.33C134.128 179.343 134.138 179.36 134.143 179.379C134.148 179.398 134.147 179.417 134.141 179.436C134.131 179.449 134.118 179.458 134.103 179.464C134.088 179.47 134.071 179.471 134.056 179.468ZM132.182 178.406H132.15C132.131 178.411 132.114 178.421 132.1 178.435C132.086 178.449 132.076 178.467 132.071 178.486C132.054 178.537 132.05 178.592 132.058 178.645C132.066 178.699 132.087 178.75 132.119 178.794C132.31 179.048 132.92 179.213 133.774 179.255C133.238 178.868 132.485 178.38 132.182 178.417V178.406Z" fill="#7694FF"/>
<path d="M134.056 179.468C134.035 179.474 134.013 179.474 133.992 179.468C133.583 179.17 132.851 178.167 133.005 177.764C133.042 177.668 133.138 177.557 133.387 177.584C133.478 177.594 133.565 177.622 133.644 177.667C133.723 177.712 133.793 177.772 133.849 177.844C134.107 178.322 134.207 178.87 134.135 179.409C134.134 179.425 134.129 179.439 134.119 179.452C134.11 179.464 134.097 179.473 134.082 179.478L134.056 179.468ZM133.276 177.743C133.196 177.743 133.18 177.791 133.175 177.806C133.085 178.051 133.562 178.815 133.966 179.192C134.012 178.756 133.923 178.317 133.711 177.934C133.626 177.829 133.505 177.761 133.371 177.743H133.276Z" fill="#7694FF"/>
<path d="M146.628 93.549C144.659 89.0222 151.499 81.704 146.314 80.0376C141.13 78.3712 140.933 71.8278 147.164 68.3624C153.394 64.897 158.871 68.4686 157.581 73.7542C156.291 79.0399 166.109 77.0392 168.938 81.0831C172.828 86.6447 169.193 93.0873 162.957 96.574C156.721 100.061 149.339 99.774 146.628 93.549Z" fill="#7694FF"/>
<path d="M154.318 84.6813L157.358 82.9831L135.505 45.373L133.679 46.392L154.318 84.6813Z" fill="#7694FF"/>
<path d="M153.638 87.4936C153.996 88.1358 154.537 88.6573 155.192 88.9919C155.847 89.3266 156.586 89.4594 157.316 89.3735C158.047 89.2876 158.735 88.9869 159.294 88.5095C159.854 88.0321 160.259 87.3995 160.458 86.6917C160.658 85.9839 160.643 85.2329 160.415 84.5337C160.187 83.8345 159.757 83.2186 159.179 82.7641C158.601 82.3095 157.901 82.0367 157.168 81.9802C156.435 81.9237 155.701 82.0861 155.061 82.4468C154.204 82.9288 153.574 83.7305 153.307 84.6765C153.04 85.6224 153.16 86.6354 153.638 87.4936Z" fill="#263238"/>
<path d="M157.725 93.0101L162.68 90.2363L162.187 89.3565L157.233 92.1302L157.725 93.0101Z" fill="#263238"/>
<path d="M131.243 42.8311L130.049 43.4997C130.049 43.4997 129.688 42.969 129.582 43.2344C129.476 43.4997 130.113 44.2162 130.113 44.2162L130.261 43.7385L131.381 43.1123L131.243 42.8311Z" fill="#7694FF"/>
<path d="M132.48 44.5767L131.28 45.2453C131.28 45.2453 130.919 44.7146 130.813 44.9747C130.707 45.2347 131.344 45.9565 131.344 45.9565L131.492 45.4788L132.612 44.8526L132.48 44.5767Z" fill="#7694FF"/>
<path d="M133.711 46.3179L132.511 47.0025C132.511 47.0025 132.156 46.4718 132.044 46.7318C131.933 46.9918 132.575 47.7136 132.575 47.7136L132.724 47.236L133.844 46.6097L133.711 46.3179Z" fill="#7694FF"/>
<path d="M133.743 41.4348L134.942 40.7608C134.942 40.7608 134.666 40.1718 134.942 40.2301C135.218 40.2885 135.473 41.2119 135.473 41.2119L134.984 41.0899L133.87 41.7161L133.743 41.4348Z" fill="#7694FF"/>
<path d="M134.586 43.3934L135.786 42.7247C135.786 42.7247 135.504 42.1356 135.786 42.194C136.067 42.2524 136.316 43.1758 136.316 43.1758L135.828 43.0537L134.708 43.6799L134.586 43.3934Z" fill="#7694FF"/>
<path d="M135.43 45.357L136.63 44.6883C136.63 44.6883 136.348 44.0939 136.63 44.1576C136.911 44.2213 137.16 45.1394 137.16 45.1394L136.672 45.0226L135.552 45.6488L135.43 45.357Z" fill="#7694FF"/>
<path d="M134.894 48.4984L136.667 47.506C136.837 47.4115 136.965 47.256 137.025 47.0709C137.085 46.8858 137.073 46.6848 136.99 46.5083L133.838 39.6996C133.793 39.6054 133.729 39.5213 133.651 39.4524C133.573 39.3834 133.481 39.331 133.382 39.2983C133.283 39.2656 133.178 39.2532 133.074 39.262C132.97 39.2708 132.869 39.3005 132.777 39.3493L129.996 40.9042C129.903 40.9565 129.822 41.0274 129.758 41.1124C129.693 41.1974 129.647 41.2947 129.623 41.3983C129.598 41.5019 129.594 41.6095 129.613 41.7145C129.631 41.8194 129.671 41.9193 129.73 42.0081L133.891 48.2543C133.998 48.4121 134.16 48.5244 134.346 48.5695C134.531 48.6146 134.726 48.5893 134.894 48.4984Z" fill="#7694FF"/>
<path d="M159.683 91.4316C159.666 91.4322 159.65 91.428 159.636 91.4196C159.622 91.4111 159.61 91.3987 159.603 91.3838L135.547 48.1378C135.54 48.1267 135.536 48.1144 135.534 48.1017C135.533 48.0889 135.534 48.076 135.537 48.0636C135.541 48.0512 135.547 48.0396 135.555 48.0296C135.563 48.0195 135.573 48.0112 135.584 48.0051C135.595 47.9987 135.607 47.9945 135.619 47.9929C135.631 47.9913 135.644 47.9923 135.656 47.9958C135.668 47.9993 135.679 48.0052 135.689 48.0132C135.698 48.0212 135.706 48.0311 135.711 48.0423L159.768 91.2883C159.774 91.2994 159.778 91.3117 159.78 91.3244C159.782 91.3372 159.781 91.3502 159.777 91.3626C159.774 91.3749 159.768 91.3865 159.76 91.3965C159.752 91.4066 159.742 91.4149 159.731 91.421C159.716 91.4302 159.699 91.434 159.683 91.4316Z" fill="white"/>
<path d="M159.147 91.7336C159.129 91.7346 159.112 91.7307 159.097 91.7222C159.082 91.7137 159.07 91.7011 159.062 91.6859L135.255 48.2966C135.248 48.2859 135.244 48.274 135.243 48.2616C135.241 48.2493 135.242 48.2367 135.246 48.2247C135.249 48.2128 135.255 48.2017 135.263 48.1921C135.271 48.1825 135.281 48.1747 135.292 48.1692C135.303 48.1628 135.315 48.1586 135.327 48.157C135.339 48.1554 135.352 48.1564 135.364 48.1599C135.376 48.1633 135.387 48.1693 135.397 48.1773C135.406 48.1853 135.414 48.1952 135.419 48.2063L159.232 91.5797C159.243 91.6024 159.246 91.6288 159.239 91.6534C159.232 91.678 159.216 91.6991 159.194 91.7124C159.181 91.7247 159.164 91.7321 159.147 91.7336Z" fill="white"/>
<path d="M158.605 92.0365C158.588 92.0364 158.572 92.0319 158.557 92.0236C158.542 92.0152 158.53 92.0033 158.521 91.9888L134.963 48.4721C134.957 48.461 134.952 48.4487 134.951 48.4359C134.949 48.4232 134.95 48.4102 134.953 48.3978C134.957 48.3854 134.963 48.3739 134.971 48.3638C134.979 48.3538 134.989 48.3455 135 48.3394C135.023 48.3283 135.049 48.3265 135.073 48.3345C135.097 48.3424 135.116 48.3595 135.128 48.3819L158.69 91.8985C158.697 91.9096 158.701 91.9219 158.703 91.9347C158.704 91.9474 158.704 91.9604 158.7 91.9728C158.697 91.9852 158.691 91.9967 158.683 92.0068C158.675 92.0168 158.665 92.0251 158.653 92.0312L158.605 92.0365Z" fill="white"/>
<path d="M160.224 91.1286C160.207 91.1284 160.191 91.124 160.176 91.1156C160.161 91.1073 160.148 91.0953 160.139 91.0808L135.85 47.9675C135.837 47.9449 135.834 47.9183 135.841 47.8934C135.848 47.8685 135.864 47.8474 135.887 47.8348C135.909 47.8221 135.936 47.8189 135.961 47.8259C135.986 47.8328 136.007 47.8494 136.019 47.8719L160.309 90.9853C160.316 90.9964 160.32 91.0086 160.322 91.0214C160.323 91.0342 160.322 91.0471 160.319 91.0595C160.315 91.0719 160.31 91.0835 160.301 91.0935C160.293 91.1036 160.283 91.1119 160.272 91.118C160.258 91.1264 160.241 91.1301 160.224 91.1286Z" fill="white"/>
<path d="M160.765 90.8266C160.748 90.8276 160.731 90.8237 160.716 90.8152C160.701 90.8067 160.688 90.7941 160.68 90.7789L136.141 47.7929C136.135 47.7818 136.13 47.7695 136.129 47.7567C136.127 47.744 136.128 47.731 136.131 47.7186C136.135 47.7062 136.141 47.6947 136.149 47.6846C136.157 47.6746 136.167 47.6663 136.178 47.6602C136.189 47.6537 136.202 47.6494 136.214 47.6478C136.227 47.6461 136.24 47.647 136.253 47.6505C136.265 47.654 136.277 47.6599 136.287 47.668C136.297 47.676 136.305 47.686 136.311 47.6973L160.845 90.6833C160.857 90.7054 160.861 90.7313 160.855 90.7559C160.849 90.7804 160.834 90.8019 160.813 90.816C160.799 90.8245 160.782 90.8282 160.765 90.8266Z" fill="white"/>
<path d="M161.301 90.519C161.285 90.518 161.27 90.5131 161.256 90.5048C161.242 90.4965 161.23 90.485 161.222 90.4712L136.433 47.6392C136.427 47.6285 136.423 47.6166 136.421 47.6042C136.419 47.5919 136.42 47.5793 136.424 47.5673C136.427 47.5554 136.433 47.5443 136.441 47.5347C136.449 47.5251 136.459 47.5173 136.47 47.5118C136.492 47.4998 136.517 47.4964 136.54 47.5024C136.564 47.5083 136.584 47.5231 136.598 47.5436L161.386 90.3863C161.393 90.397 161.397 90.4089 161.398 90.4213C161.4 90.4336 161.399 90.4462 161.396 90.4582C161.392 90.4701 161.386 90.4812 161.378 90.4908C161.37 90.5004 161.36 90.5082 161.349 90.5137C161.334 90.5207 161.317 90.5226 161.301 90.519Z" fill="white"/>
<path d="M159.799 81.4013L157.077 78.647L155.373 83.2481C155.373 83.2481 158.212 85.0736 159.338 83.662L159.799 81.4013Z" fill="#E4897B"/>
<path d="M153.925 78.2388L152.699 82.1075L155.379 83.2485L157.077 78.6474L153.925 78.2388Z" fill="#E4897B"/>
<path d="M172.292 58.3745C171.231 61.028 169.331 66.2394 171.549 69.121C169.862 70.2832 163.01 74.9215 163.01 74.9215C163.01 74.9215 161.36 68.0225 162.066 67.2317C165.25 67.1203 166.311 64.0476 166.2 61.7816L172.292 58.3745Z" fill="#E4897B"/>
<path opacity="0.2" d="M169.808 59.7651L166.205 61.7818C166.241 62.3124 166.231 62.8451 166.173 63.3738C167.378 63.4428 169.23 62.4876 169.585 61.2882C169.752 60.7983 169.827 60.2822 169.808 59.7651Z" fill="black"/>
<path d="M170.764 66.6377C170.764 66.6377 174.033 67.6725 173.693 71.9711L169.872 70.4215L162.74 75.9779L161.084 69.3761L157.863 69.7794C157.863 69.7794 158.956 66.5156 164.533 66.2344C163.674 66.7793 162.986 67.5556 162.549 68.4739C161.981 69.8484 163.01 74.9218 163.01 74.9218C163.01 74.9218 168.699 71.8968 170.764 66.6377Z" fill="#7694FF"/>
<path opacity="0.8" d="M170.764 66.6377C170.764 66.6377 174.033 67.6725 173.693 71.9711L169.872 70.4215L162.74 75.9779L161.084 69.3761L157.863 69.7794C157.863 69.7794 158.956 66.5156 164.533 66.2344C163.674 66.7793 162.986 67.5556 162.549 68.4739C161.981 69.8484 163.01 74.9218 163.01 74.9218C163.01 74.9218 168.699 71.8968 170.764 66.6377Z" fill="white"/>
<path d="M139.782 65.3055L138.784 61.5376L143.03 62.3389C143.03 62.3389 143.72 65.7566 141.969 66.0538L139.782 65.3055Z" fill="#E4897B"/>
<path d="M139.878 57.8389L143.295 59.7706L143.03 62.3391L138.784 61.5378L139.878 57.8389Z" fill="#E4897B"/>
<path d="M178.618 73.998C182.863 77.7713 183.601 96.9345 176.346 97.4652C171.04 97.8473 160.877 87.5997 160.765 85.323L158.988 84.2616L159.8 81.4118L161.832 82.5103C161.832 82.5103 163.18 81.9796 164.061 82.245C164.942 82.5103 172.913 85.9598 173.666 85.9068C174.42 85.8537 173.826 80.7538 173.826 80.7538L178.618 73.998Z" fill="#7694FF"/>
<path opacity="0.7" d="M178.618 73.998C182.863 77.7713 183.601 96.9345 176.346 97.4652C171.04 97.8473 160.877 87.5997 160.765 85.323L158.988 84.2616L159.8 81.4118L161.832 82.5103C161.832 82.5103 163.18 81.9796 164.061 82.245C164.942 82.5103 172.913 85.9598 173.666 85.9068C174.42 85.8537 173.826 80.7538 173.826 80.7538L178.618 73.998Z" fill="white"/>
<path opacity="0.2" d="M159.709 180.831H167.956L167.93 178.369L159.322 177.87L159.709 180.831Z" fill="white"/>
<path opacity="0.2" d="M133.753 174.161L141.055 176.692L141.852 174.336L133.865 171.428L133.753 174.161Z" fill="white"/>
<path d="M165.335 48.8328C164.273 49.9684 163.244 52.8183 165.526 52.7917C167.808 52.7652 167.128 46.8745 165.335 48.8328Z" fill="#263238"/>
<path d="M174.107 55.1166C172.711 58.6404 172.075 60.7738 169.66 62.0156C166.025 63.873 162.129 60.7313 162.443 56.8519C162.724 53.36 164.958 48.1805 168.938 47.9363C169.82 47.8815 170.702 48.0512 171.5 48.4295C172.299 48.8078 172.988 49.3824 173.505 50.0996C174.021 50.8167 174.347 51.6531 174.452 52.5305C174.558 53.4078 174.439 54.2976 174.107 55.1166Z" fill="#E4897B"/>
<path d="M166.3 50.2176C163.934 49.0394 163.191 45.7385 167.107 44.9107C168.017 44.755 168.946 44.755 169.856 44.9107C169.856 44.9107 168.837 45.5422 169.187 46.5027C169.777 45.9309 170.536 45.5647 171.35 45.4585C172.165 45.3524 172.992 45.512 173.709 45.9137C172.971 46.4868 172.812 48.2859 174.165 48.323C176.224 48.3814 178.612 49.8726 177.418 51.937C179.154 54.1075 176.453 57.1219 172.616 57.435C171.554 55.3122 173.258 52.213 173.258 52.213C171.331 52.1387 168.444 51.2896 166.3 50.2176Z" fill="#263238"/>
<path d="M176.845 51.98C176.845 51.98 178.597 51.7306 178.002 50.0854C179.313 51.184 178.352 52.1923 176.845 51.98Z" fill="#263238"/>
<path d="M176.485 52.2505C176.485 52.2505 178.183 51.7517 178.316 53.4976C179.058 51.9639 177.774 51.4332 176.485 52.2505Z" fill="#263238"/>
<path d="M174.516 58.5658C174.241 58.9481 173.892 59.2713 173.49 59.5165C173.088 59.7617 172.641 59.9239 172.175 59.9934C170.933 60.1791 170.456 59.0169 170.928 57.9184C171.353 56.926 172.52 55.6417 173.704 55.9601C173.963 56.0362 174.199 56.1751 174.391 56.3645C174.584 56.5539 174.727 56.7878 174.807 57.0456C174.887 57.3034 174.903 57.5771 174.852 57.8423C174.801 58.1075 174.686 58.356 174.516 58.5658Z" fill="#E4897B"/>
<path d="M168.328 54.283C168.232 54.5749 168.004 54.7606 167.797 54.6969C167.59 54.6333 167.526 54.3414 167.622 54.0495C167.717 53.7576 167.951 53.5719 168.152 53.6356C168.354 53.6992 168.423 53.9911 168.328 54.283Z" fill="#263238"/>
<path d="M165.027 53.1683C164.932 53.4601 164.698 53.6459 164.496 53.5822C164.295 53.5185 164.226 53.2266 164.321 52.9347C164.417 52.6429 164.65 52.4571 164.852 52.5208C165.054 52.5845 165.123 52.8764 165.027 53.1683Z" fill="#263238"/>
<path d="M166.03 53.6675C165.386 54.4144 164.641 55.0681 163.817 55.6098C163.975 55.8116 164.174 55.9782 164.401 56.0988C164.627 56.2194 164.877 56.2914 165.133 56.3103L166.03 53.6675Z" fill="#DE5753"/>
<path d="M166.332 57.9604C166.21 57.9339 166.078 57.9021 165.945 57.8596C165.933 57.8558 165.923 57.8497 165.914 57.8418C165.905 57.8338 165.897 57.8242 165.892 57.8133C165.886 57.8025 165.883 57.7907 165.882 57.7786C165.881 57.7665 165.883 57.7544 165.887 57.7429C165.89 57.7314 165.896 57.7207 165.904 57.7116C165.912 57.7024 165.922 57.6949 165.933 57.6895C165.944 57.6841 165.956 57.6808 165.968 57.68C165.98 57.6791 165.992 57.6807 166.003 57.6845C166.362 57.8165 166.747 57.8608 167.127 57.8137C167.506 57.7666 167.869 57.6295 168.184 57.4138C168.203 57.3984 168.228 57.3911 168.252 57.3935C168.277 57.396 168.299 57.4081 168.314 57.4271C168.33 57.4461 168.337 57.4705 168.335 57.4949C168.332 57.5192 168.32 57.5416 168.301 57.5571C168.018 57.7546 167.697 57.8923 167.358 57.9616C167.02 58.031 166.671 58.0306 166.332 57.9604Z" fill="#263238"/>
<path d="M169.702 53.5559C169.671 53.5508 169.641 53.5373 169.617 53.5167C169.593 53.4961 169.574 53.4693 169.564 53.4391C169.498 53.2207 169.38 53.0212 169.222 52.857C169.063 52.6928 168.868 52.5685 168.651 52.4945C168.605 52.4809 168.566 52.4503 168.542 52.409C168.517 52.3677 168.509 52.3186 168.519 52.2716C168.531 52.2248 168.562 52.1847 168.603 52.1599C168.645 52.1351 168.695 52.1276 168.742 52.1389C169.015 52.2308 169.263 52.3859 169.465 52.5915C169.666 52.7971 169.817 53.0476 169.904 53.3224C169.912 53.3446 169.916 53.3684 169.915 53.3921C169.914 53.4158 169.908 53.4391 169.897 53.4604C169.887 53.4818 169.872 53.5008 169.854 53.5163C169.836 53.5318 169.815 53.5434 169.792 53.5506C169.764 53.5629 169.732 53.5647 169.702 53.5559Z" fill="#263238"/>
<path d="M163.971 51.5504C163.937 51.5441 163.905 51.5274 163.881 51.5026C163.847 51.4688 163.828 51.423 163.828 51.3753C163.828 51.3275 163.847 51.2817 163.881 51.2479C164.076 51.0376 164.318 50.8773 164.588 50.7803C164.857 50.6833 165.146 50.6526 165.43 50.6907C165.477 50.7021 165.518 50.7309 165.545 50.7712C165.571 50.8116 165.582 50.8606 165.574 50.9082C165.563 50.9548 165.536 50.9957 165.496 51.0223C165.457 51.049 165.408 51.0595 165.361 51.0515C165.137 51.02 164.907 51.0448 164.694 51.1235C164.481 51.2022 164.291 51.3325 164.141 51.5026C164.119 51.524 164.092 51.5396 164.062 51.5479C164.032 51.5563 164.001 51.5571 163.971 51.5504Z" fill="#263238"/>
<path d="M90.6717 101.664C88.9045 101.727 82.1806 101.271 81.0662 101.377C82.1275 99.3074 87.3389 95.7253 90.2259 97.052C91.2873 97.5137 91.3032 100.454 90.6717 101.664Z" fill="#7694FF"/>
<path opacity="0.4" d="M90.6717 101.663C88.9045 101.727 82.1806 101.271 81.0662 101.377C82.1275 99.3072 87.4345 95.7197 90.2259 97.0518C91.2767 97.5294 91.3032 100.454 90.6717 101.663Z" fill="black"/>
<path d="M40.6167 132.099C41.0129 133.345 41.2535 134.635 41.3332 135.941C39.6456 136.551 38.5523 136.657 38.287 136.1C37.1513 133.712 39.0353 133.425 40.6167 132.099Z" fill="#7694FF"/>
<path opacity="0.4" d="M40.6167 132.099C41.0129 133.345 41.2535 134.635 41.3332 135.941C39.6456 136.551 38.5523 136.657 38.287 136.1C37.1513 133.712 39.0353 133.425 40.6167 132.099Z" fill="black"/>
<path d="M74.178 131.096C74.178 131.096 99.8688 103.362 96.9977 101.319C94.1267 99.2754 91.33 110.292 88.7243 109.682C86.1186 109.072 90.9797 101.26 88.3368 101.191C85.694 101.122 85.2748 110.775 81.3848 110.823C77.4948 110.871 81.5865 104.986 77.7814 105.15C73.9763 105.315 80.0422 110.781 76.6192 113.551C73.1962 116.321 75.9824 104.126 71.5776 105.702C67.1729 107.278 74.9953 113.487 71.0469 116.316C67.0986 119.144 68.8021 108.923 64.4504 110.828C60.0988 112.734 70.2562 116.305 66.154 119.638C62.0517 122.971 60.9267 110.935 55.6569 114.862C50.3871 118.789 64.599 119.744 60.12 123.883C55.641 128.023 54.5637 115.668 50.4402 120.492C46.3167 125.316 58.4006 126.404 55.7153 128.983C53.03 131.563 47.5957 121.617 44.99 127.848C42.3843 134.078 53.2794 127.848 51.1089 132.757C48.9383 137.666 43.3979 131.589 41.8059 135.378C40.2138 139.167 49.7291 133.484 48.6358 138.446C47.5426 143.408 39.6141 140.038 37.4383 143.349C35.2624 146.661 51.6714 149.702 74.178 131.096Z" fill="#7694FF"/>
<path opacity="0.5" d="M74.178 131.096C74.178 131.096 99.8688 103.362 96.9977 101.319C94.1267 99.2754 91.33 110.292 88.7243 109.682C86.1186 109.072 90.9797 101.26 88.3368 101.191C85.694 101.122 85.2748 110.775 81.3848 110.823C77.4948 110.871 81.5865 104.986 77.7814 105.15C73.9763 105.315 80.0422 110.781 76.6192 113.551C73.1962 116.321 75.9824 104.126 71.5776 105.702C67.1729 107.278 74.9953 113.487 71.0469 116.316C67.0986 119.144 68.8021 108.923 64.4504 110.828C60.0988 112.734 70.2562 116.305 66.154 119.638C62.0517 122.971 60.9267 110.935 55.6569 114.862C50.3871 118.789 64.599 119.744 60.12 123.883C55.641 128.023 54.5637 115.668 50.4402 120.492C46.3167 125.316 58.4006 126.404 55.7153 128.983C53.03 131.563 47.5957 121.617 44.99 127.848C42.3843 134.078 53.2794 127.848 51.1089 132.757C48.9383 137.666 43.3979 131.589 41.8059 135.378C40.2138 139.167 49.7291 133.484 48.6358 138.446C47.5426 143.408 39.6141 140.038 37.4383 143.349C35.2624 146.661 51.6714 149.702 74.178 131.096Z" fill="black"/>
<path d="M109.66 99.6204C109.32 99.4986 108.955 99.4622 108.598 99.5143C103.509 99.4772 97.2628 105.692 91.9665 103.505C86.2934 101.165 65.6336 102.486 53.1146 111.72C40.5956 120.954 44.9897 138.738 41.6676 143.923C38.3454 149.107 34.8323 150.662 34.8323 150.662L35.0976 150.753C34.9809 151.559 37.4963 153.316 44.2786 156.203C56.6914 161.51 102.586 131.446 110.695 107.188C110.695 107.188 114.123 100.979 109.66 99.6204Z" fill="#7694FF"/>
<path opacity="0.4" d="M109.66 99.6204C109.32 99.4986 108.955 99.4622 108.598 99.5143C103.509 99.4772 97.2628 105.692 91.9665 103.505C86.2934 101.165 65.6336 102.486 53.1146 111.72C40.5956 120.954 44.9897 138.738 41.6676 143.923C38.3454 149.107 34.8323 150.662 34.8323 150.662L35.0976 150.753C34.9809 151.559 37.4963 153.316 44.2786 156.203C56.6914 161.51 102.586 131.446 110.695 107.188C110.695 107.188 114.123 100.979 109.66 99.6204Z" fill="black"/>
<path d="M124.731 104.195C122.168 103.022 113.168 104.795 113.168 104.795C113.168 104.795 97.8572 122.403 101.381 128.087C104.905 133.77 124.731 104.195 124.731 104.195Z" fill="#7694FF"/>
<path d="M120.252 94.0003C122.906 95.5234 117.599 104.083 119.037 106.206C120.475 108.329 123.283 102.284 124.731 104.195C126.18 106.105 117.254 112.882 117.694 115.992C118.135 119.102 123.866 116.735 121.144 120.938C118.422 125.141 110.795 127.413 111.162 130.029C111.528 132.645 110.1 134.274 106.072 136.185C102.044 138.095 97.0506 140.993 98.2128 143.195C99.375 145.398 91.8445 150.795 87.9545 151.156C84.0646 151.517 82.0798 152.403 81.4005 156.648C80.7212 160.894 77.8183 163.547 73.3977 163.409C68.977 163.271 66.2546 162.942 64.4555 165.935C62.6565 168.929 61.3192 169.534 59.4087 168.207C57.4982 166.88 53.8629 168.525 50.8274 170.223C47.7918 171.922 43.0528 170.945 41.9224 168.716C40.792 166.487 35.6549 168.753 33.7232 168.515C31.7915 168.276 29.1221 166.551 30.9318 164.55C32.7414 162.55 36.6739 160.883 36.6739 160.883C36.6739 160.883 31.6164 155.125 34.8536 154.473C38.0908 153.82 96.6101 124.754 101.779 115.817C106.948 106.88 118.077 92.7478 120.252 94.0003Z" fill="#7694FF"/>
<path opacity="0.5" d="M120.252 94.0003C122.906 95.5234 117.599 104.083 119.037 106.206C120.475 108.329 123.283 102.284 124.731 104.195C126.18 106.105 117.254 112.882 117.694 115.992C118.135 119.102 123.866 116.735 121.144 120.938C118.422 125.141 110.795 127.413 111.162 130.029C111.528 132.645 110.1 134.274 106.072 136.185C102.044 138.095 97.0506 140.993 98.2128 143.195C99.375 145.398 91.8445 150.795 87.9545 151.156C84.0646 151.517 82.0798 152.403 81.4005 156.648C80.7212 160.894 77.8183 163.547 73.3977 163.409C68.977 163.271 66.2546 162.942 64.4555 165.935C62.6565 168.929 61.3192 169.534 59.4087 168.207C57.4982 166.88 53.8629 168.525 50.8274 170.223C47.7918 171.922 43.0528 170.945 41.9224 168.716C40.792 166.487 35.6549 168.753 33.7232 168.515C31.7915 168.276 29.1221 166.551 30.9318 164.55C32.7414 162.55 36.6739 160.883 36.6739 160.883C36.6739 160.883 31.6164 155.125 34.8536 154.473C38.0908 153.82 96.6101 124.754 101.779 115.817C106.948 106.88 118.077 92.7478 120.252 94.0003Z" fill="black"/>
<path d="M48.9963 111.624C48.9963 111.624 72.2778 132.077 76.0616 131.164C89.1219 129.572 108.816 125.598 116.548 125.55C117.694 125.433 116.973 123.103 116.458 122.567C116.458 122.567 95.3575 117.356 74.7189 122.758C70.2824 111.497 57.5033 102.252 57.5033 102.252L48.9963 111.624Z" fill="#FFB573"/>
<path d="M40.8027 146.799C43.2811 159.657 45.9451 177.292 45.2871 184.801C46.0035 185.221 47.3355 185.268 48.7843 184.801C48.7843 184.801 53.4809 161.403 50.1057 146.777L40.8027 146.799Z" fill="#FFB573"/>
<path d="M120.252 94.0004C115.407 93.9102 118.931 109.826 116.638 112.299C114.346 114.772 113.396 107.65 110.62 107.947C107.845 108.244 108.965 120.227 106.375 121.575C103.785 122.923 103.318 117.51 100.946 118.226C98.5737 118.943 101.604 126.999 98.5524 129.403C95.5009 131.807 95.225 124.282 91.2926 126.548C87.3601 128.814 88.7559 130.623 88.8938 134.152C89.0318 137.682 87.0895 141.051 84.4042 138.828C81.7189 136.604 80.4718 131.584 78.5666 136.509C76.6614 141.434 79.1557 144.469 76.412 143.827C73.6683 143.185 70.5744 133.776 69.5608 139.693C68.5471 145.61 70.5479 150.572 66.4085 150.142C62.2691 149.712 64.2857 146.088 62.1258 146.056C59.9659 146.024 57.3071 151.655 58.8037 154.165C60.3002 156.675 54.3618 159.657 52.1647 156.755C49.9677 153.852 55.126 149.431 52.0904 149.166C49.0549 148.9 49.3521 160.215 45.7221 159.196C42.0922 158.177 42.0657 155.481 36.4403 155.746C30.815 156.012 37.5919 160.257 39.0938 161.122C40.5956 161.987 38.5631 165.368 30.9211 164.545L35.4532 159.546C35.4532 159.546 33.1341 156.235 33.3305 155.433C33.5268 154.632 39.9641 151.426 42.0922 146.215C44.2203 141.004 52.308 131.807 59.8916 124.908C67.4752 118.009 90.2843 107.262 95.6071 106.445C100.93 105.628 107.049 104.508 110.997 101.037C114.945 97.5666 115.619 95.7304 117.541 94.3772C119.462 93.0239 120.252 94.0004 120.252 94.0004Z" fill="#7694FF"/>
<path opacity="0.2" d="M120.252 94.0004C115.407 93.9102 118.931 109.826 116.638 112.299C114.346 114.772 113.396 107.65 110.62 107.947C107.845 108.244 108.965 120.227 106.375 121.575C103.785 122.923 103.318 117.51 100.946 118.226C98.5737 118.943 101.604 126.999 98.5524 129.403C95.5009 131.807 95.225 124.282 91.2926 126.548C87.3601 128.814 88.7559 130.623 88.8938 134.152C89.0318 137.682 87.0895 141.051 84.4042 138.828C81.7189 136.604 80.4718 131.584 78.5666 136.509C76.6614 141.434 79.1557 144.469 76.412 143.827C73.6683 143.185 70.5744 133.776 69.5608 139.693C68.5471 145.61 70.5479 150.572 66.4085 150.142C62.2691 149.712 64.2857 146.088 62.1258 146.056C59.9659 146.024 57.3071 151.655 58.8037 154.165C60.3002 156.675 54.3618 159.657 52.1647 156.755C49.9677 153.852 55.126 149.431 52.0904 149.166C49.0549 148.9 49.3521 160.215 45.7221 159.196C42.0922 158.177 42.0657 155.481 36.4403 155.746C30.815 156.012 37.5919 160.257 39.0938 161.122C40.5956 161.987 38.5631 165.368 30.9211 164.545L35.4532 159.546C35.4532 159.546 33.1341 156.235 33.3305 155.433C33.5268 154.632 39.9641 151.426 42.0922 146.215C44.2203 141.004 52.308 131.807 59.8916 124.908C67.4752 118.009 90.2843 107.262 95.6071 106.445C100.93 105.628 107.049 104.508 110.997 101.037C114.945 97.5666 115.619 95.7304 117.541 94.3772C119.462 93.0239 120.252 94.0004 120.252 94.0004Z" fill="black"/>
<path d="M103.509 111.688C100.426 112.357 95.2781 110.165 95.2781 110.165L95.3577 118.216C95.3577 118.216 91.3085 119.346 88.326 116.963C88.326 116.963 90.0879 122.069 89.2282 122.891C88.3685 123.714 79.9836 120.286 79.9836 120.286L81.8781 128.84C81.8781 128.84 74.0239 123.247 74.2998 124.85C74.5758 126.452 75.4727 131.796 75.1171 132.868C74.7616 133.94 73.0633 136.323 70.7124 135.108C68.3614 133.893 63.8718 128.081 63.8718 128.081C63.8718 128.081 63.3411 140.399 61.9241 140.059C60.5072 139.72 59.6581 132.539 59.069 133.25C58.4799 133.961 58.8567 144.926 55.1154 145.271C51.374 145.615 52.3558 135.649 50.6416 136.53C48.9275 137.411 48.8373 151.214 45.3347 151.347C41.8322 151.48 41.0892 151.108 42.3045 147.685C43.5198 144.262 44.6661 132.412 48.3915 130.374C52.117 128.336 88.3791 105.962 93.1075 106.196C97.836 106.429 100.123 101.207 103.085 102.555C106.046 103.903 103.509 111.688 103.509 111.688Z" fill="#7694FF"/>
<path opacity="0.4" d="M103.509 111.688C100.426 112.357 95.2781 110.165 95.2781 110.165L95.3577 118.216C95.3577 118.216 91.3085 119.346 88.326 116.963C88.326 116.963 90.0879 122.069 89.2282 122.891C88.3685 123.714 79.9836 120.286 79.9836 120.286L81.8781 128.84C81.8781 128.84 74.0239 123.247 74.2998 124.85C74.5758 126.452 75.4727 131.796 75.1171 132.868C74.7616 133.94 73.0633 136.323 70.7124 135.108C68.3614 133.893 63.8718 128.081 63.8718 128.081C63.8718 128.081 63.3411 140.399 61.9241 140.059C60.5072 139.72 59.6581 132.539 59.069 133.25C58.4799 133.961 58.8567 144.926 55.1154 145.271C51.374 145.615 52.3558 135.649 50.6416 136.53C48.9275 137.411 48.8373 151.214 45.3347 151.347C41.8322 151.48 41.0892 151.108 42.3045 147.685C43.5198 144.262 44.6661 132.412 48.3915 130.374C52.117 128.336 88.3791 105.962 93.1075 106.196C97.836 106.429 100.123 101.207 103.085 102.555C106.046 103.903 103.509 111.688 103.509 111.688Z" fill="black"/>
<path d="M104.677 111.099C100.139 114.246 105.568 104.089 101.429 103.277C97.2894 102.465 101.211 114.39 96.6048 117.648C91.9984 120.906 95.6602 109.157 89.8703 110.516C84.0805 111.874 92.89 120.344 89.8703 122.573C86.8507 124.802 89.138 115.196 83.2579 116.459C77.3778 117.722 85.6354 123.252 82.9873 127.731C80.3391 132.21 78.5454 122.307 74.4962 122.838C70.447 123.369 79.1079 134.625 72.4318 135.278C65.7557 135.93 70.7124 127.413 67.2576 127.068C63.8028 126.723 65.0287 139.889 61.9188 140.059C58.809 140.229 64.2485 132.709 59.5732 132.056C54.8978 131.404 60.5443 145.281 55.1101 145.27C49.6758 145.26 55.3595 142.139 50.7265 140.547C46.0936 138.955 45.478 143.875 45.9928 147.977C46.5075 152.079 45.9928 151.803 39.8686 150.63C37.0772 150.1 35.1667 150.1 35.0924 150.784L34.8376 150.694C34.8376 150.694 38.372 149.145 41.6729 143.96C44.9738 138.775 40.6116 120.986 53.1253 111.752C65.639 102.518 86.3041 101.197 91.9772 103.537C97.2841 105.723 103.509 99.5143 108.598 99.5514C105.887 100.072 108.774 108.26 104.677 111.099Z" fill="#7694FF"/>
<path d="M55.7363 77.8568C56.3784 77.5808 56.9303 77.3738 57.5247 77.1722C58.1191 76.9705 58.7029 76.7795 59.2972 76.5937C60.4807 76.2435 61.6906 75.941 62.9165 75.7075C64.153 75.452 65.4044 75.2747 66.6632 75.1768C67.2947 75.1131 67.9422 75.1025 68.5896 75.0972H69.5661H69.9694L70.256 75.1396C70.507 75.1764 70.7517 75.2478 70.983 75.3519C71.3671 75.5094 71.7088 75.7548 71.9807 76.0683C72.1481 76.258 72.2875 76.4707 72.3947 76.6999C72.4458 76.8139 72.4901 76.9308 72.5274 77.0501C72.5592 77.1562 72.5804 77.2571 72.6017 77.3632C72.6229 77.4694 72.6335 77.5808 72.6388 77.6657C72.6441 77.7506 72.6388 77.8355 72.6388 77.9151C72.6385 78.0595 72.6243 78.2034 72.5963 78.345L72.5592 78.536L72.5167 78.6846C72.4305 78.9852 72.3075 79.2739 72.1506 79.5444C71.9408 79.9019 71.7011 80.2409 71.4341 80.558C71.0038 81.0699 70.543 81.5555 70.0543 82.0121C69.1309 82.8771 68.2022 83.6572 67.247 84.4002C65.3607 85.8786 63.3941 87.2517 61.3563 88.513C61.0702 88.6889 60.7262 88.7446 60.3992 88.668C60.0722 88.5915 59.7887 88.3889 59.6103 88.1044C59.4513 87.8589 59.3828 87.5655 59.4167 87.275C59.4506 86.9844 59.5848 86.7147 59.7961 86.5123C61.4518 84.8778 63.1182 83.222 64.7209 81.5875C65.5169 80.7596 66.313 79.9371 67.0082 79.1039C67.3447 78.7211 67.6583 78.3189 67.9475 77.8992C68.0479 77.7562 68.1332 77.6033 68.2022 77.4428C68.2022 77.411 68.2022 77.3791 68.1704 77.4959V77.5383V77.618C68.1577 77.6864 68.1488 77.7555 68.1438 77.8249C68.1412 77.8726 68.1412 77.9205 68.1438 77.9682C68.1438 78.016 68.1438 78.1009 68.1438 78.1646C68.1547 78.2329 68.1707 78.3003 68.1916 78.3662C68.2156 78.4522 68.2475 78.5357 68.2871 78.6157C68.3616 78.7796 68.4599 78.9316 68.579 79.0667C68.681 79.1865 68.7988 79.2919 68.9293 79.3798C69.0197 79.4416 69.1156 79.4949 69.2158 79.5391C69.2765 79.5654 69.3385 79.5884 69.4016 79.608L69.5183 79.6399C69.5183 79.6399 69.5926 79.6399 69.5873 79.6399C69.582 79.6399 69.651 79.6399 69.5502 79.6399L68.7648 79.6983C68.2341 79.7513 67.7034 79.8044 67.1727 79.8893C66.1014 80.0485 65.0387 80.2611 63.9885 80.5261C62.9272 80.7862 61.8658 81.0568 60.8044 81.4124C60.2737 81.5769 59.743 81.7467 59.2123 81.9431L57.6998 82.4738L57.599 82.5056C57.2885 82.6269 56.9572 82.6858 56.624 82.679C56.2907 82.6722 55.9621 82.5999 55.6568 82.4661C55.3515 82.3323 55.0756 82.1397 54.8447 81.8992C54.6139 81.6588 54.4326 81.3753 54.3114 81.0648C54.1901 80.7543 54.1312 80.423 54.138 80.0898C54.1448 79.7565 54.2171 79.4279 54.3509 79.1226C54.4847 78.8173 54.6773 78.5413 54.9177 78.3105C55.1582 78.0796 55.4417 77.8984 55.7522 77.7772L55.7363 77.8568Z" fill="#FFB573"/>
<path d="M39.1999 75.6174C38.2606 73.1657 37.4062 70.7192 36.6208 68.2143C36.228 66.9672 35.8353 65.7147 35.4904 64.4305C35.1139 63.1016 34.8092 61.7535 34.5776 60.3919C34.5047 59.9532 34.4639 59.5098 34.4555 59.0652C34.4521 58.7206 34.4895 58.3768 34.567 58.041C34.6422 57.7103 34.7562 57.3896 34.9066 57.0857C35.1572 56.6018 35.4812 56.1596 35.8672 55.7749C36.1807 55.4624 36.5198 55.1766 36.8808 54.9205C38.098 54.0887 39.4227 53.4263 40.8185 52.9516C43.3642 52.0653 45.9972 51.4534 48.6728 51.126C48.9811 51.0836 49.2942 51.1565 49.5521 51.3308C49.81 51.5051 49.9944 51.7684 50.0701 52.0703C50.1457 52.3723 50.1072 52.6915 49.962 52.9667C49.8167 53.242 49.575 53.454 49.283 53.5619H49.2406C46.8877 54.4181 44.5845 55.405 42.3416 56.5179C41.3374 57.0085 40.3935 57.614 39.5289 58.3222C39.2852 58.5101 39.0903 58.754 38.9611 59.0333C38.9611 59.0333 38.9611 59.0333 38.9876 59.0015C39.0142 58.9697 38.9876 58.8794 39.0195 58.9378C39.0513 58.9962 39.0726 59.2828 39.1309 59.5375C39.3804 60.5989 39.7625 61.8195 40.1445 63.0029C40.5266 64.1864 40.9406 65.3963 41.3651 66.601L43.9284 73.8184C44.162 74.4518 44.1345 75.152 43.8518 75.7651C43.5692 76.3781 43.0546 76.8538 42.4212 77.0875C41.7878 77.3211 41.0876 77.2936 40.4745 77.0109C39.8615 76.7283 39.3858 76.2137 39.1522 75.5803L39.1999 75.6174Z" fill="#FFB573"/>
<path d="M51.7295 77.6446C51.7295 77.6446 50.5513 79.1783 44.9101 76.615C43.196 75.8296 44.7827 74.4923 44.7827 74.4923C47.2876 74.9964 48.2853 73.6007 48.8213 71.9662C48.885 71.7645 48.9433 71.5628 48.9911 71.3665L55.1896 69.7744C53.8522 71.393 51.8462 74.2216 51.6074 76.3709C51.5483 76.7992 51.5901 77.2353 51.7295 77.6446Z" fill="#FFB573"/>
<path opacity="0.2" d="M51.6074 76.3707C49.6067 75.3783 48.9911 73.4148 48.8213 71.95C48.885 71.7484 48.9433 71.5467 48.9911 71.3504L55.1896 69.7583C53.8522 71.4141 51.8462 74.2214 51.6074 76.3707Z" fill="black"/>
<path d="M45.1967 63.2098C45.1967 63.2098 42.3309 61.4266 41.0997 62.9922C39.8685 64.5577 40.4947 68.6759 44.0769 67.9754C47.6591 67.2749 46.0086 63.6184 45.1967 63.2098Z" fill="#263238"/>
<path d="M45.6161 62.8225C45.6161 62.8225 45.2818 61.1084 44.1143 61.1084C42.9468 61.1084 43.5199 62.8225 43.5199 62.8225C43.5199 62.8225 42.3736 61.9204 42.0393 63.2524C41.9887 63.4231 41.9752 63.6027 41.9996 63.7791C42.0239 63.9555 42.0856 64.1247 42.1806 64.2754C42.2755 64.426 42.4014 64.5547 42.55 64.6529C42.6986 64.751 42.8664 64.8163 43.0423 64.8445C43.0423 64.8445 41.8005 65.3752 42.2303 66.4365C42.6602 67.4979 43.4085 66.8027 43.4085 66.8027C43.4085 66.8027 42.8778 68.0392 43.5199 68.5168C44.162 68.9945 44.8042 68.087 44.8042 68.087C44.7377 68.3902 44.7833 68.7073 44.9326 68.9795C45.0819 69.2517 45.3247 69.4606 45.6161 69.5676C46.6775 70.0134 47.5054 67.4183 47.5054 67.4183L45.6161 62.8225Z" fill="#7694FF"/>
<path opacity="0.4" d="M45.6161 62.8225C45.6161 62.8225 45.2818 61.1084 44.1143 61.1084C42.9468 61.1084 43.5199 62.8225 43.5199 62.8225C43.5199 62.8225 42.3736 61.9204 42.0393 63.2524C41.9887 63.4231 41.9752 63.6027 41.9996 63.7791C42.0239 63.9555 42.0856 64.1247 42.1806 64.2754C42.2755 64.426 42.4014 64.5547 42.55 64.6529C42.6986 64.751 42.8664 64.8163 43.0423 64.8445C43.0423 64.8445 41.8005 65.3752 42.2303 66.4365C42.6602 67.4979 43.4085 66.8027 43.4085 66.8027C43.4085 66.8027 42.8778 68.0392 43.5199 68.5168C44.162 68.9945 44.8042 68.087 44.8042 68.087C44.7377 68.3902 44.7833 68.7073 44.9326 68.9795C45.0819 69.2517 45.3247 69.4606 45.6161 69.5676C46.6775 70.0134 47.5054 67.4183 47.5054 67.4183L45.6161 62.8225Z" fill="white"/>
<path d="M51.1508 59.3888C54.2554 58.9589 58.3046 61.2515 58.7291 64.4303C59.3712 69.2065 53.9529 72.0564 52.7376 72.0033C41.5135 71.5204 42.3785 60.604 51.1508 59.3888Z" fill="#263238"/>
<path d="M47.0329 65.3482C47.2876 69.3709 47.3142 71.0797 49.3255 73.2396C52.3557 76.498 57.1797 75.564 58.119 71.6051C58.9628 68.0441 58.4003 62.0526 54.505 60.2589C53.6811 59.844 52.7612 59.6571 51.8408 59.7177C50.9203 59.7783 50.0328 60.0841 49.2704 60.6033C48.508 61.1226 47.8984 61.8365 47.505 62.6708C47.1115 63.5052 46.9485 64.4296 47.0329 65.3482Z" fill="#FFB573"/>
<path d="M53.1889 66.7709C53.1889 67.1052 53.3747 67.3918 53.587 67.4024C53.7992 67.413 53.9744 67.1477 53.9637 66.808C53.9531 66.4684 53.778 66.1818 53.5657 66.1712C53.3535 66.1606 53.1783 66.4312 53.1889 66.7709Z" fill="#263238"/>
<path d="M57.2383 67.0253C57.2383 67.365 57.424 67.6463 57.6363 67.6569C57.8485 67.6675 58.0237 67.4021 58.0131 67.0625C58.0024 66.7229 57.8273 66.4416 57.615 66.431C57.4028 66.4204 57.2276 66.6857 57.2383 67.0253Z" fill="#263238"/>
<path d="M57.5195 66.4468L58.305 66.2505C58.305 66.2505 57.9122 66.8661 57.5195 66.4468Z" fill="#263238"/>
<path d="M56.1343 67.5239C56.4446 68.3131 56.8529 69.0602 57.3496 69.7475C57.1802 69.8618 56.9873 69.9364 56.7852 69.9658C56.5831 69.9952 56.3769 69.9786 56.182 69.9173L56.1343 67.5239Z" fill="#ED893E"/>
<path d="M52.2815 64.8394C52.3079 64.8445 52.3351 64.8434 52.3609 64.836C52.3867 64.8286 52.4104 64.8152 52.4301 64.7969C52.6074 64.6358 52.822 64.5214 53.0545 64.464C53.287 64.4066 53.5302 64.4079 53.7621 64.4679C53.7858 64.4752 53.8107 64.4776 53.8354 64.4752C53.86 64.4727 53.884 64.4653 53.9057 64.4534C53.9275 64.4416 53.9467 64.4254 53.9621 64.406C53.9775 64.3867 53.9889 64.3644 53.9956 64.3405C54.0067 64.2886 53.999 64.2344 53.9737 64.1877C53.9484 64.141 53.9072 64.1048 53.8576 64.0858C53.5642 64.0063 53.2556 64.0016 52.9599 64.072C52.6642 64.1425 52.3908 64.2859 52.1647 64.4891C52.1293 64.5274 52.1096 64.5776 52.1096 64.6297C52.1096 64.6819 52.1293 64.7321 52.1647 64.7704C52.1953 64.8052 52.2362 64.8294 52.2815 64.8394Z" fill="#263238"/>
<path d="M58.3738 65.2213C58.3982 65.2274 58.4236 65.2282 58.4483 65.2236C58.473 65.219 58.4965 65.2092 58.5171 65.1947C58.5375 65.1796 58.5547 65.1605 58.5677 65.1386C58.5807 65.1167 58.5891 65.0924 58.5926 65.0672C58.596 65.042 58.5944 65.0163 58.5878 64.9918C58.5813 64.9672 58.5698 64.9442 58.5542 64.9241C58.3816 64.6523 58.1476 64.4248 57.8711 64.2598C57.5946 64.0948 57.2833 63.997 56.9621 63.9741C56.937 63.974 56.9122 63.9792 56.8892 63.9892C56.8662 63.9993 56.8456 64.014 56.8286 64.0325C56.8116 64.051 56.7987 64.0728 56.7906 64.0965C56.7825 64.1203 56.7795 64.1455 56.7817 64.1705C56.7844 64.224 56.8072 64.2746 56.8456 64.312C56.884 64.3494 56.9351 64.3709 56.9887 64.3721C57.2393 64.3971 57.481 64.4789 57.6953 64.6113C57.9096 64.7437 58.0908 64.9233 58.2252 65.1363C58.2425 65.1603 58.2647 65.1802 58.2903 65.1949C58.3159 65.2095 58.3444 65.2185 58.3738 65.2213Z" fill="#263238"/>
<path d="M53.481 66.1866L54.2664 65.9902C54.2664 65.9902 53.8631 66.6058 53.481 66.1866Z" fill="#263238"/>
<path d="M55.6036 70.8835C55.2033 71.2804 54.8326 71.7061 54.4945 72.1572L54.2291 72.0192C53.0404 71.3771 52.7007 70.6925 52.6848 70.1193C52.6839 69.8408 52.7494 69.5661 52.8759 69.318C52.9424 69.1761 53.0281 69.0439 53.1306 68.9253C53.6865 69.6469 54.3928 70.2391 55.2003 70.6607C55.4285 70.788 55.6036 70.8835 55.6036 70.8835Z" fill="#263238"/>
<path d="M55.1845 70.6445L54.8449 71.0107C53.7304 70.4057 53.0246 69.8326 52.8601 69.3019C52.9267 69.16 53.0124 69.0278 53.1148 68.9092C53.6708 69.6308 54.377 70.223 55.1845 70.6445Z" fill="white"/>
<path d="M54.2133 72.0034C53.0245 71.3613 52.6849 70.6767 52.6689 70.1035C53.1156 70.3556 53.5144 70.6844 53.8471 71.0747C54.0655 71.337 54.1939 71.6626 54.2133 72.0034Z" fill="#DE5753"/>
<path d="M46.1837 69.0948C46.3027 69.4616 46.4968 69.7997 46.7535 70.0874C47.0102 70.3752 47.324 70.6065 47.6749 70.7665C48.5612 71.122 49.0919 70.119 48.9114 69.0364C48.7522 68.0546 48.1048 66.6908 47.1814 66.8128C46.258 66.9349 45.8334 68.113 46.1837 69.0948Z" fill="#FFB573"/>
<path d="M53.1891 61.6867C53.1891 61.6867 51.9579 62.488 51.3901 64.8709C50.5092 68.4796 48.0627 68.6441 46.6139 68.055C44.9528 67.3969 43.8118 64.4834 45.112 61.6867C47.4895 56.5761 54.3089 57.3563 56.1026 59.3888C58.0131 61.5381 56.1345 62.7746 53.1891 61.6867Z" fill="#263238"/>
<path d="M50.4984 51.0729L50.1587 47.6553L47.1125 50.5475C47.1125 50.5475 47.7759 53.1267 49.4529 53.5353L49.7448 53.2488C50.023 52.964 50.2347 52.6213 50.365 52.2452C50.4953 51.869 50.5408 51.4687 50.4984 51.0729Z" fill="#FFB573"/>
<path d="M48.4235 45.1025L45.51 47.1139L47.0862 50.5474L50.1589 47.6552L48.4235 45.1025Z" fill="#FFB573"/>
<path d="M60.3163 89.5528L62.8318 91.8931L63.2245 87.6953C63.2245 87.6953 61.0168 86.1988 59.5097 87.0001V87.4088C59.4754 87.8037 59.5301 88.2013 59.6697 88.5723C59.8093 88.9433 60.0303 89.2783 60.3163 89.5528Z" fill="#FFB573"/>
<path d="M65.8193 92.6578L66.6791 89.2295L63.2243 87.6958L62.8315 91.8936L65.8193 92.6578Z" fill="#FFB573"/>
<path d="M42.8672 71.6582C42.8672 71.6582 46.0513 77.4268 56.7182 77.4268L57.1959 82.6223C55.7736 84.5275 52.8123 91.522 53.8366 96.9934L40.5162 100.528C38.639 91.3796 37.9257 82.0308 38.3935 72.7037L42.8672 71.6582Z" fill="#FFB573"/>
<path d="M52.1966 76.5143L44.5812 82.5005C43.7802 79.5147 43.9664 76.35 45.1119 73.4788L43.3977 71.5205C43.3977 71.5205 34.1372 83.5194 39.7519 100.528L53.8205 96.9937C53.6592 93.784 54.1614 90.5755 55.2958 87.5686C55.2958 87.5686 53.1147 80.7227 54.1814 76.8964L52.1966 76.5143Z" fill="#7694FF"/>
<path d="M88.6976 109.683C86.7659 109.316 83.3907 106.451 83.3907 106.451L81.3688 110.813C81.3688 110.813 78.3544 111.2 75.9079 107.098C73.4615 102.996 75.8177 113.928 75.8177 113.928C75.8177 113.928 73.0422 114.512 71.0415 110.288C69.0408 106.063 70.0916 116.741 70.0916 116.741C70.0916 116.741 68.7383 117.298 67.3532 114.39C65.9681 111.482 67.3267 117.107 67.1356 117.876C66.9446 118.646 59.1063 112.57 59.1063 112.57C58.6095 114.082 58.7277 115.729 59.4353 117.155C60.6187 119.638 62.0198 121.889 60.7036 123.12C59.3875 124.351 54.1443 116.523 52.9503 116.624C51.7562 116.725 54.4786 125.97 55.816 127.572C57.1533 129.175 51.2998 127.731 49.8669 125.715C48.4341 123.698 47.5213 127.386 51.2096 131.085L45.165 132.677C45.165 132.677 49.0178 134.8 48.641 137.135C48.2643 139.47 38.9453 140.128 38.9453 140.128L39.476 132.635C39.476 132.635 44.2151 117.93 58.9948 109.481C73.7746 101.032 86.6544 99.8383 90.0615 100.99C93.4685 102.142 88.6976 109.683 88.6976 109.683Z" fill="#7694FF"/>
<path opacity="0.5" d="M88.6976 109.683C86.7659 109.316 83.3907 106.451 83.3907 106.451L81.3688 110.813C81.3688 110.813 78.3544 111.2 75.9079 107.098C73.4615 102.996 75.8177 113.928 75.8177 113.928C75.8177 113.928 73.0422 114.512 71.0415 110.288C69.0408 106.063 70.0916 116.741 70.0916 116.741C70.0916 116.741 68.7383 117.298 67.3532 114.39C65.9681 111.482 67.3267 117.107 67.1356 117.876C66.9446 118.646 59.1063 112.57 59.1063 112.57C58.6095 114.082 58.7277 115.729 59.4353 117.155C60.6187 119.638 62.0198 121.889 60.7036 123.12C59.3875 124.351 54.1443 116.523 52.9503 116.624C51.7562 116.725 54.4786 125.97 55.816 127.572C57.1533 129.175 51.2998 127.731 49.8669 125.715C48.4341 123.698 47.5213 127.386 51.2096 131.085L45.165 132.677C45.165 132.677 49.0178 134.8 48.641 137.135C48.2643 139.47 38.9453 140.128 38.9453 140.128L39.476 132.635C39.476 132.635 44.2151 117.93 58.9948 109.481C73.7746 101.032 86.6544 99.8383 90.0615 100.99C93.4685 102.142 88.6976 109.683 88.6976 109.683Z" fill="black"/>
<path d="M96.6101 101.133C93.8558 100.183 91.1917 110.26 88.7028 109.687C86.0971 109.072 90.9529 101.265 88.31 101.196C85.6672 101.127 85.248 110.781 81.358 110.828C77.468 110.876 81.5597 104.991 77.7599 105.155C73.9602 105.32 80.0153 110.786 76.5924 113.556C73.1694 116.326 75.9556 104.136 71.5561 105.707C67.1567 107.278 74.9632 113.492 71.0254 116.321C67.0877 119.15 68.7806 108.928 64.4342 110.834C60.0879 112.739 70.2347 116.31 66.1325 119.643C62.0302 122.976 60.9105 110.918 55.6035 114.814C50.2966 118.709 64.5457 119.701 60.0667 123.836C55.5876 127.97 54.5103 115.62 50.3869 120.444C46.2634 125.268 58.3472 126.356 55.6619 128.935C52.9766 131.515 47.5848 121.612 44.9844 127.848C42.384 134.083 53.2738 127.848 51.1033 132.756C48.9328 137.665 43.3977 131.584 41.8056 135.378C40.2135 139.172 49.7288 133.483 48.6356 138.445C47.5423 143.407 39.6138 140.038 37.438 143.349C37.7548 140.609 38.2279 137.889 38.8549 135.203C38.8549 135.203 39.9163 119.171 41.381 115.541C42.8457 111.911 45.9025 97.8317 45.9025 97.8317L72.1027 94.7324L83.4914 100.57C83.4914 100.57 93.3357 99.6785 96.6101 101.133Z" fill="#7694FF"/>
<path opacity="0.2" d="M96.6101 101.133C93.8558 100.183 91.1917 110.26 88.7028 109.687C86.0971 109.072 90.9529 101.265 88.31 101.196C85.6672 101.127 85.248 110.781 81.358 110.828C77.468 110.876 81.5597 104.991 77.7599 105.155C73.9602 105.32 80.0153 110.786 76.5924 113.556C73.1694 116.326 75.9556 104.136 71.5561 105.707C67.1567 107.278 74.9632 113.492 71.0254 116.321C67.0877 119.15 68.7806 108.928 64.4342 110.834C60.0879 112.739 70.2347 116.31 66.1325 119.643C62.0302 122.976 60.9105 110.918 55.6035 114.814C50.2966 118.709 64.5457 119.701 60.0667 123.836C55.5876 127.97 54.5103 115.62 50.3869 120.444C46.2634 125.268 58.3472 126.356 55.6619 128.935C52.9766 131.515 47.5848 121.612 44.9844 127.848C42.384 134.083 53.2738 127.848 51.1033 132.756C48.9328 137.665 43.3977 131.584 41.8056 135.378C40.2135 139.172 49.7288 133.483 48.6356 138.445C47.5423 143.407 39.6138 140.038 37.438 143.349C37.7548 140.609 38.2279 137.889 38.8549 135.203C38.8549 135.203 39.9163 119.171 41.381 115.541C42.8457 111.911 45.9025 97.8317 45.9025 97.8317L72.1027 94.7324L83.4914 100.57C83.4914 100.57 93.3357 99.6785 96.6101 101.133Z" fill="black"/>
<path d="M83.6931 92.7375C81.8888 92.5889 80.2489 94.4357 78.625 94.6957C77.5159 97.7631 75.2233 101.595 78.3066 102.125C82.8706 102.959 80.6576 93.247 83.6931 92.7375Z" fill="#7694FF"/>
<path d="M44.2575 124.372C44.9792 121.331 41.0362 121.039 39.2796 120.073C38.7843 121.807 38.1508 123.498 37.385 125.131C39.6458 124.064 43.3977 128.007 44.2575 124.372Z" fill="#7694FF"/>
<path d="M82.3929 103.818C85.1631 105.108 86.373 94.9822 90.3108 97.105C88.5383 95.7411 86.0652 97.4605 85.3117 97.5295C83.6559 100.199 80.7689 103.059 82.3929 103.818Z" fill="#7694FF"/>
<path d="M42.2725 129.44C42.8403 126.978 39.9905 128.379 37.9155 128.824C37.3848 131.154 36.7055 135.193 38.2923 136.1C36.6418 132.651 41.3172 133.585 42.2725 129.44Z" fill="#7694FF"/>
<path d="M35.8934 127.747L35.8884 127.752H35.8934V127.747Z" fill="#7694FF"/>
<path d="M39.2424 111.46C39.3142 113.753 39.1362 116.047 38.7117 118.301C38.8062 118.135 38.9145 117.977 39.0354 117.828C41.9224 114.262 41.8268 122.992 45.6637 119.421C49.5006 115.849 38.2341 114.114 43.2172 111.28C48.2004 108.446 46.5288 118.906 51.963 114.549C57.3973 110.192 44.6236 108.987 48.7789 105.58C52.9342 102.173 52.706 111.948 56.3837 109.327C60.0614 106.705 49.7766 102.019 55.1578 99.2012C60.539 96.3832 57.7263 109.093 61.9719 106.498C66.2174 103.903 55.8901 97.9063 61.6853 96.0489C67.4804 94.1915 61.9719 106.498 66.3129 104.046C70.654 101.595 62.1258 93.0239 67.7882 93.8359C73.4507 94.6479 65.1985 102.725 71.3173 102.194C77.0435 101.711 71.4659 91.331 76.3377 90.7208C74.2149 90.2166 71.3067 93.4591 69.375 93.3742C68.1969 92.4243 67.1939 91.7821 66.5252 91.6282C63.2455 90.9171 38.839 97.5614 38.839 97.5614L39.2424 111.428V111.46Z" fill="#7694FF"/>
<path d="M96.9976 100.677C96.8882 100.613 96.7748 100.556 96.658 100.507C96.779 100.546 96.8935 100.603 96.9976 100.677Z" fill="#263238"/>
<path d="M36.0795 126.909C37.1993 123.31 40.2189 125.688 42.2992 125.927C42.5045 126.859 42.5172 127.823 42.3364 128.761C42.1294 126.123 34.5723 131.743 36.0795 126.909Z" fill="#7694FF"/>
<path d="M43.9815 120.307C44.2771 121.471 44.3951 122.674 44.3318 123.873C44.6289 119.978 36.2546 121.252 39.0249 117.829C41.4183 114.883 41.7685 120.328 43.9815 120.307Z" fill="#7694FF"/>
<path d="M46.184 111.466C46.0725 113.058 45.9664 115.812 46.3803 117.425C45.5206 115.101 39.2638 113.525 43.1962 111.291C44.645 110.479 45.5206 110.76 46.184 111.466Z" fill="#7694FF"/>
<path d="M53.1199 111.747C51.9099 109.46 45.6902 108.143 48.7523 105.617C51.1245 103.659 52.0691 106.068 53.1464 107.958C52.7233 109.184 52.714 110.515 53.1199 111.747Z" fill="#7694FF"/>
<path d="M60.3798 106.679C58.9858 106.134 57.5322 105.756 56.0494 105.554C54.3936 103.341 51.8516 100.931 55.1366 99.2118C59.6315 96.8555 58.4163 105.378 60.3798 106.679Z" fill="#7694FF"/>
<path d="M64.7422 104.035C63.8648 103.265 62.9077 102.591 61.887 102.024C60.3852 99.6201 58.2943 97.1312 61.6695 96.0486C66.3608 94.5414 63.6436 102.321 64.7422 104.035Z" fill="#7694FF"/>
<path d="M70.5055 102.226C70.5055 102.226 69.4123 102.587 67.5814 101.668C67.5496 98.2455 63.3731 93.2093 67.7831 93.8355C73.159 94.6103 65.9894 101.939 70.5055 102.226Z" fill="#7694FF"/>
<path d="M77.5954 101.903H77.5636C77.5636 101.903 75.2179 102.264 73.4561 101.086C75.5098 98.0393 71.8321 90.0524 77.4787 90.7689C82.4831 91.3845 74.2149 100.173 77.5954 101.903Z" fill="#7694FF"/>
<path d="M82.3929 103.818L77.9617 102.051C78.0678 102.083 78.1846 102.109 78.3066 102.136C83.4066 103.054 80.042 90.8003 84.9933 92.9655C89.9447 95.1307 79.628 102.529 82.3929 103.818Z" fill="#7694FF"/>
<path opacity="0.4" d="M36.0795 126.909C37.1993 123.31 40.2189 125.688 42.2992 125.927C42.5045 126.859 42.5172 127.823 42.3364 128.761C42.1294 126.123 34.5723 131.743 36.0795 126.909Z" fill="black"/>
<path opacity="0.4" d="M43.9815 120.307C44.2771 121.471 44.3951 122.674 44.3318 123.873C44.6289 119.978 36.2546 121.252 39.0249 117.829C41.4183 114.883 41.7685 120.328 43.9815 120.307Z" fill="black"/>
<path opacity="0.4" d="M46.184 111.466C46.0725 113.058 45.9664 115.812 46.3803 117.425C45.5206 115.101 39.2638 113.525 43.1962 111.291C44.645 110.479 45.5206 110.76 46.184 111.466Z" fill="black"/>
<path opacity="0.4" d="M53.1199 111.747C51.9099 109.46 45.6902 108.143 48.7523 105.617C51.1245 103.659 52.0691 106.068 53.1464 107.958C52.7233 109.184 52.714 110.515 53.1199 111.747Z" fill="black"/>
<path opacity="0.4" d="M60.3798 106.679C58.9858 106.134 57.5322 105.756 56.0494 105.554C54.3936 103.341 51.8516 100.931 55.1366 99.2118C59.6315 96.8555 58.4163 105.378 60.3798 106.679Z" fill="black"/>
<path opacity="0.4" d="M64.7422 104.035C63.8648 103.265 62.9077 102.591 61.887 102.024C60.3852 99.6201 58.2943 97.1312 61.6695 96.0486C66.3608 94.5414 63.6436 102.321 64.7422 104.035Z" fill="black"/>
<path opacity="0.4" d="M70.5055 102.226C70.5055 102.226 69.4123 102.587 67.5814 101.668C67.5496 98.2455 63.3731 93.2093 67.7831 93.8355C73.159 94.6103 65.9894 101.939 70.5055 102.226Z" fill="black"/>
<path opacity="0.4" d="M77.5954 101.903H77.5636C77.5636 101.903 75.2179 102.264 73.4561 101.086C75.5098 98.0393 71.8321 90.0524 77.4787 90.7689C82.4831 91.3845 74.2149 100.173 77.5954 101.903Z" fill="black"/>
<path opacity="0.4" d="M82.3929 103.818L77.9617 102.051C78.0678 102.083 78.1846 102.109 78.3066 102.136C83.4066 103.054 80.042 90.8003 84.9933 92.9655C89.9447 95.1307 79.628 102.529 82.3929 103.818Z" fill="black"/>
<path d="M48.8054 189.578H48.1102L47.9191 188.724L45.6372 189.753H39.842C39.842 189.753 38.9186 188.83 41.6782 188.092C41.8135 188.055 41.9449 188.005 42.0709 187.943C43.5409 187.254 45.6372 184.924 45.6372 184.924H48.8213C48.9188 185.071 49.0074 185.223 49.0867 185.38C49.421 186.081 50.0207 187.545 48.8054 189.578Z" fill="#263238"/>
<path d="M49.0759 185.38C48.6513 184.913 46.7461 186.972 45.361 187.667C44.1139 188.288 42.7076 188.564 42.0867 187.933C43.5567 187.243 45.8705 184.218 45.8705 184.218H48.4284C48.4284 184.218 48.922 185.083 49.0759 185.38Z" fill="#FFB573"/>
<path d="M118.581 119.797L119.037 120.328L118.507 121.039L120.799 122.063L124.652 126.389C124.652 126.389 124.572 127.694 122.184 126.123C122.068 126.044 121.944 125.978 121.813 125.927C120.321 125.29 117.19 125.274 117.19 125.274L115.068 122.902C115.114 122.732 115.171 122.566 115.237 122.403C115.572 121.66 116.256 120.238 118.581 119.797Z" fill="#263238"/>
<path d="M115.264 122.387C115.189 123.013 117.997 123.077 119.446 123.656C120.746 124.186 121.881 125.041 121.823 125.922C120.332 125.285 116.543 125.561 116.543 125.561L114.844 123.65C114.844 123.65 115.142 122.695 115.264 122.387Z" fill="#FFB573"/>
</g>
</svg>
