<svg width="23" height="23" viewBox="0 0 23 23" fill="none" xmlns="http://www.w3.org/2000/svg">
<path d="M7.66667 7.66699C7.4125 7.66699 7.16875 7.76796 6.98902 7.94768C6.8093 8.1274 6.70833 8.37116 6.70833 8.62533C6.70833 8.87949 6.8093 9.12325 6.98902 9.30297C7.16875 9.48269 7.4125 9.58366 7.66667 9.58366H8.625C8.87917 9.58366 9.12292 9.48269 9.30264 9.30297C9.48237 9.12325 9.58333 8.87949 9.58333 8.62533C9.58333 8.37116 9.48237 8.1274 9.30264 7.94768C9.12292 7.76796 8.87917 7.66699 8.625 7.66699H7.66667ZM12.4583 19.167H5.75C5.49583 19.167 5.25208 19.066 5.07236 18.8863C4.89263 18.7066 4.79167 18.4628 4.79167 18.2087V4.79199C4.79167 4.53783 4.89263 4.29407 5.07236 4.11435C5.25208 3.93463 5.49583 3.83366 5.75 3.83366H10.5417V6.70866C10.5417 7.47116 10.8446 8.20242 11.3837 8.74159C11.9229 9.28076 12.6542 9.58366 13.4167 9.58366H16.2917V11.5003C16.2917 11.7545 16.3926 11.9982 16.5724 12.178C16.7521 12.3577 16.9958 12.4587 17.25 12.4587C17.5042 12.4587 17.7479 12.3577 17.9276 12.178C18.1074 11.9982 18.2083 11.7545 18.2083 11.5003V8.62533C18.2083 8.62533 18.2083 8.62533 18.2083 8.56782C18.1984 8.47979 18.1791 8.39305 18.1508 8.30908V8.22283C18.1048 8.12429 18.0433 8.03371 17.9688 7.95449L12.2188 2.20449C12.1395 2.12995 12.049 2.06849 11.9504 2.02241C11.9187 2.01686 11.8863 2.01686 11.8546 2.02241C11.7614 1.97258 11.6613 1.93704 11.5575 1.91699H5.75C4.9875 1.91699 4.25624 2.21989 3.71707 2.75906C3.1779 3.29823 2.875 4.02949 2.875 4.79199V18.2087C2.875 18.9712 3.1779 19.7024 3.71707 20.2416C4.25624 20.7808 4.9875 21.0837 5.75 21.0837H12.4583C12.7125 21.0837 12.9563 20.9827 13.136 20.803C13.3157 20.6232 13.4167 20.3795 13.4167 20.1253C13.4167 19.8712 13.3157 19.6274 13.136 19.4477C12.9563 19.268 12.7125 19.167 12.4583 19.167ZM12.4583 5.18491L14.9404 7.66699H13.4167C13.1625 7.66699 12.9187 7.56602 12.739 7.3863C12.5593 7.20658 12.4583 6.96282 12.4583 6.70866V5.18491ZM13.4167 11.5003H7.66667C7.4125 11.5003 7.16875 11.6013 6.98902 11.781C6.8093 11.9607 6.70833 12.2045 6.70833 12.4587C6.70833 12.7128 6.8093 12.9566 6.98902 13.1363C7.16875 13.316 7.4125 13.417 7.66667 13.417H13.4167C13.6708 13.417 13.9146 13.316 14.0943 13.1363C14.274 12.9566 14.375 12.7128 14.375 12.4587C14.375 12.2045 14.274 11.9607 14.0943 11.781C13.9146 11.6013 13.6708 11.5003 13.4167 11.5003ZM19.8471 17.5282C19.758 17.4384 19.652 17.3671 19.5352 17.3185C19.4184 17.2698 19.2932 17.2448 19.1667 17.2448C19.0402 17.2448 18.9149 17.2698 18.7981 17.3185C18.6813 17.3671 18.5753 17.4384 18.4863 17.5282L18.2083 17.8157V15.3337C18.2083 15.0795 18.1074 14.8357 17.9276 14.656C17.7479 14.4763 17.5042 14.3753 17.25 14.3753C16.9958 14.3753 16.7521 14.4763 16.5724 14.656C16.3926 14.8357 16.2917 15.0795 16.2917 15.3337V17.8157L16.0137 17.5282C15.8333 17.3478 15.5885 17.2464 15.3333 17.2464C15.0781 17.2464 14.8334 17.3478 14.6529 17.5282C14.4725 17.7087 14.3711 17.9535 14.3711 18.2087C14.3711 18.4639 14.4725 18.7086 14.6529 18.8891L16.5696 20.8057C16.6607 20.893 16.7682 20.9614 16.8858 21.007C17.0005 21.0577 17.1246 21.0839 17.25 21.0839C17.3754 21.0839 17.4995 21.0577 17.6142 21.007C17.7318 20.9614 17.8393 20.893 17.9304 20.8057L19.8471 18.8891C19.9369 18.8 20.0082 18.694 20.0569 18.5772C20.1055 18.4604 20.1306 18.3352 20.1306 18.2087C20.1306 18.0821 20.1055 17.9569 20.0569 17.8401C20.0082 17.7233 19.9369 17.6173 19.8471 17.5282ZM11.5 17.2503C11.7542 17.2503 11.9979 17.1494 12.1776 16.9696C12.3574 16.7899 12.4583 16.5462 12.4583 16.292C12.4583 16.0378 12.3574 15.7941 12.1776 15.6143C11.9979 15.4346 11.7542 15.3337 11.5 15.3337H7.66667C7.4125 15.3337 7.16875 15.4346 6.98902 15.6143C6.8093 15.7941 6.70833 16.0378 6.70833 16.292C6.70833 16.5462 6.8093 16.7899 6.98902 16.9696C7.16875 17.1494 7.4125 17.2503 7.66667 17.2503H11.5Z" fill="#DE5753"/>
</svg>
