<svg width="37" height="37" viewBox="0 0 37 37" fill="none" xmlns="http://www.w3.org/2000/svg">
<path d="M13.7781 22.9155C13.4759 22.9155 13.1805 23.0051 12.9293 23.1729C12.6781 23.3408 12.4823 23.5794 12.3667 23.8585C12.251 24.1377 12.2208 24.4448 12.2797 24.7412C12.3387 25.0375 12.4842 25.3097 12.6978 25.5234C12.9115 25.737 13.1837 25.8825 13.48 25.9415C13.7764 26.0004 14.0835 25.9702 14.3627 25.8545C14.6418 25.7389 14.8804 25.5431 15.0483 25.2919C15.2161 25.0406 15.3057 24.7453 15.3057 24.4431C15.3057 24.038 15.1448 23.6494 14.8583 23.3629C14.5718 23.0764 14.1832 22.9155 13.7781 22.9155ZM3.08432 21.3878C2.67915 21.3878 2.29058 21.5487 2.00409 21.8352C1.71759 22.1217 1.55664 22.5103 1.55664 22.9155V25.9708C1.55664 26.376 1.71759 26.7646 2.00409 27.0511C2.29058 27.3375 2.67915 27.4985 3.08432 27.4985C3.48948 27.4985 3.87805 27.3375 4.16455 27.0511C4.45104 26.7646 4.61199 26.376 4.61199 25.9708V22.9155C4.61199 22.5103 4.45104 22.1217 4.16455 21.8352C3.87805 21.5487 3.48948 21.3878 3.08432 21.3878ZM33.6379 21.3878C33.2327 21.3878 32.8441 21.5487 32.5576 21.8352C32.2711 22.1217 32.1102 22.5103 32.1102 22.9155V25.9708C32.1102 26.376 32.2711 26.7646 32.5576 27.0511C32.8441 27.3375 33.2327 27.4985 33.6379 27.4985C34.043 27.4985 34.4316 27.3375 34.7181 27.0511C35.0046 26.7646 35.1655 26.376 35.1655 25.9708V22.9155C35.1655 22.5103 35.0046 22.1217 34.7181 21.8352C34.4316 21.5487 34.043 21.3878 33.6379 21.3878ZM25.9995 10.694H19.8888V8.73862C20.3505 8.47203 20.7345 8.08922 21.0025 7.62826C21.2705 7.1673 21.4132 6.64422 21.4164 6.11102C21.4164 5.30069 21.0945 4.52355 20.5215 3.95056C19.9486 3.37757 19.1714 3.05566 18.3611 3.05566C17.5508 3.05566 16.7736 3.37757 16.2006 3.95056C15.6276 4.52355 15.3057 5.30069 15.3057 6.11102C15.309 6.64422 15.4517 7.1673 15.7197 7.62826C15.9877 8.08922 16.3716 8.47203 16.8334 8.73862V10.694H10.7227C9.50721 10.694 8.34149 11.1769 7.48201 12.0364C6.62252 12.8959 6.13967 14.0616 6.13967 15.2771V29.0262C6.13967 30.2417 6.62252 31.4074 7.48201 32.2669C8.34149 33.1264 9.50721 33.6092 10.7227 33.6092H25.9995C27.215 33.6092 28.3807 33.1264 29.2402 32.2669C30.0996 31.4074 30.5825 30.2417 30.5825 29.0262V15.2771C30.5825 14.0616 30.0996 12.8959 29.2402 12.0364C28.3807 11.1769 27.215 10.694 25.9995 10.694ZM20.9887 13.7494L20.2249 16.8048H16.4973L15.7335 13.7494H20.9887ZM27.5271 29.0262C27.5271 29.4313 27.3662 29.8199 27.0797 30.1064C26.7932 30.3929 26.4046 30.5539 25.9995 30.5539H10.7227C10.3175 30.5539 9.92897 30.3929 9.64247 30.1064C9.35598 29.8199 9.19502 29.4313 9.19502 29.0262V15.2771C9.19502 14.8719 9.35598 14.4833 9.64247 14.1968C9.92897 13.9104 10.3175 13.7494 10.7227 13.7494H12.5865L13.7781 18.6991C13.8617 19.038 14.0589 19.3381 14.3369 19.5494C14.6148 19.7606 14.9568 19.8703 15.3057 19.8601H21.4164C21.7654 19.8703 22.1073 19.7606 22.3853 19.5494C22.6633 19.3381 22.8605 19.038 22.9441 18.6991L24.1357 13.7494H25.9995C26.4046 13.7494 26.7932 13.9104 27.0797 14.1968C27.3662 14.4833 27.5271 14.8719 27.5271 15.2771V29.0262ZM22.9441 22.9155C22.642 22.9155 22.3466 23.0051 22.0954 23.1729C21.8442 23.3408 21.6484 23.5794 21.5327 23.8585C21.4171 24.1377 21.3868 24.4448 21.4458 24.7412C21.5047 25.0375 21.6502 25.3097 21.8639 25.5234C22.0775 25.737 22.3497 25.8825 22.6461 25.9415C22.9424 26.0004 23.2496 25.9702 23.5287 25.8545C23.8079 25.7389 24.0465 25.5431 24.2143 25.2919C24.3822 25.0406 24.4718 24.7453 24.4718 24.4431C24.4718 24.038 24.3108 23.6494 24.0243 23.3629C23.7379 23.0764 23.3493 22.9155 22.9441 22.9155Z" fill="black"/>
</svg>
