<svg width="399" height="332" viewBox="0 0 399 332" fill="none" xmlns="http://www.w3.org/2000/svg">
<mask id="mask0_887_3297" style="mask-type:alpha" maskUnits="userSpaceOnUse" x="0" y="0" width="399" height="332">
<path d="M0 20C0 8.95431 8.95431 0 20 0H379C390.046 0 399 8.9543 399 20V332H0V20Z" fill="white"/>
</mask>
<g mask="url(#mask0_887_3297)">
<circle cx="243" cy="58" r="271" fill="url(#paint0_radial_887_3297)"/>
<path d="M302.017 46.7363L300.314 43.9908C285.94 20.5531 259.864 6.42294 232.409 8.1407C228.876 8.36432 225.364 8.84474 221.901 9.57815C196.932 14.8536 175.184 33.4974 166.207 57.3735C160.91 71.4102 159.436 87.56 149.381 98.7219C136.308 113.226 114.106 113.686 94.5856 113.096C75.065 112.507 52.8492 113.01 39.833 127.572C31.6827 136.692 29.0521 149.658 29.7708 161.876C31.5102 194.219 54.3297 223.119 83.3447 237.494C112.36 251.868 146.528 253.148 178.289 246.837C222.778 237.982 265.089 213.661 290.525 176.093C315.961 138.525 322.365 87.2797 302.017 46.7363Z" fill="#EBEBEB" fill-opacity="0.21"/>
<path d="M342 317.826C342 317.933 269.143 318.012 179.287 318.012C89.432 318.012 16.5603 317.941 16.5603 317.826C16.5603 317.711 89.4033 317.639 179.287 317.639C269.171 317.639 342 317.732 342 317.826Z" fill="#263238"/>
<path d="M294.613 57H127.386C123.307 57 120 60.3047 120 64.3812V310.619C120 314.695 123.307 318 127.386 318H294.613C298.693 318 302 314.695 302 310.619V64.3812C302 60.3047 298.693 57 294.613 57Z" fill="#90A8FF"/>
<path d="M296 75H126V293H296V75Z" fill="white"/>
<path d="M215.631 309.464C218.358 306.738 218.358 302.317 215.631 299.59C212.904 296.864 208.483 296.864 205.757 299.59C203.03 302.317 203.03 306.738 205.757 309.464C208.483 312.191 212.904 312.191 215.631 309.464Z" fill="#263238"/>
<path d="M238.203 65H183.797C183.357 65 183 65.2422 183 65.541V66.459C183 66.7578 183.357 67 183.797 67H238.203C238.643 67 239 66.7578 239 66.459V65.541C239 65.2422 238.643 65 238.203 65Z" fill="#263238"/>
<path d="M204.5 279C205.328 279 206 278.105 206 277C206 275.895 205.328 275 204.5 275C203.671 275 203 275.895 203 277C203 278.105 203.671 279 204.5 279Z" fill="#263238"/>
<path d="M212 277C212 277.396 211.912 277.782 211.747 278.111C211.582 278.44 211.348 278.696 211.074 278.848C210.8 278.999 210.498 279.039 210.207 278.962C209.916 278.884 209.649 278.694 209.439 278.414C209.229 278.135 209.086 277.778 209.029 277.39C208.971 277.002 209 276.6 209.114 276.235C209.227 275.869 209.42 275.557 209.666 275.337C209.913 275.117 210.203 275 210.5 275C210.697 275 210.892 275.052 211.074 275.152C211.256 275.253 211.421 275.4 211.56 275.586C211.7 275.771 211.81 275.992 211.886 276.235C211.961 276.477 212 276.737 212 277Z" fill="#263238"/>
<path d="M219 277C219 277.396 218.912 277.783 218.747 278.112C218.581 278.441 218.347 278.697 218.072 278.849C217.798 279 217.496 279.039 217.205 278.961C216.914 278.883 216.646 278.692 216.437 278.411C216.227 278.131 216.085 277.774 216.028 277.385C215.971 276.997 216.001 276.594 216.116 276.229C216.23 275.864 216.423 275.552 216.671 275.333C216.918 275.114 217.209 274.998 217.506 275C217.703 275 217.897 275.052 218.079 275.152C218.261 275.253 218.426 275.4 218.564 275.586C218.703 275.772 218.813 275.993 218.888 276.235C218.962 276.478 219.001 276.738 219 277Z" fill="#263238"/>
<path d="M143.625 96C143.566 95.9996 143.508 95.9785 143.46 95.9397L140.123 93.2578C140.085 93.229 140.054 93.19 140.032 93.1444C140.011 93.0988 140 93.048 140 92.9963C140 92.9447 140.011 92.8938 140.032 92.8482C140.054 92.8026 140.085 92.7637 140.123 92.7348L143.56 90.053C143.622 90.0066 143.698 89.9898 143.771 90.0061C143.844 90.0224 143.909 90.0705 143.951 90.1401C143.972 90.1747 143.986 90.2138 143.994 90.2549C144.002 90.2961 144.002 90.3385 143.995 90.3797C143.987 90.421 143.973 90.4602 143.952 90.495C143.932 90.5299 143.905 90.5596 143.874 90.5826L140.773 92.9829L143.779 95.41C143.81 95.4335 143.836 95.4637 143.856 95.4988C143.876 95.5339 143.89 95.5732 143.897 95.6144C143.903 95.6556 143.902 95.6978 143.894 95.7387C143.887 95.7796 143.871 95.8183 143.85 95.8525C143.825 95.8952 143.792 95.9308 143.753 95.9564C143.714 95.982 143.67 95.9969 143.625 96Z" fill="#263238"/>
<path d="M274.354 95.9998C274.296 95.9996 274.239 95.9866 274.187 95.9621C274.136 95.9375 274.091 95.902 274.058 95.8587C274.007 95.788 273.988 95.702 274.006 95.619C274.024 95.536 274.078 95.4628 274.154 95.415L278.031 93.0088L274.273 90.5823C274.234 90.5581 274.201 90.5272 274.176 90.4915C274.151 90.4557 274.134 90.4158 274.125 90.3739C274.117 90.3321 274.118 90.2891 274.128 90.2476C274.138 90.2061 274.157 90.1668 274.184 90.132C274.24 90.0639 274.323 90.0181 274.415 90.0044C274.508 89.9906 274.602 90.0098 274.68 90.058L278.852 92.7466C278.898 92.7761 278.936 92.8154 278.961 92.8611C278.987 92.9067 279 92.9574 279 93.0088C279 93.0608 278.986 93.1121 278.959 93.1579C278.932 93.2038 278.892 93.2426 278.844 93.2709L274.554 95.9595C274.492 95.9879 274.423 96.0018 274.354 95.9998Z" fill="#263238"/>
<path d="M202 94.0686V95H198V90H201.906V90.9314H199.193V92.0168H201.587V92.9412H199.193V94.0966L202 94.0686Z" fill="#263238"/>
<path d="M208 90L205.611 95H204.319L202 90H203.376L205.054 93.5714L206.755 90H208Z" fill="#263238"/>
<path d="M211 94.0686V95H208V90H210.929V90.9314H208.891V92.0168H210.69V92.9412H208.891V94.0966L211 94.0686Z" fill="#263238"/>
<path d="M216 90V95H215.174L212.997 91.9678V95H212V90H212.832L215.003 93.0392V90H216Z" fill="#263238"/>
<path d="M218.099 90.9454H217V90H220V90.9454H218.9V95H218.099V90.9454Z" fill="#263238"/>
<path d="M220 94.4607L220.481 93.6108C221.064 93.9384 221.756 94.1162 222.466 94.1207C223.311 94.1207 223.632 93.8963 223.632 93.5972C223.632 92.6929 220.126 93.3116 220.126 91.5099C220.126 90.6872 220.971 90.0005 222.66 90.0005C223.393 89.9901 224.117 90.138 224.755 90.4288L224.324 91.2855C223.812 91.0411 223.23 90.9098 222.635 90.9048C221.79 90.9048 221.495 91.1495 221.495 91.4555C221.495 92.353 225 91.7343 225 93.4952C225 94.3043 224.155 94.9978 222.466 94.9978C221.595 95.0228 220.736 94.8356 220 94.4607Z" fill="#263238"/>
<path d="M285 111H175V150H285V111Z" fill="#F5F5F5"/>
<path d="M202 119.436L202.28 118.6C202.631 118.919 203.045 119.092 203.47 119.097C203.966 119.097 204.17 118.881 204.17 118.585C204.17 117.677 202.07 118.297 202.07 116.508C202.07 115.686 202.565 115.001 203.594 115.001C204.032 114.989 204.463 115.136 204.844 115.426L204.585 116.277C204.283 116.038 203.94 115.906 203.589 115.895C203.093 115.895 202.899 116.147 202.899 116.45C202.899 117.338 205 116.724 205 118.499C205 119.307 204.499 119.999 203.465 119.999C202.945 120.016 202.434 119.819 202 119.436Z" fill="#263238"/>
<path d="M210 116.816C210 117.93 209.229 118.625 207.996 118.625H207.067V120H206V115H207.996C209.229 115 210 115.688 210 116.816ZM208.919 116.816C208.919 116.263 208.588 115.942 207.934 115.942H207.067V117.676H207.934C208.588 117.676 208.912 117.354 208.912 116.816H208.919Z" fill="#263238"/>
<path d="M211.003 117.634C210.976 117.135 211.1 116.639 211.357 116.21C211.615 115.782 211.996 115.441 212.45 115.231C212.904 115.021 213.411 114.952 213.905 115.033C214.399 115.114 214.857 115.341 215.22 115.685C215.583 116.029 215.834 116.474 215.942 116.963C216.049 117.451 216.007 117.96 215.821 118.425C215.636 118.889 215.315 119.287 214.901 119.567C214.486 119.847 213.997 119.997 213.497 119.996C213.175 120.015 212.854 119.967 212.551 119.857C212.249 119.746 211.972 119.575 211.739 119.354C211.505 119.133 211.319 118.866 211.193 118.57C211.066 118.274 211.002 117.956 211.003 117.634ZM214.927 117.634C214.92 117.353 214.831 117.08 214.67 116.85C214.509 116.619 214.283 116.441 214.021 116.338C213.759 116.235 213.472 116.212 213.197 116.271C212.922 116.329 212.67 116.468 212.474 116.669C212.277 116.871 212.144 117.125 212.092 117.402C212.039 117.678 212.069 117.964 212.179 118.223C212.288 118.482 212.471 118.703 212.706 118.859C212.94 119.014 213.215 119.098 213.497 119.098C213.69 119.108 213.884 119.077 214.064 119.006C214.245 118.936 214.408 118.828 214.543 118.689C214.679 118.551 214.783 118.385 214.849 118.203C214.915 118.021 214.942 117.827 214.927 117.634Z" fill="#263238"/>
<path d="M218.873 120L218.003 118.61H217.039V120H216V115H217.949C219.157 115 219.912 115.688 219.912 116.816C219.925 117.154 219.843 117.488 219.676 117.771C219.509 118.054 219.266 118.271 218.981 118.393L220 120H218.873ZM217.895 115.942H217.039V117.683H217.895C218.529 117.683 218.853 117.354 218.853 116.816C218.853 116.278 218.529 115.942 217.895 115.942Z" fill="#263238"/>
<path d="M221.495 115.942H220V115H224V115.942H222.531V120H221.468L221.495 115.942Z" fill="#263238"/>
<path d="M231 115V120H229.966L227.246 116.966V120H226V115H227.042L229.754 118.034V115H231Z" fill="#263238"/>
<path d="M234.064 117.424H234.938V119.384C234.449 119.786 233.864 120 233.265 119.996C232.973 120.015 232.682 119.964 232.408 119.846C232.133 119.729 231.883 119.548 231.671 119.315C231.459 119.081 231.29 118.8 231.175 118.488C231.059 118.176 231 117.84 231 117.5C231 117.16 231.059 116.824 231.175 116.512C231.29 116.2 231.459 115.919 231.671 115.685C231.883 115.452 232.133 115.271 232.408 115.154C232.682 115.036 232.973 114.985 233.265 115.004C233.589 114.986 233.913 115.052 234.213 115.196C234.513 115.341 234.781 115.56 235 115.839L234.38 116.502C234.247 116.326 234.081 116.185 233.896 116.091C233.711 115.996 233.511 115.95 233.308 115.955C233.126 115.94 232.943 115.969 232.771 116.04C232.599 116.112 232.442 116.223 232.308 116.368C232.175 116.513 232.069 116.688 231.996 116.883C231.923 117.078 231.886 117.288 231.886 117.5C231.886 117.712 231.923 117.922 231.996 118.117C232.069 118.312 232.175 118.487 232.308 118.632C232.442 118.777 232.599 118.888 232.771 118.96C232.943 119.031 233.126 119.06 233.308 119.045C233.569 119.051 233.827 118.979 234.058 118.836L234.064 117.424Z" fill="#263238"/>
<path d="M241 119.548V120H237V115H240.882V115.46H237.596V117.227H240.521V117.67H237.596V119.517L241 119.548Z" fill="#263238"/>
<path d="M244 115L242.657 120H242.337L241 115H241.344L242.507 119.346L243.68 115H244Z" fill="#263238"/>
<path d="M248 119.548V120H246V115H247.941V115.46H246.298V117.227H247.76V117.67H246.298V119.517L248 119.548Z" fill="#263238"/>
<path d="M252 115V120H251.683L249.38 115.949V120H249V115H249.316L251.62 119.059V115H252Z" fill="#263238"/>
<path d="M255.302 115.494H254V115H257V115.463H255.692V120H255.302V115.494Z" fill="#263238"/>
<path d="M287 152H140V107H287V152ZM140.635 151.354H286.364V107.646H140.635V151.354Z" fill="#263238"/>
<path d="M158.842 126H152.163C151.856 126 151.561 125.853 151.343 125.592C151.125 125.33 151.001 124.975 151 124.604V117.396C151.001 117.025 151.125 116.67 151.343 116.408C151.561 116.147 151.856 116 152.163 116H158.842C159.149 116 159.444 116.147 159.661 116.409C159.878 116.67 160 117.025 160 117.396V124.604C160 124.975 159.878 125.33 159.661 125.591C159.444 125.853 159.149 126 158.842 126ZM152.163 116.709C152.012 116.709 151.868 116.781 151.761 116.91C151.654 117.039 151.594 117.213 151.594 117.396V124.604C151.594 124.787 151.654 124.961 151.761 125.09C151.868 125.219 152.012 125.291 152.163 125.291H158.842C158.993 125.291 159.138 125.219 159.245 125.09C159.352 124.961 159.412 124.787 159.412 124.604V117.396C159.412 117.213 159.352 117.039 159.245 116.91C159.138 116.781 158.993 116.709 158.842 116.709H152.163Z" fill="#7694FF"/>
<path d="M153.576 115H153.424C152.637 115 152 115.342 152 115.765V117.235C152 117.658 152.637 118 153.424 118H153.576C154.362 118 155 117.658 155 117.235V115.765C155 115.342 154.362 115 153.576 115Z" fill="#7694FF"/>
<path d="M158.525 115H158.474C158.212 115 158 115.342 158 115.765V117.235C158 117.658 158.212 118 158.474 118H158.525C158.787 118 159 117.658 159 117.235V115.765C159 115.342 158.787 115 158.525 115Z" fill="#7694FF"/>
<path d="M156 119H153V120H156V119Z" fill="#7694FF"/>
<path d="M158 119H157V120H158V119Z" fill="#7694FF"/>
<path d="M156 121H153V123H156V121Z" fill="#7694FF"/>
<path d="M158 121H157V123H158V121Z" fill="#7694FF"/>
<path d="M153 131V139H151.387V132.485H150V131H153Z" fill="#263238"/>
<path d="M161 137.338V139H155.336V137.673L158.235 134.452C158.895 133.706 159.017 133.255 159.017 132.824C159.017 132.14 158.606 131.723 157.817 131.723C157.517 131.709 157.218 131.783 156.948 131.936C156.677 132.09 156.442 132.32 156.264 132.605L155 131.647C155.343 131.106 155.793 130.673 156.312 130.387C156.831 130.1 157.402 129.97 157.974 130.006C159.649 130.006 160.762 131.018 160.762 132.619C160.762 133.48 160.559 134.26 159.51 135.416L157.771 137.338H161Z" fill="#263238"/>
<path d="M175 149C199.618 122.395 254 138.285 254 138.285L253.112 132.387C207.956 116.945 175 120.31 175 120.31V149Z" fill="#E0E0E0"/>
<path d="M281.46 137.1C283.844 129.005 279.214 120.509 271.118 118.124C263.022 115.74 254.526 120.37 252.142 128.466C249.758 136.562 254.388 145.058 262.484 147.442C270.58 149.826 279.075 145.196 281.46 137.1Z" fill="#455A64"/>
<path d="M279.331 136.044C278.909 135.482 278.091 134.474 277.11 133.337C276.261 132.303 275.346 131.326 274.37 130.409L275.136 125.589C275.779 125.454 276.414 125.286 277.039 125.085C277.777 124.911 278.486 124.63 279.143 124.251C278.386 124.321 277.643 124.495 276.935 124.768C276.195 125.001 275.545 125.234 275.169 125.415V125.369L269.824 122.655C269.536 122.186 269.215 121.737 268.863 121.311C268.331 120.647 267.721 120.048 267.045 119.528L268.526 118.132C268.526 118.132 267.493 117.835 264.87 118.132C262.247 118.429 262.363 119.502 262.363 119.502L266.857 119.599C267.156 119.941 267.85 120.646 268.584 121.537C268.98 122.022 269.324 122.487 269.604 122.869L265.643 126.817C264.724 126.845 263.807 126.923 262.896 127.049C261.84 127.124 260.794 127.313 259.779 127.612C260.836 127.64 261.893 127.562 262.935 127.379C264.117 127.23 265.13 127.075 265.656 126.972L268.253 132.006L267.896 132.548C267.461 133.233 266.896 134.203 266.337 135.308C265.779 136.412 265.383 137.311 265.091 138.047L260.974 137.627C260.772 137.156 260.539 136.626 260.285 136.057C259.721 134.81 259.201 133.757 258.909 133.227L259.798 127.612L256 124.594C256.396 124.374 257.708 123.398 259.247 122.184C260.37 121.365 261.426 120.458 262.402 119.47C261.219 120.201 260.095 121.022 259.039 121.925C257.487 123.153 256.234 124.226 255.948 124.51L255.766 124.368L252 128.154L253.902 133.66C253.721 134.041 253.363 135.023 252.935 136.173C252.548 137.063 252.24 137.984 252.013 138.926C252.547 138.11 252.962 137.222 253.247 136.29C253.573 135.45 253.832 134.586 254.019 133.705L258.779 133.35C259 133.944 259.428 134.978 259.961 136.141C260.221 136.71 260.461 137.227 260.682 137.685L259.902 142.59L264.506 146.234C264.799 146.735 265.136 147.208 265.513 147.649C265.864 148.171 266.303 148.628 266.811 149C266.557 148.424 266.204 147.897 265.766 147.443C265.415 146.979 265.024 146.547 264.597 146.15L268.136 143.443L265.785 138.073L265.311 138.028C265.649 137.317 266.084 136.406 266.61 135.404C267.311 134.028 267.967 132.82 268.344 132.122L274.253 131.191L274.376 130.422C275.152 131.499 275.984 132.535 276.87 133.524C277.798 134.603 278.643 135.534 279.149 136.057H279.065L275.636 141.556L275.675 141.608C274.961 141.731 273.662 142.002 272.175 142.351C271.052 142.616 270.045 142.868 269.318 143.062C268.921 143.148 268.532 143.269 268.156 143.423C268.156 143.546 270.013 143.197 272.247 142.674C273.785 142.312 275.097 141.97 275.772 141.756L277.558 144.419C278.903 143.331 279.996 141.967 280.762 140.42C281.529 138.873 281.951 137.18 282 135.456V135.398L279.331 136.044Z" fill="#263238"/>
<path d="M191 134.706V136H187.229V134.965L189.152 132.467C189.595 131.894 189.661 131.537 189.661 131.208C189.661 130.669 189.392 130.354 188.862 130.354C188.664 130.349 188.468 130.409 188.291 130.531C188.113 130.653 187.96 130.833 187.845 131.054L187 130.277C187.229 129.859 187.529 129.523 187.874 129.301C188.219 129.079 188.599 128.977 188.979 129.004C190.094 129.004 190.837 129.788 190.837 131.033C190.837 131.733 190.699 132.306 190.002 133.202L188.852 134.692L191 134.706Z" fill="#263238"/>
<path d="M195 129.007V136H192.873V130.297H191V129L195 129.007Z" fill="#263238"/>
<path d="M195 131.057C195 130.777 195.105 130.508 195.293 130.31C195.48 130.111 195.735 130 196 130C196.265 130 196.519 130.111 196.707 130.31C196.894 130.508 197 130.777 197 131.057C197 131.337 196.894 131.606 196.707 131.804C196.519 132.003 196.265 132.114 196 132.114C195.735 132.114 195.48 132.003 195.293 131.804C195.105 131.606 195 131.337 195 131.057ZM195 134.943C195 134.663 195.105 134.394 195.293 134.196C195.48 133.997 195.735 133.886 196 133.886C196.265 133.886 196.519 133.997 196.707 134.196C196.894 134.394 197 134.663 197 134.943C197 135.223 196.894 135.492 196.707 135.69C196.519 135.889 196.265 136 196 136C195.735 136 195.48 135.889 195.293 135.69C195.105 135.492 195 135.223 195 134.943Z" fill="#263238"/>
<path d="M198 132.5C198 130.27 199.064 129 200.497 129C201.93 129 203 130.27 203 132.5C203 134.73 201.941 136 200.497 136C199.052 136 198 134.737 198 132.5ZM201.638 132.5C201.638 130.967 201.175 130.325 200.497 130.325C199.819 130.325 199.367 130.967 199.367 132.5C199.367 134.033 199.831 134.675 200.497 134.675C201.163 134.675 201.638 134.039 201.638 132.5Z" fill="#263238"/>
<path d="M204 132.5C204 130.27 205.07 129 206.503 129C207.936 129 209 130.27 209 132.5C209 134.73 207.941 136 206.503 136C205.064 136 204 134.737 204 132.5ZM207.644 132.5C207.644 130.967 207.175 130.325 206.503 130.325C205.831 130.325 205.367 130.967 205.367 132.5C205.367 134.033 205.837 134.675 206.503 134.675C207.169 134.675 207.644 134.039 207.644 132.5Z" fill="#263238"/>
<path d="M220 134.706V136H214.343V134.965L217.236 132.467C217.893 131.894 218 131.537 218 131.208C218 130.669 217.595 130.355 216.801 130.355C216.504 130.348 216.209 130.408 215.943 130.53C215.676 130.652 215.447 130.832 215.275 131.054L214 130.278C214.344 129.858 214.796 129.523 215.315 129.301C215.834 129.079 216.405 128.977 216.977 129.004C218.641 129.004 219.755 129.788 219.755 131.033C219.755 131.733 219.557 132.306 218.504 133.202L216.786 134.692L220 134.706Z" fill="#263238"/>
<path d="M225 133.781C225 134.939 224.186 135.999 222.397 135.999C221.549 136.018 220.715 135.761 220 135.262L220.564 134.047C221.09 134.455 221.72 134.672 222.365 134.665C223.089 134.665 223.538 134.342 223.538 133.781C223.538 133.219 223.192 132.931 222.365 132.931H221.724V131.878L223.006 130.278H220.327V129H224.73V130.032L223.269 131.801C223.737 131.818 224.18 132.034 224.503 132.404C224.827 132.774 225.005 133.268 225 133.781Z" fill="#263238"/>
<path d="M226.002 131.805C226.012 131.586 226.069 131.381 226.162 131.232C226.254 131.083 226.375 131 226.5 131C226.625 131 226.746 131.083 226.838 131.232C226.93 131.381 226.987 131.586 226.998 131.805C227.004 131.927 226.995 132.049 226.973 132.165C226.951 132.28 226.915 132.386 226.868 132.476C226.821 132.566 226.764 132.638 226.701 132.687C226.638 132.736 226.569 132.762 226.5 132.762C226.43 132.762 226.362 132.736 226.299 132.687C226.235 132.638 226.178 132.566 226.131 132.476C226.085 132.386 226.049 132.28 226.026 132.165C226.004 132.049 225.996 131.927 226.002 131.805ZM226.002 135.044C226.012 134.824 226.069 134.619 226.162 134.47C226.254 134.321 226.375 134.238 226.5 134.238C226.625 134.238 226.746 134.321 226.838 134.47C226.93 134.619 226.987 134.824 226.998 135.044C227.004 135.165 226.995 135.288 226.973 135.403C226.951 135.519 226.915 135.625 226.868 135.715C226.821 135.805 226.764 135.876 226.701 135.926C226.638 135.975 226.569 136 226.5 136C226.43 136 226.362 135.975 226.299 135.926C226.235 135.876 226.178 135.805 226.131 135.715C226.085 135.625 226.049 135.519 226.026 135.403C226.004 135.288 225.996 135.165 226.002 135.044Z" fill="#263238"/>
<path d="M228 132.5C228 130.27 229.065 129 230.5 129C231.934 129 233 130.27 233 132.5C233 134.73 231.94 136 230.5 136C229.059 136 228 134.737 228 132.5ZM231.643 132.5C231.643 130.967 231.172 130.325 230.5 130.325C229.827 130.325 229.369 130.967 229.369 132.5C229.369 134.033 229.833 134.675 230.5 134.675C231.166 134.675 231.643 134.039 231.643 132.5Z" fill="#263238"/>
<path d="M234 132.5C234 130.27 235.277 129 236.996 129C238.716 129 240 130.27 240 132.5C240 134.73 238.73 136 236.996 136C235.263 136 234 134.737 234 132.5ZM238.366 132.5C238.366 130.967 237.81 130.325 236.996 130.325C236.183 130.325 235.641 130.967 235.641 132.5C235.641 134.033 236.197 134.675 236.996 134.675C237.795 134.675 238.366 134.039 238.366 132.5Z" fill="#263238"/>
<path d="M285 168H175V207H285V168Z" fill="#F5F5F5"/>
<path d="M196.251 176.988V174.614L195.188 176.579H194.832L193.77 174.662V177H193V173H193.68L195.013 175.469L196.32 173H197V176.976L196.251 176.988Z" fill="#263238"/>
<path d="M198 175.223V173H199.021V175.175C199.021 175.924 199.39 176.237 200.003 176.237C200.616 176.237 200.985 175.924 200.985 175.175V173H202V175.211C202 175.685 201.789 176.14 201.414 176.476C201.039 176.811 200.53 177 200 177C199.469 177 198.961 176.811 198.586 176.476C198.21 176.14 198 175.685 198 175.211V175.223Z" fill="#263238"/>
<path d="M203 176.555L203.285 175.88C203.636 176.137 204.05 176.278 204.476 176.284C204.971 176.284 205.17 176.105 205.17 175.868C205.17 175.147 203.075 175.643 203.075 174.207C203.075 173.549 203.571 173.001 204.594 173.001C205.032 172.99 205.465 173.11 205.844 173.347L205.59 174.022C205.286 173.833 204.941 173.729 204.589 173.722C204.093 173.722 203.905 173.918 203.905 174.16C203.905 174.876 206 174.385 206 175.799C206 176.445 205.499 176.999 204.47 176.999C203.949 177.013 203.437 176.858 203 176.555Z" fill="#263238"/>
<path d="M206 173H208V177H206V173Z" fill="#263238"/>
<path d="M209 175.005C209.019 174.588 209.137 174.187 209.341 173.852C209.544 173.517 209.824 173.264 210.144 173.123C210.465 172.983 210.812 172.962 211.142 173.063C211.472 173.164 211.77 173.382 212 173.69L211.53 174.221C211.435 174.077 211.315 173.961 211.178 173.882C211.042 173.804 210.892 173.764 210.742 173.765C210.604 173.754 210.465 173.777 210.335 173.834C210.204 173.891 210.085 173.98 209.984 174.096C209.883 174.212 209.802 174.353 209.747 174.508C209.692 174.664 209.663 174.833 209.663 175.003C209.663 175.173 209.692 175.341 209.747 175.497C209.802 175.653 209.883 175.793 209.984 175.909C210.085 176.025 210.204 176.114 210.335 176.171C210.465 176.228 210.604 176.251 210.742 176.24C210.892 176.242 211.042 176.201 211.178 176.123C211.315 176.044 211.435 175.928 211.53 175.784L212 176.309C211.771 176.617 211.473 176.835 211.144 176.936C210.815 177.038 210.468 177.018 210.148 176.879C209.828 176.739 209.549 176.488 209.344 176.155C209.14 175.821 209.02 175.422 209 175.005Z" fill="#263238"/>
<path d="M216.237 176.14H213.746L213.265 177H212L214.403 173H215.597L218 177H216.694L216.237 176.14ZM215.845 175.436L214.996 173.907L214.147 175.436H215.845Z" fill="#263238"/>
<path d="M218 173H218.947V176.242H221V177H218V173Z" fill="#263238"/>
<path d="M227 176.631V177H224V173H226.911V173.363H224.449V174.786H226.645V175.149H224.449V176.625L227 176.631Z" fill="#263238"/>
<path d="M231 173L229.206 177H228.793L227 173H227.46L228.991 176.475L230.533 173H231Z" fill="#263238"/>
<path d="M235 176.631V177H232V173H234.911V173.363H232.45V174.786H234.645V175.149H232.45V176.625L235 176.631Z" fill="#263238"/>
<path d="M240 173V177H239.585L236.507 173.752V177H236V173H236.421L239.5 176.242V173H240Z" fill="#263238"/>
<path d="M241.3 173.376H240V173H243V173.364H241.693V177H241.3V173.376Z" fill="#263238"/>
<path d="M287 210H140V165H287V210ZM140.635 209.354H286.364V165.646H140.635V209.354Z" fill="#263238"/>
<path d="M158.842 182H152.163C151.855 181.998 151.56 181.88 151.342 181.67C151.125 181.46 151.001 181.175 151 180.878V175.122C151 174.824 151.122 174.539 151.341 174.328C151.559 174.118 151.855 174 152.163 174H158.842C159.15 174.002 159.444 174.12 159.661 174.331C159.878 174.541 160 174.825 160 175.122V180.878C160 181.175 159.878 181.459 159.661 181.669C159.444 181.88 159.15 181.998 158.842 182ZM152.163 174.567C152.012 174.568 151.867 174.627 151.76 174.731C151.654 174.835 151.594 174.975 151.594 175.122V180.878C151.594 181.024 151.654 181.164 151.761 181.267C151.868 181.369 152.012 181.427 152.163 181.427H158.842C158.993 181.427 159.138 181.369 159.245 181.267C159.352 181.164 159.412 181.024 159.412 180.878V175.122C159.412 174.975 159.352 174.835 159.245 174.731C159.139 174.627 158.994 174.568 158.842 174.567H152.163Z" fill="#7694FF"/>
<path d="M153.576 172H153.424C152.637 172 152 172.342 152 172.765V174.235C152 174.658 152.637 175 153.424 175H153.576C154.362 175 155 174.658 155 174.235V172.765C155 172.342 154.362 172 153.576 172Z" fill="#7694FF"/>
<path d="M158.525 172H158.474C158.212 172 158 172.342 158 172.765V174.235C158 174.658 158.212 175 158.474 175H158.525C158.787 175 159 174.658 159 174.235V172.765C159 172.342 158.787 172 158.525 172Z" fill="#7694FF"/>
<path d="M156 176H153V177H156V176Z" fill="#7694FF"/>
<path d="M158 176H157V177H158V176Z" fill="#7694FF"/>
<path d="M156 179H153V180H156V179Z" fill="#7694FF"/>
<path d="M158 179H157V180H158V179Z" fill="#7694FF"/>
<path d="M153 188V196H151.387V189.484H150V188H153Z" fill="#263238"/>
<path d="M161 192.281C161 195.293 159.494 196.998 157.292 196.998C156.589 197.021 155.893 196.814 155.281 196.398L155.904 194.916C156.309 195.225 156.784 195.378 157.264 195.354C158.466 195.354 159.253 194.491 159.309 192.813C159.066 193.081 158.78 193.288 158.47 193.422C158.159 193.557 157.829 193.615 157.5 193.595C156.101 193.595 155 192.523 155 190.899C155 189.12 156.213 188.001 157.747 188.001C159.764 187.96 161 189.47 161 192.281ZM159.118 190.764C159.118 190.016 158.651 189.47 157.854 189.47C157.701 189.447 157.546 189.463 157.399 189.518C157.253 189.573 157.117 189.664 157.002 189.787C156.887 189.909 156.796 190.06 156.733 190.228C156.671 190.397 156.639 190.58 156.64 190.764C156.644 190.95 156.68 191.132 156.745 191.3C156.811 191.469 156.904 191.619 157.02 191.741C157.136 191.864 157.272 191.957 157.42 192.014C157.567 192.07 157.722 192.09 157.876 192.072C158.031 192.091 158.187 192.072 158.335 192.016C158.482 191.96 158.619 191.867 158.736 191.744C158.852 191.621 158.947 191.471 159.012 191.302C159.078 191.133 159.114 190.95 159.118 190.764Z" fill="#263238"/>
<path d="M234 183.5C234 183.769 225.721 184 215.503 184C205.285 184 197 183.769 197 183.5C197 183.231 205.285 183 215.503 183C225.721 183 234 183.212 234 183.5Z" fill="#263238"/>
<path d="M259 197.108C259.089 197.307 259.203 197.493 259.34 197.662C259.755 198.14 260.311 198.477 260.93 198.624C261.912 198.814 262.911 198.908 263.912 198.904C265.235 198.98 266.563 198.923 267.875 198.732C268.631 198.616 269.368 198.402 270.068 198.095C270.822 197.746 271.516 197.282 272.126 196.72C273.409 195.574 274.48 194.047 275.878 192.678C276.599 191.982 277.387 191.357 278.231 190.813C278.661 190.533 279.129 190.291 279.578 190.043C280.04 189.823 280.432 189.481 280.713 189.056C280.831 188.838 280.863 188.583 280.802 188.343C280.73 188.104 280.581 187.894 280.379 187.745C280.162 187.599 279.916 187.499 279.658 187.45C279.4 187.402 279.135 187.407 278.879 187.464C277.795 187.667 276.759 188.071 275.826 188.655C275.345 188.941 274.935 189.291 274.467 189.629C274.233 189.793 273.976 189.922 273.704 190.011C273.42 190.107 273.11 190.091 272.838 189.966C272.577 189.826 272.373 189.602 272.261 189.33C272.145 189.08 272.053 188.82 271.985 188.553C271.838 188.037 271.737 187.508 271.684 186.974C271.587 185.931 271.663 184.88 271.908 183.861C272.145 182.889 272.439 181.93 272.787 180.991C273.505 179.304 273.915 177.504 273.999 175.675C273.991 175.248 273.946 174.822 273.864 174.402C273.819 174.205 273.761 174.007 273.71 173.81C273.657 173.625 273.565 173.454 273.441 173.307C273.3 173.189 273.122 173.125 272.937 173.125C272.753 173.125 272.575 173.189 272.434 173.307C272.146 173.532 271.95 173.853 271.883 174.211C271.799 174.561 271.754 174.918 271.697 175.261C271.639 175.605 271.568 175.936 271.498 176.261C271.363 176.897 271.209 177.534 271.049 178.075C270.781 179.036 270.46 179.982 270.087 180.908C269.881 181.507 269.592 182.075 269.228 182.595C269.096 182.772 268.936 182.927 268.753 183.053L268.875 182.938C268.995 182.826 269.105 182.702 269.202 182.569C269.551 182.045 269.83 181.478 270.029 180.882C270.318 180.118 270.671 179.176 270.959 178.05C271.113 177.489 271.261 176.885 271.395 176.242C271.459 175.917 271.523 175.605 271.581 175.242C271.639 174.879 271.677 174.542 271.767 174.179C271.838 173.791 272.05 173.442 272.364 173.199C272.536 173.085 272.734 173.017 272.941 173.002C273.05 172.995 273.16 173.011 273.263 173.049C273.366 173.088 273.459 173.147 273.537 173.224C273.678 173.383 273.779 173.573 273.832 173.778C273.899 173.976 273.953 174.178 273.992 174.383C274.081 174.802 274.129 175.228 274.133 175.656C274.06 177.502 273.654 179.319 272.934 181.022C272.59 181.952 272.299 182.9 272.062 183.861C271.824 184.862 271.753 185.894 271.851 186.917C271.901 187.443 272 187.962 272.146 188.47C272.213 188.727 272.301 188.978 272.408 189.221C272.509 189.456 272.688 189.649 272.915 189.769C273.146 189.877 273.411 189.891 273.652 189.807C273.909 189.724 274.152 189.601 274.371 189.444C274.826 189.145 275.249 188.763 275.737 188.47C276.69 187.872 277.75 187.459 278.859 187.254C279.137 187.195 279.424 187.192 279.703 187.246C279.981 187.3 280.246 187.409 280.482 187.566C280.716 187.735 280.885 187.977 280.963 188.254C281.036 188.535 280.999 188.833 280.86 189.088C280.565 189.54 280.15 189.903 279.661 190.138C279.199 190.393 278.75 190.628 278.321 190.908C277.481 191.438 276.699 192.052 275.987 192.742C274.602 194.091 273.531 195.625 272.222 196.777C271.61 197.345 270.913 197.817 270.158 198.178C269.443 198.481 268.694 198.695 267.926 198.814C266.605 198.995 265.269 199.044 263.937 198.961C262.931 198.957 261.927 198.85 260.943 198.643C260.318 198.487 259.759 198.139 259.346 197.65C259.245 197.52 259.158 197.379 259.09 197.229C259.057 197.191 259.027 197.15 259 197.108Z" fill="#263238"/>
<path d="M262 183.523C261.882 183.475 261.78 183.402 261.702 183.311C261.473 183.052 261.348 182.734 261.347 182.405C261.333 181.899 261.362 181.393 261.434 180.89C261.492 180.3 261.542 179.606 261.586 178.881C261.63 178.155 261.666 177.321 261.666 176.454C261.687 176.239 261.646 176.022 261.547 175.825C261.448 175.627 261.294 175.455 261.1 175.324C260.89 175.19 260.631 175.131 260.374 175.157C260.249 175.172 260.128 175.209 260.02 175.267C259.911 175.324 259.817 175.4 259.743 175.491C259.456 175.912 259.273 176.383 259.205 176.871C259.115 177.39 259.061 177.913 259.046 178.438C258.995 179.503 258.988 180.614 258.98 181.751C258.973 182.887 258.98 183.998 258.915 185.07C258.85 186.142 258.755 187.182 258.61 188.158C258.308 189.879 258.15 191.617 258.138 193.358C258.16 194.532 258.38 195.696 258.792 196.812C258.944 197.204 259.097 197.499 259.198 197.698C259.249 197.788 259.285 197.865 259.322 197.923L259.358 198C259.358 198 259.358 198 259.3 197.929L259.162 197.711C258.995 197.427 258.849 197.133 258.726 196.832C258.276 195.718 258.031 194.547 258.001 193.365C257.987 191.615 258.131 189.868 258.429 188.139C258.708 186.019 258.827 183.885 258.784 181.751C258.784 180.614 258.784 179.503 258.857 178.425C258.87 177.896 258.923 177.368 259.017 176.846C259.087 176.332 259.285 175.838 259.597 175.401C259.682 175.295 259.79 175.205 259.914 175.136C260.039 175.068 260.178 175.023 260.323 175.003C260.612 174.984 260.899 175.055 261.136 175.202C261.369 175.338 261.546 175.536 261.644 175.767C261.726 175.986 261.768 176.216 261.767 176.447C261.767 177.333 261.717 178.142 261.666 178.887C261.615 179.632 261.55 180.306 261.484 180.897C261.403 181.396 261.362 181.901 261.361 182.405C261.362 182.722 261.47 183.031 261.673 183.291C261.769 183.382 261.879 183.459 262 183.523Z" fill="#263238"/>
<path d="M262.1 183.744C262.149 183.674 262.205 183.611 262.266 183.555C262.43 183.388 262.618 183.256 262.82 183.164C263.152 183.024 263.506 182.973 263.857 183.014C264.325 183.062 264.772 183.263 265.148 183.594C265.375 183.784 265.549 184.05 265.647 184.357C265.719 184.691 265.771 185.031 265.802 185.374C265.84 185.737 265.86 186.103 265.863 186.469C265.863 186.841 265.863 187.225 265.891 187.623C265.891 188.412 265.93 189.246 265.952 190.107L265.985 191.41C266.012 191.867 266.002 192.325 265.957 192.779C265.925 193.015 265.845 193.239 265.724 193.431C265.597 193.617 265.433 193.765 265.248 193.862C265.068 193.958 264.871 194.005 264.674 194C264.476 193.994 264.282 193.936 264.106 193.829C263.78 193.594 263.544 193.221 263.446 192.786C263.341 192.394 263.263 191.993 263.214 191.586C263.02 190.009 263.07 188.575 262.964 187.388C262.907 186.446 262.72 185.521 262.41 184.65C262.324 184.426 262.226 184.208 262.116 183.998C262.039 183.846 262 183.768 262 183.764C262.053 183.83 262.101 183.902 262.144 183.979C262.262 184.188 262.369 184.406 262.465 184.631C262.792 185.502 262.992 186.432 263.058 187.382C263.175 188.575 263.136 189.989 263.336 191.567C263.386 191.965 263.464 192.357 263.568 192.74C263.656 193.133 263.868 193.471 264.161 193.686C264.32 193.776 264.493 193.822 264.669 193.822C264.844 193.822 265.018 193.776 265.176 193.686C265.34 193.601 265.485 193.472 265.597 193.307C265.701 193.132 265.771 192.932 265.802 192.721C265.845 192.277 265.854 191.83 265.83 191.384L265.797 190.081C265.797 189.22 265.763 188.386 265.747 187.597C265.747 187.199 265.747 186.814 265.747 186.436C265.745 186.075 265.727 185.713 265.691 185.354C265.664 185.021 265.618 184.69 265.553 184.363C265.462 184.082 265.304 183.838 265.098 183.659C264.74 183.334 264.312 183.133 263.862 183.079C263.523 183.033 263.179 183.071 262.853 183.19C262.579 183.327 262.324 183.514 262.1 183.744Z" fill="#263238"/>
<path d="M266 183.166C266.017 183.096 266.04 183.029 266.069 182.965C266.156 182.787 266.274 182.635 266.413 182.52C266.635 182.347 266.877 182.219 267.131 182.14C267.464 182.008 267.817 181.968 268.164 182.025C268.584 182.143 268.961 182.431 269.237 182.843C269.565 183.296 269.794 183.847 269.903 184.442C269.994 185.098 270.021 185.765 269.983 186.429C269.983 187.11 269.926 187.82 269.857 188.545C269.788 189.269 269.691 189.979 269.582 190.632C269.487 191.286 269.342 191.927 269.151 192.547C268.983 193.131 268.639 193.61 268.193 193.881C267.982 194.001 267.746 194.031 267.521 193.967C267.313 193.901 267.132 193.74 267.016 193.515C266.84 193.13 266.758 192.688 266.78 192.246C266.78 191.865 266.826 191.528 266.826 191.285C266.833 191.011 266.806 190.738 266.746 190.474C266.746 190.474 266.746 190.474 266.746 190.524C266.767 190.571 266.783 190.622 266.792 190.675C266.84 190.873 266.865 191.078 266.867 191.285C266.867 191.55 266.867 191.873 266.867 192.253C266.852 192.667 266.934 193.078 267.102 193.436C267.206 193.632 267.366 193.77 267.55 193.824C267.743 193.871 267.944 193.841 268.124 193.737C268.537 193.475 268.854 193.022 269.008 192.475C269.19 191.865 269.328 191.237 269.421 190.596C269.53 189.929 269.622 189.233 269.691 188.516C269.76 187.799 269.8 187.082 269.817 186.422C269.856 185.773 269.833 185.12 269.748 184.478C269.647 183.912 269.434 183.387 269.128 182.95C268.875 182.554 268.524 182.274 268.129 182.154C267.797 182.094 267.459 182.123 267.136 182.24C266.888 182.309 266.65 182.425 266.43 182.585C266.249 182.728 266.1 182.928 266 183.166Z" fill="#263238"/>
<path d="M265.991 197C265.963 197 265.935 196.508 265.761 195.739C265.666 195.277 265.538 194.826 265.381 194.39C265 193.347 264.457 192.401 263.78 191.605C263.505 191.279 263.209 190.979 262.896 190.708C262.364 190.243 261.989 190.034 262 190C262.094 190.029 262.184 190.072 262.269 190.128C262.373 190.183 262.474 190.246 262.571 190.317C262.704 190.403 262.832 190.498 262.957 190.6C263.283 190.868 263.59 191.168 263.875 191.497C264.221 191.91 264.534 192.362 264.81 192.846C265.082 193.325 265.315 193.836 265.504 194.37C265.657 194.806 265.778 195.258 265.868 195.719C265.907 195.908 265.924 196.09 265.946 196.251C265.968 196.385 265.981 196.52 265.985 196.656C266.002 196.77 266.004 196.886 265.991 197Z" fill="#263238"/>
<path d="M271 184C270.977 184.425 270.859 184.83 270.661 185.156C270.508 185.523 270.278 185.817 270.002 186C269.973 185.952 270.266 185.586 270.535 185.036C270.805 184.486 270.96 183.984 271 184Z" fill="#263238"/>
<path d="M272.584 196C272.738 196.212 272.848 196.454 272.906 196.711C273.076 197.417 273.013 198.161 272.726 198.826C272.54 199.287 272.276 199.711 271.945 200.078C271.555 200.491 271.097 200.83 270.591 201.079C269.425 201.613 268.166 201.904 266.888 201.936C265.623 202.061 264.346 202.003 263.096 201.764C262.065 201.559 261.107 201.075 260.322 200.361C259.792 199.885 259.389 199.28 259.148 198.602C259.107 198.498 259.074 198.39 259.051 198.279C259.032 198.199 259.017 198.118 259.006 198.036C258.998 197.97 258.998 197.904 259.006 197.838C259.006 197.838 259.051 198.115 259.225 198.582C259.488 199.234 259.899 199.813 260.425 200.269C261.203 200.945 262.142 201.4 263.147 201.587C264.384 201.809 265.645 201.86 266.895 201.738C268.151 201.704 269.388 201.423 270.539 200.908C271.033 200.674 271.481 200.351 271.862 199.953C272.183 199.597 272.444 199.19 272.636 198.747C272.928 198.108 273.007 197.388 272.861 196.698C272.786 196.459 272.693 196.226 272.584 196Z" fill="#263238"/>
<path d="M273 197.987C273.322 197.803 273.657 197.635 274.003 197.484C274.622 197.182 275.46 196.742 276.354 196.206L276.67 196.017L276.732 196.148C275.885 196.208 275.047 196.324 274.223 196.497C273.605 196.622 273.227 196.725 273.22 196.702C273.297 196.658 273.383 196.625 273.474 196.605C273.699 196.527 273.928 196.458 274.161 196.4C274.981 196.194 275.824 196.061 276.677 196H277L276.739 196.16L276.422 196.354C275.66 196.813 274.861 197.229 274.031 197.598C273.708 197.741 273.446 197.85 273.261 197.918C273.075 197.987 273.034 198.021 273 197.987Z" fill="#263238"/>
<path d="M266.2 198C266.456 198.127 266.703 198.274 266.94 198.44C267.415 198.733 268.089 199.164 268.874 199.677L269 199.759L268.874 199.84C268.645 200.069 268.487 200.371 268.422 200.703C268.321 201.115 268.122 201.489 267.844 201.786C267.718 201.908 267.56 201.983 267.392 201.998C267.23 202.01 267.068 201.971 266.926 201.884C266.681 201.733 266.455 201.55 266.252 201.338C265.93 200.953 265.536 200.65 265.096 200.451H265L265.059 200.353C265.407 199.775 265.703 199.303 265.911 198.977C266.013 198.8 266.129 198.634 266.259 198.48C266.191 198.678 266.099 198.864 265.985 199.034C265.8 199.368 265.526 199.848 265.185 200.443L265.14 200.32C265.606 200.514 266.026 200.82 266.37 201.216C266.565 201.415 266.782 201.587 267.015 201.729C267.124 201.8 267.251 201.832 267.377 201.818C267.504 201.805 267.623 201.748 267.718 201.656C267.968 201.38 268.15 201.038 268.244 200.662C268.337 200.276 268.546 199.934 268.837 199.694V199.889L266.948 198.586C266.682 198.418 266.432 198.221 266.2 198Z" fill="#263238"/>
<path d="M261 200.623C260.892 200.681 260.779 200.716 260.665 200.727C260.448 200.727 260.131 200.831 259.74 200.887C258.709 201.011 257.672 201.033 256.639 200.953H256.366H256L256.341 200.746C257.228 200.193 258.094 199.563 258.934 198.86C259.554 198.322 259.958 197.973 259.97 198.002C259.895 198.113 259.812 198.211 259.722 198.294C259.554 198.473 259.306 198.718 258.99 199.001C258.162 199.751 257.297 200.404 256.403 200.953V200.718H256.676C257.695 200.798 258.715 200.798 259.734 200.718L260.659 200.642C260.771 200.615 260.886 200.609 261 200.623Z" fill="#263238"/>
<path d="M250.898 172C251.21 172.34 255.905 179.592 255.905 179.592L253.781 179.926C253.781 179.926 256.267 186.185 255.976 185.996C255.686 185.806 249 178.808 249 178.808L252.067 177.005L250.898 172Z" fill="#263238"/>
<path d="M280.175 177C280.041 177.17 278.034 180.796 278.034 180.796L278.95 180.96C278.95 180.96 277.888 184.09 278.009 183.998C278.131 183.907 281 180.391 281 180.391L279.684 179.489L280.175 177Z" fill="#263238"/>
<path d="M250 204C250.219 203.882 253.869 201.062 253.869 201.062L252.824 200.612C252.824 200.612 255.171 197.961 254.99 198C254.808 198.04 250.189 200.494 250.189 200.494L251.446 201.767L250 204Z" fill="#263238"/>
<path d="M266.473 169C266.342 169.313 265 175.51 265 175.51L266.726 175.225C266.726 175.225 266.726 180.196 266.923 179.994C267.119 179.792 270 173.275 270 173.275L267.127 172.753L266.473 169Z" fill="#263238"/>
<path d="M196.437 197.123C196.115 197.684 195.805 198.232 195.495 198.774C195.42 198.899 195.301 198.994 195.16 199.043C194.971 199.05 194.785 198.994 194.635 198.884C194.357 198.72 194.11 198.579 193.895 198.47C193.676 198.356 193.476 198.213 193.3 198.043C193.142 197.894 193.038 197.699 193.003 197.489C192.986 197.252 193.032 197.015 193.136 196.8L193.547 195.849C193.724 195.429 193.927 194.96 194.18 194.436C194.432 193.911 194.66 193.351 194.938 192.754C195.217 192.156 195.489 191.535 195.773 190.962C196.058 190.389 196.342 189.792 196.633 189.237C196.924 188.683 197.196 188.195 197.455 187.763C197.669 187.394 197.916 187.046 198.195 186.721C198.341 186.514 198.551 186.358 198.796 186.276C199.58 186.178 200.396 186.105 201.237 186.038C202.042 185.974 202.852 185.991 203.653 186.087C204.375 186.176 205.077 186.382 205.728 186.696C206.344 186.987 206.847 187.462 207.163 188.049C207.419 188.574 207.63 189.118 207.796 189.676C207.967 190.306 208.031 190.958 207.985 191.608C207.951 192.244 207.69 192.849 207.245 193.32C206.519 194 205.634 194.501 204.665 194.783C203.43 195.159 202.159 195.416 200.871 195.551C201.035 195.904 201.225 196.282 201.427 196.684C201.629 197.086 201.844 197.489 202.059 197.903C202.274 198.317 202.502 198.707 202.73 199.091C202.958 199.475 203.166 199.817 203.362 200.115C203.558 200.414 203.577 200.536 203.52 200.633C203.426 200.762 203.287 200.853 203.128 200.889C202.942 200.97 202.738 201.008 202.534 200.999L201.996 200.938C201.713 200.922 201.434 200.858 201.174 200.749C200.825 200.587 200.516 200.354 200.27 200.066C200.074 199.816 199.846 199.512 199.593 199.158C199.34 198.805 199.093 198.415 198.84 197.994C198.587 197.574 198.335 197.147 198.088 196.702C197.851 196.28 197.64 195.844 197.455 195.398C197.101 195.965 196.76 196.55 196.437 197.123ZM200.276 190.986C199.909 191.559 199.504 192.163 199.068 192.815C199.855 192.804 200.638 192.706 201.402 192.522C202.038 192.365 202.656 192.149 203.248 191.876C203.691 191.677 204.097 191.41 204.45 191.084C204.681 190.906 204.831 190.648 204.867 190.365C204.829 190.024 204.488 189.755 203.83 189.56C203.471 189.457 203.103 189.388 202.73 189.353C202.274 189.313 201.815 189.329 201.364 189.402C201.01 189.871 200.649 190.42 200.276 190.974V190.986Z" fill="#263238"/>
<path d="M217.762 191.242C217.913 191.693 217.993 192.161 218 192.633C217.98 193.542 217.856 194.446 217.63 195.329C217.392 196.29 217.052 197.227 216.615 198.124C216.178 199.019 215.638 199.867 215.006 200.652C214.41 201.388 213.68 202.019 212.849 202.515C212.351 202.782 211.798 202.945 211.227 202.993C210.611 203.023 209.993 202.955 209.4 202.795C208.937 202.677 208.482 202.536 208.035 202.372C207.594 202.218 207.177 202.009 206.795 201.751C206.483 201.528 206.198 201.274 205.945 200.993C205.682 200.715 205.48 200.389 205.351 200.037C205.146 199.434 205.03 198.807 205.008 198.174C204.978 197.471 205.029 196.767 205.16 196.074C205.303 195.335 205.524 194.611 205.819 193.913C206.11 193.185 206.481 192.487 206.927 191.832C207.368 191.162 207.883 190.537 208.464 189.969C209.04 189.406 209.69 188.914 210.396 188.503C210.9 188.252 211.451 188.094 212.018 188.037C212.582 187.959 213.157 188.004 213.7 188.168C214.346 188.366 214.971 188.622 215.566 188.932C216.088 189.198 216.562 189.54 216.971 189.944C217.33 190.319 217.6 190.761 217.762 191.242ZM212.882 191.404C212.464 191.687 212.085 192.019 211.755 192.391C211.338 192.846 210.959 193.33 210.62 193.838C210.269 194.346 209.954 194.875 209.677 195.422C209.173 196.424 208.841 197.496 208.695 198.596C208.633 199.028 208.646 199.466 208.734 199.894C208.752 200.047 208.808 200.193 208.897 200.322C208.987 200.45 209.107 200.557 209.249 200.633C209.375 200.695 209.515 200.728 209.657 200.728C209.8 200.728 209.94 200.695 210.066 200.633C210.431 200.452 210.759 200.212 211.036 199.925C211.417 199.543 211.757 199.127 212.051 198.683C212.408 198.143 212.721 197.578 212.988 196.994C213.248 196.445 213.469 195.881 213.647 195.304C213.839 194.727 213.987 194.137 214.089 193.54C214.184 193.055 214.211 192.56 214.168 192.068C214.122 191.652 213.984 191.391 213.759 191.286C213.617 191.231 213.462 191.214 213.31 191.234C213.159 191.255 213.015 191.314 212.895 191.404H212.882Z" fill="#263238"/>
<path d="M228.84 199.388C228.901 199.705 228.876 200.033 228.768 200.335C228.655 200.794 228.481 201.233 228.252 201.638C228.043 202.016 227.798 202.369 227.523 202.693C227.374 202.846 227.214 202.985 227.042 203.107C226.854 203.247 226.656 203.371 226.449 203.475C226.223 203.59 225.989 203.685 225.749 203.761C225.51 203.838 225.266 203.893 225.019 203.927C224.554 204.003 224.082 204.02 223.613 203.977C223.18 203.939 222.794 203.901 222.426 203.857C222.089 203.786 221.761 203.666 221.454 203.501C221.135 203.334 220.85 203.1 220.617 202.814C220.219 202.342 219.905 201.794 219.692 201.2C219.439 200.518 219.258 199.808 219.152 199.083C219.035 198.282 218.985 197.472 219.003 196.662C219.023 195.808 219.113 194.957 219.27 194.119C219.429 193.292 219.661 192.483 219.964 191.704C220.25 190.944 220.629 190.228 221.092 189.575C221.402 189.112 221.808 188.731 222.278 188.462C222.676 188.246 223.105 188.102 223.548 188.037C223.869 188.003 224.192 187.993 224.515 188.005C224.844 188.019 225.173 188.053 225.5 188.107C225.811 188.155 226.12 188.223 226.425 188.31C226.699 188.386 226.968 188.479 227.232 188.59C227.442 188.71 227.641 188.853 227.825 189.015C227.982 189.154 228.125 189.309 228.252 189.479C228.366 189.646 228.459 189.828 228.531 190.02C228.608 190.227 228.671 190.439 228.721 190.655C228.787 190.927 228.838 191.203 228.875 191.482C228.917 191.768 228.946 192.06 228.97 192.346C228.994 192.632 229 192.912 229 193.179C229 193.446 229 193.693 228.958 193.916C228.958 194.011 228.929 194.107 228.911 194.196C228.899 194.276 228.866 194.351 228.816 194.412C228.751 194.48 228.672 194.531 228.584 194.558C228.441 194.595 228.293 194.614 228.145 194.615C227.831 194.63 227.516 194.602 227.208 194.532C226.963 194.477 226.728 194.379 226.514 194.24C226.322 194.11 226.153 193.944 226.016 193.751C225.869 193.533 225.749 193.296 225.66 193.045C225.588 192.837 225.529 192.625 225.482 192.41C225.429 192.074 225.348 191.744 225.238 191.424C225.206 191.301 225.142 191.189 225.054 191.101C224.966 191.014 224.858 190.954 224.74 190.929C224.515 190.929 224.289 191.094 224.064 191.494C223.808 191.967 223.599 192.468 223.441 192.988C223.235 193.624 223.069 194.274 222.943 194.933C222.816 195.562 222.727 196.199 222.676 196.84C222.64 197.43 222.64 198.022 222.676 198.613C222.704 199.141 222.779 199.664 222.901 200.177C222.991 200.574 223.139 200.954 223.34 201.302C223.403 201.427 223.493 201.535 223.602 201.617C223.711 201.699 223.837 201.752 223.969 201.772C224.426 201.823 224.995 201.27 225.683 200.113C225.935 199.7 226.293 199.374 226.715 199.176C227.136 198.977 227.602 198.914 228.056 198.994C228.531 199.026 228.774 199.153 228.84 199.388Z" fill="#263238"/>
<path d="M238.201 194.69C238.632 194.938 239.05 195.173 239.467 195.38C239.885 195.587 240.265 195.801 240.632 195.98C240.999 196.16 241.303 196.305 241.569 196.408C241.835 196.512 241.981 196.615 242 196.753C241.994 196.969 241.912 197.174 241.772 197.326C241.665 197.496 241.542 197.653 241.405 197.795C241.253 197.949 241.093 198.092 240.924 198.223C240.697 198.455 240.427 198.632 240.132 198.74C239.769 198.856 239.38 198.832 239.031 198.671L238.296 198.381L237.264 197.947C236.884 197.774 236.486 197.595 236.068 197.395C235.65 197.195 235.251 196.995 234.871 196.781C235.099 197.602 235.308 198.347 235.504 199.023C235.7 199.699 235.884 200.313 236.049 200.865C236.086 200.924 236.111 200.991 236.121 201.061C236.131 201.132 236.126 201.204 236.106 201.272C236.046 201.389 235.952 201.481 235.84 201.534C235.667 201.616 235.487 201.676 235.302 201.714L234.586 201.879C234.175 202.008 233.742 202.034 233.32 201.955C233.154 201.897 233.002 201.797 232.877 201.664C232.752 201.531 232.657 201.369 232.598 201.189C232.415 200.789 232.199 200.258 231.965 199.596C231.731 198.933 231.44 198.216 231.149 197.388C230.857 196.56 230.566 195.725 230.262 194.828C229.958 193.931 229.673 193.055 229.395 192.186C229.116 191.316 228.863 190.495 228.629 189.716C228.395 188.936 228.198 188.246 228.046 187.646C228.004 187.515 227.99 187.375 228.006 187.238C228.021 187.1 228.065 186.968 228.135 186.852C228.329 186.648 228.582 186.522 228.85 186.493C229.267 186.39 229.69 186.32 230.117 186.286C230.538 186.247 230.961 186.247 231.383 186.286C231.555 186.301 231.727 186.329 231.896 186.369C232.014 186.388 232.127 186.438 232.225 186.514C232.311 186.581 232.377 186.675 232.415 186.783C232.464 186.919 232.5 187.06 232.522 187.204C232.643 187.894 232.807 188.584 233.01 189.433C233.212 190.281 233.44 191.151 233.687 192.13C233.871 191.365 234.067 190.543 234.289 189.66C234.51 188.777 234.713 187.922 234.922 187.073C235.131 186.224 235.308 185.424 235.473 184.665C235.637 183.906 235.77 183.285 235.865 182.761C235.864 182.627 235.891 182.496 235.945 182.376C235.999 182.256 236.078 182.152 236.175 182.071C236.412 181.976 236.673 181.976 236.91 182.071C237.227 182.147 237.532 182.275 237.815 182.45C238.104 182.633 238.383 182.833 238.651 183.051C238.847 183.238 238.997 183.475 239.088 183.741C239.183 184.087 239.213 184.451 239.176 184.81C239.136 185.472 239.05 186.129 238.917 186.776C238.777 187.528 238.6 188.308 238.397 189.122C238.195 189.936 237.973 190.757 237.726 191.585C237.479 192.413 237.252 193.2 237.03 193.931C237.366 194.193 237.771 194.442 238.201 194.69Z" fill="#263238"/>
<path d="M285 225H175V264H285V225Z" fill="#F5F5F5"/>
<path d="M184.048 231.937H184.948V233.502C184.467 233.827 183.888 234 183.297 233.993C183.004 234.016 182.71 233.982 182.433 233.892C182.155 233.803 181.901 233.66 181.685 233.472C181.469 233.285 181.296 233.057 181.179 232.804C181.061 232.55 181 232.277 181 232C181 231.723 181.061 231.45 181.179 231.196C181.296 230.943 181.469 230.715 181.685 230.528C181.901 230.34 182.155 230.197 182.433 230.108C182.71 230.018 183.004 229.984 183.297 230.007C183.615 229.993 183.933 230.045 184.227 230.161C184.522 230.276 184.785 230.451 185 230.674L184.397 231.207C184.265 231.067 184.102 230.955 183.92 230.88C183.738 230.805 183.54 230.768 183.341 230.772C183.162 230.759 182.981 230.781 182.811 230.838C182.641 230.894 182.485 230.982 182.353 231.098C182.221 231.213 182.115 231.354 182.043 231.509C181.971 231.665 181.934 231.833 181.934 232.004C181.934 232.174 181.971 232.342 182.043 232.498C182.115 232.653 182.221 232.794 182.353 232.909C182.485 233.025 182.641 233.113 182.811 233.169C182.981 233.226 183.162 233.248 183.341 233.235C183.601 233.243 183.858 233.185 184.085 233.067L184.048 231.937Z" fill="#263238"/>
<path d="M187.113 233.14H185.872L185.633 234H185L186.193 230H186.802L188 234H187.347L187.113 233.14ZM186.919 232.412L186.495 230.874L186.071 232.412H186.919Z" fill="#263238"/>
<path d="M192.247 234V231.604L191.195 233.564H190.818L189.779 231.641V233.985H189V230H189.682L191.019 232.475L192.318 230H193V233.985L192.247 234Z" fill="#263238"/>
<path d="M196 233.271V234H194V230H195.953V230.729H194.593V231.596H195.793V232.324H194.593V233.25L196 233.271Z" fill="#263238"/>
<path d="M198.437 233.993L198.002 232.88H197.525V233.993H197V230H197.977C198.581 230 198.959 230.553 198.959 231.455C198.965 231.724 198.923 231.99 198.84 232.215C198.757 232.441 198.636 232.615 198.495 232.713L199 234L198.437 233.993ZM197.948 230.749H197.538V232.145H197.948C198.269 232.145 198.429 231.876 198.429 231.418C198.429 230.96 198.289 230.749 197.948 230.749Z" fill="#263238"/>
<path d="M205 233.636V234H202V230H204.907V230.364H202.447V231.785H204.637V232.149H202.447V233.607L205 233.636Z" fill="#263238"/>
<path d="M209 230L207.21 234H206.79L205 230H205.456L207.011 233.475L208.565 230H209Z" fill="#263238"/>
<path d="M211 233.636V234H209V230H210.938V230.364H209.299V231.785H210.752V232.149H209.288V233.607L211 233.636Z" fill="#263238"/>
<path d="M216 230V234H215.621L212.511 230.75V234H212V230H212.423L215.542 233.242V230H216Z" fill="#263238"/>
<path d="M217.304 230.364H216V230H219V230.364H217.696V234H217.304V230.364Z" fill="#263238"/>
<path d="M287 266H140V222H287V266ZM140.635 265.368H286.364V222.632H140.635V265.368Z" fill="#263238"/>
<path d="M161.713 240H154.293C153.95 239.998 153.623 239.85 153.38 239.588C153.138 239.327 153.002 238.972 153 238.602V231.398C153 231.027 153.136 230.672 153.378 230.409C153.621 230.147 153.95 230 154.293 230H161.713C162.055 230.002 162.382 230.15 162.623 230.412C162.864 230.674 162.999 231.028 162.999 231.398V238.572C163.003 238.758 162.973 238.942 162.91 239.115C162.847 239.287 162.753 239.445 162.633 239.577C162.513 239.71 162.37 239.816 162.213 239.889C162.055 239.961 161.885 239.999 161.713 240ZM154.293 230.736C154.124 230.738 153.963 230.812 153.845 230.941C153.726 231.071 153.66 231.245 153.66 231.428V238.602C153.66 238.784 153.727 238.958 153.845 239.086C153.964 239.214 154.125 239.286 154.293 239.286H161.713C161.881 239.286 162.042 239.214 162.161 239.086C162.279 238.958 162.346 238.784 162.346 238.602V231.398C162.346 231.216 162.28 231.041 162.161 230.911C162.043 230.782 161.882 230.708 161.713 230.706L154.293 230.736Z" fill="#7694FF"/>
<path d="M155.525 229H155.474C155.212 229 155 229.342 155 229.765V231.235C155 231.658 155.212 232 155.474 232H155.525C155.787 232 156 231.658 156 231.235V229.765C156 229.342 155.787 229 155.525 229Z" fill="#7694FF"/>
<path d="M159.525 229H159.474C159.212 229 159 229.342 159 229.765V231.235C159 231.658 159.212 232 159.474 232H159.525C159.787 232 160 231.658 160 231.235V229.765C160 229.342 159.787 229 159.525 229Z" fill="#7694FF"/>
<path d="M157 234H156V235H157V234Z" fill="#7694FF"/>
<path d="M159 234H158V235H159V234Z" fill="#7694FF"/>
<path d="M157 236H156V237H157V236Z" fill="#7694FF"/>
<path d="M159 236H158V237H159V236Z" fill="#7694FF"/>
<path d="M157 251.518V253H150.398V251.821L153.777 248.96C154.547 248.298 154.682 247.891 154.682 247.508C154.682 246.901 154.209 246.536 153.284 246.536C152.934 246.523 152.587 246.588 152.272 246.725C151.957 246.861 151.685 247.066 151.479 247.32L150 246.464C150.4 245.982 150.927 245.597 151.533 245.342C152.138 245.088 152.805 244.972 153.473 245.006C155.419 245.006 156.723 245.905 156.723 247.332C156.723 248.092 156.486 248.79 155.257 249.811L153.229 251.518H157Z" fill="#263238"/>
<path d="M164 250.392C164 251.784 162.859 252.999 160.347 252.999C159.163 253.017 157.999 252.723 157 252.154L157.801 250.762C158.529 251.23 159.404 251.479 160.299 251.474C161.318 251.474 161.943 251.091 161.943 250.452C161.943 249.814 161.494 249.425 159.906 249.425H157.658L158.113 245H163.47V246.465H159.804L159.668 247.954H160.381C162.975 247.954 164 249 164 250.392Z" fill="#263238"/>
<path d="M161 258.5C159.339 258.942 157.67 259.091 156.003 258.947C154.333 259.091 152.663 258.942 151 258.5C152.663 258.058 154.333 257.909 156.003 258.053C157.67 257.909 159.339 258.058 161 258.5Z" fill="#263238"/>
<path d="M265.243 229.682C265.288 229.264 265.44 228.864 265.683 228.523C265.926 228.182 266.252 227.91 266.63 227.734C267.384 227.388 268.196 227.19 269.023 227.15C270.3 226.996 271.589 226.96 272.872 227.045C273.512 227.066 274.137 227.242 274.697 227.558C275.869 228.311 276.16 229.957 275.924 231.342C275.87 231.896 275.624 232.411 275.231 232.799C274.988 232.976 274.715 233.107 274.426 233.185C271.99 233.986 269.404 234.2 266.873 233.812C266.116 233.699 265.243 233.418 265 232.679" fill="#263238"/>
<path d="M243.779 229.292C243.737 228.934 243.598 228.591 243.377 228.299C243.156 228.006 242.86 227.773 242.517 227.622C241.832 227.326 241.093 227.158 240.341 227.127C239.18 226.993 238.008 226.965 236.841 227.043C236.259 227.061 235.69 227.212 235.182 227.483C234.116 228.134 233.851 229.54 234.072 230.728C234.118 231.203 234.342 231.647 234.702 231.976C234.921 232.129 235.167 232.241 235.428 232.308C237.646 232.989 239.999 233.17 242.303 232.839C242.991 232.736 243.785 232.495 244 231.862" fill="#263238"/>
<path d="M255.224 229.895C250.875 230.012 245.398 229.405 243.92 228.981C242.443 228.557 236.062 226.644 232.952 229.699C229.843 232.754 226.797 253.005 227.01 257.197C227.223 261.388 232.488 264.293 235.649 262.419C238.811 260.546 243.153 251.902 244.204 251.759C245.256 251.615 248.275 253.032 250.237 251.608C251.305 250.862 252.294 250.005 253.185 249.049C253.185 249.049 257.114 248.906 257.469 248.906C257.824 248.906 259.153 251.602 261.05 252.17C262.947 252.738 266.385 251.667 266.856 251.452C267.327 251.236 270.65 257.771 274.024 261.035C277.398 264.3 283.644 262.308 283.986 257.118C284.328 251.928 278.353 233.12 276.315 230.424C274.276 227.727 266.979 228.511 263.888 229.438C260.798 230.365 257.972 229.81 255.224 229.895Z" fill="#455A64"/>
<path d="M274.026 257.528C270.652 254.159 267.348 247.419 266.858 247.635C266.367 247.851 262.922 248.983 261.05 248.37C259.179 247.756 257.824 245 257.463 245C257.101 245 253.184 245.155 253.184 245.155C252.291 246.139 251.303 247.024 250.236 247.797C248.3 249.266 245.254 247.797 244.196 247.945C243.138 248.093 238.802 257.043 235.64 258.95C232.678 260.743 227.858 258.209 227.097 254.314C227.015 255.21 226.985 256.11 227.006 257.009C227.219 261.336 232.484 264.335 235.646 262.401C238.808 260.467 243.151 251.544 244.202 251.396C245.254 251.247 248.274 252.71 250.236 251.241C251.305 250.47 252.293 249.585 253.184 248.599C253.184 248.599 257.114 248.45 257.469 248.45C257.824 248.45 259.153 251.234 261.05 251.82C262.947 252.406 266.387 251.301 266.858 251.079C267.329 250.856 270.652 257.602 274.026 260.972C277.401 264.342 283.647 262.286 283.989 256.928C284.022 256.097 283.979 255.264 283.86 254.442C282.88 259.071 277.188 260.689 274.026 257.528Z" fill="#263238"/>
<path d="M242.962 243.508C246.155 242.317 247.778 238.763 246.586 235.571C245.395 232.378 241.841 230.756 238.649 231.947C235.456 233.138 233.834 236.692 235.025 239.884C236.216 243.077 239.77 244.7 242.962 243.508Z" fill="#263238"/>
<path d="M247 237.5C247 238.588 246.619 239.651 245.905 240.555C245.191 241.459 244.176 242.164 242.989 242.581C241.801 242.997 240.495 243.106 239.234 242.895C237.973 242.683 236.815 242.16 235.906 241.391C234.997 240.622 234.377 239.643 234.125 238.576C233.874 237.51 234.002 236.404 234.493 235.399C234.984 234.394 235.816 233.535 236.884 232.93C237.952 232.325 239.208 232.001 240.493 232C241.348 231.998 242.194 232.138 242.985 232.414C243.775 232.69 244.493 233.094 245.098 233.606C245.702 234.117 246.181 234.724 246.508 235.392C246.834 236.06 247.002 236.777 247 237.5Z" fill="#455A64"/>
<path d="M246.988 236.5C246.932 235.983 246.844 235.471 246.723 234.965C246.353 233.597 245.528 232.393 244.383 231.548C243.604 230.962 242.695 230.57 241.732 230.403C240.632 230.204 239.499 230.302 238.45 230.686C237.883 230.886 237.351 231.173 236.873 231.535C236.364 231.902 235.916 232.346 235.547 232.852C234.761 233.91 234.337 235.191 234.337 236.506C234.337 237.821 234.761 239.102 235.547 240.16C235.914 240.667 236.362 241.112 236.873 241.477C237.351 241.835 237.88 242.119 238.444 242.32C239.267 242.617 240.144 242.74 241.018 242.682C241.892 242.624 242.744 242.386 243.521 241.982C244.297 241.579 244.98 241.02 245.527 240.34C246.074 239.66 246.472 238.875 246.697 238.034C246.817 237.528 246.905 237.016 246.962 236.5C247.005 237.026 246.96 237.555 246.829 238.067C246.545 239.268 245.917 240.361 245.021 241.216C244.124 242.07 242.998 242.648 241.778 242.879C240.629 243.103 239.44 243.014 238.338 242.623C237.119 242.183 236.056 241.398 235.282 240.364C234.449 239.249 234 237.898 234 236.509C234 235.121 234.449 233.77 235.282 232.654C235.666 232.121 236.137 231.654 236.674 231.272C237.179 230.894 237.74 230.596 238.338 230.39C239.194 230.079 240.107 229.952 241.016 230.016C241.926 230.081 242.811 230.337 243.614 230.766C244.417 231.195 245.119 231.788 245.674 232.506C246.23 233.225 246.625 234.051 246.836 234.933C246.973 235.443 247.025 235.972 246.988 236.5Z" fill="#263238"/>
<path d="M277 238C277 239.186 276.619 240.346 275.905 241.333C275.191 242.319 274.176 243.088 272.989 243.543C271.801 243.997 270.495 244.116 269.234 243.885C267.973 243.654 266.815 243.083 265.906 242.245C264.997 241.406 264.377 240.338 264.125 239.174C263.874 238.011 264.002 236.805 264.493 235.708C264.984 234.612 265.816 233.674 266.884 233.014C267.952 232.354 269.208 232.001 270.493 232C271.347 231.998 272.194 232.152 272.984 232.453C273.773 232.754 274.491 233.196 275.096 233.753C275.7 234.311 276.179 234.973 276.506 235.701C276.833 236.43 277.001 237.211 277 238Z" fill="#263238"/>
<path d="M271.315 243.337C274.722 243.297 277.452 240.502 277.411 237.094C277.371 233.687 274.576 230.958 271.168 230.998C267.761 231.039 265.032 233.834 265.072 237.241C265.112 240.648 267.907 243.378 271.315 243.337Z" fill="#7694FF"/>
<path d="M271.315 243.337C274.722 243.297 277.452 240.502 277.411 237.094C277.371 233.687 274.576 230.958 271.168 230.998C267.761 231.039 265.032 233.834 265.072 237.241C265.112 240.648 267.907 243.378 271.315 243.337Z" fill="#455A64"/>
<path d="M277.988 236.498C277.932 235.982 277.844 235.469 277.723 234.964C277.353 233.595 276.528 232.391 275.383 231.546C274.604 230.96 273.695 230.567 272.732 230.4C271.632 230.201 270.499 230.299 269.45 230.683C268.883 230.883 268.351 231.17 267.873 231.533C267.364 231.899 266.916 232.344 266.547 232.85C265.761 233.908 265.337 235.189 265.337 236.505C265.337 237.82 265.761 239.101 266.547 240.16C266.914 240.667 267.362 241.112 267.873 241.477C268.351 241.834 268.88 242.119 269.444 242.32C270.267 242.617 271.144 242.74 272.018 242.682C272.892 242.624 273.744 242.385 274.521 241.982C275.297 241.579 275.98 241.019 276.527 240.339C277.074 239.659 277.472 238.874 277.697 238.032C277.817 237.527 277.905 237.014 277.962 236.498C278.005 237.024 277.96 237.554 277.829 238.065C277.545 239.267 276.917 240.361 276.021 241.215C275.124 242.069 273.998 242.647 272.778 242.879C271.629 243.103 270.44 243.014 269.338 242.623C268.119 242.183 267.056 241.398 266.282 240.364C265.449 239.248 265 237.897 265 236.508C265 235.119 265.449 233.768 266.282 232.652C266.666 232.118 267.137 231.651 267.674 231.269C268.179 230.891 268.74 230.594 269.338 230.387C270.365 230.016 271.471 229.909 272.551 230.078C273.632 230.246 274.651 230.683 275.516 231.348C276.68 232.243 277.499 233.508 277.836 234.931C277.973 235.441 278.025 235.971 277.988 236.498Z" fill="#263238"/>
<path d="M266 246.493C266.001 247.383 265.767 248.254 265.329 248.995C264.89 249.736 264.266 250.314 263.535 250.655C262.804 250.997 262 251.087 261.223 250.914C260.447 250.742 259.734 250.313 259.174 249.684C258.613 249.055 258.232 248.254 258.077 247.38C257.922 246.507 258.001 245.602 258.304 244.78C258.606 243.957 259.119 243.254 259.777 242.759C260.435 242.264 261.208 242 262 242C262.525 241.999 263.045 242.115 263.53 242.34C264.015 242.565 264.456 242.896 264.828 243.314C265.199 243.731 265.494 244.226 265.695 244.772C265.896 245.318 266 245.902 266 246.493Z" fill="#263238"/>
<path d="M265.978 246.505C265.942 246.505 265.978 246.116 265.799 245.46C265.563 244.536 265.063 243.724 264.375 243.15C263.868 242.726 263.273 242.451 262.646 242.35C262.019 242.249 261.379 242.327 260.786 242.574C260.068 242.874 259.449 243.411 259.011 244.114C258.572 244.818 258.336 245.654 258.333 246.511C258.34 247.399 258.593 248.263 259.057 248.982C259.491 249.653 260.096 250.162 260.792 250.442C261.381 250.686 262.015 250.761 262.637 250.661C263.259 250.56 263.848 250.287 264.351 249.866C265.041 249.292 265.54 248.477 265.769 247.549C265.93 246.88 265.912 246.505 265.948 246.505C265.984 246.505 265.948 246.598 265.948 246.786C265.951 247.054 265.925 247.322 265.871 247.583C265.676 248.567 265.178 249.444 264.465 250.06C264.043 250.426 263.561 250.694 263.046 250.848C262.53 251.002 261.993 251.04 261.464 250.958C260.936 250.876 260.428 250.677 259.969 250.372C259.51 250.067 259.111 249.663 258.794 249.183C258.278 248.409 258 247.47 258 246.505C258 245.539 258.278 244.6 258.794 243.826C259.109 243.344 259.507 242.938 259.965 242.632C260.423 242.325 260.931 242.125 261.459 242.043C261.988 241.96 262.525 241.997 263.041 242.152C263.556 242.307 264.038 242.575 264.459 242.943C265.172 243.556 265.669 244.431 265.865 245.413C265.924 245.676 265.952 245.946 265.948 246.217C266.014 246.411 266.008 246.505 265.978 246.505Z" fill="#455A64"/>
<path d="M250.3 249.506C251.96 247.927 252.026 245.3 250.447 243.639C248.868 241.979 246.241 241.913 244.581 243.492C242.92 245.071 242.854 247.698 244.433 249.359C246.012 251.019 248.639 251.085 250.3 249.506Z" fill="#263238"/>
<path d="M250.965 246.529C250.935 246.529 250.965 246.141 250.784 245.485C250.553 244.56 250.049 243.747 249.353 243.178C248.792 242.719 248.129 242.442 247.436 242.376C246.743 242.311 246.047 242.459 245.425 242.805C244.803 243.151 244.279 243.681 243.91 244.337C243.542 244.993 243.343 245.749 243.337 246.522C243.337 247.41 243.592 248.275 244.065 248.99C244.499 249.66 245.105 250.168 245.803 250.449C246.396 250.691 247.033 250.765 247.658 250.665C248.283 250.564 248.876 250.292 249.383 249.873C250.077 249.3 250.579 248.486 250.808 247.559C250.971 246.89 250.959 246.515 250.989 246.515C251.003 246.608 251.003 246.703 250.989 246.796C250.989 247.065 250.961 247.332 250.905 247.592C250.709 248.574 250.211 249.45 249.497 250.067C248.963 250.527 248.334 250.829 247.667 250.946C247 251.062 246.318 250.99 245.683 250.736C244.925 250.443 244.266 249.899 243.794 249.178C243.277 248.404 242.998 247.466 243 246.502C243 245.54 243.276 244.602 243.788 243.826C244.105 243.345 244.506 242.939 244.967 242.633C245.428 242.327 245.939 242.126 246.471 242.043C247.002 241.96 247.543 241.997 248.062 242.15C248.581 242.304 249.067 242.571 249.491 242.937C250.207 243.553 250.707 244.429 250.905 245.412C250.958 245.673 250.986 245.94 250.989 246.208C251 246.316 250.992 246.425 250.965 246.529Z" fill="#455A64"/>
<path d="M242.717 235.789H241.218V234.279C241.218 233.94 241.084 233.615 240.846 233.375C240.608 233.135 240.284 233 239.948 233H239.039C238.702 233 238.379 233.135 238.141 233.375C237.903 233.615 237.769 233.94 237.769 234.279V235.789H236.27C235.933 235.789 235.61 235.924 235.372 236.164C235.134 236.404 235 236.729 235 237.068V237.977C235 238.316 235.134 238.641 235.372 238.881C235.61 239.121 235.933 239.256 236.27 239.256H237.775V240.721C237.775 241.06 237.909 241.385 238.147 241.625C238.386 241.865 238.709 242 239.046 242H239.954C240.291 242 240.614 241.865 240.852 241.625C241.09 241.385 241.224 241.06 241.224 240.721V239.211H242.729C243.066 239.211 243.389 239.076 243.628 238.836C243.866 238.596 244 238.271 244 237.932V237.017C243.987 236.684 243.845 236.37 243.606 236.141C243.366 235.912 243.047 235.785 242.717 235.789Z" fill="#FAFAFA"/>
<path d="M273 234.5C273 234.797 272.912 235.087 272.747 235.333C272.582 235.58 272.348 235.772 272.074 235.886C271.8 235.999 271.498 236.029 271.207 235.971C270.916 235.913 270.649 235.77 270.439 235.561C270.229 235.351 270.086 235.084 270.029 234.793C269.971 234.502 270 234.2 270.114 233.926C270.227 233.652 270.42 233.418 270.666 233.253C270.913 233.088 271.203 233 271.5 233C271.897 233.001 272.278 233.16 272.559 233.441C272.84 233.722 272.998 234.103 273 234.5Z" fill="#FAFAFA"/>
<path d="M277 237.482C277.002 237.978 276.888 238.463 276.669 238.876C276.451 239.29 276.14 239.613 275.775 239.805C275.41 239.997 275.007 240.049 274.618 239.954C274.229 239.86 273.872 239.623 273.591 239.274C273.309 238.925 273.118 238.48 273.039 237.994C272.961 237.509 273 237.005 273.151 236.547C273.302 236.09 273.558 235.698 273.887 235.423C274.216 235.147 274.604 235 275 235C275.528 235 276.034 235.261 276.409 235.726C276.784 236.191 276.996 236.822 277 237.482Z" fill="#FAFAFA"/>
<path d="M273 240.5C273 240.797 272.912 241.087 272.747 241.333C272.582 241.58 272.348 241.772 272.074 241.886C271.8 241.999 271.498 242.029 271.207 241.971C270.916 241.913 270.649 241.77 270.439 241.561C270.229 241.351 270.086 241.084 270.029 240.793C269.971 240.502 270 240.2 270.114 239.926C270.227 239.652 270.42 239.418 270.666 239.253C270.913 239.088 271.203 239 271.5 239C271.897 239.001 272.278 239.16 272.559 239.441C272.84 239.722 272.998 240.103 273 240.5Z" fill="#FAFAFA"/>
<path d="M270 237.5C270 237.994 269.853 238.478 269.578 238.889C269.304 239.3 268.913 239.62 268.456 239.81C268 239.999 267.497 240.048 267.012 239.952C266.527 239.855 266.082 239.617 265.732 239.268C265.382 238.918 265.144 238.473 265.048 237.988C264.951 237.503 265.001 237 265.19 236.543C265.379 236.086 265.7 235.696 266.111 235.421C266.522 235.147 267.005 235 267.5 235C268.162 235.002 268.797 235.266 269.265 235.735C269.733 236.203 269.997 236.838 270 237.5Z" fill="#FAFAFA"/>
<path d="M263.744 230.072C260.752 231.006 257.967 230.434 255.319 230.513C252.875 230.555 250.431 230.441 248 230.171C248.009 230.44 248.034 230.708 248.075 230.973L248.862 236.707C248.884 237.159 249.029 237.595 249.28 237.963C249.673 238.325 250.175 238.528 250.698 238.535C252.849 238.805 255.013 238.954 257.18 238.982C258.7 239.06 260.222 238.885 261.689 238.462C261.904 238.405 262.103 238.294 262.27 238.14C262.392 237.983 262.483 237.802 262.538 237.607C263.376 235.16 263.868 232.597 264 230L263.744 230.072Z" fill="#263238"/>
<path d="M183.848 255.208C183.746 255.734 183.431 255.994 182.919 256C182.748 256.003 182.582 255.959 182.443 255.876C182.293 255.784 182.174 255.661 182.097 255.519C182.021 255.377 181.988 255.221 182.003 255.065L184.127 241.761C184.133 241.655 184.15 241.55 184.178 241.446C184.24 241.311 184.35 241.196 184.493 241.116C184.636 241.036 184.805 240.996 184.976 241C185.123 241.003 185.266 241.037 185.393 241.099C185.536 241.162 185.656 241.256 185.74 241.372C185.825 241.487 185.872 241.619 185.876 241.755L185.144 246.947C188.907 243.391 190.881 241.545 191.067 241.409C191.265 241.213 191.547 241.091 191.85 241.068C192.016 241.07 192.179 241.111 192.319 241.186C192.45 241.247 192.559 241.337 192.635 241.445C192.711 241.554 192.751 241.678 192.751 241.805C192.743 242.027 192.656 242.243 192.502 242.424C192.297 242.646 189.94 244.851 185.43 249.038L187.099 250.319C190.306 252.757 192.129 254.164 192.568 254.54C192.808 254.713 192.962 254.956 193 255.22C192.999 255.368 192.945 255.513 192.846 255.635C192.771 255.743 192.664 255.832 192.536 255.894C192.407 255.956 192.262 255.988 192.114 255.988C191.849 255.986 191.592 255.912 191.382 255.777C191.128 255.624 188.868 253.888 184.602 250.567C184.244 252.986 184.002 254.552 183.848 255.208Z" fill="#263238"/>
<path d="M196.417 255.202C196.333 255.728 196.097 255.994 195.721 256C195.586 256.002 195.455 255.956 195.345 255.87C195.229 255.78 195.136 255.657 195.076 255.515C195.016 255.373 194.991 255.216 195.003 255.059L196.625 241.756C196.63 241.66 196.641 241.565 196.658 241.471C196.706 241.327 196.795 241.204 196.911 241.119C197.027 241.034 197.165 240.993 197.304 241.001C197.419 240.999 197.533 241.029 197.635 241.088C197.74 241.145 197.83 241.233 197.894 241.342C197.958 241.451 197.995 241.577 198 241.706C197.001 250.394 196.473 254.892 196.417 255.202Z" fill="#263238"/>
<path d="M209.173 255.243C209.1 255.746 208.827 255.994 208.347 256C208.158 255.988 207.975 255.929 207.819 255.828C207.663 255.728 207.539 255.59 207.46 255.429L202.196 244.237C202.129 244.764 202.049 245.359 201.956 246.016C201.263 251.391 200.847 254.454 200.709 255.206C200.616 255.733 200.33 255.994 199.856 256C199.697 256.003 199.541 255.959 199.41 255.876C199.272 255.785 199.161 255.663 199.09 255.52C199.019 255.378 198.989 255.22 199.003 255.064C200.256 246.196 200.887 241.75 200.896 241.726C200.917 241.617 200.955 241.513 201.009 241.415C201.088 241.29 201.201 241.188 201.337 241.118C201.473 241.048 201.627 241.014 201.782 241.019C202.236 241.019 202.522 241.143 202.655 241.397L207.9 252.354L209.426 241.763C209.434 241.646 209.468 241.532 209.526 241.428C209.578 241.302 209.669 241.194 209.788 241.117C209.907 241.041 210.048 241 210.193 241C210.338 241.002 210.48 241.038 210.606 241.105C210.73 241.173 210.832 241.27 210.901 241.387C210.97 241.503 211.004 241.636 210.999 241.769C210.999 241.986 210.939 242.222 210.906 242.476C209.911 250.111 209.333 254.367 209.173 255.243Z" fill="#263238"/>
<path d="M218.982 248.454H223.111C223.265 248.452 223.417 248.486 223.551 248.552C223.692 248.615 223.809 248.712 223.888 248.831C223.967 248.95 224.006 249.086 223.999 249.224C224 249.301 223.988 249.377 223.963 249.451C223.885 249.753 223.793 250.067 223.686 250.369C223.195 251.873 222.31 253.258 221.1 254.416C220.673 254.878 220.14 255.257 219.534 255.528C218.928 255.8 218.263 255.958 217.582 255.993C217.417 256.002 217.251 256.002 217.085 255.993C216.489 255.904 215.923 255.7 215.431 255.394C214.939 255.089 214.533 254.692 214.243 254.232C213.37 252.924 212.941 251.429 213.006 249.92C213.009 248.879 213.174 247.843 213.497 246.84C213.937 245.314 214.776 243.895 215.948 242.694C216.392 242.189 216.959 241.776 217.609 241.483C218.259 241.19 218.975 241.025 219.707 241C220.249 240.996 220.784 241.101 221.27 241.308C222.44 241.868 223.306 242.807 223.679 243.92C223.743 244.031 223.777 244.153 223.779 244.277C223.776 244.411 223.735 244.543 223.658 244.659C223.584 244.778 223.473 244.877 223.337 244.945C223.201 245.012 223.047 245.046 222.89 245.041C222.796 245.041 222.703 245.028 222.613 245.004C222.48 244.972 222.357 244.911 222.258 244.827C222.159 244.743 222.085 244.639 222.045 244.524L222.002 244.456C221.877 244.156 221.71 243.871 221.505 243.606C221.302 243.304 221.015 243.053 220.669 242.874C220.324 242.695 219.932 242.595 219.529 242.583C219.03 242.598 218.549 242.751 218.158 243.021C217.128 243.76 216.349 244.729 215.905 245.823C215.28 247.102 214.95 248.475 214.932 249.864C214.889 250.955 215.132 252.039 215.642 253.037C216.168 253.973 216.879 254.441 217.774 254.441C218.171 254.392 218.553 254.274 218.896 254.094C219.239 253.914 219.537 253.676 219.771 253.394C220.731 252.422 221.456 251.293 221.903 250.074C220.005 250.074 219.018 250.074 218.94 250.043C218.3 249.95 217.966 249.661 217.952 249.174C217.968 249.084 217.999 248.997 218.044 248.916C218.126 248.764 218.26 248.638 218.428 248.555C218.596 248.472 218.79 248.437 218.982 248.454Z" fill="#263238"/>
<path d="M226.002 232L226.262 232.473C226.552 233.009 226.991 233.448 227.526 233.737L228 234.003L227.526 234.263C226.991 234.552 226.552 234.991 226.262 235.527L226.002 236L225.742 235.527C225.449 234.993 225.008 234.554 224.473 234.263L224 234.003L224.473 233.737C225.008 233.446 225.449 233.007 225.742 232.473L226.002 232Z" fill="#E0E0E0"/>
<path d="M252.503 257L252.828 257.597C253.193 258.264 253.741 258.811 254.408 259.175L255 259.5L254.408 259.825C253.741 260.189 253.193 260.736 252.828 261.403L252.503 262L252.178 261.403C251.809 260.738 251.259 260.19 250.591 259.825L250 259.5L250.591 259.175C251.259 258.81 251.809 258.262 252.178 257.597L252.503 257Z" fill="#E0E0E0"/>
<path d="M279.503 229L279.828 229.592C280.189 230.261 280.739 230.81 281.408 231.172L282 231.497L281.408 231.822C280.741 232.189 280.192 232.739 279.828 233.408L279.503 234L279.178 233.408C278.809 232.74 278.259 232.19 277.591 231.822L277 231.497L277.591 231.172C278.26 230.807 278.811 230.259 279.178 229.592L279.503 229Z" fill="#E0E0E0"/>
<path d="M218.997 259L219.127 259.358C219.276 259.755 219.495 260.081 219.761 260.301L220 260.496L219.761 260.691C219.495 260.914 219.276 261.243 219.127 261.642L218.997 262L218.867 261.642C218.722 261.242 218.504 260.912 218.239 260.691L218 260.496L218.239 260.301C218.504 260.083 218.722 259.756 218.867 259.358L218.997 259Z" fill="#E0E0E0"/>
<path d="M255.992 253L256.122 253.359C256.272 253.757 256.493 254.084 256.76 254.305L257 254.5L256.76 254.695C256.495 254.919 256.278 255.249 256.133 255.648L256.002 256L255.872 255.648C255.728 255.245 255.508 254.914 255.24 254.695L255 254.5L255.24 254.305C255.506 254.086 255.726 253.758 255.872 253.359L255.992 253Z" fill="#E0E0E0"/>
<path opacity="0.3" d="M215.213 154.347C214.766 163.897 210.784 172.94 204.042 179.718C197.3 186.496 188.279 190.526 178.732 191.024C169.184 191.522 159.792 188.453 152.382 182.413C144.971 176.374 140.07 167.794 138.632 158.343C137.193 148.891 139.32 139.242 144.599 131.271C149.877 123.3 157.931 117.576 167.194 115.212C176.457 112.847 186.269 114.011 194.722 118.477C203.176 122.943 209.667 130.391 212.934 139.376C214.678 144.166 215.452 149.255 215.213 154.347Z" fill="white"/>
<path opacity="0.4" d="M198.402 120.675L142.873 171.316C142.595 170.804 142.322 170.286 142.054 169.764C140.356 166.365 139.176 162.731 138.554 158.983L186.514 115.241C190.758 116.36 194.779 118.197 198.402 120.675Z" fill="white"/>
<path opacity="0.4" d="M213.258 140.304L161.085 187.912C155.673 185.525 150.883 181.924 147.084 177.39L204.094 125.397C208.248 129.6 211.383 134.7 213.258 140.304Z" fill="white"/>
<path d="M215.198 130.299C210.794 122.662 204.223 116.503 196.318 112.602C188.412 108.7 179.527 107.231 170.786 108.38C162.045 109.53 153.842 113.246 147.214 119.059C140.586 124.873 135.832 132.521 133.552 141.037C131.272 149.553 131.569 158.554 134.406 166.901C137.243 175.248 142.492 182.566 149.489 187.929C156.486 193.292 164.917 196.459 173.715 197.029C182.512 197.599 191.281 195.547 198.912 191.132C209.132 185.219 216.588 175.491 219.642 164.085C222.695 152.679 221.097 140.528 215.198 130.299ZM146.201 170.145C142.726 164.127 141.113 157.213 141.567 150.278C142.022 143.344 144.522 136.699 148.752 131.186C152.982 125.672 158.753 121.536 165.333 119.302C171.914 117.068 179.009 116.835 185.722 118.633C192.435 120.431 198.464 124.179 203.047 129.404C207.63 134.628 210.56 141.094 211.468 147.984C212.376 154.874 211.221 161.879 208.148 168.112C205.075 174.345 200.222 179.528 194.204 183.003C190.209 185.311 185.798 186.809 181.223 187.412C176.648 188.015 172 187.71 167.543 186.516C163.086 185.322 158.907 183.262 155.247 180.453C151.586 177.644 148.515 174.141 146.208 170.145H146.201Z" fill="#7694FF"/>
<path opacity="0.1" d="M215.198 130.299C210.794 122.662 204.223 116.503 196.318 112.602C188.412 108.7 179.527 107.231 170.786 108.38C162.045 109.53 153.842 113.246 147.214 119.059C140.586 124.873 135.832 132.521 133.552 141.037C131.272 149.553 131.569 158.554 134.406 166.901C137.243 175.248 142.492 182.566 149.489 187.929C156.486 193.292 164.917 196.459 173.715 197.029C182.512 197.599 191.281 195.547 198.912 191.132C209.132 185.219 216.588 175.491 219.642 164.085C222.695 152.679 221.097 140.528 215.198 130.299ZM146.201 170.145C142.726 164.127 141.113 157.213 141.567 150.278C142.022 143.344 144.522 136.699 148.752 131.186C152.982 125.672 158.753 121.536 165.333 119.302C171.914 117.068 179.009 116.835 185.722 118.633C192.435 120.431 198.464 124.179 203.047 129.404C207.63 134.628 210.56 141.094 211.468 147.984C212.376 154.874 211.221 161.879 208.148 168.112C205.075 174.345 200.222 179.528 194.204 183.003C190.209 185.311 185.798 186.809 181.223 187.412C176.648 188.015 172 187.71 167.543 186.516C163.086 185.322 158.907 183.262 155.247 180.453C151.586 177.644 148.515 174.141 146.208 170.145H146.201Z" fill="black"/>
<path d="M74.163 198.392L79.6684 199.671L75.1045 203.078C75.1045 203.078 71.8343 201.597 71.6833 199.276L74.163 198.392Z" fill="#E4897B"/>
<path d="M82.6149 203.336L78.6476 205.981L75.1042 203.077L79.6682 199.678L82.6149 203.336Z" fill="#E4897B"/>
<path d="M144.893 176.031C139.042 180.344 133.041 184.441 127.011 188.444C120.981 192.447 114.871 196.35 108.733 200.181C102.595 204.012 96.4001 207.763 90.1831 211.407C87.0782 213.262 83.9445 215.058 80.8396 216.884C79.2973 217.866 77.6157 218.61 75.8517 219.09C74.9104 219.34 73.948 219.501 72.9768 219.572C71.8985 219.66 70.8133 219.604 69.7497 219.407C68.9895 219.256 68.2665 218.958 67.622 218.527C66.9775 218.097 66.4241 217.544 65.9935 216.9C65.5629 216.256 65.2636 215.533 65.1126 214.773C64.9617 214.013 64.9621 213.231 65.1139 212.471C65.1631 212.227 65.2303 211.986 65.3151 211.752C65.6621 210.733 66.1456 209.766 66.7526 208.877C67.294 208.078 67.9101 207.332 68.5925 206.649C69.8923 205.362 71.3774 204.277 72.9983 203.429C76.1392 201.64 79.2584 199.836 82.4208 198.06C88.7169 194.503 95.0704 191.038 101.438 187.617C107.806 184.196 114.253 180.883 120.736 177.649C127.219 174.414 133.752 171.266 140.422 168.363C141.429 167.918 142.564 167.86 143.61 168.201C144.657 168.542 145.54 169.258 146.091 170.211C146.642 171.164 146.821 172.286 146.595 173.363C146.368 174.44 145.752 175.396 144.864 176.046L144.893 176.031Z" fill="#7694FF"/>
<path opacity="0.1" d="M144.893 176.031C139.042 180.344 133.041 184.441 127.011 188.444C120.981 192.447 114.871 196.35 108.733 200.181C102.595 204.012 96.4001 207.763 90.1831 211.407C87.0782 213.262 83.9445 215.058 80.8396 216.884C79.2973 217.866 77.6157 218.61 75.8517 219.09C74.9104 219.34 73.948 219.501 72.9768 219.572C71.8985 219.66 70.8133 219.604 69.7497 219.407C68.9895 219.256 68.2665 218.958 67.622 218.527C66.9775 218.097 66.4241 217.544 65.9935 216.9C65.5629 216.256 65.2636 215.533 65.1126 214.773C64.9617 214.013 64.9621 213.231 65.1139 212.471C65.1631 212.227 65.2303 211.986 65.3151 211.752C65.6621 210.733 66.1456 209.766 66.7526 208.877C67.294 208.078 67.9101 207.332 68.5925 206.649C69.8923 205.362 71.3774 204.277 72.9983 203.429C76.1392 201.64 79.2584 199.836 82.4208 198.06C88.7169 194.503 95.0704 191.038 101.438 187.617C107.806 184.196 114.253 180.883 120.736 177.649C127.219 174.414 133.752 171.266 140.422 168.363C141.429 167.918 142.564 167.86 143.61 168.201C144.657 168.542 145.54 169.258 146.091 170.211C146.642 171.164 146.821 172.286 146.595 173.363C146.368 174.44 145.752 175.396 144.864 176.046L144.893 176.031Z" fill="black"/>
<path d="M82.1403 164.345C81.7809 164.927 81.3712 165.631 80.9831 166.292C80.595 166.954 80.2141 167.644 79.8547 168.341C79.136 169.714 78.4173 171.108 77.6985 172.524C76.9798 173.94 76.3976 175.399 75.8083 176.836C75.5208 177.555 75.2189 178.274 74.953 178.992L74.5505 180.092C74.4715 180.3 74.4571 180.387 74.4068 180.538C74.3565 180.689 74.3349 180.832 74.2918 180.976C74.0112 182.396 73.8692 183.841 73.8677 185.288C73.8318 186.834 73.8677 188.408 73.954 189.996C74.0402 191.584 74.1265 193.18 74.2702 194.776C74.414 196.371 74.5577 197.995 74.7086 199.577L71.9344 200.144C71.4456 198.542 71.0647 196.946 70.6838 195.329C70.3028 193.712 70.0154 192.088 69.7351 190.434C69.4547 188.781 69.2679 187.121 69.1457 185.403C68.9962 183.605 69.042 181.795 69.2822 180.006C69.3254 179.754 69.3613 179.517 69.426 179.287C69.4907 179.057 69.5554 178.734 69.6129 178.568L69.965 177.346C70.195 176.534 70.461 175.729 70.7341 174.932C71.2875 173.329 71.8912 171.755 72.5668 170.202C73.2424 168.65 73.9612 167.133 74.723 165.638C75.1183 164.92 75.5352 164.151 75.9592 163.41C76.3833 162.67 76.8073 161.973 77.3392 161.189L82.1403 164.345Z" fill="#E4897B"/>
<path d="M79.0717 312.748C78.5867 312.733 78.1047 312.665 77.6342 312.547C77.609 312.542 77.5858 312.53 77.5677 312.512C77.5497 312.494 77.5377 312.471 77.5336 312.446C77.529 312.42 77.532 312.393 77.5422 312.369C77.5524 312.345 77.5694 312.324 77.5911 312.309C77.7851 312.18 79.4813 311.088 80.1354 311.382C80.2081 311.416 80.2705 311.468 80.316 311.534C80.3615 311.599 80.3885 311.676 80.3941 311.756C80.4279 311.884 80.4256 312.019 80.3875 312.146C80.3495 312.273 80.2771 312.386 80.1785 312.475C79.8547 312.696 79.4615 312.794 79.0717 312.748ZM77.972 312.36C78.9495 312.554 79.6826 312.518 79.9629 312.259C80.0245 312.2 80.0695 312.126 80.0935 312.044C80.1174 311.962 80.1195 311.875 80.0994 311.792C80.0985 311.755 80.0873 311.72 80.0669 311.689C80.0465 311.659 80.018 311.634 79.9844 311.619C79.6466 311.469 78.662 311.943 77.972 312.36Z" fill="#7694FF"/>
<path d="M77.6271 312.554C77.606 312.56 77.5836 312.56 77.5624 312.554C77.5418 312.543 77.5247 312.526 77.5132 312.506C77.5018 312.485 77.4964 312.462 77.4978 312.439C77.4978 312.374 77.4978 310.764 78.1087 310.225C78.1842 310.157 78.2731 310.106 78.3697 310.075C78.4664 310.044 78.5685 310.034 78.6693 310.046C78.7753 310.047 78.8775 310.085 78.9587 310.153C79.0398 310.221 79.095 310.315 79.1149 310.419C79.2443 311.045 78.2237 312.252 77.6774 312.575C77.6592 312.572 77.6419 312.565 77.6271 312.554ZM78.583 310.283C78.4741 310.284 78.3692 310.325 78.2884 310.398C77.935 310.918 77.754 311.537 77.7709 312.166C78.3027 311.735 78.9352 310.829 78.8562 310.448C78.8562 310.383 78.8058 310.311 78.6405 310.29L78.583 310.283Z" fill="#7694FF"/>
<path d="M104.529 312.748C103.936 312.739 103.347 312.672 102.768 312.547C102.74 312.544 102.714 312.531 102.695 312.512C102.675 312.492 102.663 312.466 102.66 312.439C102.657 312.411 102.662 312.384 102.675 312.359C102.687 312.335 102.707 312.315 102.732 312.302C102.983 312.173 105.211 311.037 105.894 311.411C105.96 311.445 106.016 311.495 106.056 311.557C106.096 311.618 106.12 311.69 106.124 311.763C106.14 311.882 106.126 312.002 106.083 312.114C106.04 312.226 105.97 312.325 105.88 312.403C105.482 312.67 105.005 312.791 104.529 312.748ZM103.206 312.36C104.449 312.568 105.362 312.511 105.707 312.209C105.765 312.155 105.808 312.089 105.834 312.015C105.861 311.941 105.869 311.862 105.858 311.785C105.858 311.755 105.85 311.726 105.835 311.701C105.819 311.676 105.798 311.655 105.772 311.641C105.398 311.44 104.119 311.921 103.206 312.36Z" fill="#7694FF"/>
<path d="M102.789 312.554C102.778 312.559 102.766 312.561 102.753 312.561C102.741 312.561 102.729 312.559 102.717 312.554C102.697 312.544 102.68 312.527 102.67 312.506C102.659 312.485 102.656 312.462 102.66 312.439C102.66 312.374 102.796 310.865 103.494 310.283C103.694 310.115 103.952 310.033 104.212 310.053C104.579 310.089 104.679 310.276 104.708 310.427C104.809 311.059 103.494 312.266 102.825 312.583L102.789 312.554ZM104.126 310.283C103.957 310.284 103.794 310.346 103.666 310.455C103.254 310.942 103.003 311.545 102.947 312.18C103.623 311.771 104.521 310.822 104.457 310.441C104.457 310.441 104.457 310.312 104.198 310.29L104.126 310.283Z" fill="#7694FF"/>
<path d="M90.65 142.762C91.0885 146.118 92.0875 152.925 89.6582 154.98C89.6582 154.98 90.3769 158.401 96.5005 158.797C103.271 159.235 99.9504 155.648 99.9504 155.648C96.3136 154.527 96.5867 151.789 97.3989 149.259L90.65 142.762Z" fill="#E4897B"/>
<path d="M103.207 135.941C103.164 135.94 103.121 135.928 103.085 135.905C103.053 135.889 103.026 135.867 103.003 135.84C102.98 135.814 102.964 135.782 102.954 135.749C102.943 135.715 102.94 135.68 102.944 135.645C102.948 135.61 102.959 135.576 102.977 135.546C103.163 135.166 103.439 134.836 103.781 134.586C104.123 134.336 104.52 134.172 104.939 134.108C105.003 134.111 105.064 134.137 105.111 134.181C105.158 134.225 105.187 134.285 105.193 134.349C105.2 134.413 105.182 134.477 105.145 134.529C105.107 134.582 105.052 134.618 104.989 134.633C104.661 134.69 104.351 134.823 104.083 135.02C103.815 135.217 103.596 135.473 103.444 135.769C103.424 135.816 103.391 135.857 103.349 135.887C103.307 135.918 103.258 135.936 103.207 135.941Z" fill="#263238"/>
<path d="M105.14 138.888C105.635 139.875 106.264 140.789 107.008 141.604C106.795 141.79 106.543 141.927 106.271 142.005C106 142.083 105.714 142.101 105.434 142.057L105.14 138.888Z" fill="#DE5753"/>
<path d="M104.666 138.154C104.709 138.607 104.982 138.945 105.269 138.916C105.557 138.887 105.773 138.506 105.729 138.054C105.686 137.601 105.413 137.263 105.119 137.292C104.824 137.32 104.623 137.709 104.666 138.154Z" fill="#263238"/>
<path d="M105.025 137.329L106.074 136.919C106.074 136.919 105.571 137.81 105.025 137.329Z" fill="#263238"/>
<path d="M96.637 312.417H102.236L102.61 299.466H97.0107L96.637 312.417Z" fill="#E4897B"/>
<path d="M71.2156 312.417H76.8145L78.6113 299.466H73.0196L71.2156 312.417Z" fill="#E4897B"/>
<path d="M77.1595 311.771H70.8707C70.7629 311.769 70.6583 311.807 70.5764 311.877C70.4945 311.947 70.4407 312.045 70.4251 312.151L69.7063 317.125C69.6922 317.251 69.7047 317.378 69.743 317.498C69.7813 317.619 69.8446 317.729 69.9287 317.824C70.0128 317.918 70.1158 317.993 70.2311 318.045C70.3463 318.097 70.4712 318.124 70.5976 318.124C72.7537 318.088 73.8462 317.959 76.6133 317.959C78.3095 317.959 80.7963 318.131 83.1465 318.131C85.4968 318.131 85.619 315.81 84.6415 315.601C80.2572 314.66 79.5673 313.359 78.0867 312.116C77.8282 311.894 77.4997 311.772 77.1595 311.771Z" fill="#263238"/>
<path d="M102.423 311.771H96.1411C96.0329 311.768 95.9275 311.805 95.8453 311.876C95.763 311.946 95.7096 312.044 95.6955 312.152L94.9768 317.125C94.9637 317.251 94.9772 317.378 95.0163 317.499C95.0555 317.619 95.1195 317.73 95.2042 317.824C95.2888 317.918 95.3923 317.994 95.5079 318.045C95.6234 318.097 95.7486 318.124 95.8752 318.124C98.0313 318.088 99.1238 317.959 101.884 317.959C103.587 317.959 107.102 318.131 109.452 318.131C111.802 318.131 111.924 315.81 110.947 315.601C106.563 314.66 104.838 313.359 103.357 312.116C103.097 311.893 102.765 311.771 102.423 311.771Z" fill="#263238"/>
<path d="M102.603 299.466L102.416 306.143H96.8171L97.0112 299.466H102.603Z" fill="#CE6F64"/>
<path d="M73.0126 299.466H78.6115L77.6843 306.143H72.0854L73.0126 299.466Z" fill="#CE6F64"/>
<path d="M84.5264 165.208C83.4639 166.868 82.2331 168.414 80.8538 169.822L80.2141 169.398L73.1274 164.69C73.1274 164.69 76.9942 156.065 79.905 155.627C82.6865 155.181 84.7133 158.056 85.6549 161.132C86.0142 162.246 85.4177 163.756 84.5264 165.208Z" fill="#7694FF"/>
<path opacity="0.6" d="M84.5264 165.208C83.4639 166.868 82.2331 168.414 80.8538 169.822L80.2141 169.398L73.1274 164.69C73.1274 164.69 76.9942 156.065 79.905 155.627C82.6865 155.181 84.7133 158.056 85.6549 161.132C86.0142 162.246 85.4177 163.756 84.5264 165.208Z" fill="#FAFAFA"/>
<path d="M84.5267 165.208C83.4641 166.868 82.2334 168.414 80.854 169.822L80.2144 169.398C80.5306 166.811 81.5368 164.245 82.6868 163.433C83.3911 163.504 84.0164 164.252 84.5267 165.208Z" fill="#7694FF"/>
<path opacity="0.4" d="M84.5267 165.208C83.4641 166.868 82.2334 168.414 80.854 169.822L80.2144 169.398C80.5306 166.811 81.5368 164.245 82.6868 163.433C83.3911 163.504 84.0164 164.252 84.5267 165.208Z" fill="#FAFAFA"/>
<path d="M108.769 169.513C108.432 171.669 107.993 174.206 107.404 177.218C106.685 181.07 105.679 185.692 104.407 191.219L81.7308 189.781C82.7083 180.574 83.0892 174.882 79.9053 155.656C83.1244 155.206 86.3721 154.993 89.6225 155.016C93.0647 154.994 96.5042 155.217 99.9146 155.685C104.313 156.404 109.258 157.726 109.258 157.726C109.258 157.726 110.523 158.222 108.769 169.513Z" fill="#7694FF"/>
<path opacity="0.6" d="M108.769 169.513C108.432 171.669 107.993 174.206 107.404 177.218C106.685 181.07 105.679 185.692 104.407 191.219L81.7308 189.781C82.7083 180.574 83.0892 174.882 79.9053 155.656C83.1244 155.206 86.3721 154.993 89.6225 155.016C93.0647 154.994 96.5042 155.217 99.9146 155.685C104.313 156.404 109.258 157.726 109.258 157.726C109.258 157.726 110.523 158.222 108.769 169.513Z" fill="#FAFAFA"/>
<path d="M108.769 169.512C108.432 171.668 107.993 174.206 107.404 177.217C106.157 174.564 105.121 171.818 104.306 169.002H108.518L108.769 169.512Z" fill="#7694FF"/>
<path opacity="0.4" d="M108.769 169.512C108.432 171.668 107.993 174.206 107.404 177.217C106.157 174.564 105.121 171.818 104.306 169.002H108.518L108.769 169.512Z" fill="#FAFAFA"/>
<path d="M89.4142 138.04C90.2695 143.523 90.5211 145.866 93.5757 148.432C98.1683 152.299 104.716 150.042 105.514 144.407C106.232 139.34 104.709 131.219 99.0955 129.537C97.8608 129.158 96.5497 129.102 95.2869 129.373C94.0242 129.644 92.8518 130.234 91.8814 131.086C90.911 131.938 90.1749 133.024 89.743 134.242C89.3112 135.459 89.198 136.766 89.4142 138.04Z" fill="#E4897B"/>
<path d="M98.4124 190.83C98.4124 190.83 98.053 200.813 97.1905 213.405C96.4718 223.97 95.3865 236.361 93.87 246.236L93.8269 246.51C91.1029 263.989 79.0355 304.842 79.0355 304.842H71.4026C71.4026 304.842 77.6914 265.383 79.0714 248.062C82.5716 204.313 73.8031 199.361 81.7307 189.716L98.4124 190.83Z" fill="#7694FF"/>
<path opacity="0.3" d="M98.4124 190.83C98.4124 190.83 98.053 200.813 97.1905 213.405C96.4718 223.97 95.3865 236.361 93.87 246.236L93.8269 246.51C91.1029 263.989 79.0355 304.842 79.0355 304.842H71.4026C71.4026 304.842 77.6914 265.383 79.0714 248.062C82.5716 204.313 73.8031 199.361 81.7307 189.716L98.4124 190.83Z" fill="black"/>
<path d="M97.1907 213.405C96.4719 223.971 95.3867 236.362 93.8701 246.237C91.2899 233.408 87.0494 214.67 92.7418 202.395C94.1001 205.88 95.6813 209.819 97.1907 213.405Z" fill="#7694FF"/>
<path opacity="0.4" d="M97.1907 213.405C96.4719 223.971 95.3867 236.362 93.8701 246.237C91.2899 233.408 87.0494 214.67 92.7418 202.395C94.1001 205.88 95.6813 209.819 97.1907 213.405Z" fill="black"/>
<path d="M104.407 191.226C104.407 191.226 110.875 229.563 110.487 246.625C110.106 264.378 103.602 304.842 103.602 304.842H96.0409C96.0409 304.842 97.234 265.406 96.5656 247.977C95.8469 228.973 87.7971 190.141 87.7971 190.141L104.407 191.226Z" fill="#7694FF"/>
<path opacity="0.3" d="M104.407 191.226C104.407 191.226 110.875 229.563 110.487 246.625C110.106 264.378 103.602 304.842 103.602 304.842H96.0409C96.0409 304.842 97.234 265.406 96.5656 247.977C95.8469 228.973 87.7971 190.141 87.7971 190.141L104.407 191.226Z" fill="black"/>
<path d="M94.7468 305.201H104.888L105.679 301.802L94.3875 301.881L94.7468 305.201Z" fill="#263238"/>
<path d="M70.2961 305.201H80.4374L81.228 301.802L70.368 301.881L70.2961 305.201Z" fill="#263238"/>
<path d="M81.4721 188.408L80.3222 190.377C80.2287 190.528 80.4084 190.701 80.6672 190.715L104.45 192.26C104.651 192.26 104.831 192.188 104.852 192.059L105.19 190.039C105.19 189.903 105.039 189.773 104.816 189.759L81.8171 188.264C81.7526 188.261 81.6882 188.273 81.6285 188.297C81.5689 188.322 81.5155 188.36 81.4721 188.408Z" fill="#263238"/>
<path d="M84.39 191.168L83.7791 191.125C83.6569 191.125 83.5635 191.046 83.5779 190.974L84.0379 188.35C84.0379 188.278 84.16 188.221 84.2822 188.228L84.9003 188.264C85.0225 188.264 85.1088 188.343 85.1016 188.422L84.6416 191.038C84.6272 191.117 84.5122 191.175 84.39 191.168Z" fill="#7694FF"/>
<path opacity="0.3" d="M84.39 191.168L83.7791 191.125C83.6569 191.125 83.5635 191.046 83.5779 190.974L84.0379 188.35C84.0379 188.278 84.16 188.221 84.2822 188.228L84.9003 188.264C85.0225 188.264 85.1088 188.343 85.1016 188.422L84.6416 191.038C84.6272 191.117 84.5122 191.175 84.39 191.168Z" fill="black"/>
<path d="M99.2751 192.131L98.6641 192.095C98.5419 192.095 98.4485 192.016 98.4629 191.937L98.9229 189.321C98.9229 189.242 99.0451 189.192 99.1744 189.199L99.7854 189.235C99.9075 189.235 100.001 189.314 99.9866 189.393L99.5266 192.009C99.5338 192.088 99.4188 192.139 99.2751 192.131Z" fill="#7694FF"/>
<path opacity="0.3" d="M99.2751 192.131L98.6641 192.095C98.5419 192.095 98.4485 192.016 98.4629 191.937L98.9229 189.321C98.9229 189.242 99.0451 189.192 99.1744 189.199L99.7854 189.235C99.9075 189.235 100.001 189.314 99.9866 189.393L99.5266 192.009C99.5338 192.088 99.4188 192.139 99.2751 192.131Z" fill="black"/>
<path d="M110.544 163.476C111.407 166.35 112.226 169.261 113.024 172.165L115.432 180.854L115.734 181.933L115.813 182.198L115.849 182.335V182.407C115.874 182.502 115.906 182.596 115.942 182.687C116.118 183.124 116.361 183.531 116.661 183.895C117.519 184.8 118.513 185.567 119.608 186.166C122.115 187.523 124.767 188.593 127.514 189.357L127.097 192.16C123.874 191.994 120.699 191.307 117.696 190.126C116.034 189.475 114.503 188.53 113.175 187.337C112.414 186.632 111.782 185.801 111.306 184.879C111.178 184.63 111.065 184.373 110.968 184.11L110.889 183.916L110.839 183.78L110.746 183.514L110.365 182.428C109.359 179.554 108.424 176.679 107.54 173.761C106.656 170.843 105.786 167.968 104.996 165.035L110.544 163.476Z" fill="#E4897B"/>
<path d="M109.258 157.697C112.133 158.638 115.152 168.039 115.152 168.039L104.773 172.51C104.773 172.51 100.461 161.959 102.373 159.572C104.285 157.186 105.959 156.618 109.258 157.697Z" fill="#7694FF"/>
<path opacity="0.6" d="M109.258 157.697C112.133 158.638 115.152 168.039 115.152 168.039L104.773 172.51C104.773 172.51 100.461 161.959 102.373 159.572C104.285 157.186 105.959 156.618 109.258 157.697Z" fill="#FAFAFA"/>
<path d="M103.709 129.221C101.876 126.957 87.7175 125.34 86.9629 131.507C81.9318 135.028 86.7041 144.127 87.4229 146.442C83.9514 147.405 72.768 151.228 80.9543 158.66C89.1406 166.092 101.416 164.827 103.817 157.136C105.499 151.76 100.159 142.762 100.274 139.614C100.389 136.466 106.85 133.066 103.709 129.221Z" fill="#263238"/>
<path d="M88.4148 147.578C88.3885 147.579 88.3625 147.573 88.3387 147.562C88.315 147.551 88.2942 147.534 88.2782 147.513C86.9774 145.932 82.4494 137.623 84.0378 133.67C84.2841 133.057 84.7017 132.528 85.2408 132.145C85.78 131.763 86.4177 131.544 87.078 131.514C87.1012 131.511 87.1248 131.513 87.1473 131.519C87.1699 131.526 87.1908 131.537 87.209 131.551C87.2271 131.566 87.2421 131.585 87.2529 131.605C87.2638 131.626 87.2703 131.649 87.272 131.672C87.2782 131.719 87.2659 131.766 87.2377 131.804C87.2094 131.841 87.1676 131.866 87.1211 131.873C86.5274 131.895 85.9526 132.087 85.4646 132.426C84.9767 132.765 84.5962 133.237 84.3684 133.785C82.8375 137.609 87.2792 145.723 88.5514 147.276C88.5741 147.301 88.5888 147.333 88.5937 147.366C88.5986 147.4 88.5934 147.434 88.5788 147.465C88.5642 147.496 88.5408 147.521 88.5117 147.539C88.4825 147.556 88.4488 147.565 88.4148 147.563V147.578Z" fill="#263238"/>
<path d="M99.1527 139.276C99.3131 140.326 99.8189 141.292 100.59 142.022C101.611 142.999 102.574 142.331 102.667 141.087C102.754 139.973 102.322 138.126 101.115 137.609C99.9073 137.091 99.0018 138.033 99.1527 139.276Z" fill="#E4897B"/>
<path d="M123.992 188.581L128.074 187.193L127.435 192.102C127.435 192.102 125.825 192.821 123.74 191.01L121.75 189.738L123.316 188.882C123.531 188.76 123.757 188.659 123.992 188.581Z" fill="#E4897B"/>
<path d="M130.928 187.179L129.677 191.47L127.435 192.095L128.074 187.193L130.928 187.179Z" fill="#E4897B"/>
</g>
<defs>
<radialGradient id="paint0_radial_887_3297" cx="0" cy="0" r="1" gradientUnits="userSpaceOnUse" gradientTransform="translate(898.5 -575) rotate(132.568) scale(1141.24)">
<stop stop-color="#7694FF"/>
<stop offset="1" stop-color="white"/>
</radialGradient>
</defs>
</svg>
