<svg width="69" height="69" viewBox="0 0 69 69" fill="none" xmlns="http://www.w3.org/2000/svg">
<path d="M25.875 43.125C25.3064 43.125 24.7505 43.2936 24.2777 43.6095C23.8049 43.9254 23.4364 44.3744 23.2188 44.8998C23.0012 45.4251 22.9443 46.0032 23.0552 46.5609C23.1662 47.1186 23.44 47.6309 23.8421 48.0329C24.2441 48.435 24.7564 48.7088 25.3141 48.8198C25.8718 48.9307 26.4499 48.8738 26.9752 48.6562C27.5006 48.4386 27.9496 48.0701 28.2655 47.5973C28.5814 47.1245 28.75 46.5686 28.75 46C28.75 45.2375 28.4471 44.5062 27.9079 43.9671C27.3688 43.4279 26.6375 43.125 25.875 43.125ZM5.75 40.25C4.9875 40.25 4.25623 40.5529 3.71707 41.0921C3.1779 41.6312 2.875 42.3625 2.875 43.125V48.875C2.875 49.6375 3.1779 50.3688 3.71707 50.9079C4.25623 51.4471 4.9875 51.75 5.75 51.75C6.5125 51.75 7.24376 51.4471 7.78293 50.9079C8.3221 50.3688 8.625 49.6375 8.625 48.875V43.125C8.625 42.3625 8.3221 41.6312 7.78293 41.0921C7.24376 40.5529 6.5125 40.25 5.75 40.25ZM63.25 40.25C62.4875 40.25 61.7562 40.5529 61.2171 41.0921C60.6779 41.6312 60.375 42.3625 60.375 43.125V48.875C60.375 49.6375 60.6779 50.3688 61.2171 50.9079C61.7562 51.4471 62.4875 51.75 63.25 51.75C64.0125 51.75 64.7438 51.4471 65.2829 50.9079C65.8221 50.3688 66.125 49.6375 66.125 48.875V43.125C66.125 42.3625 65.8221 41.6312 65.2829 41.0921C64.7438 40.5529 64.0125 40.25 63.25 40.25ZM48.875 20.125H37.375V16.445C38.244 15.9433 38.9667 15.2229 39.471 14.3554C39.9754 13.4879 40.2439 12.5035 40.25 11.5C40.25 9.97501 39.6442 8.51247 38.5659 7.43414C37.4875 6.3558 36.025 5.75 34.5 5.75C32.975 5.75 31.5125 6.3558 30.4341 7.43414C29.3558 8.51247 28.75 9.97501 28.75 11.5C28.7561 12.5035 29.0246 13.4879 29.529 14.3554C30.0333 15.2229 30.756 15.9433 31.625 16.445V20.125H20.125C17.8375 20.125 15.6437 21.0337 14.0262 22.6512C12.4087 24.2687 11.5 26.4625 11.5 28.75V54.625C11.5 56.9125 12.4087 59.1063 14.0262 60.7238C15.6437 62.3413 17.8375 63.25 20.125 63.25H48.875C51.1625 63.25 53.3563 62.3413 54.9738 60.7238C56.5913 59.1063 57.5 56.9125 57.5 54.625V28.75C57.5 26.4625 56.5913 24.2687 54.9738 22.6512C53.3563 21.0337 51.1625 20.125 48.875 20.125ZM39.445 25.875L38.0075 31.625H30.9925L29.555 25.875H39.445ZM51.75 54.625C51.75 55.3875 51.4471 56.1188 50.9079 56.6579C50.3688 57.1971 49.6375 57.5 48.875 57.5H20.125C19.3625 57.5 18.6312 57.1971 18.0921 56.6579C17.5529 56.1188 17.25 55.3875 17.25 54.625V28.75C17.25 27.9875 17.5529 27.2562 18.0921 26.7171C18.6312 26.1779 19.3625 25.875 20.125 25.875H23.6325L25.875 35.19C26.0324 35.8279 26.4036 36.3926 26.9267 36.7902C27.4498 37.1877 28.0933 37.3941 28.75 37.375H40.25C40.9067 37.3941 41.5502 37.1877 42.0733 36.7902C42.5964 36.3926 42.9676 35.8279 43.125 35.19L45.3675 25.875H48.875C49.6375 25.875 50.3688 26.1779 50.9079 26.7171C51.4471 27.2562 51.75 27.9875 51.75 28.75V54.625ZM43.125 43.125C42.5564 43.125 42.0005 43.2936 41.5277 43.6095C41.0549 43.9254 40.6864 44.3744 40.4688 44.8998C40.2512 45.4251 40.1943 46.0032 40.3052 46.5609C40.4162 47.1186 40.69 47.6309 41.0921 48.0329C41.4941 48.435 42.0064 48.7088 42.5641 48.8198C43.1218 48.9307 43.6999 48.8738 44.2252 48.6562C44.7506 48.4386 45.1996 48.0701 45.5155 47.5973C45.8314 47.1245 46 46.5686 46 46C46 45.2375 45.6971 44.5062 45.1579 43.9671C44.6188 43.4279 43.8875 43.125 43.125 43.125Z" fill="black"/>
</svg>
