<svg width="22" height="22" viewBox="0 0 22 22" fill="none" xmlns="http://www.w3.org/2000/svg">
<path d="M10.8445 5.6773C14.1081 5.6773 17.0187 7.51147 18.4395 10.4134C17.0187 13.3154 14.1081 15.1495 10.8445 15.1495C7.58093 15.1495 4.67037 13.3154 3.24954 10.4134C4.67037 7.51147 7.58093 5.6773 10.8445 5.6773ZM10.8445 3.95508C6.53898 3.95508 2.86204 6.63313 1.37231 10.4134C2.86204 14.1937 6.53898 16.8717 10.8445 16.8717C15.1501 16.8717 18.827 14.1937 20.3168 10.4134C18.827 6.63313 15.1501 3.95508 10.8445 3.95508ZM10.8445 8.26063C12.0329 8.26063 12.9973 9.22508 12.9973 10.4134C12.9973 11.6017 12.0329 12.5662 10.8445 12.5662C9.6562 12.5662 8.69176 11.6017 8.69176 10.4134C8.69176 9.22508 9.6562 8.26063 10.8445 8.26063ZM10.8445 6.53841C8.70898 6.53841 6.96954 8.27786 6.96954 10.4134C6.96954 12.549 8.70898 14.2884 10.8445 14.2884C12.9801 14.2884 14.7195 12.549 14.7195 10.4134C14.7195 8.27786 12.9801 6.53841 10.8445 6.53841Z" fill="#7694FF"/>
</svg>
