<svg width="59" height="334" viewBox="0 0 59 334" fill="none" xmlns="http://www.w3.org/2000/svg">
<path d="M0 0H39C50.0457 0 59 8.95431 59 20V314C59 325.046 50.0457 334 39 334H0V0Z" fill="#7694FF"/>
<path d="M24.55 59.35V52.075L21 50.825V47.85L38.4 54.075V57.375L21 63.6V60.6L24.55 59.35ZM26.875 58.55L34.95 55.725L26.875 52.875V58.55ZM27.9 65.3566C29.3167 65.3566 30.5583 65.64 31.625 66.2066C32.7083 66.79 33.5417 67.59 34.125 68.6066C34.7083 69.6233 35 70.79 35 72.1066C35 73.7733 34.6 75.1483 33.8 76.2316C33.0167 77.3316 31.8917 78.0733 30.425 78.4566V75.3816C31.1083 75.1316 31.6417 74.7316 32.025 74.1816C32.4083 73.6316 32.6 72.94 32.6 72.1066C32.6 70.94 32.1833 70.0066 31.35 69.3066C30.5333 68.6233 29.3833 68.2816 27.9 68.2816C26.4167 68.2816 25.2583 68.6233 24.425 69.3066C23.5917 70.0066 23.175 70.94 23.175 72.1066C23.175 73.7566 23.9 74.8483 25.35 75.3816V78.4566C23.95 78.0566 22.8333 77.3066 22 76.2066C21.1833 75.1066 20.775 73.74 20.775 72.1066C20.775 70.79 21.0667 69.6233 21.65 68.6066C22.25 67.59 23.0833 66.79 24.15 66.2066C25.2333 65.64 26.4833 65.3566 27.9 65.3566ZM27.95 80.3469C29.3333 80.3469 30.5583 80.6302 31.625 81.1969C32.6917 81.7802 33.5167 82.5635 34.1 83.5469C34.7 84.5469 35 85.6469 35 86.8469C35 87.9302 34.7833 88.8719 34.35 89.6719C33.9333 90.4885 33.4083 91.1385 32.775 91.6219H34.775V94.4969H21V91.6219H23.05C22.4 91.1385 21.8583 90.4802 21.425 89.6469C20.9917 88.8135 20.775 87.8635 20.775 86.7969C20.775 85.6135 21.075 84.5302 21.675 83.5469C22.2917 82.5635 23.1417 81.7802 24.225 81.1969C25.325 80.6302 26.5667 80.3469 27.95 80.3469ZM27.9 91.6219C28.85 91.6219 29.675 91.4219 30.375 91.0219C31.075 90.6385 31.6083 90.1302 31.975 89.4969C32.3417 88.8635 32.525 88.1802 32.525 87.4469C32.525 86.7135 32.3417 86.0302 31.975 85.3969C31.625 84.7635 31.1 84.2469 30.4 83.8469C29.7167 83.4635 28.9 83.2719 27.95 83.2719C27 83.2719 26.1667 83.4635 25.45 83.8469C24.7333 84.2469 24.1833 84.7635 23.8 85.3969C23.4333 86.0469 23.25 86.7302 23.25 87.4469C23.25 88.1802 23.4333 88.8635 23.8 89.4969C24.1667 90.1302 24.7 90.6385 25.4 91.0219C26.1167 91.4219 26.95 91.6219 27.9 91.6219ZM27.95 97.2902C29.3333 97.2902 30.5583 97.5736 31.625 98.1402C32.6917 98.7236 33.5167 99.5069 34.1 100.49C34.7 101.49 35 102.599 35 103.815C35 104.715 34.8 105.599 34.4 106.465C34.0167 107.349 33.5 108.049 32.85 108.565H39.5V111.44H21V108.565H23.075C22.4083 108.099 21.8583 107.449 21.425 106.615C20.9917 105.799 20.775 104.857 20.775 103.79C20.775 102.59 21.075 101.49 21.675 100.49C22.2917 99.5069 23.1417 98.7236 24.225 98.1402C25.325 97.5736 26.5667 97.2902 27.95 97.2902ZM27.9 108.565C28.85 108.565 29.675 108.365 30.375 107.965C31.075 107.582 31.6083 107.074 31.975 106.44C32.3417 105.807 32.525 105.124 32.525 104.39C32.525 103.657 32.3417 102.974 31.975 102.34C31.625 101.707 31.1 101.19 30.4 100.79C29.7167 100.407 28.9 100.215 27.95 100.215C27 100.215 26.1667 100.407 25.45 100.79C24.7333 101.19 24.1833 101.707 23.8 102.34C23.4333 102.99 23.25 103.674 23.25 104.39C23.25 105.124 23.4333 105.807 23.8 106.44C24.1667 107.074 24.7 107.582 25.4 107.965C26.1167 108.365 26.95 108.565 27.9 108.565ZM28.225 127.809C27.7083 127.809 27.2417 127.775 26.825 127.709V117.184C25.725 117.267 24.8417 117.675 24.175 118.409C23.5083 119.142 23.175 120.042 23.175 121.109C23.175 122.642 23.8167 123.725 25.1 124.359V127.434C23.8333 127.017 22.7917 126.259 21.975 125.159C21.175 124.075 20.775 122.725 20.775 121.109C20.775 119.792 21.0667 118.609 21.65 117.559C22.25 116.525 23.0833 115.709 24.15 115.109C25.2333 114.525 26.4833 114.234 27.9 114.234C29.3167 114.234 30.5583 114.517 31.625 115.084C32.7083 115.667 33.5417 116.475 34.125 117.509C34.7083 118.559 35 119.759 35 121.109C35 122.409 34.7167 123.567 34.15 124.584C33.5833 125.6 32.7833 126.392 31.75 126.959C30.7333 127.525 29.5583 127.809 28.225 127.809ZM29.125 124.834C30.175 124.817 31.0167 124.442 31.65 123.709C32.2833 122.975 32.6 122.067 32.6 120.984C32.6 120 32.2833 119.159 31.65 118.459C31.0333 117.759 30.1917 117.342 29.125 117.209V124.834ZM35 147.288C35 148.372 34.775 149.338 34.325 150.188C33.875 151.055 33.2083 151.73 32.325 152.213C31.4417 152.713 30.375 152.963 29.125 152.963H21V150.138H28.7C29.9333 150.138 30.875 149.83 31.525 149.213C32.1917 148.597 32.525 147.755 32.525 146.688C32.525 145.622 32.1917 144.772 31.525 144.138C30.875 143.522 29.9333 143.213 28.7 143.213H21V140.388H28.7C29.9333 140.388 30.875 140.08 31.525 139.463C32.1917 138.847 32.525 138.005 32.525 136.938C32.525 135.872 32.1917 135.022 31.525 134.388C30.875 133.772 29.9333 133.463 28.7 133.463H21V130.613H34.775V133.463H33.2C33.7667 133.93 34.2083 134.522 34.525 135.238C34.8417 135.955 35 136.722 35 137.538C35 138.638 34.7667 139.622 34.3 140.488C33.8333 141.355 33.1583 142.022 32.275 142.488C33.1083 142.905 33.7667 143.555 34.25 144.438C34.75 145.322 35 146.272 35 147.288ZM36.6 158.04C36.6 157.523 36.775 157.09 37.125 156.74C37.475 156.39 37.9083 156.215 38.425 156.215C38.9417 156.215 39.375 156.39 39.725 156.74C40.075 157.09 40.25 157.523 40.25 158.04C40.25 158.54 40.075 158.965 39.725 159.315C39.375 159.665 38.9417 159.84 38.425 159.84C37.9083 159.84 37.475 159.665 37.125 159.315C36.775 158.965 36.6 158.54 36.6 158.04ZM34.775 159.44H21V156.59H34.775V159.44ZM27.9 162.232C29.3167 162.232 30.5583 162.515 31.625 163.082C32.7083 163.665 33.5417 164.465 34.125 165.482C34.7083 166.498 35 167.665 35 168.982C35 170.648 34.6 172.023 33.8 173.107C33.0167 174.207 31.8917 174.948 30.425 175.332V172.257C31.1083 172.007 31.6417 171.607 32.025 171.057C32.4083 170.507 32.6 169.815 32.6 168.982C32.6 167.815 32.1833 166.882 31.35 166.182C30.5333 165.498 29.3833 165.157 27.9 165.157C26.4167 165.157 25.2583 165.498 24.425 166.182C23.5917 166.882 23.175 167.815 23.175 168.982C23.175 170.632 23.9 171.723 25.35 172.257V175.332C23.95 174.932 22.8333 174.182 22 173.082C21.1833 171.982 20.775 170.615 20.775 168.982C20.775 167.665 21.0667 166.498 21.65 165.482C22.25 164.465 23.0833 163.665 24.15 163.082C25.2333 162.515 26.4833 162.232 27.9 162.232ZM33.2 196.816C32.3167 196.816 31.4833 196.608 30.7 196.191C29.9167 195.774 29.275 195.108 28.775 194.191C28.2917 193.274 28.05 192.099 28.05 190.666V187.516H21V184.666H38.375V190.666C38.375 191.999 38.1417 193.124 37.675 194.041C37.225 194.974 36.6083 195.666 35.825 196.116C35.0417 196.583 34.1667 196.816 33.2 196.816ZM30.375 190.666C30.375 191.749 30.6167 192.558 31.1 193.091C31.6 193.624 32.3 193.891 33.2 193.891C35.1 193.891 36.05 192.816 36.05 190.666V187.516H30.375V190.666ZM20.775 205.509C20.775 204.209 21.0667 203.034 21.65 201.984C22.25 200.934 23.0833 200.109 24.15 199.509C25.2333 198.909 26.4833 198.609 27.9 198.609C29.3 198.609 30.5417 198.918 31.625 199.534C32.7083 200.151 33.5417 200.993 34.125 202.059C34.7083 203.126 35 204.318 35 205.634C35 206.951 34.7083 208.143 34.125 209.209C33.5417 210.276 32.7083 211.118 31.625 211.734C30.5417 212.351 29.3 212.659 27.9 212.659C26.5 212.659 25.2583 212.343 24.175 211.709C23.0917 211.076 22.25 210.209 21.65 209.109C21.0667 208.026 20.775 206.826 20.775 205.509ZM23.25 205.509C23.25 206.243 23.425 206.926 23.775 207.559C24.125 208.209 24.65 208.734 25.35 209.134C26.05 209.534 26.9 209.734 27.9 209.734C28.9 209.734 29.7417 209.543 30.425 209.159C31.125 208.776 31.65 208.268 32 207.634C32.35 207.001 32.525 206.318 32.525 205.584C32.525 204.851 32.35 204.168 32 203.534C31.65 202.918 31.125 202.426 30.425 202.059C29.7417 201.693 28.9 201.509 27.9 201.509C26.4167 201.509 25.2667 201.884 24.45 202.634C23.65 203.401 23.25 204.359 23.25 205.509ZM36.6 216.927C36.6 216.41 36.775 215.977 37.125 215.627C37.475 215.277 37.9083 215.102 38.425 215.102C38.9417 215.102 39.375 215.277 39.725 215.627C40.075 215.977 40.25 216.41 40.25 216.927C40.25 217.427 40.075 217.852 39.725 218.202C39.375 218.552 38.9417 218.727 38.425 218.727C37.9083 218.727 37.475 218.552 37.125 218.202C36.775 217.852 36.6 217.427 36.6 216.927ZM34.775 218.327H21V215.477H34.775V218.327ZM35 229.018C35 230.102 34.775 231.068 34.325 231.918C33.875 232.785 33.2083 233.46 32.325 233.943C31.4417 234.427 30.375 234.668 29.125 234.668H21V231.843H28.7C29.9333 231.843 30.875 231.535 31.525 230.918C32.1917 230.302 32.525 229.46 32.525 228.393C32.525 227.327 32.1917 226.477 31.525 225.843C30.875 225.227 29.9333 224.918 28.7 224.918H21V222.068H34.775V224.918H33.2C33.7667 225.385 34.2083 225.977 34.525 226.693C34.8417 227.427 35 228.202 35 229.018ZM32.45 241.629H24.825C24.3083 241.629 23.9333 241.745 23.7 241.979C23.4833 242.229 23.375 242.645 23.375 243.229V244.979H21V242.729C21 241.445 21.3 240.462 21.9 239.779C22.5 239.095 23.475 238.754 24.825 238.754H32.45V237.129H34.775V238.754H38.2V241.629H34.775V244.979H32.45V241.629Z" fill="white"/>
<circle cx="29.5" cy="285.5" r="15.5" transform="rotate(90 29.5 285.5)" fill="white"/>
<path d="M32.1833 290.196C32.5667 289.812 32.5667 289.237 32.1833 288.854L28.8292 285.5L32.1833 282.146C32.5667 281.762 32.5667 281.187 32.1833 280.804C31.8 280.421 31.225 280.421 30.8417 280.804L26.8167 284.829C26.625 285.021 26.5292 285.212 26.5292 285.5C26.5292 285.787 26.625 285.979 26.8167 286.171L30.8417 290.196C31.225 290.579 31.8 290.579 32.1833 290.196Z" fill="#7694FF"/>
</svg>
