<svg width="197" height="183" viewBox="0 0 197 183" fill="none" xmlns="http://www.w3.org/2000/svg">
<mask id="mask0_889_12246" style="mask-type:alpha" maskUnits="userSpaceOnUse" x="0" y="0" width="197" height="183">
<rect width="197" height="183" fill="#C4C4C4"/>
</mask>
<g mask="url(#mask0_889_12246)">
<path fill-rule="evenodd" clip-rule="evenodd" d="M89.2128 87.3832C89.469 86.8732 89.793 86.4002 90.176 85.9771L89.6381 84.5006L91.8247 83.0945L92.9461 84.1948C93.4854 84.0198 94.0459 83.9181 94.6124 83.8925L95.2768 82.4688L97.8148 83.0171V84.5885C98.3262 84.8439 98.7994 85.1693 99.221 85.5552L100.697 85.0174L102.104 87.2004L101.003 88.3253C101.179 88.8645 101.282 89.425 101.309 89.9916L102.715 90.656L102.167 93.1976H100.595C100.338 93.707 100.014 94.1799 99.6323 94.6038L100.167 96.0802L97.9836 97.4863L96.8763 96.4107C96.3365 96.5842 95.7763 96.6858 95.21 96.713L94.5456 98.1367L92.0075 97.5848L91.9899 96.0169C91.4811 95.7573 91.0084 95.4323 90.5838 95.0502L89.1073 95.5881L87.7012 93.4015L88.8015 92.2801C88.628 91.7404 88.5263 91.1801 88.4992 90.6138L87.0754 89.9494L87.6274 87.4113H89.1987L89.2128 87.3832ZM92.2114 89.5944C92.0946 90.1332 92.1402 90.6946 92.3424 91.2075C92.5447 91.7204 92.8944 92.1619 93.3476 92.476C93.8007 92.7901 94.3368 92.9628 94.888 92.9722C95.4393 92.9817 95.981 92.8274 96.4446 92.529C96.9082 92.2306 97.2729 91.8014 97.4926 91.2957C97.7123 90.79 97.7771 90.2305 97.6788 89.688C97.5805 89.1455 97.3235 88.6443 96.9404 88.2478C96.5573 87.8513 96.0652 87.5774 95.5263 87.4606C95.1685 87.3825 94.7989 87.3758 94.4385 87.4409C94.0781 87.506 93.7341 87.6415 93.4261 87.8397C93.1182 88.0379 92.8524 88.2949 92.644 88.596C92.4355 88.8971 92.2885 89.2364 92.2114 89.5944Z" fill="#7694FF"/>
<path fill-rule="evenodd" clip-rule="evenodd" d="M85.1001 75.8151C85.2257 75.5695 85.3828 75.3414 85.5676 75.1366L85.3075 74.4335L86.3621 73.748L86.9034 74.2824C87.1664 74.1975 87.4395 74.1478 87.7155 74.1347L88.0354 73.4316L89.2693 73.6988V74.4616C89.5138 74.5871 89.7408 74.7443 89.9442 74.9292L90.6473 74.669L91.3293 75.7236L90.8301 76.2756C90.915 76.5385 90.9646 76.8116 90.9777 77.0876L91.6808 77.4075L91.4136 78.6414H90.6543C90.5288 78.8868 90.3703 79.1139 90.1833 79.3163L90.4469 80.0194L89.3923 80.7014L88.8474 80.1671C88.5856 80.2516 88.3137 80.3013 88.0389 80.3147L87.7155 81.0178L86.4851 80.7506V79.9913C86.2386 79.8659 86.0103 79.7074 85.8066 79.5202L85.1036 79.7839L84.4181 78.7293L84.9524 78.1844C84.8679 77.9226 84.8182 77.6507 84.8048 77.3759L84.1017 77.0525L84.3689 75.8221H85.1317L85.1001 75.8151ZM86.5554 76.8872C86.4982 77.1488 86.52 77.4214 86.6178 77.6706C86.7156 77.9199 86.8851 78.1345 87.1049 78.2873C87.3247 78.4402 87.5849 78.5244 87.8526 78.5294C88.1203 78.5343 88.3834 78.4597 88.6087 78.3151C88.834 78.1705 89.0114 77.9623 89.1183 77.7169C89.2253 77.4714 89.2571 77.1998 89.2096 76.9363C89.1621 76.6728 89.0376 76.4293 88.8517 76.2366C88.6659 76.0439 88.427 75.9107 88.1654 75.8537C87.8149 75.7774 87.4484 75.8434 87.1465 76.0372C86.8446 76.231 86.632 76.5368 86.5554 76.8872Z" fill="#7694FF"/>
<path d="M163.814 162.741C175.297 156.095 185.829 142.707 186.765 129.387C187.45 119.746 183.183 111.956 178.238 105.647C166.812 91.1316 144.802 88.9273 132.473 75.4317C122.367 64.3675 120.987 43.4253 111.226 31.9722C103.619 23.0621 94.4238 15.2334 82.6551 13.5172C70.8864 11.801 56.107 17.4781 47.3841 30.0884C39.14 42.0043 38.0671 56.7953 38.5585 69.8304C39.4303 92.9151 43.8699 115.02 53.3773 133.133C60.0995 145.939 69.9819 159.723 83.1202 164.351C96.8541 169.186 110.896 168.388 125.647 169.614C126.715 169.701 127.792 169.782 128.869 169.847C140.165 170.525 151.91 169.638 163.814 162.741Z" fill="#7694FF"/>
<path opacity="0.9" d="M163.814 162.741C175.297 156.095 185.829 142.707 186.765 129.387C187.45 119.746 183.183 111.956 178.238 105.647C166.812 91.1316 144.802 88.9273 132.473 75.4317C122.367 64.3675 120.987 43.4253 111.226 31.9722C103.619 23.0621 94.4238 15.2334 82.6551 13.5172C70.8864 11.801 56.107 17.4781 47.3841 30.0884C39.14 42.0043 38.0671 56.7953 38.5585 69.8304C39.4303 92.9151 43.8699 115.02 53.3773 133.133C60.0995 145.939 69.9819 159.723 83.1202 164.351C96.8541 169.186 110.896 168.388 125.647 169.614C126.715 169.701 127.792 169.782 128.869 169.847C140.165 170.525 151.91 169.638 163.814 162.741Z" fill="white" fill-opacity="0.81"/>
<path d="M77.6963 85.5135C77.6963 85.5135 77.6963 85.4748 77.6963 85.401C77.7157 85.2952 77.7488 85.1924 77.7948 85.0951C77.9637 84.7276 78.2542 84.4297 78.6173 84.2515C78.854 84.1371 79.1128 84.0757 79.3756 84.0715C79.6384 84.0673 79.899 84.1204 80.1392 84.227C80.3794 84.3336 80.5936 84.4913 80.7667 84.6891C80.9399 84.8868 81.0679 85.1199 81.1419 85.3721C81.2159 85.6243 81.234 85.8896 81.1951 86.1496C81.1563 86.4095 81.0612 86.6579 80.9167 86.8774C80.7721 87.0969 80.5815 87.2823 80.358 87.4208C80.1346 87.5592 79.8837 87.6473 79.6227 87.6789C79.3227 87.7185 79.0176 87.6812 78.736 87.5705C78.4544 87.4598 78.2055 87.2794 78.0127 87.0462C77.7537 86.7353 77.6119 86.3435 77.6119 85.9388C77.6116 85.831 77.6246 85.7236 77.6506 85.6189C77.6506 85.5486 77.6787 85.5135 77.6858 85.5135C77.6928 85.5135 77.6682 85.6681 77.6858 85.9353C77.7087 86.3154 77.8585 86.6769 78.1111 86.9618C78.3136 87.1947 78.577 87.3665 78.8717 87.4579C79.1665 87.5494 79.4809 87.5568 79.7796 87.4794C80.0784 87.402 80.3496 87.2428 80.5628 87.0197C80.776 86.7966 80.9228 86.5185 80.9867 86.2165C81.0493 85.9164 81.0277 85.6047 80.9243 85.3161C80.8208 85.0274 80.6396 84.7729 80.4006 84.5809C80.1616 84.3888 79.8741 84.2665 79.5699 84.2276C79.2658 84.1887 78.9568 84.2347 78.6771 84.3604C78.3302 84.5155 78.0446 84.7813 77.8651 85.1162C77.742 85.3482 77.7139 85.5135 77.6963 85.5135Z" fill="#263238"/>
<path d="M75.8298 84.1074C75.7497 84.1215 75.6684 84.1274 75.5872 84.125L74.856 84.146L74.8841 84.125C74.7998 84.5362 74.6908 85.0671 74.5572 85.7069L74.5326 85.6541L75.4185 86.0619H75.4501V86.0971C75.469 86.444 75.534 86.7868 75.6435 87.1165V87.1517L75.6188 87.1763L74.9369 87.8793V87.7985L75.8157 89.1519L75.7313 89.1238L76.6453 88.7723L76.691 88.7547L76.7227 88.7863C76.9799 89.0176 77.2658 89.2149 77.5734 89.3734L77.6156 89.3945V89.4437C77.6156 89.746 77.6156 90.0764 77.6156 90.4174L77.5488 90.3401L79.1307 90.6916L79.0358 90.7373L79.4471 89.855L79.4682 89.8058H79.5209C79.8649 89.7895 80.2053 89.7281 80.5333 89.623L80.586 89.6054L80.6212 89.6441C80.8427 89.855 81.0782 90.0905 81.3243 90.326H81.2118L82.5722 89.4507L82.5335 89.5562L82.1996 88.6387L82.182 88.5859L82.2172 88.5473C82.4495 88.2921 82.6469 88.0072 82.8042 87.7001L82.8851 87.6509H83.3737H83.8624L83.7745 87.7247C83.887 87.1903 84.003 86.6701 84.126 86.1463L84.1752 86.2482L83.2929 85.8334L83.2437 85.8123V85.7561C83.2294 85.4118 83.1679 85.0712 83.0609 84.7437L83.0433 84.6909L83.0819 84.6558L83.7674 83.9527V84.0582C83.4675 83.5894 83.1769 83.136 82.8956 82.6977L82.9941 82.7329L82.0766 83.0633L82.0273 83.0809L81.9922 83.0493C81.7378 82.815 81.4528 82.6163 81.145 82.4587L81.1028 82.4376V82.3884C81.1028 82.0368 81.1028 81.7275 81.1028 81.4111L81.1626 81.4849L79.5877 81.1334L79.665 81.0947C79.5174 81.4041 79.3803 81.6958 79.2502 81.9771L79.2326 82.0157H79.1905C78.8443 82.0312 78.5016 82.0915 78.171 82.195H78.1358L78.1112 82.1704L77.4082 81.4673H77.475L76.1075 82.3321L76.1251 82.2829C76.2551 82.6344 76.3606 82.9508 76.4485 83.2039V83.2215C76.2153 83.4828 76.007 83.7653 75.8263 84.0652C75.8263 84.0652 75.8263 84.0441 75.8509 84.0054C75.878 83.9452 75.9086 83.8865 75.9423 83.8297C76.0721 83.5973 76.2278 83.3803 76.4063 83.1828V83.211L76.0547 82.297V82.2688L76.0829 82.2478L77.4328 81.3619L77.4679 81.3408L77.4996 81.3689L78.2026 82.0509H78.1394C78.4802 81.9374 78.8351 81.8711 79.194 81.854L79.1377 81.8927L79.5455 81.0033L79.5666 80.9541H79.6228L81.2047 81.3056H81.261V81.3654C81.261 81.6818 81.261 82.0052 81.261 82.3427L81.2188 82.2724C81.5395 82.4353 81.8374 82.6398 82.1047 82.8805H82.0203L82.9378 82.529L83.0011 82.5044L83.0362 82.5641C83.321 83.0036 83.6128 83.457 83.9151 83.9175L83.9502 83.9773L83.901 84.0265L83.219 84.7296L83.2401 84.6382C83.3501 84.9798 83.4151 85.3344 83.4335 85.6928L83.3807 85.6155L84.2666 86.0268L84.3334 86.0584L84.3158 86.1287C84.2069 86.6455 84.0909 87.1833 83.9643 87.7071V87.7774H83.8905H83.4054H82.9202L82.9976 87.7282C82.8399 88.0705 82.6365 88.3898 82.3929 88.6773V88.5824L82.7445 89.4999L82.7691 89.5702L82.7093 89.6089L81.3383 90.4842L81.2786 90.5229L81.2258 90.4702L80.5228 89.7847L80.6142 89.8058C80.2728 89.9168 79.9181 89.9819 79.5596 89.9991L79.6334 89.9464C79.4928 90.2557 79.3486 90.5581 79.2221 90.8323L79.1905 90.8955L79.1272 90.8779L77.5488 90.5264H77.482V90.4631C77.482 90.1116 77.482 89.7882 77.482 89.4859L77.5242 89.5562C77.2045 89.3904 76.9079 89.1836 76.6418 88.941H76.7191L75.8016 89.2714L75.7454 89.2925L75.7138 89.2433C75.4114 88.7652 75.1197 88.3117 74.8455 87.8829L74.8173 87.8372L74.856 87.802L75.5415 87.0989V87.1622C75.4354 86.82 75.3739 86.4656 75.3587 86.1076L75.3903 86.1533L74.508 85.735H74.4728V85.6963C74.6205 85.06 74.74 84.5327 74.8244 84.1214V84.1074H74.849H75.5696H75.7559H75.8298Z" fill="#263238"/>
<g opacity="0.8">
<path opacity="0.8" fill-rule="evenodd" clip-rule="evenodd" d="M89.2128 87.3832C89.469 86.8732 89.793 86.4002 90.176 85.9771L89.6381 84.5006L91.8247 83.0945L92.9461 84.1948C93.4854 84.0198 94.0459 83.9181 94.6124 83.8925L95.2768 82.4688L97.8148 83.0171V84.5885C98.3262 84.8439 98.7994 85.1693 99.221 85.5552L100.697 85.0174L102.104 87.2004L101.003 88.3253C101.179 88.8645 101.282 89.425 101.309 89.9916L102.715 90.656L102.167 93.1976H100.595C100.338 93.707 100.014 94.1799 99.6323 94.6038L100.167 96.0802L97.9836 97.4863L96.8763 96.4107C96.3365 96.5842 95.7763 96.6858 95.21 96.713L94.5456 98.1367L92.0075 97.5848L91.9899 96.0169C91.4811 95.7573 91.0084 95.4323 90.5838 95.0502L89.1073 95.5881L87.7012 93.4015L88.8015 92.2801C88.628 91.7404 88.5263 91.1801 88.4992 90.6138L87.0754 89.9494L87.6274 87.4113H89.1987L89.2128 87.3832ZM92.2114 89.5944C92.0946 90.1332 92.1402 90.6946 92.3424 91.2075C92.5447 91.7204 92.8944 92.1619 93.3476 92.476C93.8007 92.7901 94.3368 92.9628 94.888 92.9722C95.4393 92.9817 95.981 92.8274 96.4446 92.529C96.9082 92.2306 97.2729 91.8014 97.4926 91.2957C97.7123 90.79 97.7771 90.2305 97.6788 89.688C97.5805 89.1455 97.3235 88.6443 96.9404 88.2478C96.5573 87.8513 96.0652 87.5774 95.5263 87.4606C95.1685 87.3825 94.7989 87.3758 94.4385 87.4409C94.0781 87.506 93.7341 87.6415 93.4261 87.8397C93.1182 88.0379 92.8524 88.2949 92.644 88.596C92.4355 88.8971 92.2885 89.2364 92.2114 89.5944Z" fill="white"/>
</g>
<path d="M26.7795 135.538C26.7795 135.538 24.614 136.48 27.254 141.064C29.8941 145.648 31.6763 147.894 31.6763 147.894C31.6763 147.894 32.1579 148.949 31.2475 149.181C30.337 149.413 28.2946 149.181 27.943 150.323C27.5915 151.466 28.4809 152.57 30.2491 153.448C32.0173 154.327 35.8209 156.394 36.1654 156.584C36.5099 156.774 36.8685 157.259 36.2568 157.505C35.6452 157.751 31.1279 158.461 31.592 160.592C32.056 162.722 37.3853 164.357 37.9653 164.55C38.5453 164.743 38.693 164.972 38.6684 165.285C38.6438 165.598 37.0935 165.696 35.8139 165.949C34.5343 166.202 33.093 166.722 33.4621 167.928C33.8313 169.134 37.0619 171.545 44.6234 171.897L48.1388 171.834L49.8964 168.772C53.2606 161.991 52.7263 157.997 51.851 157.087C50.9756 156.176 49.8226 157.182 48.9789 158.18C48.1352 159.178 47.3021 160.479 47.0138 160.353C46.7256 160.226 46.592 159.983 46.7045 159.386C46.817 158.788 47.977 153.336 46.3529 151.895C44.7289 150.453 41.8955 154.071 41.3928 154.471C40.8901 154.872 40.6264 154.327 40.63 153.941C40.6335 153.554 40.6721 149.223 40.7635 147.261C40.8549 145.3 40.3698 143.985 39.1535 143.725C37.9372 143.465 37.1814 145.367 36.5486 146.059C35.9159 146.752 35.2163 145.81 35.2163 145.81C35.2163 145.81 34.1195 143.159 31.3951 138.624C28.6707 134.089 26.7548 135.573 26.7548 135.573" fill="#EBEBEB"/>
<path d="M48.3567 172.66C46.367 169.321 42.936 163.327 39.962 158.198C36.988 153.069 34.2953 148.429 32.3267 145.079C31.3389 143.409 30.5444 142.056 29.989 141.117L29.3527 140.038L29.191 139.757L29.1382 139.658C29.1382 139.658 29.1629 139.69 29.2015 139.75C29.2402 139.809 29.3 139.908 29.3738 140.027L30.0241 141.082C30.5901 142.01 31.3986 143.356 32.3935 145.026C34.3796 148.366 37.0865 153.002 40.0569 158.128C43.0274 163.253 46.4514 169.258 48.4235 172.608" fill="#E0E0E0"/>
<path d="M30.7872 150.756C30.8711 150.766 30.9536 150.784 31.0333 150.812C31.1915 150.854 31.42 150.921 31.6977 151.009C32.2566 151.181 33.0195 151.441 33.8596 151.74L36.004 152.517L36.6544 152.763C36.7356 152.787 36.8145 152.819 36.8899 152.858C36.8049 152.851 36.7211 152.833 36.6403 152.805C36.4821 152.763 36.2571 152.693 35.9794 152.605C35.4205 152.426 34.6612 152.158 33.821 151.856L31.6731 151.097L31.0228 150.868C30.9399 150.841 30.8608 150.803 30.7872 150.756Z" fill="#E0E0E0"/>
<path d="M37.118 152.608C37.0899 152.608 37.5539 150.998 38.1551 149.037C38.7562 147.075 39.2659 145.486 39.294 145.493C39.3222 145.5 38.8581 147.103 38.257 149.068C37.6559 151.033 37.1462 152.615 37.118 152.608Z" fill="#E0E0E0"/>
<path d="M41.3261 160.691C41.3641 160.612 41.4088 160.537 41.4597 160.466L41.8464 159.879C42.1733 159.379 42.6198 158.69 43.0838 157.91C43.5478 157.13 43.9486 156.409 44.2333 155.889L44.5848 155.266C44.622 155.188 44.6668 155.114 44.7184 155.045C44.6959 155.129 44.664 155.21 44.6235 155.287C44.5532 155.439 44.4513 155.657 44.3177 155.924C44.0505 156.455 43.6603 157.182 43.1928 157.966C42.7252 158.75 42.2682 159.432 41.9237 159.921C41.7515 160.163 41.6109 160.36 41.5089 160.49C41.4562 160.564 41.3949 160.631 41.3261 160.691Z" fill="#E0E0E0"/>
<path d="M35.248 160.279C35.3273 160.268 35.4078 160.268 35.4871 160.279L36.1374 160.3C36.6893 160.3 37.4487 160.353 38.2888 160.402C39.129 160.451 39.8848 160.493 40.4367 160.536L41.0835 160.588C41.1645 160.588 41.2452 160.6 41.3226 160.623C41.2431 160.631 41.163 160.631 41.0835 160.623L40.4297 160.606C39.8813 160.585 39.122 160.55 38.2818 160.504C37.4416 160.458 36.6823 160.409 36.1339 160.367L35.4836 160.314C35.404 160.311 35.3251 160.299 35.248 160.279Z" fill="#E0E0E0"/>
<path d="M38.0602 167.879C38.1619 167.87 38.2643 167.87 38.366 167.879L39.2027 167.901C39.9057 167.922 40.883 167.96 41.9587 168.009C43.0344 168.059 44.0082 168.108 44.7112 168.15L45.5479 168.203C45.6494 168.207 45.7505 168.219 45.8502 168.238C45.7486 168.249 45.646 168.249 45.5444 168.238L44.7077 168.217C44.0046 168.192 43.0274 168.157 41.9517 168.108C40.876 168.059 39.9022 168.006 39.1992 167.967L38.366 167.911C38.2634 167.908 38.1612 167.898 38.0602 167.879Z" fill="#E0E0E0"/>
<path d="M45.6497 168.178C45.6884 168.074 45.7366 167.974 45.7939 167.879C45.9134 167.682 46.0716 167.426 46.2579 167.113C46.6481 166.466 47.1859 165.573 47.7484 164.568C48.3108 163.562 48.803 162.641 49.1545 161.97C49.3198 161.646 49.4604 161.379 49.5658 161.175C49.6117 161.075 49.667 160.98 49.7311 160.891C49.6975 160.995 49.6552 161.096 49.6045 161.193C49.5201 161.386 49.3901 161.664 49.2213 162.005C48.8909 162.683 48.4128 163.615 47.8468 164.62C47.2808 165.626 46.736 166.519 46.3282 167.155C46.1243 167.475 45.9556 167.728 45.8325 167.904C45.7789 168 45.7178 168.092 45.6497 168.178Z" fill="#E0E0E0"/>
<path fill-rule="evenodd" clip-rule="evenodd" d="M137.984 37.2309C138.074 38.1999 138.033 39.1766 137.861 40.1346L139.992 41.7868L138.111 45.8295L135.474 45.26C134.851 46.0091 134.13 46.6712 133.33 47.2286L133.681 49.9002L129.488 51.4294L128.032 49.1655C127.062 49.2523 126.084 49.2097 125.125 49.039L123.462 51.1693L119.416 49.2851L119.986 46.6485C119.238 46.0261 118.577 45.3061 118.021 44.5077L115.345 44.8592L113.816 40.6689L116.08 39.2171C115.99 38.248 116.032 37.2713 116.203 36.3134L114.08 34.6471L115.961 30.6045L118.597 31.1739C119.22 30.4239 119.941 29.7617 120.741 29.2053L120.39 26.5302L124.584 25.001L126.05 27.2649C127.02 27.1781 127.998 27.2207 128.957 27.3914L130.606 25.2576L134.652 27.1418L134.082 29.7748C134.829 30.3994 135.49 31.1205 136.047 31.9192L138.723 31.5677L140.252 35.758L137.984 37.2204V37.2309ZM131.6 36.7563C131.275 35.8686 130.694 35.0971 129.931 34.5393C129.168 33.9814 128.256 33.6622 127.312 33.622C126.367 33.5818 125.432 33.8223 124.624 34.3132C123.816 34.8041 123.171 35.5234 122.772 36.3803C122.372 37.2372 122.236 38.1932 122.379 39.1277C122.522 40.0622 122.939 40.9333 123.577 41.6309C124.215 42.3286 125.046 42.8216 125.964 43.0477C126.882 43.2737 127.846 43.2228 128.735 42.9012C129.328 42.6873 129.873 42.3584 130.338 41.9333C130.803 41.5083 131.179 40.9955 131.446 40.4244C131.712 39.8534 131.863 39.2353 131.889 38.6058C131.916 37.9763 131.818 37.3478 131.6 36.7563Z" fill="#E0E0E0"/>
<path fill-rule="evenodd" clip-rule="evenodd" d="M161.347 59.3358C161.419 60.1042 161.385 60.8788 161.249 61.6383L162.94 62.946L161.449 66.1521L159.361 65.6986C158.866 66.2914 158.295 66.8162 157.663 67.2594L157.934 69.3686L154.612 70.5814L153.455 68.7851C152.687 68.8547 151.912 68.8216 151.153 68.6866L149.845 70.374L146.642 68.8835L147.092 66.7954C146.5 66.3015 145.976 65.7304 145.535 65.0974L143.426 65.3681L142.202 62.0672L143.999 60.9071C143.929 60.1398 143.962 59.3666 144.097 58.6081L142.41 57.3004L143.9 54.0944L145.988 54.5479C146.482 53.9541 147.053 53.4292 147.686 52.987L147.416 50.8778L150.738 49.665L151.894 51.4614C152.663 51.3918 153.437 51.4249 154.197 51.5598L155.505 49.8689L158.707 51.363L158.257 53.4511C158.85 53.945 159.373 54.5161 159.814 55.149L161.924 54.8783L163.133 58.1968L161.337 59.3534L161.347 59.3358ZM156.292 58.9842C156.038 58.2769 155.581 57.6608 154.976 57.214C154.372 56.7673 153.649 56.5101 152.898 56.4751C152.148 56.44 151.404 56.6287 150.76 57.0172C150.117 57.4057 149.604 57.9765 149.285 58.6571C148.967 59.3378 148.858 60.0977 148.972 60.8404C149.086 61.583 149.419 62.2751 149.927 62.8287C150.435 63.3823 151.096 63.7726 151.826 63.9499C152.556 64.1273 153.323 64.0838 154.028 63.8249C154.972 63.4809 155.74 62.7764 156.165 61.8661C156.589 60.9558 156.635 59.9142 156.292 58.9702V58.9842Z" fill="#EBEBEB"/>
<path fill-rule="evenodd" clip-rule="evenodd" d="M138.487 72.9642C138.546 73.6178 138.517 74.2762 138.403 74.9223L139.837 76.0331L138.572 78.761L136.814 78.3743C136.393 78.8782 135.907 79.3238 135.369 79.6996L135.598 81.503L132.785 82.533L131.801 81.0074C131.147 81.0664 130.489 81.0368 129.843 80.9195L128.732 82.3572L126.008 81.0882L126.391 79.3305C125.887 78.9109 125.441 78.4262 125.066 77.8892L123.266 78.1177L122.236 75.3054L123.761 74.3211C123.703 73.6676 123.731 73.0092 123.846 72.3631L122.408 71.2522L123.677 68.5278L125.435 68.911C125.855 68.4072 126.341 67.9615 126.879 67.5857L126.651 65.7859L129.463 64.7559L130.448 66.2815C131.101 66.2231 131.759 66.2515 132.406 66.3659L133.516 64.9281L136.241 66.1972L135.858 67.9724C136.361 68.3933 136.807 68.8791 137.183 69.4172L138.983 69.1852L140.013 71.9975L138.487 72.9642ZM134.184 72.6513C133.963 72.0537 133.57 71.535 133.054 71.1608C132.538 70.7865 131.923 70.5736 131.287 70.5487C130.65 70.5239 130.02 70.6883 129.477 71.0213C128.933 71.3542 128.501 71.8407 128.234 72.4193C127.967 72.9979 127.878 73.6426 127.977 74.2721C128.076 74.9015 128.36 75.4874 128.792 75.9558C129.224 76.4241 129.785 76.7539 130.405 76.9034C131.024 77.053 131.674 77.0156 132.272 76.796C133.073 76.5007 133.725 75.8996 134.083 75.1245C134.442 74.3494 134.478 73.4637 134.184 72.6619V72.6513Z" fill="#F5F5F5"/>
<path d="M20.3078 115.911H31.578V114.368H20.3078V115.911Z" fill="#E0E0E0"/>
<path d="M20.3078 113.303H31.578V111.759H20.3078V113.303Z" fill="#E0E0E0"/>
<path d="M26.7022 118.71H31.578V117.167H26.7022V118.71Z" fill="#E0E0E0"/>
<path d="M171.915 96.7878C171.935 96.7627 171.959 96.7403 171.985 96.721L172.206 96.5382L172.375 96.4081L172.593 96.2745L172.853 96.1198L173.163 95.9827C174.445 95.4725 175.87 95.4475 177.17 95.9124C178.072 96.2054 178.898 96.694 179.589 97.3432C180.371 98.1034 180.955 99.0436 181.29 100.082C182.028 102.261 181.838 104.929 180.773 107.337C179.708 109.745 178.01 111.675 176.414 113.275C174.818 114.874 173.25 116.203 172.017 117.395C171.03 118.318 170.102 119.301 169.239 120.341C168.937 120.713 168.712 121.009 168.561 121.212L168.389 121.441C168.35 121.49 168.329 121.518 168.325 121.515C168.338 121.484 168.354 121.456 168.375 121.43C168.413 121.367 168.466 121.286 168.533 121.191C168.67 120.98 168.884 120.675 169.183 120.298C170.028 119.236 170.945 118.234 171.929 117.3C173.152 116.098 174.695 114.758 176.295 113.155C177.894 111.552 179.543 109.64 180.608 107.264C181.673 104.887 181.838 102.268 181.135 100.138C180.811 99.1236 180.246 98.2023 179.49 97.4522C178.816 96.8164 178.011 96.3364 177.131 96.046C175.862 95.5717 174.464 95.5717 173.194 96.046C172.74 96.2418 172.31 96.4908 171.915 96.7878Z" fill="#263238"/>
<path d="M142.835 154.591V143.402C142.835 139.436 145.49 136.747 148.812 136.705L182.939 136.28C183.482 136.273 184.021 136.374 184.524 136.578C185.028 136.781 185.486 137.082 185.873 137.463C186.259 137.845 186.566 138.299 186.776 138.8C186.985 139.301 187.093 139.839 187.094 140.382V154.387L142.835 154.591Z" fill="#7694FF"/>
<path d="M182.893 139.76H169.067V146.221H182.893V139.76Z" fill="#FAFAFA"/>
<path d="M164.733 154.32C164.684 154.32 164.642 150.362 164.642 145.479C164.642 140.596 164.684 136.638 164.733 136.638C164.782 136.638 164.824 140.596 164.824 145.479C164.824 150.362 164.782 154.32 164.733 154.32Z" fill="#263238"/>
<path d="M164.873 131.277C164.979 131.201 165.098 131.146 165.225 131.115C165.545 130.995 165.879 130.921 166.22 130.893C166.785 130.836 167.357 130.895 167.899 131.067C168.44 131.24 168.941 131.521 169.37 131.895C169.798 132.269 170.145 132.727 170.389 133.24C170.634 133.753 170.77 134.312 170.79 134.88C170.81 135.221 170.783 135.563 170.709 135.896C170.689 136.018 170.65 136.137 170.593 136.247C170.661 135.797 170.683 135.341 170.66 134.887C170.625 134.341 170.483 133.807 170.241 133.317C169.999 132.826 169.662 132.388 169.25 132.028C168.838 131.669 168.358 131.395 167.839 131.221C167.32 131.048 166.772 130.98 166.227 131.02C165.768 131.06 165.315 131.146 164.873 131.277Z" fill="#263238"/>
<path d="M147.936 136.785L164.733 91.585L176.875 97.3501L162.627 139.759L147.936 136.785Z" fill="#7694FF"/>
<path opacity="0.4" d="M155.897 151.948C158.827 149.649 159.338 145.411 157.039 142.481C154.741 139.551 150.502 139.04 147.573 141.339C144.643 143.638 144.132 147.876 146.431 150.805C148.729 153.735 152.968 154.246 155.897 151.948Z" fill="black"/>
<path d="M158.871 146.918C160.465 143.435 158.933 139.319 155.45 137.725C151.967 136.131 147.851 137.662 146.257 141.145C144.663 144.629 146.195 148.744 149.678 150.338C153.161 151.932 157.277 150.401 158.871 146.918Z" fill="#263238"/>
<path d="M155.068 144.805C155.504 143.416 154.731 141.936 153.342 141.5C151.952 141.064 150.473 141.837 150.037 143.227C149.601 144.616 150.374 146.096 151.763 146.531C153.153 146.967 154.632 146.195 155.068 144.805Z" fill="#455A64"/>
<path d="M155.122 138.237C155.145 138.143 155.173 138.05 155.206 137.96C155.276 137.763 155.368 137.496 155.484 137.165C155.737 136.462 156.092 135.478 156.539 134.265C157.445 131.804 158.686 128.437 160.054 124.714L162.557 118.013L162.606 118.119L157.653 116.361L156.268 115.852L155.916 115.714C155.874 115.702 155.833 115.683 155.797 115.658C155.841 115.664 155.885 115.675 155.927 115.69L156.278 115.806L157.685 116.266L162.659 117.954L162.733 117.978L162.704 118.056C162.001 120.01 161.133 122.313 160.244 124.763L156.669 134.297L155.568 137.176L155.259 137.956C155.225 138.055 155.179 138.15 155.122 138.237Z" fill="#263238"/>
<path d="M170.723 116.238C170.723 116.287 167.735 115.152 164.086 113.707C160.437 112.262 157.498 111.053 157.516 111.003C157.533 110.954 160.507 112.09 164.153 113.538C167.798 114.986 170.744 116.203 170.723 116.238Z" fill="#263238"/>
<path d="M156.029 150.706C156.029 150.706 156.197 150.548 156.51 150.27C156.949 149.878 157.366 149.461 157.758 149.022C159.034 147.56 160.087 145.917 160.883 144.146C161.674 142.37 162.345 140.543 162.891 138.676L163.407 136.986C163.467 136.803 163.513 136.652 163.555 136.525C163.597 136.398 163.611 136.367 163.618 136.37C163.618 136.427 163.608 136.482 163.59 136.536C163.559 136.662 163.52 136.817 163.478 137.003C163.372 137.407 163.218 137.994 163.014 138.715C162.502 140.598 161.845 142.439 161.049 144.22C160.248 146.009 159.17 147.659 157.853 149.11C157.451 149.546 157.018 149.951 156.556 150.323C156.433 150.427 156.305 150.524 156.173 150.615C156.081 150.681 156.032 150.713 156.029 150.706Z" fill="#263238"/>
<path d="M147.202 146.934C147.202 146.934 147.159 146.934 147.082 146.909C146.969 146.874 146.861 146.823 146.762 146.758C146.397 146.513 146.115 146.16 145.957 145.749C145.74 145.139 145.679 144.484 145.778 143.844C145.87 143.071 146.002 142.304 146.172 141.545C146.475 140.165 146.896 138.814 147.43 137.506C147.634 137.003 147.82 136.606 147.95 136.335C148.012 136.191 148.089 136.053 148.179 135.924C148.14 136.075 148.086 136.223 148.017 136.363C147.905 136.644 147.736 137.045 147.55 137.551C147.055 138.865 146.654 140.213 146.351 141.584C146.031 143.18 145.679 144.695 146.077 145.704C146.218 146.097 146.469 146.443 146.801 146.698C147.036 146.874 147.209 146.916 147.202 146.934Z" fill="#263238"/>
<path d="M144.6 169.77C147.974 169.77 150.71 167.035 150.71 163.66C150.71 160.286 147.974 157.551 144.6 157.551C141.226 157.551 138.49 160.286 138.49 163.66C138.49 167.035 141.226 169.77 144.6 169.77Z" fill="#455A64"/>
<path d="M144.6 165.756C145.758 165.756 146.696 164.818 146.696 163.661C146.696 162.503 145.758 161.565 144.6 161.565C143.443 161.565 142.505 162.503 142.505 163.661C142.505 164.818 143.443 165.756 144.6 165.756Z" fill="#263238"/>
<path d="M164.677 169.931C168.051 169.931 170.786 167.196 170.786 163.822C170.786 160.447 168.051 157.712 164.677 157.712C161.302 157.712 158.567 160.447 158.567 163.822C158.567 167.196 161.302 169.931 164.677 169.931Z" fill="#455A64"/>
<path d="M164.677 165.917C165.834 165.917 166.772 164.979 166.772 163.822C166.772 162.665 165.834 161.727 164.677 161.727C163.519 161.727 162.581 162.665 162.581 163.822C162.581 164.979 163.519 165.917 164.677 165.917Z" fill="#263238"/>
<path d="M184.907 169.931C188.282 169.931 191.017 167.196 191.017 163.822C191.017 160.447 188.282 157.712 184.907 157.712C181.533 157.712 178.798 160.447 178.798 163.822C178.798 167.196 181.533 169.931 184.907 169.931Z" fill="#455A64"/>
<path d="M184.908 165.917C186.065 165.917 187.003 164.979 187.003 163.822C187.003 162.665 186.065 161.727 184.908 161.727C183.75 161.727 182.812 162.665 182.812 163.822C182.812 164.979 183.75 165.917 184.908 165.917Z" fill="#263238"/>
<path d="M185.126 172.934H144.463C142.004 172.934 139.645 171.957 137.906 170.218C136.167 168.478 135.19 166.12 135.19 163.66C135.19 161.201 136.167 158.842 137.906 157.103C139.645 155.364 142.004 154.387 144.463 154.387H185.126C187.585 154.387 189.944 155.364 191.683 157.103C193.422 158.842 194.399 161.201 194.399 163.66C194.399 166.12 193.422 168.478 191.683 170.218C189.944 171.957 187.585 172.934 185.126 172.934ZM144.463 157.427C142.81 157.427 141.225 158.084 140.056 159.253C138.887 160.422 138.231 162.007 138.231 163.66C138.231 165.313 138.887 166.899 140.056 168.067C141.225 169.236 142.81 169.893 144.463 169.893H185.126C186.779 169.893 188.364 169.236 189.533 168.067C190.702 166.899 191.358 165.313 191.358 163.66C191.358 162.007 190.702 160.422 189.533 159.253C188.364 158.084 186.779 157.427 185.126 157.427H144.463Z" fill="#263238"/>
<path d="M164.677 157.42C164.602 156.43 164.602 155.436 164.677 154.446C164.747 155.436 164.747 156.43 164.677 157.42Z" fill="#455A64"/>
<path d="M172.298 157.42C172.223 156.43 172.223 155.436 172.298 154.446C172.373 155.436 172.373 156.43 172.298 157.42Z" fill="#455A64"/>
<path d="M179.919 157.42C179.844 156.43 179.844 155.436 179.919 154.446C179.994 155.436 179.994 156.43 179.919 157.42Z" fill="#455A64"/>
<path d="M187.002 157.712C187.091 157.222 187.217 156.741 187.378 156.27C187.505 155.79 187.667 155.32 187.864 154.864C187.772 155.352 187.645 155.833 187.484 156.302C187.356 156.783 187.195 157.254 187.002 157.712Z" fill="#455A64"/>
<path d="M191.017 161.53C191.864 161.013 192.749 160.561 193.664 160.177C193.25 160.449 192.816 160.691 192.367 160.901C191.934 161.145 191.483 161.355 191.017 161.53Z" fill="#455A64"/>
<path d="M164.3 170.026C164.375 171.016 164.375 172.01 164.3 173C164.225 172.01 164.225 171.016 164.3 170.026Z" fill="#455A64"/>
<path d="M171.922 169.932C171.996 170.922 171.996 171.916 171.922 172.906C171.851 171.916 171.851 170.922 171.922 169.932Z" fill="#455A64"/>
<path d="M179.543 169.932C179.618 170.922 179.618 171.916 179.543 172.906C179.473 171.916 179.473 170.922 179.543 169.932Z" fill="#455A64"/>
<path d="M186.626 169.735C186.822 170.192 186.984 170.662 187.112 171.141C187.271 171.613 187.398 172.094 187.491 172.583C187.294 172.127 187.132 171.657 187.006 171.177C186.845 170.706 186.718 170.224 186.626 169.735Z" fill="#455A64"/>
<path d="M190.852 166.227C191.316 166.405 191.767 166.615 192.202 166.856C192.651 167.066 193.084 167.308 193.499 167.58C192.583 167.198 191.698 166.745 190.852 166.227Z" fill="#455A64"/>
<path d="M157.396 170.026C157.471 171.016 157.471 172.01 157.396 173C157.326 172.01 157.326 171.016 157.396 170.026Z" fill="#455A64"/>
<path d="M149.775 170.026C149.85 171.016 149.85 172.01 149.775 173C149.704 172.01 149.704 171.016 149.775 170.026Z" fill="#455A64"/>
<path d="M142.695 169.735C142.604 170.223 142.477 170.703 142.315 171.173C142.187 171.652 142.025 172.122 141.83 172.579C142.047 171.61 142.336 170.658 142.695 169.731V169.735Z" fill="#455A64"/>
<path d="M138.677 165.917C138.262 166.189 137.829 166.431 137.38 166.641C136.945 166.882 136.494 167.092 136.03 167.27C136.445 166.996 136.879 166.752 137.33 166.543C137.763 166.302 138.213 166.093 138.677 165.917Z" fill="#455A64"/>
<path d="M157.772 157.512C157.702 156.522 157.702 155.528 157.772 154.538C157.847 155.528 157.847 156.522 157.772 157.512Z" fill="#455A64"/>
<path d="M150.151 157.512C150.076 156.522 150.076 155.528 150.151 154.538C150.226 155.528 150.226 156.522 150.151 157.512Z" fill="#455A64"/>
<path d="M143.071 157.712C142.874 157.256 142.712 156.786 142.586 156.306C142.425 155.837 142.298 155.356 142.206 154.868C142.403 155.324 142.565 155.794 142.691 156.274C142.853 156.744 142.98 157.224 143.071 157.712Z" fill="#455A64"/>
<path d="M138.846 161.218C138.381 161.043 137.93 160.834 137.496 160.592C137.045 160.381 136.611 160.138 136.195 159.864C136.661 160.04 137.112 160.252 137.545 160.497C137.996 160.705 138.431 160.945 138.846 161.218Z" fill="#455A64"/>
<path d="M127.266 110.631L150.067 101.456L151.368 106.363L129.586 115.841L127.266 110.631Z" fill="#E0E0E0"/>
<path d="M168.262 103.108L152.183 109.485L148.414 99.385L166.624 91.7637L168.262 103.108Z" fill="#7694FF"/>
<path d="M174.01 95.7824L184.06 91.5956L182.404 87.4404L172.649 91.3811L174.01 95.7824Z" fill="#E0E0E0"/>
<path opacity="0.4" d="M169.007 106.177C172.506 106.177 175.342 103.341 175.342 99.8425C175.342 96.3439 172.506 93.5078 169.007 93.5078C165.509 93.5078 162.673 96.3439 162.673 99.8425C162.673 103.341 165.509 106.177 169.007 106.177Z" fill="black"/>
<path d="M173.795 92.0069C174.672 92.9525 175.248 94.1366 175.451 95.4096C175.654 96.6825 175.475 97.9871 174.936 99.1583C174.398 100.33 173.524 101.315 172.426 101.99C171.328 102.664 170.054 102.998 168.766 102.949C167.478 102.9 166.233 102.47 165.19 101.713C164.146 100.957 163.35 99.9079 162.902 98.699C162.455 97.4902 162.376 96.1757 162.675 94.922C162.975 93.6682 163.64 92.5314 164.585 91.6554C165.853 90.4807 167.536 89.8578 169.263 89.9237C170.99 89.9896 172.621 90.739 173.795 92.0069Z" fill="#263238"/>
<path d="M170.828 94.7599C171.153 95.1197 171.363 95.5673 171.434 96.0464C171.505 96.5256 171.433 97.015 171.227 97.4534C171.021 97.8918 170.691 98.2597 170.277 98.5109C169.862 98.7621 169.383 98.8856 168.899 98.8657C168.415 98.8459 167.948 98.6837 167.556 98.3994C167.164 98.1151 166.864 97.7214 166.695 97.2676C166.525 96.8138 166.494 96.3201 166.604 95.8484C166.714 95.3766 166.96 94.9479 167.313 94.6158C167.552 94.3911 167.833 94.2163 168.14 94.1017C168.447 93.987 168.774 93.9349 169.101 93.9484C169.428 93.9618 169.75 94.0405 170.047 94.1798C170.343 94.3192 170.609 94.5164 170.828 94.7599Z" fill="#455A64"/>
<path d="M150.407 98.0391C150.504 98.1126 150.593 98.195 150.675 98.2851C150.857 98.4785 151.096 98.721 151.378 99.0163L153.793 101.586L153.698 101.565L155.916 100.683C157.793 99.9409 159.491 99.2765 160.725 98.8089L162.191 98.2605C162.368 98.1888 162.55 98.13 162.736 98.0848C162.571 98.1805 162.398 98.2617 162.219 98.3273L160.774 98.932C159.551 99.4311 157.86 100.113 155.986 100.851L153.761 101.727L153.705 101.748L153.666 101.706L151.3 99.0902C151.026 98.7808 150.805 98.5242 150.629 98.3238C150.544 98.2384 150.469 98.1427 150.407 98.0391Z" fill="#263238"/>
<path d="M110.487 114.898L126.588 108.064L131.172 117.559L114.484 124.755L110.487 114.898Z" fill="#7694FF"/>
<path opacity="0.4" d="M119.333 120.473C120.003 117.678 118.281 114.87 115.486 114.2C112.692 113.531 109.884 115.253 109.214 118.047C108.544 120.841 110.267 123.649 113.061 124.319C115.855 124.989 118.663 123.267 119.333 120.473Z" fill="black"/>
<path d="M117.536 121.753C118.47 118.823 116.852 115.69 113.922 114.756C110.992 113.822 107.86 115.44 106.926 118.37C105.992 121.301 107.61 124.433 110.54 125.367C113.47 126.301 116.602 124.683 117.536 121.753Z" fill="#263238"/>
<path d="M111.401 118.108C111.786 117.947 112.209 117.904 112.618 117.983C113.027 118.062 113.403 118.261 113.699 118.554C113.995 118.847 114.198 119.221 114.282 119.629C114.366 120.037 114.327 120.46 114.171 120.846C114.014 121.232 113.747 121.563 113.403 121.798C113.058 122.032 112.652 122.159 112.235 122.163C111.819 122.166 111.411 122.047 111.062 121.819C110.713 121.591 110.44 121.265 110.276 120.882C110.167 120.626 110.11 120.351 110.107 120.073C110.105 119.795 110.157 119.519 110.262 119.261C110.366 119.003 110.521 118.768 110.716 118.571C110.912 118.373 111.145 118.216 111.401 118.108Z" fill="#455A64"/>
<path d="M120.727 122.063C120.684 121.935 120.656 121.801 120.643 121.666L120.464 120.548C120.32 119.564 120.112 118.228 119.905 116.681V116.615L119.968 116.59L121.947 115.785C123.884 114.998 125.642 114.298 126.918 113.799L128.433 113.215C128.615 113.136 128.803 113.072 128.996 113.025C128.823 113.125 128.644 113.211 128.458 113.282L126.967 113.918C125.702 114.446 123.955 115.166 122.018 115.954L120.035 116.752L120.088 116.66C120.285 118.2 120.457 119.536 120.583 120.527C120.636 120.984 120.678 121.36 120.71 121.652C120.73 121.788 120.735 121.926 120.727 122.063Z" fill="#263238"/>
<path d="M102.018 123.39L101.905 122.731L97.9237 123.413L98.0363 124.071L102.018 123.39Z" fill="#263238"/>
<path d="M109.485 119.328L107.144 119.729L106.94 118.537L106.04 118.692L106.304 120.253L104.662 120.534L104.796 121.314L105.323 124.394L106.965 124.112L107.218 125.589L108.019 125.452L107.858 124.51L110.301 124.091L109.485 119.328Z" fill="#263238"/>
<path d="M104.794 121.321L101.058 121.96L101.48 124.424L105.215 123.784L104.794 121.321Z" fill="#455A64"/>
<path d="M16.6904 97.3945C16.6608 97.412 16.6288 97.425 16.5955 97.4332L16.3143 97.5281C16.0682 97.6125 15.7061 97.7461 15.2596 97.95C13.9856 98.5208 12.85 99.3602 11.9306 100.411C11.3028 101.133 10.8184 101.968 10.5034 102.871C10.1626 103.918 10.0901 105.034 10.2925 106.116C10.505 107.315 11.0676 108.425 11.9095 109.305C12.3613 109.751 12.8932 110.109 13.4774 110.359C14.0817 110.62 14.7259 110.777 15.3827 110.823C16.6912 110.865 17.9956 110.655 19.225 110.204C20.4237 109.8 21.5346 109.259 22.6103 108.798C23.6225 108.331 24.6742 107.955 25.753 107.673C26.6984 107.423 27.6835 107.36 28.6532 107.487C30.0761 107.636 31.3831 108.34 32.2915 109.445C32.4225 109.622 32.54 109.809 32.6431 110.004C32.7169 110.183 32.7907 110.328 32.8294 110.454C32.8681 110.581 32.8892 110.665 32.9067 110.739C32.9188 110.772 32.9259 110.806 32.9278 110.841L32.8892 110.746L32.7942 110.465C32.7485 110.345 32.6712 110.201 32.5939 110.029C32.492 109.839 32.3744 109.658 32.2423 109.487C31.328 108.423 30.0388 107.752 28.6426 107.614C27.6889 107.5 26.7223 107.57 25.7952 107.821C24.7273 108.107 23.6863 108.486 22.6841 108.953C21.6295 109.421 20.5046 109.965 19.2882 110.38C18.0377 110.839 16.7105 111.053 15.3792 111.01C14.7005 110.968 14.0338 110.813 13.4071 110.549C12.8 110.286 12.2497 109.907 11.7865 109.435C10.9206 108.53 10.3441 107.388 10.1307 106.155C9.92689 105.044 10.0079 103.9 10.3663 102.829C10.6896 101.907 11.1886 101.056 11.8357 100.323C12.7723 99.2606 13.9335 98.4201 15.235 97.8621C15.7042 97.6602 16.1915 97.5037 16.6904 97.3945Z" fill="#263238"/>
<path d="M61.7186 152.217V139.02C61.7187 137.242 61.0174 135.536 59.7669 134.271C58.5164 133.007 56.8176 132.287 55.0394 132.267L16.8451 131.789C16.237 131.782 15.6335 131.895 15.0695 132.123C14.5056 132.35 13.9924 132.688 13.5598 133.115C13.1272 133.542 12.7837 134.051 12.5493 134.613C12.3149 135.174 12.1942 135.776 12.1943 136.384V152.059L61.7186 152.217Z" fill="#7694FF"/>
<path d="M16.8768 142.919H32.3514V135.684H16.8768V142.919Z" fill="#FAFAFA"/>
<path d="M37.2062 151.984C37.1535 151.984 37.1148 147.552 37.1148 142.089C37.1148 136.626 37.1535 132.189 37.2062 132.189C37.2589 132.189 37.2976 136.619 37.2976 142.089C37.2976 147.559 37.2554 151.984 37.2062 151.984Z" fill="#263238"/>
<path d="M37.0442 126.19C36.5569 126.04 36.0548 125.942 35.5467 125.898C34.9346 125.853 34.3197 125.93 33.7375 126.124C33.1553 126.319 32.6173 126.626 32.1548 127.03C31.6922 127.433 31.3142 127.924 31.0426 128.475C30.771 129.025 30.6112 129.624 30.5725 130.236C30.5452 130.745 30.5747 131.256 30.6603 131.758C30.5972 131.634 30.5545 131.499 30.5338 131.361C30.4512 130.989 30.4216 130.606 30.4459 130.226C30.4751 129.593 30.6323 128.972 30.9079 128.401C31.1835 127.831 31.5718 127.322 32.0494 126.905C32.527 126.489 33.0841 126.173 33.687 125.978C34.2899 125.782 34.9261 125.711 35.5572 125.768C35.937 125.799 36.3107 125.882 36.6681 126.014C36.8013 126.054 36.928 126.113 37.0442 126.19Z" fill="#263238"/>
<path d="M56.0061 132.356L37.206 81.7627L23.6121 88.2134L39.5613 135.685L56.0061 132.356Z" fill="#7694FF"/>
<path opacity="0.4" d="M59.2977 143.668C59.4396 139.502 56.1774 136.01 52.0114 135.868C47.8455 135.726 44.3534 138.988 44.2115 143.154C44.0697 147.32 47.3319 150.812 51.4978 150.954C55.6637 151.096 59.1559 147.834 59.2977 143.668Z" fill="black"/>
<path d="M58.0446 143.311C59.6171 139.323 57.659 134.815 53.6711 133.243C49.6831 131.67 45.1755 133.628 43.603 137.616C42.0305 141.604 43.9886 146.112 47.9766 147.684C51.9645 149.257 56.4721 147.299 58.0446 143.311Z" fill="#263238"/>
<path d="M48.1246 141.66C48.3599 142.195 48.7484 142.647 49.2411 142.961C49.7338 143.275 50.3084 143.436 50.8924 143.423C51.4764 143.41 52.0434 143.224 52.5217 142.889C53.0001 142.554 53.3683 142.084 53.5798 141.54C53.7913 140.995 53.8366 140.4 53.7099 139.83C53.5832 139.26 53.2903 138.74 52.8681 138.336C52.446 137.933 51.9136 137.663 51.3383 137.562C50.763 137.461 50.1706 137.533 49.6362 137.768C48.9198 138.084 48.3582 138.672 48.0748 139.401C47.7913 140.131 47.8092 140.943 48.1246 141.66Z" fill="#455A64"/>
<path d="M47.9666 133.983C47.9513 133.96 47.9384 133.935 47.9279 133.909L47.8365 133.684L47.485 132.809C47.1897 132.032 46.7819 130.932 46.2546 129.582C45.2281 126.836 43.8185 123.072 42.2576 118.913L39.5051 111.404L39.477 111.327L39.5543 111.302L45.1016 109.418L46.6659 108.898L47.0807 108.768L47.2389 108.715C47.2389 108.715 47.1932 108.739 47.1018 108.778L46.6975 108.929L45.1473 109.492L39.6035 111.443L39.6492 111.341C40.4683 113.527 41.428 116.097 42.4615 118.843C44.0013 123.008 45.3933 126.78 46.4058 129.529C46.9014 130.89 47.2987 131.99 47.5834 132.777C47.7135 133.15 47.8189 133.445 47.8963 133.663L47.9701 133.895C47.9742 133.925 47.973 133.954 47.9666 133.983Z" fill="#263238"/>
<path d="M30.4987 109.357C30.4987 109.308 33.775 107.951 37.8563 106.341C41.9376 104.731 45.2632 103.452 45.2842 103.497C45.3053 103.543 42.0079 104.903 37.9231 106.513C33.8382 108.123 30.5197 109.417 30.4987 109.357Z" fill="#263238"/>
<path d="M46.9471 147.939C46.8899 147.913 46.8366 147.879 46.789 147.837C46.6905 147.763 46.5394 147.658 46.3601 147.507C45.846 147.088 45.362 146.633 44.9118 146.146C43.4398 144.522 42.2332 142.676 41.3366 140.676C40.4519 138.681 39.7221 136.621 39.1536 134.514C38.9251 133.709 38.7493 133.052 38.6333 132.602L38.5033 132.078C38.4858 132.017 38.4752 131.955 38.4716 131.892C38.5017 131.947 38.5241 132.006 38.5384 132.067C38.5841 132.204 38.6368 132.373 38.7036 132.581L39.2766 134.475C39.8866 136.565 40.6371 138.611 41.5229 140.599C42.4167 142.584 43.6015 144.424 45.0383 146.058C45.4793 146.554 45.9488 147.024 46.4444 147.465C46.6197 147.615 46.7874 147.773 46.9471 147.939Z" fill="#263238"/>
<path d="M56.8289 143.717C56.984 143.64 57.1342 143.553 57.2788 143.457C57.6536 143.172 57.937 142.783 58.0944 142.339C58.3093 141.674 58.3611 140.966 58.2456 140.276C58.1471 139.488 57.9889 138.624 57.7921 137.727C57.4531 136.192 57.0031 134.684 56.4457 133.214C56.2348 132.648 56.0485 132.198 55.9219 131.885C55.8465 131.726 55.7842 131.561 55.7356 131.393C55.8323 131.538 55.9158 131.692 55.9852 131.853C56.1328 132.159 56.3367 132.605 56.5687 133.164C57.1638 134.629 57.6342 136.141 57.9749 137.685C58.1717 138.592 58.3264 139.443 58.4178 140.258C58.5271 140.974 58.4583 141.706 58.2174 142.389C58.0422 142.848 57.7291 143.242 57.321 143.517C57.2103 143.587 57.0925 143.645 56.9695 143.689C56.9243 143.706 56.8769 143.715 56.8289 143.717Z" fill="#263238"/>
<path d="M59.7396 169.28C63.5177 169.28 66.5804 166.218 66.5804 162.44C66.5804 158.661 63.5177 155.599 59.7396 155.599C55.9614 155.599 52.8987 158.661 52.8987 162.44C52.8987 166.218 55.9614 169.28 59.7396 169.28Z" fill="#455A64"/>
<path d="M59.7395 164.784C61.0344 164.784 62.0842 163.734 62.0842 162.439C62.0842 161.144 61.0344 160.095 59.7395 160.095C58.4445 160.095 57.3947 161.144 57.3947 162.439C57.3947 163.734 58.4445 164.784 59.7395 164.784Z" fill="#263238"/>
<path d="M37.2693 169.46C41.0474 169.46 44.1102 166.397 44.1102 162.619C44.1102 158.841 41.0474 155.778 37.2693 155.778C33.4912 155.778 30.4284 158.841 30.4284 162.619C30.4284 166.397 33.4912 169.46 37.2693 169.46Z" fill="#455A64"/>
<path d="M37.2692 164.964C38.5642 164.964 39.614 163.914 39.614 162.619C39.614 161.324 38.5642 160.274 37.2692 160.274C35.9743 160.274 34.9245 161.324 34.9245 162.619C34.9245 163.914 35.9743 164.964 37.2692 164.964Z" fill="#263238"/>
<path d="M14.6234 169.46C18.4015 169.46 21.4642 166.397 21.4642 162.619C21.4642 158.841 18.4015 155.778 14.6234 155.778C10.8452 155.778 7.78247 158.841 7.78247 162.619C7.78247 166.397 10.8452 169.46 14.6234 169.46Z" fill="#455A64"/>
<path d="M14.6235 164.964C15.9185 164.964 16.9682 163.914 16.9682 162.619C16.9682 161.324 15.9185 160.274 14.6235 160.274C13.3285 160.274 12.2787 161.324 12.2787 162.619C12.2787 163.914 13.3285 164.964 14.6235 164.964Z" fill="#263238"/>
<path d="M4 162.439C4.00279 159.688 5.0969 157.049 7.04232 155.103C8.98774 153.157 11.6256 152.062 14.3773 152.059H59.8941C62.6473 152.059 65.2877 153.152 67.2345 155.099C69.1813 157.046 70.275 159.686 70.275 162.439C70.275 165.193 69.1813 167.833 67.2345 169.78C65.2877 171.727 62.6473 172.82 59.8941 172.82H14.3773C11.6259 172.816 8.98856 171.72 7.04334 169.774C5.09812 167.829 4.00372 165.191 4 162.439ZM14.3773 155.468C12.5267 155.468 10.7518 156.204 9.44315 157.512C8.13453 158.821 7.39935 160.596 7.39935 162.446C7.39935 164.297 8.13453 166.072 9.44315 167.381C10.7518 168.689 12.5267 169.424 14.3773 169.424H59.8941C61.7448 169.424 63.5197 168.689 64.8283 167.381C66.1369 166.072 66.8721 164.297 66.8721 162.446C66.8721 160.596 66.1369 158.821 64.8283 157.512C63.5197 156.204 61.7448 155.468 59.8941 155.468H14.3773Z" fill="#263238"/>
<path d="M37.2692 155.469C37.1942 154.36 37.1942 153.248 37.2692 152.14C37.3442 153.248 37.3442 154.36 37.2692 155.469Z" fill="#455A64"/>
<path d="M28.7373 155.469C28.6623 154.36 28.6623 153.248 28.7373 152.14C28.8123 153.248 28.8123 154.36 28.7373 155.469Z" fill="#455A64"/>
<path d="M20.2055 155.469C20.1305 154.36 20.1305 153.248 20.2055 152.14C20.2805 153.248 20.2805 154.36 20.2055 155.469Z" fill="#455A64"/>
<path d="M12.2788 155.778C12.0633 155.265 11.8813 154.739 11.7339 154.203C11.556 153.676 11.4116 153.138 11.3015 152.593C11.5159 153.106 11.6956 153.634 11.8394 154.171C12.023 154.696 12.1698 155.233 12.2788 155.778Z" fill="#455A64"/>
<path d="M7.78275 160.039C7.266 159.839 6.76334 159.604 6.27818 159.336C5.77416 159.1 5.28675 158.83 4.81931 158.527C5.33617 158.73 5.83985 158.965 6.32739 159.23C6.82928 159.469 7.31539 159.739 7.78275 160.039Z" fill="#455A64"/>
<path d="M37.6913 169.565C37.7616 170.674 37.7616 171.786 37.6913 172.894C37.6163 171.786 37.6163 170.674 37.6913 169.565Z" fill="#455A64"/>
<path d="M29.1595 169.46C29.2298 170.569 29.2298 171.68 29.1595 172.789C29.0845 171.681 29.0845 170.568 29.1595 169.46Z" fill="#455A64"/>
<path d="M20.6278 169.46C20.6981 170.569 20.6981 171.68 20.6278 172.789C20.5528 171.681 20.5528 170.568 20.6278 169.46Z" fill="#455A64"/>
<path d="M12.7004 169.238C12.5913 169.784 12.4469 170.322 12.268 170.848C12.1241 171.384 11.9456 171.91 11.7337 172.423C11.9838 171.341 12.3068 170.277 12.7004 169.238Z" fill="#455A64"/>
<path d="M7.96882 165.312C7.50232 165.613 7.01611 165.883 6.51346 166.12C6.0273 166.388 5.52344 166.623 5.00537 166.823C5.47273 166.523 5.95884 166.253 6.46073 166.015C6.94827 165.749 7.45195 165.514 7.96882 165.312Z" fill="#455A64"/>
<path d="M45.4143 169.565C45.4893 170.674 45.4893 171.786 45.4143 172.894C45.344 171.786 45.344 170.674 45.4143 169.565Z" fill="#455A64"/>
<path d="M53.9464 169.565C54.0214 170.674 54.0214 171.786 53.9464 172.894C53.8761 171.786 53.8761 170.674 53.9464 169.565Z" fill="#455A64"/>
<path d="M61.8733 169.238C62.2669 170.277 62.5899 171.341 62.84 172.423C62.4494 171.384 62.1265 170.32 61.8733 169.238Z" fill="#455A64"/>
<path d="M66.3694 164.96C67.3898 165.401 68.3808 165.907 69.3363 166.475C68.3142 166.038 67.3229 165.532 66.3694 164.96Z" fill="#455A64"/>
<path d="M44.9958 155.56C44.9208 154.451 44.9208 153.337 44.9958 152.228C45.0708 153.337 45.0708 154.451 44.9958 155.56Z" fill="#455A64"/>
<path d="M53.5278 155.56C53.4528 154.451 53.4528 153.337 53.5278 152.228C53.6028 153.337 53.6028 154.451 53.5278 155.56Z" fill="#455A64"/>
<path d="M61.4549 155.778C61.5645 155.234 61.7077 154.697 61.8838 154.171C62.0276 153.634 62.2073 153.106 62.4216 152.593C62.3162 153.138 62.1764 153.675 62.0033 154.203C61.8547 154.739 61.6715 155.265 61.4549 155.778Z" fill="#455A64"/>
<path d="M66.1831 159.705C67.1387 159.137 68.1297 158.63 69.1501 158.189C68.1945 158.757 67.2035 159.264 66.1831 159.705Z" fill="#455A64"/>
<path d="M45.4811 70.8366C45.4811 70.8366 45.5093 70.7909 45.5725 70.7065L45.8503 70.3339C46.0998 70.0105 46.4654 69.5324 46.926 68.9067C47.847 67.6552 49.1617 65.8342 50.6417 63.486C52.3817 60.7415 53.9639 57.9 55.3804 54.9753C56.1819 53.3266 56.9693 51.5689 57.7286 49.7234C58.488 47.8778 59.2719 45.9584 60.1894 44.039C61.0464 42.1552 62.0798 40.3566 63.2759 38.6676C64.393 37.101 65.7256 35.6998 67.2342 34.5054C68.6137 33.4243 70.1842 32.6122 71.8639 32.1114C73.333 31.6834 74.8763 31.572 76.3917 31.7845C77.6386 31.9567 78.8447 32.3508 79.9527 32.9481C80.7864 33.4007 81.5443 33.9807 82.199 34.6671C82.6041 35.1111 82.9578 35.5993 83.2536 36.1225L83.4646 36.5373C83.5103 36.6322 83.5278 36.6814 83.5278 36.6814L83.447 36.5443L83.2185 36.14C82.9182 35.635 82.5647 35.1635 82.1639 34.7339C81.5083 34.0614 80.7515 33.4957 79.9211 33.0571C78.8253 32.4764 77.635 32.0955 76.4057 31.9322C74.9095 31.7312 73.3876 31.851 71.9412 32.2837C70.2834 32.7882 68.7338 33.5964 67.3713 34.6671C65.8643 35.8374 64.5305 37.2151 63.4095 38.759C62.2241 40.4411 61.1978 42.2299 60.3441 44.1023C59.4441 46.0147 58.6708 47.9341 57.8833 49.7761C57.0959 51.6181 56.3295 53.3864 55.5245 55.0491C54.0994 57.9743 52.5067 60.8147 50.7542 63.5563C49.2601 65.8975 47.9419 67.7114 46.9857 68.9488C46.5182 69.5676 46.142 70.0421 45.8854 70.355L45.5901 70.7065C45.5057 70.7979 45.4811 70.8366 45.4811 70.8366Z" fill="#263238"/>
<path d="M69.9619 50.6582L47.3265 69.2228L51.7067 73.3885L74.0749 56.0613L69.9619 50.6582Z" fill="#E0E0E0"/>
<path d="M38.6401 89.1689L54.5014 76.025L46.1102 66.3086L27.7285 80.9641L38.6401 89.1689Z" fill="#7694FF"/>
<path d="M27.6972 90.9798L17.573 99.0792L14.1771 94.9732L23.876 87.0391L27.6972 90.9798Z" fill="#E0E0E0"/>
<path d="M94.8664 42.7407L89.4737 46.3945L93.8276 52.8203L99.2202 49.1665L94.8664 42.7407Z" fill="#E0E0E0"/>
<path d="M98.7214 48.4332L108.434 48.5703L113.823 56.5255L111.197 64.7972L108.86 64.2171L110.073 58.7437L106.079 53.9417L101.158 54.2124L97.8004 56.5396L95.6842 60.9478L99.4772 66.5478L104.005 67.504L103.956 69.6835L96.4927 69.0296L90.7486 60.5541L93.3289 52.0891L99.2452 48.0781" fill="#263238"/>
<path opacity="0.4" d="M35.2044 95.9204C38.949 94.0892 40.5 89.5691 38.6688 85.8245C36.8376 82.08 32.3176 80.5289 28.573 82.3601C24.8284 84.1913 23.2773 88.7114 25.1085 92.4559C26.9397 96.2005 31.4598 97.7516 35.2044 95.9204Z" fill="black"/>
<path d="M38.1848 89.5731C40.0915 85.7338 38.5248 81.0756 34.6854 79.1689C30.846 77.2622 26.1879 78.8289 24.2812 82.6683C22.3744 86.5077 23.9412 91.1658 27.7806 93.0725C31.6199 94.9793 36.2781 93.4125 38.1848 89.5731Z" fill="#263238"/>
<path d="M28.435 87.0627C28.6211 87.6162 28.9671 88.1021 29.4293 88.4591C29.8915 88.816 30.4492 89.0278 31.0318 89.0678C31.6144 89.1078 32.1957 88.9742 32.7024 88.6838C33.209 88.3934 33.6182 87.9594 33.8782 87.4365C34.1382 86.9136 34.2373 86.3253 34.1629 85.7461C34.0886 85.1669 33.8443 84.6227 33.4607 84.1824C33.0772 83.742 32.5717 83.4253 32.0081 83.2722C31.4446 83.1191 30.8483 83.1366 30.2947 83.3223C29.9266 83.4454 29.5865 83.6398 29.2937 83.8945C29.001 84.1492 28.7614 84.4591 28.5886 84.8066C28.4159 85.1541 28.3134 85.5322 28.287 85.9193C28.2607 86.3065 28.311 86.695 28.435 87.0627Z" fill="#455A64"/>
<path d="M43.755 68.1895C43.8137 68.3025 43.863 68.42 43.9027 68.541L44.2718 69.5569L45.5057 73.125L45.5268 73.1813L45.4811 73.2164L43.066 75.2307C41.2802 76.7107 39.6596 78.043 38.4961 79.0027L37.0899 80.1276L36.7032 80.4264C36.6606 80.4639 36.6133 80.4958 36.5626 80.5213C36.5626 80.5213 36.5978 80.4721 36.6821 80.3983L37.0337 80.0714L38.4012 78.9007C39.5577 77.92 41.1642 76.5701 42.9465 75.0901L45.3721 73.0863L45.344 73.1777C44.8729 71.7364 44.4687 70.499 44.1734 69.5886C44.0433 69.1667 43.9343 68.8222 43.85 68.5586C43.8062 68.439 43.7744 68.3153 43.755 68.1895Z" fill="#263238"/>
<path d="M84.0199 35.5742L67.67 48.4791L74.9608 58.7017L92.0279 45.3926L84.0199 35.5742Z" fill="#7694FF"/>
<path opacity="0.4" d="M92.5967 42.3551C92.7824 38.9373 90.1622 36.0161 86.7445 35.8304C83.3267 35.6447 80.4055 38.2649 80.2198 41.6826C80.0341 45.1004 82.6542 48.0216 86.072 48.2073C89.4898 48.393 92.411 45.7729 92.5967 42.3551Z" fill="black"/>
<path d="M84.2978 35.1454C83.27 35.9596 82.5067 37.0601 82.1044 38.308C81.7021 39.5559 81.6788 40.8951 82.0375 42.1562C82.3962 43.4174 83.1208 44.5438 84.1196 45.3932C85.1184 46.2425 86.3467 46.7767 87.6491 46.9281C88.9515 47.0794 90.2695 46.8412 91.4365 46.2436C92.6035 45.646 93.5671 44.7157 94.2055 43.5705C94.8439 42.4252 95.1284 41.1164 95.023 39.8095C94.9176 38.5026 94.4271 37.2563 93.6135 36.2282C92.5214 34.8497 90.9266 33.9613 89.1798 33.7582C87.4329 33.5552 85.6769 34.0542 84.2978 35.1454Z" fill="#263238"/>
<path d="M86.8498 38.3688C86.4589 38.6782 86.1685 39.0966 86.0154 39.571C85.8623 40.0455 85.8533 40.5547 85.9896 41.0343C86.1259 41.5138 86.4013 41.9422 86.7811 42.2652C87.1609 42.5882 87.6279 42.7913 88.1232 42.8488C88.6184 42.9064 89.1196 42.8158 89.5633 42.5884C90.007 42.3611 90.3733 42.0073 90.616 41.5718C90.8586 41.1363 90.9666 40.6386 90.9263 40.1416C90.8861 39.6447 90.6994 39.1709 90.3898 38.7801C90.1846 38.5203 89.9302 38.3036 89.6411 38.1423C89.352 37.981 89.034 37.8783 88.7051 37.8401C88.3763 37.8019 88.0432 37.8289 87.7248 37.9196C87.4064 38.0103 87.1091 38.163 86.8498 38.3688Z" fill="#455A64"/>
<path d="M85.644 50.3595C85.5005 50.2839 85.3641 50.1956 85.2362 50.0958L84.15 49.3259L80.3885 46.5945H80.4975L78.5289 48.2045C76.599 49.7794 74.8484 51.1961 73.5723 52.2156L72.0572 53.4143L71.6388 53.7307C71.5923 53.77 71.5416 53.8042 71.4877 53.8326C71.4877 53.8326 71.5263 53.7834 71.6177 53.7026L72.0115 53.351L73.4914 52.1066C74.7429 51.052 76.483 49.6458 78.4129 48.0569L80.385 46.4504L80.4413 46.4082L80.494 46.4469L84.2062 49.2345L85.2608 50.0536C85.3965 50.1451 85.5247 50.2474 85.644 50.3595Z" fill="#263238"/>
</g>
</svg>
