<svg width="197" height="183" viewBox="0 0 197 183" fill="none" xmlns="http://www.w3.org/2000/svg">
<mask id="mask0_889_11368" style="mask-type:alpha" maskUnits="userSpaceOnUse" x="0" y="0" width="197" height="183">
<rect width="197" height="183" fill="#C4C4C4"/>
</mask>
<g mask="url(#mask0_889_11368)">
<path d="M27.5051 52.3685C7.99301 95.8526 99.7966 79.2712 107.605 91.2501C119.456 109.408 85.3288 127.743 97.8349 147.217C115.409 174.613 144.269 148.618 154.566 138.496C164.968 128.275 186.366 101.7 172.748 78.5112C151.949 43.0922 128.043 67.8812 106.57 53.7839C96.4432 47.1342 107.163 31.669 91.5272 20.887C64.2493 2.07316 34.4777 36.832 27.5051 52.3685Z" fill="#7694FF"/>
<path opacity="0.9" d="M27.5051 52.3685C7.99301 95.8526 99.7966 79.2712 107.605 91.2501C119.456 109.408 85.3288 127.743 97.8349 147.217C115.409 174.613 144.269 148.618 154.566 138.496C164.968 128.275 186.366 101.7 172.748 78.5112C151.949 43.0922 128.043 67.8812 106.57 53.7839C96.4432 47.1342 107.163 31.669 91.5272 20.887C64.2493 2.07316 34.4777 36.832 27.5051 52.3685Z" fill="white" fill-opacity="0.79"/>
<path d="M99.7444 175.958C150.606 175.958 191.838 173.55 191.838 170.581C191.838 167.611 150.606 165.204 99.7444 165.204C48.8827 165.204 7.65112 167.611 7.65112 170.581C7.65112 173.55 48.8827 175.958 99.7444 175.958Z" fill="#F5F5F5"/>
<path d="M71.8826 160.235H25.2446V169.013H71.8826V160.235Z" fill="#7694FF"/>
<path opacity="0.2" d="M71.8826 160.235H25.2446V161.233H71.8826V160.235Z" fill="black"/>
<path opacity="0.2" d="M30.4978 160.235H28.6597V169.013H30.4978V160.235Z" fill="black"/>
<path opacity="0.2" d="M34.7156 160.235H32.8774V169.013H34.7156V160.235Z" fill="black"/>
<path opacity="0.2" d="M38.9382 160.235H37.1V169.013H38.9382V160.235Z" fill="black"/>
<path opacity="0.2" d="M43.1559 160.235H41.3177V169.013H43.1559V160.235Z" fill="black"/>
<path opacity="0.2" d="M47.3737 160.235H45.5355V169.013H47.3737V160.235Z" fill="black"/>
<path opacity="0.2" d="M51.5962 160.235H49.7581V169.013H51.5962V160.235Z" fill="black"/>
<path opacity="0.2" d="M55.814 160.235H53.9758V169.013H55.814V160.235Z" fill="black"/>
<path opacity="0.2" d="M60.0317 160.235H58.1936V169.013H60.0317V160.235Z" fill="black"/>
<path opacity="0.2" d="M64.2543 160.235H62.4161V169.013H64.2543V160.235Z" fill="black"/>
<path opacity="0.2" d="M68.4723 160.235H66.6341V169.013H68.4723V160.235Z" fill="black"/>
<path d="M69.9873 151.458H23.3493V160.236H69.9873V151.458Z" fill="#7694FF"/>
<path opacity="0.2" d="M69.9873 151.458H23.3493V152.455H69.9873V151.458Z" fill="black"/>
<path opacity="0.2" d="M28.5978 151.458H26.7596V160.236H28.5978V151.458Z" fill="black"/>
<path opacity="0.2" d="M32.8203 151.458H30.9822V160.236H32.8203V151.458Z" fill="black"/>
<path opacity="0.2" d="M37.0381 151.458H35.1999V160.236H37.0381V151.458Z" fill="black"/>
<path opacity="0.2" d="M41.2559 151.458H39.4177V160.236H41.2559V151.458Z" fill="black"/>
<path opacity="0.2" d="M45.4784 151.458H43.6402V160.236H45.4784V151.458Z" fill="black"/>
<path opacity="0.2" d="M49.6962 151.458H47.858V160.236H49.6962V151.458Z" fill="black"/>
<path opacity="0.2" d="M53.9141 151.458H52.076V160.236H53.9141V151.458Z" fill="black"/>
<path opacity="0.2" d="M58.1365 151.458H56.2983V160.236H58.1365V151.458Z" fill="black"/>
<path opacity="0.2" d="M62.3544 151.458H60.5163V160.236H62.3544V151.458Z" fill="black"/>
<path opacity="0.2" d="M66.5722 151.458H64.734V160.236H66.5722V151.458Z" fill="black"/>
<path d="M68.6431 142.681H22.0051V151.458H68.6431V142.681Z" fill="#7694FF"/>
<path opacity="0.2" d="M68.6431 142.681H22.0051V143.678H68.6431V142.681Z" fill="black"/>
<path opacity="0.2" d="M27.2582 142.681H25.42V151.458H27.2582V142.681Z" fill="black"/>
<path opacity="0.2" d="M31.4762 142.681H29.638V151.458H31.4762V142.681Z" fill="black"/>
<path opacity="0.2" d="M35.6987 142.681H33.8606V151.458H35.6987V142.681Z" fill="black"/>
<path opacity="0.2" d="M39.9165 142.681H38.0783V151.458H39.9165V142.681Z" fill="black"/>
<path opacity="0.2" d="M44.1342 142.681H42.2961V151.458H44.1342V142.681Z" fill="black"/>
<path opacity="0.2" d="M48.3568 142.681H46.5186V151.458H48.3568V142.681Z" fill="black"/>
<path opacity="0.2" d="M52.5745 142.681H50.7364V151.458H52.5745V142.681Z" fill="black"/>
<path opacity="0.2" d="M56.7923 142.681H54.9542V151.458H56.7923V142.681Z" fill="black"/>
<path opacity="0.2" d="M61.0149 142.681H59.1767V151.458H61.0149V142.681Z" fill="black"/>
<path opacity="0.2" d="M65.2328 142.681H63.3947V151.458H65.2328V142.681Z" fill="black"/>
<path d="M70.7568 133.907H24.1188V142.685H70.7568V133.907Z" fill="#7694FF"/>
<path opacity="0.2" d="M70.7568 133.907H24.1188V134.905H70.7568V133.907Z" fill="black"/>
<path opacity="0.2" d="M29.3673 133.907H27.5291V142.685H29.3673V133.907Z" fill="black"/>
<path opacity="0.2" d="M33.5899 133.907H31.7517V142.685H33.5899V133.907Z" fill="black"/>
<path opacity="0.2" d="M37.8076 133.907H35.9695V142.685H37.8076V133.907Z" fill="black"/>
<path opacity="0.2" d="M42.0254 133.907H40.1872V142.685H42.0254V133.907Z" fill="black"/>
<path opacity="0.2" d="M46.2479 133.907H44.4098V142.685H46.2479V133.907Z" fill="black"/>
<path opacity="0.2" d="M50.4657 133.907H48.6275V142.685H50.4657V133.907Z" fill="black"/>
<path opacity="0.2" d="M54.6834 133.907H52.8453V142.685H54.6834V133.907Z" fill="black"/>
<path opacity="0.2" d="M58.906 133.907H57.0678V142.685H58.906V133.907Z" fill="black"/>
<path opacity="0.2" d="M63.1237 133.907H61.2856V142.685H63.1237V133.907Z" fill="black"/>
<path opacity="0.2" d="M67.3417 133.907H65.5035V142.685H67.3417V133.907Z" fill="black"/>
<path d="M22.0714 133.902H68.7094V125.125H22.0714V133.902Z" fill="#7694FF"/>
<path opacity="0.2" d="M22.0714 126.123H68.7094V125.126H22.0714V126.123Z" fill="black"/>
<path opacity="0.2" d="M63.4564 133.902H65.2945V125.125H63.4564V133.902Z" fill="black"/>
<path opacity="0.2" d="M59.2338 133.902H61.072V125.125H59.2338V133.902Z" fill="black"/>
<path opacity="0.2" d="M55.0161 133.902H56.8542V125.125H55.0161V133.902Z" fill="black"/>
<path opacity="0.2" d="M50.7981 133.902H52.6362V125.125H50.7981V133.902Z" fill="black"/>
<path opacity="0.2" d="M46.5755 133.902H48.4137V125.125H46.5755V133.902Z" fill="black"/>
<path opacity="0.2" d="M42.3578 133.902H44.1959V125.125H42.3578V133.902Z" fill="black"/>
<path opacity="0.2" d="M38.1402 133.902H39.9784V125.125H38.1402V133.902Z" fill="black"/>
<path opacity="0.2" d="M33.9177 133.902H35.7558V125.125H33.9177V133.902Z" fill="black"/>
<path opacity="0.2" d="M29.6997 133.902H31.5379V125.125H29.6997V133.902Z" fill="black"/>
<path opacity="0.2" d="M25.482 133.902H27.3201V125.125H25.482V133.902Z" fill="black"/>
<path d="M23.9667 125.13H70.6047V116.352H23.9667V125.13Z" fill="#7694FF"/>
<path opacity="0.2" d="M23.9667 117.35H70.6047V116.352H23.9667V117.35Z" fill="black"/>
<path opacity="0.2" d="M65.3516 125.13H67.1898V116.352H65.3516V125.13Z" fill="black"/>
<path opacity="0.2" d="M61.1384 125.13H62.9766V116.352H61.1384V125.13Z" fill="black"/>
<path opacity="0.2" d="M56.9159 125.13H58.7541V116.352H56.9159V125.13Z" fill="black"/>
<path opacity="0.2" d="M52.6933 125.13H54.5315V116.352H52.6933V125.13Z" fill="black"/>
<path opacity="0.2" d="M48.4804 125.13H50.3185V116.352H48.4804V125.13Z" fill="black"/>
<path opacity="0.2" d="M44.2578 125.13H46.096V116.352H44.2578V125.13Z" fill="black"/>
<path opacity="0.2" d="M40.0353 125.13H41.8734V116.352H40.0353V125.13Z" fill="black"/>
<path opacity="0.2" d="M35.8223 125.13H37.6605V116.352H35.8223V125.13Z" fill="black"/>
<path opacity="0.2" d="M31.5998 125.13H33.4379V116.352H31.5998V125.13Z" fill="black"/>
<path opacity="0.2" d="M27.3772 125.13H29.2154V116.352H27.3772V125.13Z" fill="black"/>
<path d="M25.3108 116.353H71.9489V107.575H25.3108V116.353Z" fill="#7694FF"/>
<path opacity="0.2" d="M25.3108 108.572H71.9489V107.575H25.3108V108.572Z" fill="black"/>
<path opacity="0.2" d="M66.6958 116.353H68.5339V107.575H66.6958V116.353Z" fill="black"/>
<path opacity="0.2" d="M62.4732 116.353H64.3114V107.575H62.4732V116.353Z" fill="black"/>
<path opacity="0.2" d="M58.2555 116.353H60.0936V107.575H58.2555V116.353Z" fill="black"/>
<path opacity="0.2" d="M54.0375 116.353H55.8756V107.575H54.0375V116.353Z" fill="black"/>
<path opacity="0.2" d="M49.8149 116.353H51.6531V107.575H49.8149V116.353Z" fill="black"/>
<path opacity="0.2" d="M45.5972 116.353H47.4354V107.575H45.5972V116.353Z" fill="black"/>
<path opacity="0.2" d="M41.3794 116.353H43.2176V107.575H41.3794V116.353Z" fill="black"/>
<path opacity="0.2" d="M37.1569 116.353H38.995V107.575H37.1569V116.353Z" fill="black"/>
<path opacity="0.2" d="M32.9391 116.353H34.7773V107.575H32.9391V116.353Z" fill="black"/>
<path opacity="0.2" d="M28.7214 116.353H30.5595V107.575H28.7214V116.353Z" fill="black"/>
<path d="M23.1974 107.574H69.8354V98.7966H23.1974V107.574Z" fill="#7694FF"/>
<path opacity="0.2" d="M23.1974 99.7949H69.8354V98.7975H23.1974V99.7949Z" fill="black"/>
<path opacity="0.2" d="M64.5821 107.574H66.4203V98.7966H64.5821V107.574Z" fill="black"/>
<path opacity="0.2" d="M60.3689 107.574H62.2071V98.7966H60.3689V107.574Z" fill="black"/>
<path opacity="0.2" d="M56.1464 107.574H57.9845V98.7966H56.1464V107.574Z" fill="black"/>
<path opacity="0.2" d="M51.924 107.574H53.7622V98.7966H51.924V107.574Z" fill="black"/>
<path opacity="0.2" d="M47.7109 107.574H49.549V98.7966H47.7109V107.574Z" fill="black"/>
<path opacity="0.2" d="M43.4883 107.574H45.3265V98.7966H43.4883V107.574Z" fill="black"/>
<path opacity="0.2" d="M39.2657 107.574H41.1039V98.7966H39.2657V107.574Z" fill="black"/>
<path opacity="0.2" d="M35.0528 107.574H36.891V98.7966H35.0528V107.574Z" fill="black"/>
<path opacity="0.2" d="M30.8303 107.574H32.6684V98.7966H30.8303V107.574Z" fill="black"/>
<path opacity="0.2" d="M26.6077 107.574H28.4459V98.7966H26.6077V107.574Z" fill="black"/>
<path d="M171.305 64.0717L152.704 67.2588C152.347 67.319 152.015 67.4843 151.751 67.7337C151.488 67.983 151.304 68.3052 151.224 68.6592C151.144 69.0131 151.171 69.3828 151.302 69.7213C151.433 70.0598 151.661 70.3517 151.959 70.5599L155.388 72.987L134.361 102.711C134.224 102.904 134.051 103.069 133.85 103.195C133.65 103.321 133.427 103.406 133.193 103.446C132.96 103.486 132.721 103.479 132.49 103.426C132.259 103.374 132.041 103.276 131.848 103.139L100.941 81.2896C100.55 81.014 100.065 80.9048 99.5935 80.9858C99.1217 81.0668 98.7012 81.3315 98.424 81.7218L36.1213 169.783H58.5117L102.794 107.185C102.931 106.992 103.104 106.828 103.304 106.702C103.505 106.575 103.728 106.49 103.961 106.45C104.195 106.411 104.434 106.417 104.665 106.47C104.895 106.523 105.114 106.621 105.306 106.758L136.213 128.607C136.407 128.744 136.626 128.841 136.857 128.894C137.088 128.946 137.328 128.953 137.562 128.913C137.795 128.872 138.019 128.787 138.22 128.66C138.42 128.533 138.594 128.368 138.731 128.175L170.312 83.5268L173.746 85.9539C174.042 86.1579 174.391 86.2703 174.751 86.2773C175.11 86.2843 175.464 86.1855 175.767 85.9931C176.071 85.8008 176.311 85.5235 176.459 85.1956C176.606 84.8677 176.654 84.5037 176.596 84.149L173.404 65.5489C173.318 65.0763 173.05 64.6564 172.657 64.38C172.264 64.1036 171.778 63.9928 171.305 64.0717Z" fill="#7694FF"/>
<path opacity="0.2" d="M171.305 64.0717L152.704 67.2588C152.347 67.319 152.015 67.4843 151.751 67.7337C151.488 67.983 151.304 68.3052 151.224 68.6592C151.144 69.0131 151.171 69.3828 151.302 69.7213C151.433 70.0598 151.661 70.3517 151.959 70.5599L155.388 72.987L134.361 102.711C134.224 102.904 134.051 103.069 133.85 103.195C133.65 103.321 133.427 103.406 133.193 103.446C132.96 103.486 132.721 103.479 132.49 103.426C132.259 103.374 132.041 103.276 131.848 103.139L100.941 81.2896C100.55 81.014 100.065 80.9048 99.5935 80.9858C99.1217 81.0668 98.7012 81.3315 98.424 81.7218L36.1213 169.783H58.5117L102.794 107.185C102.931 106.992 103.104 106.828 103.304 106.702C103.505 106.575 103.728 106.49 103.961 106.45C104.195 106.411 104.434 106.417 104.665 106.47C104.895 106.523 105.114 106.621 105.306 106.758L136.213 128.607C136.407 128.744 136.626 128.841 136.857 128.894C137.088 128.946 137.328 128.953 137.562 128.913C137.795 128.872 138.019 128.787 138.22 128.66C138.42 128.533 138.594 128.368 138.731 128.175L170.312 83.5268L173.746 85.9539C174.042 86.1579 174.391 86.2703 174.751 86.2773C175.11 86.2843 175.464 86.1855 175.767 85.9931C176.071 85.8008 176.311 85.5235 176.459 85.1956C176.606 84.8677 176.654 84.5037 176.596 84.149L173.404 65.5489C173.318 65.0763 173.05 64.6564 172.657 64.38C172.264 64.1036 171.778 63.9928 171.305 64.0717Z" fill="black"/>
<path opacity="0.2" d="M57.1105 167.194H41.3508C41.3291 167.193 41.3079 167.186 41.2896 167.174C41.2713 167.163 41.2563 167.146 41.2463 167.127C41.235 167.108 41.229 167.087 41.229 167.065C41.229 167.044 41.235 167.022 41.2463 167.004L98.9655 85.4025C99.1102 85.1948 99.2945 85.0176 99.5079 84.8813C99.7212 84.7449 99.9594 84.652 100.209 84.6078C100.458 84.5637 100.714 84.5692 100.961 84.6241C101.208 84.679 101.442 84.7821 101.649 84.9276L132.551 106.777C132.733 106.908 132.939 107.002 133.157 107.053C133.376 107.104 133.602 107.111 133.823 107.074C134.045 107.036 134.256 106.955 134.445 106.834C134.635 106.714 134.798 106.557 134.926 106.373L159.012 72.3264L155.212 69.6238C155.192 69.6112 155.176 69.5924 155.168 69.5701C155.159 69.5477 155.158 69.5232 155.165 69.5003C155.17 69.4776 155.182 69.4569 155.199 69.4409C155.216 69.4248 155.237 69.4141 155.26 69.4101L170.934 66.7264C170.949 66.7237 170.964 66.724 170.979 66.7274C170.994 66.7307 171.008 66.737 171.021 66.7458C171.033 66.7547 171.043 66.7659 171.051 66.7789C171.059 66.7919 171.065 66.8064 171.067 66.8214L173.751 82.4957C173.754 82.5191 173.751 82.543 173.742 82.5648C173.733 82.5866 173.718 82.6054 173.698 82.6192C173.679 82.6319 173.655 82.6386 173.632 82.6386C173.608 82.6386 173.585 82.6319 173.565 82.6192L169.766 79.9165L138.251 124.469C138.106 124.677 137.922 124.853 137.709 124.989C137.496 125.125 137.259 125.218 137.01 125.262C136.761 125.306 136.506 125.301 136.259 125.246C136.013 125.192 135.779 125.089 135.572 124.944L104.665 103.095C104.484 102.967 104.28 102.876 104.064 102.827C103.848 102.778 103.624 102.773 103.406 102.81C103.188 102.848 102.979 102.928 102.791 103.046C102.604 103.164 102.442 103.318 102.314 103.499L57.2103 167.141C57.199 167.157 57.184 167.17 57.1667 167.179C57.1494 167.189 57.1301 167.193 57.1105 167.194ZM41.5788 166.956H57.0488L102.048 103.342C102.341 102.924 102.788 102.639 103.292 102.55C103.795 102.461 104.313 102.575 104.732 102.867L135.638 124.716C135.819 124.844 136.024 124.935 136.24 124.984C136.456 125.033 136.679 125.039 136.898 125.002C137.116 124.964 137.325 124.884 137.512 124.766C137.7 124.648 137.862 124.494 137.99 124.313L169.571 79.6648C169.579 79.6515 169.59 79.6403 169.603 79.632C169.616 79.6238 169.631 79.6187 169.647 79.6173C169.661 79.6106 169.676 79.6071 169.692 79.6071C169.708 79.6071 169.723 79.6106 169.737 79.6173L173.418 82.2202L170.801 67.0162L155.55 69.6285L159.231 72.2314C159.255 72.2502 159.272 72.2772 159.278 72.3074C159.29 72.3363 159.29 72.3687 159.278 72.3977L135.125 106.544C134.981 106.751 134.796 106.926 134.582 107.061C134.369 107.195 134.13 107.286 133.881 107.327C133.382 107.41 132.871 107.294 132.456 107.004L101.554 85.1555C101.372 85.0239 101.166 84.9298 100.948 84.8787C100.729 84.8277 100.503 84.8208 100.282 84.8584C100.061 84.896 99.8492 84.9774 99.6599 85.0977C99.4706 85.2181 99.3072 85.375 99.1792 85.5593L41.5788 166.956Z" fill="white"/>
<path d="M146.316 139.969H144.364V169.014H146.316V139.969Z" fill="#263238"/>
<path d="M163.396 124.143H161.444V169.014H163.396V124.143Z" fill="#263238"/>
<path d="M180.79 134.906H178.838V169.014H180.79V134.906Z" fill="#263238"/>
<path d="M144.368 139.969H130.68V169.014H144.368V139.969Z" fill="#7694FF"/>
<path opacity="0.2" d="M130.68 139.969V157.191L137.519 139.969H130.68Z" fill="white"/>
<path d="M161.444 124.143H147.755V169.014H161.444V124.143Z" fill="#7694FF"/>
<path d="M178.842 134.906H165.154V169.014H178.842V134.906Z" fill="#7694FF"/>
<path opacity="0.2" d="M165.154 134.906V150.234L171.998 134.906H165.154Z" fill="white"/>
<path d="M98.8326 166.639L95.161 165.95L95.7832 157.263L99.4548 157.956L98.8326 166.639Z" fill="#7F3E3B"/>
<path d="M123.541 166.539H119.803L118.877 157.89H122.61L123.541 166.539Z" fill="#7F3E3B"/>
<path d="M119.499 166.106H124.049C124.123 166.107 124.195 166.132 124.253 166.179C124.311 166.226 124.351 166.29 124.367 166.363L125.108 169.688C125.125 169.769 125.124 169.852 125.104 169.933C125.085 170.013 125.047 170.088 124.995 170.152C124.942 170.215 124.876 170.267 124.801 170.301C124.726 170.336 124.645 170.354 124.562 170.353C123.094 170.329 122.026 170.239 120.183 170.239C119.047 170.239 115.623 170.357 114.055 170.357C112.488 170.357 112.284 168.809 112.925 168.667C115.803 168.04 117.969 167.17 118.891 166.344C119.057 166.192 119.273 166.107 119.499 166.106Z" fill="#263238"/>
<path d="M95.2371 165.142L99.2601 165.835C99.3329 165.848 99.3993 165.885 99.4484 165.94C99.4976 165.996 99.5266 166.066 99.5309 166.139L99.6924 169.536C99.6965 169.618 99.6821 169.7 99.6502 169.775C99.6182 169.851 99.5697 169.918 99.508 169.973C99.4464 170.027 99.3733 170.067 99.2942 170.089C99.2151 170.111 99.132 170.115 99.0512 170.101C97.6262 169.825 95.5221 169.379 93.7029 169.065C91.5703 168.7 90.5301 168.434 88.0317 168.001C86.5213 167.74 86.849 166.101 87.5092 166.059C90.4968 165.926 91.5513 166.382 94.3014 165.275C94.5948 165.144 94.9189 165.098 95.2371 165.142Z" fill="#263238"/>
<path d="M108.028 52.2405C107.9 52.6205 107.8 52.896 107.681 53.1905C107.563 53.4849 107.444 53.7984 107.32 54.0977C107.073 54.7009 106.812 55.2899 106.537 55.8788C105.986 57.0608 105.37 58.2105 104.689 59.3224C103.297 61.701 101.483 63.8062 99.336 65.5351C98.7384 65.9908 98.1027 66.3945 97.4361 66.7416C97.2651 66.8365 97.0894 66.9173 96.9089 66.998C96.7284 67.0788 96.5669 67.1548 96.3532 67.2355C95.9321 67.3905 95.4982 67.5081 95.0565 67.587C94.3392 67.708 93.6132 67.77 92.8858 67.7723C92.2019 67.7723 91.5464 67.7723 90.9004 67.7105C88.3808 67.5095 85.8875 67.0577 83.4576 66.3616L83.8328 63.583C86.2077 63.4927 88.6158 63.4167 90.8767 63.2172C91.4419 63.165 91.9976 63.0985 92.5249 63.0177C93.0076 62.9522 93.4841 62.8474 93.9498 62.7042C94.1018 62.6608 94.2484 62.6003 94.3868 62.5238C94.5435 62.4288 94.7572 62.3385 94.933 62.215C95.3201 61.9709 95.687 61.6961 96.0302 61.3933C96.7879 60.7213 97.471 59.9697 98.0678 59.1514C98.7182 58.2836 99.3116 57.3745 99.8443 56.4298C100.4 55.4799 100.899 54.4681 101.388 53.4517C101.625 52.9435 101.863 52.4257 102.072 51.908L102.39 51.1338L102.68 50.4023L108.028 52.2405Z" fill="#FFBDA7"/>
<path d="M106.228 47.861C113.044 47.861 105.553 62.5853 105.553 62.5853L96.8566 59.0658C96.8566 59.0658 99.2315 53.9455 100.794 51.0149C101.3 50.022 102.082 49.1963 103.046 48.6369C104.01 48.0774 105.115 47.808 106.228 47.861Z" fill="#7694FF"/>
<g opacity="0.3">
<path opacity="0.3" d="M106.228 47.861C113.044 47.861 105.553 62.5853 105.553 62.5853L96.8566 59.0658C96.8566 59.0658 99.2315 53.9455 100.794 51.0149C101.3 50.022 102.082 49.1963 103.046 48.6369C104.01 48.0774 105.115 47.808 106.228 47.861Z" fill="white"/>
</g>
<path opacity="0.2" d="M104.561 52.6201C102.067 54.3728 100.334 57.6264 99.8395 60.2673L104.808 62.2811C105.71 60.9322 106.589 59.341 107.558 57.9446C107.824 57.2179 108.085 56.4532 108.313 55.679L104.561 52.6201Z" fill="black"/>
<path d="M85.9703 63.9391L82.9827 62.2529L80.6933 66.5277C82.0156 66.7515 83.3688 66.7176 84.6783 66.428L85.9703 63.9391Z" fill="#FFBDA7"/>
<path d="M80.1231 62.2529L78.4607 66.0242L80.6741 66.542L82.9635 62.2529H80.1231Z" fill="#FFBDA7"/>
<path opacity="0.2" d="M95.7832 157.267L95.465 161.741L99.1366 162.43L99.4548 157.955L95.7832 157.267Z" fill="black"/>
<path opacity="0.2" d="M122.61 157.895H118.872L119.356 162.355H123.09L122.61 157.895Z" fill="black"/>
<path d="M124.814 49.4902C123.719 53.5215 122.925 57.6287 122.439 61.7778C122.083 64.6704 121.874 67.43 121.741 69.9379C121.427 75.8086 121.56 80.2829 121.384 81.8123C118.463 81.6129 107.458 80.8624 101.435 80.4254C98.7233 59.1797 103.905 48.2362 103.905 48.2362C105.475 47.9412 107.061 47.7429 108.655 47.6425C108.992 47.6425 109.339 47.6092 109.686 47.6045C112.519 47.6377 115.349 47.8343 118.159 48.1935C118.691 48.2552 119.233 48.336 119.755 48.4215C122.467 48.8394 124.814 49.4902 124.814 49.4902Z" fill="#7694FF"/>
<g opacity="0.3">
<path opacity="0.3" d="M124.814 49.4902C123.719 53.5215 122.925 57.6287 122.439 61.7778C122.083 64.6704 121.874 67.43 121.741 69.9379C121.427 75.8086 121.56 80.2829 121.384 81.8123C118.463 81.6129 107.458 80.8624 101.435 80.4254C98.7233 59.1797 103.905 48.2362 103.905 48.2362C105.475 47.9412 107.061 47.7429 108.655 47.6425C108.992 47.6425 109.339 47.6092 109.686 47.6045C112.519 47.6377 115.349 47.8343 118.159 48.1935C118.691 48.2552 119.233 48.336 119.755 48.4215C122.467 48.8394 124.814 49.4902 124.814 49.4902Z" fill="white"/>
</g>
<path opacity="0.2" d="M119.784 54.8672C119.746 57.9244 120.603 60.9259 122.249 63.5023C122.306 62.9323 122.372 62.3576 122.444 61.7781C122.71 59.6027 123.052 57.3513 123.503 55.0762L119.784 54.8672Z" fill="black"/>
<path d="M118.026 38.5801C117.304 41.2732 116.421 46.2272 118.202 48.1794C117.301 48.9965 116.235 49.6106 115.077 49.9802C113.918 50.3498 112.693 50.4662 111.486 50.3215C109.144 50.1078 109.144 48.4596 109.728 47.5904C112.821 47.0774 112.897 44.8165 112.517 42.6601L118.026 38.5801Z" fill="#FFBDA7"/>
<path d="M109.771 51.2089C109.826 51.6281 109.925 52.0404 110.066 52.4391C110.106 52.566 110.186 52.6769 110.293 52.7554C110.401 52.834 110.531 52.8763 110.664 52.876C111.054 52.8703 111.444 52.9038 111.828 52.9758C111.909 52.9947 111.992 52.9969 112.074 52.9822C112.156 52.9675 112.234 52.9362 112.303 52.8903C112.778 52.5911 113.386 52.1493 113.229 51.5984C113.044 50.9524 111.932 50.3682 111.932 50.3682C111.932 50.3682 110.023 50.8384 109.771 51.2089Z" fill="#263238"/>
<path d="M110.774 52.4395C110.009 54.1114 108.242 64.8174 108.023 66.437C107.805 68.0567 108.551 70.6691 109.586 72.7447C110.776 71.1125 111.454 69.1632 111.533 67.1447C111.671 64.9314 111.804 52.7054 111.804 52.7054L110.774 52.4395Z" fill="#263238"/>
<path d="M111.918 50.3689C112.625 50.9587 113.209 51.6817 113.638 52.4968C114.839 52.4018 120.145 50.0745 119.39 48.279C118.729 48.0938 118.15 47.7138 117.965 47.9086C117.713 48.2933 115.461 49.6517 111.918 50.3689Z" fill="white"/>
<path d="M111.918 50.3687C111.918 50.3687 109.88 51.0575 109.406 52.2164C108.175 51.6702 107.506 49.2051 108.593 47.5854C109.273 47.5284 109.923 47.1911 110.047 47.4144C110.237 47.8371 109.719 48.9723 111.918 50.3687Z" fill="white"/>
<path opacity="0.2" d="M115.78 40.2471L112.517 42.6552C112.615 43.1576 112.668 43.6679 112.673 44.1799C113.847 44.0944 115.523 42.9307 115.742 41.7242C115.845 41.2384 115.858 40.7376 115.78 40.2471Z" fill="black"/>
<path d="M110.113 29.9299C108.688 30.4904 108.161 36.0049 111.063 35.4634C113.965 34.9219 112.982 28.8042 110.113 29.9299Z" fill="#263238"/>
<path d="M119.523 35.4453C118.359 38.9649 117.86 41.0833 115.571 42.4465C112.122 44.4936 108.137 41.6913 108.223 37.8962C108.299 34.4811 110.184 29.2944 114.065 28.7957C114.919 28.68 115.789 28.7849 116.592 29.1003C117.394 29.4157 118.102 29.9311 118.649 30.5976C119.196 31.2641 119.564 32.0594 119.717 32.9079C119.869 33.7564 119.803 34.6299 119.523 35.4453Z" fill="#FFBDA7"/>
<path d="M118.202 37.8674C116.725 37.8959 115.514 33.4216 118.492 32.1677C116.146 31.897 108.94 32.2912 107.648 29.0709C106.356 25.8505 111.367 25.3518 113.072 26.5677C112.531 24.7961 114.735 22.1837 118.696 24.5586C122.657 26.9335 122.61 29.8641 122.239 30.7333C124.006 31.2083 124.353 35.1411 122.401 35.6683C123.546 37.2547 122.558 40.5891 119.47 39.8766C119.366 41.8192 117.2 40.969 117.333 39.4776C117.466 37.9862 118.202 37.8674 118.202 37.8674Z" fill="#263238"/>
<path d="M111.619 38.7268C112.037 38.8489 112.477 38.8695 112.904 38.7869C113.332 38.7043 113.733 38.5208 114.075 38.2518C114.092 38.2333 114.102 38.2086 114.102 38.1829C114.102 38.1573 114.092 38.1326 114.075 38.1141C114.057 38.0967 114.033 38.0869 114.008 38.0869C113.983 38.0869 113.959 38.0967 113.942 38.1141C113.626 38.3672 113.255 38.5421 112.859 38.6247C112.462 38.7072 112.052 38.695 111.662 38.589C111.65 38.5855 111.637 38.5844 111.625 38.5859C111.613 38.5873 111.601 38.5913 111.59 38.5975C111.58 38.6038 111.57 38.6121 111.563 38.6221C111.556 38.6321 111.551 38.6435 111.548 38.6555C111.551 38.6732 111.56 38.6893 111.573 38.702C111.585 38.7147 111.601 38.7233 111.619 38.7268Z" fill="#263238"/>
<path d="M120.259 39.1782C119.576 39.8151 118.67 40.1565 117.737 40.1281C116.502 40.0759 116.264 38.8789 116.924 37.9147C117.523 37.0455 118.881 36.0148 119.964 36.542C120.2 36.6602 120.402 36.8354 120.553 37.0516C120.703 37.2678 120.798 37.5183 120.827 37.7802C120.856 38.0421 120.82 38.3071 120.72 38.5513C120.621 38.7954 120.462 39.0109 120.259 39.1782Z" fill="#FFBDA7"/>
<path d="M94.2252 160.293L100.4 161.751C100.4 161.751 102.585 137.693 104.461 124.475C104.96 120.969 105.729 116.039 106.902 110.786C108.38 104.169 110.227 97.0116 111.757 91.4069C113.357 85.5029 114.578 81.3278 114.578 81.3278L101.478 80.4111C101.478 80.4111 94.3867 111.332 93.6362 122.684C92.8335 134.53 94.2252 160.293 94.2252 160.293Z" fill="#263238"/>
<path opacity="0.2" d="M106.869 110.786C108.346 104.17 110.194 97.0119 111.723 91.4072L110.36 88.4766C107.126 92.3381 106.252 104.293 106.869 110.786Z" fill="black"/>
<path d="M108.527 80.9053C108.527 80.9053 109.952 112.881 111.519 123.71C113.243 135.585 117.627 161.49 117.627 161.49H124.472C124.472 161.49 122.572 136.853 121.285 125.24C119.817 112.012 121.384 81.803 121.384 81.803L108.527 80.9053Z" fill="#263238"/>
<path d="M116.811 161.637H124.866L125.222 159.229L116.331 159.072L116.811 161.637Z" fill="#7694FF"/>
<path d="M93.8311 160.706L100.847 162.027L101.64 159.581L93.6411 158.065L93.8311 160.706Z" fill="#7694FF"/>
<path d="M114.113 35.1644C114.032 35.4541 113.818 35.6394 113.638 35.6014C113.457 35.5634 113.353 35.2736 113.429 34.9839C113.505 34.6942 113.723 34.5089 113.904 34.5469C114.084 34.5849 114.189 34.8747 114.113 35.1644Z" fill="#263238"/>
<path d="M110.816 34.3001C110.74 34.5898 110.522 34.7751 110.341 34.7323C110.161 34.6896 110.061 34.4093 110.137 34.1149C110.213 33.8204 110.431 33.6399 110.612 33.6779C110.792 33.7159 110.892 34.0056 110.816 34.3001Z" fill="#263238"/>
<path d="M111.548 34.5713C110.965 35.37 110.276 36.0858 109.501 36.6992C109.885 37.3119 110.878 37.2597 110.878 37.2597L111.548 34.5713Z" fill="#F4A285"/>
<path d="M115.134 34.2192C115.101 34.2172 115.069 34.2059 115.042 34.1865C115.015 34.1672 114.994 34.1407 114.982 34.11C114.902 33.9025 114.774 33.7166 114.609 33.5674C114.444 33.4181 114.246 33.3095 114.032 33.2503C114.009 33.2459 113.987 33.2371 113.968 33.2244C113.949 33.2116 113.932 33.1952 113.919 33.176C113.906 33.1568 113.897 33.1352 113.892 33.1125C113.888 33.0898 113.887 33.0664 113.892 33.0437C113.896 33.0209 113.905 32.9992 113.918 32.9799C113.93 32.9605 113.947 32.9438 113.966 32.9308C113.985 32.9178 114.007 32.9087 114.029 32.904C114.052 32.8993 114.076 32.8992 114.098 32.9035C114.371 32.973 114.622 33.1067 114.832 33.2935C115.042 33.4803 115.204 33.7147 115.305 33.977C115.314 33.9985 115.319 34.0216 115.319 34.045C115.32 34.0684 115.315 34.0917 115.306 34.1134C115.297 34.135 115.284 34.1547 115.268 34.1713C115.251 34.1878 115.231 34.2009 115.21 34.2097C115.186 34.2188 115.159 34.222 115.134 34.2192Z" fill="#263238"/>
<path d="M109.425 32.6469C109.388 32.6427 109.353 32.6278 109.325 32.6042C109.308 32.5878 109.295 32.5682 109.285 32.5466C109.276 32.525 109.272 32.5018 109.272 32.4783C109.272 32.4548 109.276 32.4316 109.285 32.41C109.295 32.3884 109.308 32.3688 109.325 32.3524C109.503 32.1349 109.73 31.9631 109.988 31.8515C110.246 31.74 110.526 31.6919 110.807 31.7112C110.852 31.7193 110.893 31.7444 110.922 31.7813C110.95 31.8183 110.963 31.8644 110.959 31.9107C110.952 31.9569 110.927 31.9986 110.89 32.027C110.852 32.0554 110.806 32.0682 110.759 32.0627C110.537 32.0526 110.316 32.0946 110.113 32.1854C109.91 32.2761 109.731 32.413 109.591 32.5852C109.571 32.6089 109.545 32.627 109.516 32.6379C109.487 32.6487 109.455 32.6518 109.425 32.6469Z" fill="#263238"/>
<path d="M118.269 166.762C118.014 166.782 117.759 166.715 117.547 166.572C117.479 166.514 117.428 166.44 117.396 166.357C117.365 166.275 117.354 166.185 117.366 166.097C117.365 166.046 117.379 165.995 117.406 165.951C117.433 165.907 117.472 165.872 117.518 165.85C117.931 165.636 119.133 166.377 119.271 166.463C119.285 166.471 119.297 166.484 119.304 166.499C119.31 166.515 119.312 166.532 119.309 166.548C119.307 166.566 119.3 166.583 119.288 166.597C119.276 166.611 119.26 166.62 119.242 166.624C118.924 166.706 118.597 166.752 118.269 166.762ZM117.713 165.988C117.673 165.985 117.634 165.993 117.599 166.012C117.575 166.012 117.547 166.045 117.542 166.116C117.534 166.175 117.54 166.235 117.561 166.29C117.582 166.346 117.616 166.395 117.661 166.434C118.078 166.624 118.552 166.648 118.986 166.501C118.597 166.249 118.163 166.074 117.708 165.988H117.713Z" fill="#7694FF"/>
<path d="M119.219 166.629H119.176C118.791 166.42 118.041 165.598 118.121 165.204C118.135 165.139 118.169 165.081 118.22 165.038C118.271 164.996 118.335 164.972 118.402 164.971C118.47 164.962 118.539 164.967 118.604 164.987C118.67 165.007 118.73 165.04 118.782 165.085C119.214 165.437 119.304 166.51 119.309 166.563C119.309 166.579 119.305 166.594 119.298 166.608C119.29 166.623 119.28 166.635 119.266 166.643C119.249 166.644 119.233 166.639 119.219 166.629ZM118.463 165.114H118.425C118.311 165.114 118.302 165.18 118.297 165.204C118.25 165.446 118.725 166.069 119.109 166.358C119.084 165.933 118.93 165.525 118.668 165.19C118.611 165.141 118.539 165.114 118.463 165.114Z" fill="#7694FF"/>
<path d="M94.7905 165.589C94.1778 165.589 93.0996 165.565 92.7576 165.142C92.7035 165.077 92.6669 164.999 92.6511 164.916C92.6353 164.833 92.6409 164.748 92.6674 164.667C92.6776 164.621 92.6995 164.577 92.7311 164.542C92.7627 164.506 92.8029 164.479 92.8479 164.463C93.3228 164.297 94.6908 165.294 94.8428 165.413C94.8574 165.423 94.8682 165.438 94.8733 165.456C94.8785 165.473 94.8778 165.491 94.8713 165.508C94.8692 165.529 94.86 165.548 94.8453 165.563C94.8306 165.577 94.8112 165.587 94.7905 165.589ZM92.9191 164.639C92.9004 164.645 92.8838 164.656 92.8712 164.671C92.8586 164.686 92.8505 164.705 92.8479 164.724C92.8324 164.774 92.8296 164.827 92.8395 164.879C92.8494 164.93 92.8719 164.978 92.9049 165.019C93.0949 165.261 93.6933 165.399 94.5293 165.403C93.9641 165.033 93.2041 164.582 92.9191 164.643V164.639Z" fill="#7694FF"/>
<path d="M94.7906 165.589C94.7693 165.597 94.7455 165.597 94.7241 165.589C94.3156 165.313 93.5747 164.364 93.7124 163.96C93.7457 163.865 93.8359 163.756 94.0782 163.77C94.1691 163.774 94.2582 163.796 94.34 163.837C94.4217 163.877 94.4943 163.933 94.5531 164.003C94.9569 164.478 94.8856 165.48 94.8809 165.522C94.8799 165.537 94.875 165.552 94.8667 165.564C94.8583 165.577 94.8468 165.587 94.8334 165.594L94.7906 165.589ZM93.9642 163.941C93.8977 163.941 93.8834 163.988 93.8787 164.003C93.7979 164.245 94.2871 164.976 94.6909 165.323C94.7241 164.897 94.6227 164.472 94.4011 164.107C94.3602 164.058 94.3096 164.017 94.2524 163.987C94.1953 163.958 94.1328 163.941 94.0687 163.936C94.0339 163.93 93.9982 163.931 93.9642 163.941Z" fill="#7694FF"/>
<path d="M107.871 66.1708L106.356 65.0879L81.5148 99.861L83.03 100.944C87.6469 104.072 93.3035 105.271 98.7926 104.287C104.282 103.302 109.169 100.211 112.41 95.673C115.652 91.1352 116.992 85.5102 116.144 79.9984C115.296 74.4865 112.327 69.5243 107.871 66.1708Z" fill="#7694FF"/>
<path opacity="0.1" d="M107.871 66.1708L106.356 65.0879L81.5148 99.861L83.03 100.944C87.6469 104.072 93.3035 105.271 98.7926 104.287C104.282 103.302 109.169 100.211 112.41 95.673C115.652 91.1352 116.992 85.5102 116.144 79.9984C115.296 74.4865 112.327 69.5243 107.871 66.1708Z" fill="black"/>
<path d="M71.0796 85.1937C70.726 82.2555 70.9437 79.2765 71.7209 76.4209L72.1958 76.5444C71.4325 79.3425 71.2195 82.2622 71.5689 85.1415L71.0796 85.1937Z" fill="#7694FF"/>
<path d="M72.5188 90.9274C72.0952 89.8464 71.7538 88.7349 71.4976 87.6025L71.9726 87.498C72.2257 88.6043 72.5607 89.6902 72.9748 90.7469L72.5188 90.9274Z" fill="#7694FF"/>
<path d="M98.254 103.393C109.811 101.013 117.249 89.7142 114.869 78.1575C112.488 66.6009 101.19 59.1623 89.6329 61.543C78.0763 63.9236 70.6377 75.222 73.0184 86.7786C75.399 98.3352 86.6974 105.774 98.254 103.393Z" fill="#7694FF"/>
<path d="M88.8912 87.8778L92.2446 83.1898C91.0793 81.7269 90.4571 80.3273 90.3779 78.991C90.3177 77.6254 90.736 76.2815 91.5606 75.1912C92.3443 74.0293 93.5511 73.2196 94.9235 72.9351C96.3419 72.6651 97.8101 72.938 99.0368 73.6998L99.8442 72.5693L101.469 73.7283L100.656 74.8587C101.65 75.6931 102.341 76.8316 102.623 78.0981C102.835 79.3421 102.635 80.6215 102.053 81.7411L98.956 80.0882C99.1818 79.6618 99.2943 79.1845 99.2827 78.7021C99.271 78.2197 99.1356 77.7484 98.8895 77.3334L95.7642 81.7126C97.2081 83.4796 97.9791 84.9805 98.0773 86.2154C98.1488 87.5363 97.7406 88.8385 96.9279 89.8822C96.0694 91.161 94.7598 92.0685 93.261 92.4234C91.6813 92.7487 90.0371 92.4887 88.6348 91.6919L87.8273 92.8224L86.2029 91.6634L86.9723 90.5852C85.8649 89.6343 85.1185 88.3311 84.8587 86.8946C84.6602 85.3305 84.9735 83.7442 85.7516 82.3729L88.9007 84.1493C88.6037 84.7818 88.4558 85.474 88.4685 86.1727C88.4743 86.7663 88.6191 87.3503 88.8912 87.8778ZM97.2888 76.1222C96.7702 75.9534 96.2115 75.9534 95.6929 76.1222C95.192 76.2817 94.7568 76.6002 94.4532 77.0294C94.1726 77.4265 94.0231 77.9015 94.0258 78.3878C94.0313 78.9553 94.1959 79.5098 94.5007 79.9885L97.2888 76.1222ZM90.4017 89.1983C90.9925 89.484 91.665 89.553 92.3016 89.393C92.9403 89.2361 93.4995 88.8509 93.8738 88.3101C94.2171 87.8462 94.3853 87.2759 94.3487 86.6999C94.2579 86.0045 93.96 85.3524 93.4938 84.8285L90.4017 89.1983Z" fill="white"/>
<path opacity="0.1" d="M111.244 80.6967C110.249 76.3795 107.646 72.6041 103.964 70.14C100.282 67.676 95.7994 66.7088 91.4292 67.4356C87.0591 68.1625 83.1306 70.5286 80.4446 74.0518C77.7587 77.5749 76.5175 81.9898 76.974 86.3964C76.4408 84.0814 76.3872 81.6817 76.8164 79.3452C77.2457 77.0087 78.1488 74.7848 79.4701 72.8106C80.7914 70.8363 82.503 69.1534 84.4993 67.8657C86.4956 66.5779 88.7344 65.7125 91.0778 65.3227C93.4213 64.933 95.8197 65.0271 98.1253 65.5994C100.431 66.1717 102.595 67.2099 104.484 68.6502C106.374 70.0905 107.948 71.9023 109.11 73.9741C110.273 76.0459 110.999 78.3337 111.244 80.6967Z" fill="black"/>
<path d="M125.293 51.5322C125.768 52.1354 126.163 52.6769 126.562 53.2659C126.961 53.8549 127.35 54.4201 127.73 55.0091C128.485 56.187 129.203 57.3839 129.867 58.6331C130.532 59.8823 131.15 61.16 131.71 62.4804L132.119 63.4826L132.489 64.5133C132.613 64.8506 132.717 65.2116 132.827 65.563L132.983 66.095L133.026 66.228L133.097 66.5177C133.143 66.7149 133.174 66.9148 133.192 67.1162C133.237 67.7857 133.149 68.4574 132.931 69.0921C132.767 69.5697 132.552 70.0283 132.29 70.4601C131.856 71.1668 131.354 71.8287 130.789 72.436C129.787 73.5009 128.699 74.4811 127.535 75.3666C125.323 77.0555 122.968 78.5479 120.496 79.8266L118.957 77.4802C120.947 75.7846 122.938 73.9986 124.738 72.189C125.613 71.3226 126.425 70.3957 127.17 69.4151C127.486 69.0054 127.76 68.5646 127.987 68.0994C128.057 67.9471 128.111 67.7879 128.148 67.6244C128.148 67.5199 128.148 67.501 128.148 67.6244C128.141 67.6589 128.141 67.6945 128.148 67.7289C128.147 67.7432 128.147 67.7575 128.148 67.7717L128.105 67.6672L127.939 67.2492C127.825 66.9642 127.725 66.684 127.592 66.4038L127.212 65.563L126.809 64.7223C126.243 63.6061 125.64 62.4947 124.985 61.3975C124.329 60.3003 123.65 59.2079 122.942 58.1344C122.596 57.5929 122.235 57.0562 121.874 56.529L120.791 54.9853L125.293 51.5322Z" fill="#FFBDA7"/>
<path d="M124.814 49.4901C128.314 50.1978 131.387 58.7569 131.387 58.7569L124.082 64.7084C124.082 64.7084 121.707 60.3576 119.77 56.1588C117.684 51.5848 120.572 48.6352 124.814 49.4901Z" fill="#7694FF"/>
<g opacity="0.3">
<path opacity="0.3" d="M124.814 49.4901C128.314 50.1978 131.387 58.7569 131.387 58.7569L124.082 64.7084C124.082 64.7084 121.707 60.3576 119.77 56.1588C117.684 51.5848 120.572 48.6352 124.814 49.4901Z" fill="white"/>
</g>
<path d="M119.822 77.1523L116.051 77.5656L118.497 81.6599C118.497 81.6599 121.632 80.5959 121.252 78.8765L119.822 77.1523Z" fill="#FFBDA7"/>
<path d="M113.804 79.7276L115.984 83.0191L118.497 81.6607L116.05 77.5664L113.804 79.7276Z" fill="#FFBDA7"/>
</g>
</svg>
