<svg width="72" height="73" viewBox="0 0 72 73" fill="none" xmlns="http://www.w3.org/2000/svg">
<path d="M59.8543 30.9165C57.7209 30.5216 55.5564 30.3286 53.3884 30.34C52.1427 30.34 50.9266 30.34 49.7105 30.5828C48.1966 28.5163 46.2641 26.8086 44.0454 25.5767C45.9512 23.4476 47.0092 20.6662 47.0114 17.7794C47.0114 14.6735 45.8052 11.6947 43.6581 9.49846C41.511 7.3022 38.599 6.06836 35.5625 6.06836C32.5261 6.06836 29.614 7.3022 27.4669 9.49846C25.3198 11.6947 24.1136 14.6735 24.1136 17.7794C24.1158 20.6662 25.1738 23.4476 27.0797 25.5767C24.8741 26.8151 22.9448 28.5096 21.4145 30.5524C20.2578 30.34 19.0417 30.34 17.796 30.34C15.6261 30.3487 13.4616 30.5619 11.33 30.9772C10.639 31.1064 10.0153 31.4823 9.56996 32.0379C9.12457 32.5935 8.8864 33.2927 8.89786 34.0111V59.0413C8.89715 59.487 8.99246 59.9274 9.17701 60.3312C9.36156 60.735 9.63081 61.0922 9.96563 61.3774C10.2983 61.6644 10.6887 61.873 11.109 61.9883C11.5293 62.1037 11.9693 62.123 12.3978 62.0449C14.1727 61.6495 15.9801 61.426 17.796 61.3774C23.5415 61.371 29.1623 63.0906 33.9609 66.3228V66.3228L34.3464 66.4745C34.7399 66.6491 35.1633 66.742 35.5922 66.7476C35.8753 66.7439 36.1558 66.6927 36.4227 66.5959H36.6303L37.0159 66.4442C41.8601 63.129 47.56 61.3651 53.3884 61.3774C55.2005 61.3861 57.0079 61.5689 58.7866 61.9236C59.215 62.0016 59.655 61.9823 60.0753 61.8669C60.4957 61.7516 60.886 61.543 61.2187 61.2561C61.5535 60.9708 61.8228 60.6136 62.0073 60.2098C62.1919 59.8061 62.2872 59.3657 62.2865 58.9199V33.8898C62.284 33.1818 62.0394 32.4969 61.5952 31.9539C61.1511 31.4109 60.5352 31.0439 59.8543 30.9165V30.9165ZM35.5922 12.1363C36.9816 12.2407 38.281 12.879 39.2293 13.9229C40.1777 14.9669 40.7048 16.3392 40.7048 17.7643C40.7048 19.1894 40.1777 20.5617 39.2293 21.6056C38.281 22.6496 36.9816 23.2878 35.5922 23.3923V23.3923C34.2027 23.2878 32.9034 22.6496 31.955 21.6056C31.0067 20.5617 30.4796 19.1894 30.4796 17.7643C30.4796 16.3392 31.0067 14.9669 31.955 13.9229C32.9034 12.879 34.2027 12.2407 35.5922 12.1363V12.1363ZM32.6261 58.6469C27.9774 56.4489 22.9173 55.3101 17.796 55.3095C16.8172 55.3095 15.8384 55.3095 14.8299 55.4612V36.408C17.3171 36.1233 19.8301 36.1743 22.3043 36.5597H22.6306C26.1649 37.2241 29.5518 38.5399 32.6261 40.4431V58.6469ZM35.5922 35.1944C34.2732 34.4161 32.9059 33.7269 31.499 33.1313H31.3211C30.3423 32.7369 29.3635 32.3425 28.355 32.0391C30.4144 30.3624 32.9604 29.4338 35.5922 29.3995V29.3995C38.217 29.4165 40.7622 30.3235 42.8293 31.9784C40.3114 32.7825 37.8851 33.8606 35.5922 35.1944V35.1944ZM56.3544 55.4612C50.2641 54.8353 44.1208 55.8826 38.5582 58.4952V40.2914C41.6381 38.4371 45.0271 37.1821 48.5538 36.59H49.147C51.5316 36.2101 53.9544 36.149 56.3544 36.408V55.4612Z" fill="#5F5F5F"/>
</svg>
