<svg width="73" height="73" viewBox="0 0 73 73" fill="none" xmlns="http://www.w3.org/2000/svg">
<path d="M63.2377 30.3405C63.6332 30.3406 64.0249 30.2622 64.3902 30.1098C64.7556 29.9573 65.0877 29.7339 65.3673 29.4521C65.6469 29.1704 65.8687 28.8359 66.02 28.4677C66.1713 28.0996 66.2492 27.705 66.2491 27.3065V18.2047C66.2493 17.5681 66.0506 16.9475 65.6811 16.4311C65.3116 15.9147 64.7901 15.5287 64.1906 15.3277L37.0887 6.22586C36.4702 6.01846 35.8016 6.01846 35.1831 6.22586L8.08121 15.3277C7.48167 15.5287 6.96015 15.9147 6.59066 16.4311C6.22116 16.9475 6.02245 17.5681 6.02271 18.2047V27.3065C6.0226 27.705 6.10042 28.0996 6.25172 28.4677C6.40302 28.8359 6.62482 29.1704 6.90447 29.4521C7.18412 29.7339 7.51612 29.9573 7.88152 30.1098C8.24692 30.2622 8.63854 30.3406 9.03402 30.3405H12.0453V52.1373C10.2889 52.7606 8.76712 53.9164 7.68877 55.446C6.61042 56.9756 6.02843 58.8039 6.02271 60.6801V66.748C6.0226 67.1465 6.10042 67.541 6.25172 67.9092C6.40302 68.2773 6.62482 68.6118 6.90447 68.8936C7.18412 69.1753 7.51612 69.3988 7.88152 69.5512C8.24692 69.7037 8.63854 69.7821 9.03402 69.782H63.2377C63.6332 69.7821 64.0249 69.7037 64.3902 69.5512C64.7556 69.3988 65.0877 69.1753 65.3673 68.8936C65.6469 68.6118 65.8687 68.2773 66.02 67.9092C66.1713 67.541 66.2492 67.1465 66.2491 66.748V60.6801C66.2433 58.8039 65.6613 56.9756 64.583 55.446C63.5047 53.9164 61.9828 52.7606 60.2264 52.1373V30.3405H63.2377ZM60.2264 63.7141H12.0453V60.6801C12.0461 59.8757 12.3637 59.1045 12.9282 58.5356C13.4928 57.9668 14.2583 57.6469 15.0567 57.6461H57.2151C58.0135 57.6469 58.779 57.9668 59.3435 58.5356C59.9081 59.1045 60.2256 59.8757 60.2264 60.6801V63.7141ZM18.068 51.5782V30.3405H24.0906V51.5782H18.068ZM30.1132 51.5782V30.3405H42.1585V51.5782H30.1132ZM48.1812 51.5782V30.3405H54.2038V51.5782H48.1812ZM12.0453 24.2726V20.3912L36.1359 12.2997L60.2264 20.3912V24.2726H12.0453Z" fill="#5F5F5F"/>
</svg>
