<svg width="73" height="73" viewBox="0 0 73 73" fill="none" xmlns="http://www.w3.org/2000/svg">
<path d="M36.4671 46.6922L24.7832 58.464C23.3686 59.8395 21.4794 60.6082 19.5134 60.6082C17.5474 60.6082 15.6582 59.8395 14.2436 58.464C13.5498 57.7677 12.9993 56.9403 12.6237 56.0292C12.248 55.118 12.0547 54.1412 12.0547 53.1546C12.0547 52.1679 12.248 51.1911 12.6237 50.2799C12.9993 49.3688 13.5498 48.5414 14.2436 47.8451L25.9275 36.0734C26.4946 35.5021 26.8131 34.7272 26.8131 33.9192C26.8131 33.1113 26.4946 32.3364 25.9275 31.7651C25.3605 31.1938 24.5914 30.8729 23.7895 30.8729C22.9876 30.8729 22.2185 31.1938 21.6514 31.7651L9.96753 43.5672C7.61376 46.1485 6.34076 49.5462 6.4144 53.0506C6.48804 56.5551 7.90262 59.8955 10.3627 62.3741C12.8228 64.8526 16.1382 66.2779 19.6165 66.352C23.0949 66.4262 26.4672 65.1437 29.0292 62.7722L40.7432 51.0004C41.3102 50.4291 41.6288 49.6543 41.6288 48.8463C41.6288 48.0384 41.3102 47.2635 40.7432 46.6922C40.1762 46.1209 39.4071 45.8 38.6052 45.8C37.8032 45.8 37.0342 46.1209 36.4671 46.6922ZM62.3042 10.042C59.7711 7.50562 56.3448 6.08203 52.7734 6.08203C49.2021 6.08203 45.7758 7.50562 43.2426 10.042L31.5286 21.8138C31.2478 22.0966 31.0251 22.4325 30.8731 22.8021C30.7212 23.1717 30.643 23.5678 30.643 23.9679C30.643 24.3679 30.7212 24.7641 30.8731 25.1337C31.0251 25.5033 31.2478 25.8391 31.5286 26.122C31.8093 26.4049 32.1427 26.6292 32.5095 26.7823C32.8764 26.9354 33.2695 27.0142 33.6666 27.0142C34.0637 27.0142 34.4569 26.9354 34.8237 26.7823C35.1905 26.6292 35.5239 26.4049 35.8046 26.122L47.4886 14.3502C48.9032 12.9747 50.7924 12.206 52.7584 12.206C54.7243 12.206 56.6136 12.9747 58.0282 14.3502C58.722 15.0465 59.2725 15.8739 59.6481 16.785C60.0237 17.6961 60.2171 18.673 60.2171 19.6596C60.2171 20.6462 60.0237 21.6231 59.6481 22.5343C59.2725 23.4454 58.722 24.2728 58.0282 24.9691L46.3443 36.7408C46.062 37.0229 45.838 37.3584 45.6851 37.7282C45.5322 38.0979 45.4535 38.4944 45.4535 38.8949C45.4535 39.2955 45.5322 39.692 45.6851 40.0617C45.838 40.4314 46.062 40.767 46.3443 41.0491C46.6242 41.3334 46.9573 41.5591 47.3242 41.7132C47.6912 41.8672 48.0848 41.9465 48.4823 41.9465C48.8798 41.9465 49.2734 41.8672 49.6404 41.7132C50.0073 41.5591 50.3404 41.3334 50.6203 41.0491L62.3042 29.247C64.8217 26.6947 66.2346 23.2427 66.2346 19.6445C66.2346 16.0463 64.8217 12.5942 62.3042 10.042ZM26.59 46.0247C26.8714 46.3059 27.2051 46.5284 27.572 46.6794C27.9389 46.8304 28.3317 46.9069 28.728 46.9046C29.1244 46.9069 29.5172 46.8304 29.8841 46.6794C30.251 46.5284 30.5847 46.3059 30.8661 46.0247L45.6818 31.0977C46.2488 30.5264 46.5674 29.7515 46.5674 28.9436C46.5674 28.1356 46.2488 27.3608 45.6818 26.7894C45.1147 26.2181 44.3456 25.8972 43.5437 25.8972C42.7418 25.8972 41.9727 26.2181 41.4057 26.7894L26.59 41.7165C26.3078 41.9986 26.0837 42.3341 25.9309 42.7038C25.778 43.0736 25.6993 43.4701 25.6993 43.8706C25.6993 44.2712 25.778 44.6677 25.9309 45.0374C26.0837 45.4071 26.3078 45.7427 26.59 46.0247Z" fill="#5F5F5F"/>
</svg>
