<svg width="73" height="73" viewBox="0 0 73 73" fill="none" xmlns="http://www.w3.org/2000/svg">
<path d="M27.1018 45.5098C26.5062 45.5098 25.924 45.6878 25.4288 46.0211C24.9336 46.3545 24.5476 46.8284 24.3197 47.3827C24.0918 47.9371 24.0321 48.5472 24.1483 49.1357C24.2645 49.7242 24.5513 50.2648 24.9725 50.6891C25.3936 51.1134 25.9302 51.4024 26.5143 51.5195C27.0984 51.6365 27.7039 51.5764 28.2542 51.3468C28.8044 51.1172 29.2747 50.7283 29.6056 50.2294C29.9365 49.7304 30.1131 49.1439 30.1131 48.5438C30.1131 47.7391 29.7958 46.9674 29.2311 46.3985C28.6664 45.8295 27.9004 45.5098 27.1018 45.5098ZM6.02255 42.4759C5.2239 42.4759 4.45796 42.7955 3.89322 43.3645C3.32849 43.9335 3.01123 44.7052 3.01123 45.5098V51.5778C3.01123 52.3824 3.32849 53.1541 3.89322 53.7231C4.45796 54.2921 5.2239 54.6117 6.02255 54.6117C6.8212 54.6117 7.58714 54.2921 8.15187 53.7231C8.7166 53.1541 9.03387 52.3824 9.03387 51.5778V45.5098C9.03387 44.7052 8.7166 43.9335 8.15187 43.3645C7.58714 42.7955 6.8212 42.4759 6.02255 42.4759ZM66.2489 42.4759C65.4503 42.4759 64.6843 42.7955 64.1196 43.3645C63.5549 43.9335 63.2376 44.7052 63.2376 45.5098V51.5778C63.2376 52.3824 63.5549 53.1541 64.1196 53.7231C64.6843 54.2921 65.4503 54.6117 66.2489 54.6117C67.0476 54.6117 67.8135 54.2921 68.3782 53.7231C68.943 53.1541 69.2602 52.3824 69.2602 51.5778V45.5098C69.2602 44.7052 68.943 43.9335 68.3782 43.3645C67.8135 42.7955 67.0476 42.4759 66.2489 42.4759ZM51.1923 21.2382H39.147V17.3547C40.0573 16.8252 40.8142 16.065 41.3424 15.1495C41.8707 14.234 42.152 13.1952 42.1584 12.1363C42.1584 10.527 41.5238 8.98357 40.3944 7.84561C39.2649 6.70766 37.733 6.06836 36.1357 6.06836C34.5384 6.06836 33.0065 6.70766 31.8771 7.84561C30.7476 8.98357 30.1131 10.527 30.1131 12.1363C30.1194 13.1952 30.4007 14.234 30.929 15.1495C31.4573 16.065 32.2142 16.8252 33.1244 17.3547V21.2382H21.0791C18.6832 21.2382 16.3854 22.1971 14.6912 23.904C12.997 25.611 12.0452 27.9261 12.0452 30.34V57.6457C12.0452 60.0596 12.997 62.3747 14.6912 64.0817C16.3854 65.7886 18.6832 66.7476 21.0791 66.7476H51.1923C53.5883 66.7476 55.8861 65.7886 57.5803 64.0817C59.2745 62.3747 60.2263 60.0596 60.2263 57.6457V30.34C60.2263 27.9261 59.2745 25.611 57.5803 23.904C55.8861 22.1971 53.5883 21.2382 51.1923 21.2382ZM41.3152 27.3061L39.8095 33.374H32.4619L30.9563 27.3061H41.3152ZM54.2036 57.6457C54.2036 58.4503 53.8864 59.222 53.3216 59.791C52.7569 60.36 51.991 60.6796 51.1923 60.6796H21.0791C20.2805 60.6796 19.5145 60.36 18.9498 59.791C18.3851 59.222 18.0678 58.4503 18.0678 57.6457V30.34C18.0678 29.5354 18.3851 28.7637 18.9498 28.1947C19.5145 27.6257 20.2805 27.3061 21.0791 27.3061H24.7529L27.1018 37.1361C27.2666 37.8093 27.6554 38.4052 28.2033 38.8248C28.7512 39.2443 29.4252 39.4621 30.1131 39.4419H42.1584C42.8463 39.4621 43.5203 39.2443 44.0682 38.8248C44.6161 38.4052 45.0048 37.8093 45.1697 37.1361L47.5185 27.3061H51.1923C51.991 27.3061 52.7569 27.6257 53.3216 28.1947C53.8864 28.7637 54.2036 29.5354 54.2036 30.34V57.6457ZM45.1697 45.5098C44.5741 45.5098 43.9919 45.6878 43.4967 46.0211C43.0015 46.3545 42.6155 46.8284 42.3876 47.3827C42.1597 47.9371 42.1 48.5472 42.2162 49.1357C42.3324 49.7242 42.6192 50.2648 43.0404 50.6891C43.4615 51.1134 43.9981 51.4024 44.5822 51.5195C45.1663 51.6365 45.7718 51.5764 46.3221 51.3468C46.8723 51.1172 47.3426 50.7283 47.6735 50.2294C48.0044 49.7304 48.181 49.1439 48.181 48.5438C48.181 47.7391 47.8637 46.9674 47.299 46.3985C46.7343 45.8295 45.9683 45.5098 45.1697 45.5098Z" fill="#5F5F5F"/>
</svg>
