<svg width="73" height="73" viewBox="0 0 73 73" fill="none" xmlns="http://www.w3.org/2000/svg">
<path d="M44.5977 37.2575C46.5038 35.1951 47.5776 32.4904 47.609 29.6726C47.609 26.631 46.4097 23.7139 44.2751 21.5632C42.1404 19.4125 39.2451 18.2042 36.2262 18.2042C33.2073 18.2042 30.3121 19.4125 28.1774 21.5632C26.0427 23.7139 24.8434 26.631 24.8434 29.6726C24.8749 32.4904 25.9487 35.1951 27.8548 37.2575C25.2007 38.589 22.9169 40.5643 21.2085 43.0057C19.5002 45.4471 18.421 48.2781 18.068 51.244C17.9801 52.0487 18.2131 52.8555 18.7157 53.4871C19.2184 54.1187 19.9494 54.5232 20.748 54.6117C21.5467 54.7002 22.3475 54.4655 22.9744 53.9591C23.6012 53.4527 24.0028 52.7161 24.0906 51.9115C24.45 48.972 25.8638 46.2664 28.0658 44.3043C30.2678 42.3422 33.1059 41.2592 36.0455 41.2592C38.9851 41.2592 41.8233 42.3422 44.0253 44.3043C46.2273 46.2664 47.6411 48.972 48.0005 51.9115C48.0842 52.6894 48.4631 53.4047 49.0579 53.9079C49.6527 54.4111 50.4175 54.6632 51.1925 54.6117H51.5237C52.3131 54.5202 53.0346 54.1181 53.5309 53.4929C54.0273 52.8678 54.2583 52.0704 54.1737 51.2744C53.8468 48.3241 52.8017 45.5008 51.1311 43.0555C49.4605 40.6102 47.2162 38.6185 44.5977 37.2575ZM36.1359 35.073C35.0757 35.073 34.0394 34.7563 33.1579 34.1629C32.2765 33.5695 31.5895 32.726 31.1838 31.7392C30.7781 30.7524 30.6719 29.6666 30.8787 28.619C31.0856 27.5714 31.5961 26.6091 32.3457 25.8539C33.0953 25.0986 34.0504 24.5843 35.0902 24.3759C36.1299 24.1675 37.2077 24.2745 38.1871 24.6832C39.1666 25.0919 40.0037 25.7841 40.5927 26.6722C41.1817 27.5603 41.496 28.6045 41.496 29.6726C41.496 31.1049 40.9313 32.4785 39.9261 33.4913C38.9209 34.504 37.5575 35.073 36.1359 35.073ZM57.2151 6.06836H15.0567C12.6607 6.06836 10.3629 7.0273 8.66869 8.73424C6.97449 10.4412 6.02271 12.7563 6.02271 15.1702V57.6457C6.02271 60.0596 6.97449 62.3747 8.66869 64.0817C10.3629 65.7886 12.6607 66.7476 15.0567 66.7476H57.2151C59.6111 66.7476 61.9089 65.7886 63.6031 64.0817C65.2973 62.3747 66.2491 60.0596 66.2491 57.6457V15.1702C66.2491 12.7563 65.2973 10.4412 63.6031 8.73424C61.9089 7.0273 59.6111 6.06836 57.2151 6.06836ZM60.2264 57.6457C60.2264 58.4503 59.9092 59.222 59.3444 59.791C58.7797 60.36 58.0138 60.6796 57.2151 60.6796H15.0567C14.258 60.6796 13.4921 60.36 12.9273 59.791C12.3626 59.222 12.0453 58.4503 12.0453 57.6457V15.1702C12.0453 14.3656 12.3626 13.5939 12.9273 13.0249C13.4921 12.4559 14.258 12.1363 15.0567 12.1363H57.2151C58.0138 12.1363 58.7797 12.4559 59.3444 13.0249C59.9092 13.5939 60.2264 14.3656 60.2264 15.1702V57.6457Z" fill="#5F5F5F"/>
</svg>
