<svg width="71" height="73" viewBox="0 0 71 73" fill="none" xmlns="http://www.w3.org/2000/svg">
<path d="M59.3977 30.9165C57.2806 30.5216 55.1326 30.3286 52.9811 30.34C51.7449 30.34 50.5381 30.34 49.3313 30.5828C47.8289 28.5163 45.9113 26.8086 43.7094 25.5767C45.6007 23.4476 46.6507 20.6662 46.6528 17.7794C46.6528 14.6735 45.4558 11.6947 43.3251 9.49846C41.1944 7.3022 38.3046 6.06836 35.2913 6.06836C32.2781 6.06836 29.3882 7.3022 27.2575 9.49846C25.1268 11.6947 23.9298 14.6735 23.9298 17.7794C23.932 20.6662 24.982 23.4476 26.8732 25.5767C24.6845 26.8151 22.7699 28.5096 21.2513 30.5524C20.1034 30.34 18.8966 30.34 17.6604 30.34C15.5071 30.3487 13.3591 30.5619 11.2438 30.9772C10.5581 31.1064 9.93918 31.4823 9.4972 32.0379C9.05521 32.5935 8.81886 33.2927 8.83023 34.0111V59.0413C8.82952 59.487 8.92411 59.9274 9.10725 60.3312C9.29039 60.735 9.55759 61.0922 9.88985 61.3774C10.22 61.6644 10.6074 61.873 11.0245 61.9883C11.4416 62.1037 11.8783 62.123 12.3034 62.0449C14.0648 61.6495 15.8584 61.426 17.6604 61.3774C23.362 61.371 28.94 63.0906 33.7019 66.3228L34.0845 66.4745C34.475 66.6491 34.8952 66.742 35.3208 66.7476C35.6017 66.7439 35.8801 66.6927 36.1449 66.5959H36.351L36.7336 66.4442C41.5408 63.129 47.1972 61.3651 52.9811 61.3774C54.7794 61.3861 56.573 61.5689 58.3381 61.9236C58.7633 62.0016 59.1999 61.9823 59.617 61.8669C60.0341 61.7516 60.4215 61.543 60.7517 61.2561C61.084 60.9708 61.3512 60.6136 61.5343 60.2098C61.7174 59.8061 61.812 59.3657 61.8113 58.9199V33.8898C61.8088 33.1818 61.5661 32.4969 61.1253 31.9539C60.6845 31.4109 60.0734 31.0439 59.3977 30.9165ZM35.3208 12.1363C36.6996 12.2407 37.989 12.879 38.9301 13.9229C39.8712 14.9669 40.3943 16.3392 40.3943 17.7643C40.3943 19.1894 39.8712 20.5617 38.9301 21.6056C37.989 22.6496 36.6996 23.2878 35.3208 23.3923C33.9419 23.2878 32.6525 22.6496 31.7114 21.6056C30.7703 20.5617 30.2472 19.1894 30.2472 17.7643C30.2472 16.3392 30.7703 14.9669 31.7114 13.9229C32.6525 12.879 33.9419 12.2407 35.3208 12.1363ZM32.3774 58.6469C27.7641 56.4489 22.7427 55.3101 17.6604 55.3095C16.6891 55.3095 15.7178 55.3095 14.717 55.4612V36.408C17.1852 36.1233 19.679 36.1743 22.1344 36.5597H22.4581C25.9655 37.2241 29.3265 38.5399 32.3774 40.4431V58.6469ZM35.3208 35.1944C34.0119 34.4161 32.655 33.7269 31.2589 33.1313H31.0823C30.111 32.7369 29.1396 32.3425 28.1389 32.0391C30.1825 30.3624 32.709 29.4338 35.3208 29.3995C37.9256 29.4165 40.4514 30.3235 42.5027 31.9784C40.004 32.7825 37.5962 33.8606 35.3208 35.1944ZM55.9245 55.4612C49.8807 54.8353 43.7843 55.8826 38.2642 58.4952V40.2914C41.3206 38.4371 44.6837 37.1821 48.1834 36.59H48.7721C51.1385 36.2101 53.5428 36.149 55.9245 36.408V55.4612Z" fill="#5F5F5F"/>
</svg>
