<svg width="73" height="73" viewBox="0 0 73 73" fill="none" xmlns="http://www.w3.org/2000/svg">
<path d="M42.1584 27.3049H30.1131C29.3144 27.3049 28.5485 27.6245 27.9838 28.1935C27.419 28.7625 27.1018 29.5342 27.1018 30.3388V66.7463C27.1018 67.551 27.419 68.3227 27.9838 68.8917C28.5485 69.4607 29.3144 69.7803 30.1131 69.7803H42.1584C42.957 69.7803 43.723 69.4607 44.2877 68.8917C44.8524 68.3227 45.1697 67.551 45.1697 66.7463V30.3388C45.1697 29.5342 44.8524 28.7625 44.2877 28.1935C43.723 27.6245 42.957 27.3049 42.1584 27.3049ZM39.147 63.7124H33.1244V33.3728H39.147V63.7124ZM66.2489 3.0332H54.2036C53.405 3.0332 52.639 3.35285 52.0743 3.92183C51.5096 4.49081 51.1923 5.26251 51.1923 6.06716V66.7463C51.1923 67.551 51.5096 68.3227 52.0743 68.8917C52.639 69.4607 53.405 69.7803 54.2036 69.7803H66.2489C67.0476 69.7803 67.8135 69.4607 68.3782 68.8917C68.943 68.3227 69.2602 67.551 69.2602 66.7463V6.06716C69.2602 5.26251 68.943 4.49081 68.3782 3.92183C67.8135 3.35285 67.0476 3.0332 66.2489 3.0332ZM63.2376 63.7124H57.215V9.10112H63.2376V63.7124ZM18.0678 45.5086H6.02255C5.2239 45.5086 4.45796 45.8283 3.89322 46.3973C3.32849 46.9662 3.01123 47.7379 3.01123 48.5426V66.7463C3.01123 67.551 3.32849 68.3227 3.89322 68.8917C4.45796 69.4607 5.2239 69.7803 6.02255 69.7803H18.0678C18.8665 69.7803 19.6324 69.4607 20.1971 68.8917C20.7619 68.3227 21.0791 67.551 21.0791 66.7463V48.5426C21.0791 47.7379 20.7619 46.9662 20.1971 46.3973C19.6324 45.8283 18.8665 45.5086 18.0678 45.5086ZM15.0565 63.7124H9.03387V51.5766H15.0565V63.7124Z" fill="#5F5F5F"/>
</svg>
