<svg width="197" height="183" viewBox="0 0 197 183" fill="none" xmlns="http://www.w3.org/2000/svg">
<mask id="mask0_889_11026" style="mask-type:alpha" maskUnits="userSpaceOnUse" x="0" y="0" width="197" height="183">
<rect width="197" height="183" fill="#C4C4C4"/>
</mask>
<g mask="url(#mask0_889_11026)">
<path d="M84.9935 64.2262C81.4607 55.6726 72.9119 49.6918 63.7727 48.2278C54.6335 46.7638 45.1103 49.4758 37.4111 54.6166C29.7119 59.7574 23.7263 67.1638 19.2239 75.2566C13.9199 84.7606 10.5167 95.4838 10.4783 106.361C10.4399 117.237 13.9391 128.306 21.0959 136.519C30.2159 146.973 60.4559 154.62 87.4367 135.645C90.4943 133.495 94.9007 133.941 98.5679 134.652C108.072 136.485 130.013 143.508 139.618 142.332C170.275 138.626 181.008 106.38 184.046 92.1574C186.413 81.0934 188.29 69.7654 187.214 58.5046C186.139 47.2438 181.824 35.9446 173.458 28.327C165.091 20.7094 152.28 17.5606 142.008 22.2886C126.034 29.6278 100.162 62.191 98.3279 64.2262C96.4943 66.2614 94.0079 67.8982 91.2959 68.1046C89.9691 68.2151 88.6417 67.8982 87.5078 67.2004C86.3738 66.5026 85.4929 65.4604 84.9935 64.2262Z" fill="#7694FF"/>
<path opacity="0.9" d="M84.9935 64.2262C81.4607 55.6726 72.9119 49.6918 63.7727 48.2278C54.6335 46.7638 45.1103 49.4758 37.4111 54.6166C29.7119 59.7574 23.7263 67.1638 19.2239 75.2566C13.9199 84.7606 10.5167 95.4838 10.4783 106.361C10.4399 117.237 13.9391 128.306 21.0959 136.519C30.2159 146.973 60.4559 154.62 87.4367 135.645C90.4943 133.495 94.9007 133.941 98.5679 134.652C108.072 136.485 130.013 143.508 139.618 142.332C170.275 138.626 181.008 106.38 184.046 92.1574C186.413 81.0934 188.29 69.7654 187.214 58.5046C186.139 47.2438 181.824 35.9446 173.458 28.327C165.091 20.7094 152.28 17.5606 142.008 22.2886C126.034 29.6278 100.162 62.191 98.3279 64.2262C96.4943 66.2614 94.0079 67.8982 91.2959 68.1046C89.9691 68.2151 88.6417 67.8982 87.5078 67.2004C86.3738 66.5026 85.4929 65.4604 84.9935 64.2262Z" fill="white" fill-opacity="0.77"/>
<path d="M99.0002 182.541C150.4 182.541 192.067 180.108 192.067 177.107C192.067 174.107 150.4 171.674 99.0002 171.674C47.6006 171.674 5.93298 174.107 5.93298 177.107C5.93298 180.108 47.6006 182.541 99.0002 182.541Z" fill="#F5F5F5"/>
<path d="M105.768 65.0086L101.88 61.1014C101.75 60.9714 101.647 60.8172 101.577 60.6476C101.507 60.4779 101.471 60.2961 101.472 60.1126V58.6726C101.471 58.4023 101.392 58.138 101.245 57.9115C101.098 57.685 100.888 57.5059 100.641 57.3958L99.5469 56.9158C99.3921 56.8446 99.2508 56.7472 99.1293 56.6278L98.1261 55.6294C97.8895 55.3905 97.5745 55.2453 97.2392 55.2206C96.904 55.1959 96.5711 55.2933 96.3021 55.495L95.7549 55.903C95.493 56.1007 95.3094 56.3846 95.2365 56.7046L94.6653 59.1382C94.6046 59.4054 94.6242 59.6846 94.7215 59.9408C94.8189 60.1969 94.9896 60.4186 95.2125 60.5782L97.6125 62.3158L98.9949 63.2182C99.1109 63.2966 99.2158 63.3902 99.3069 63.4966L103.372 68.3734L105.768 65.0086Z" fill="#7694FF"/>
<path opacity="0.3" d="M105.768 65.0086L101.88 61.1014C101.75 60.9714 101.647 60.8172 101.577 60.6476C101.507 60.4779 101.471 60.2961 101.472 60.1126V58.6726C101.471 58.4023 101.392 58.138 101.245 57.9115C101.098 57.685 100.888 57.5059 100.641 57.3958L99.5469 56.9158C99.3921 56.8446 99.2508 56.7472 99.1293 56.6278L98.1261 55.6294C97.8895 55.3905 97.5745 55.2453 97.2392 55.2206C96.904 55.1959 96.5711 55.2933 96.3021 55.495L95.7549 55.903C95.493 56.1007 95.3094 56.3846 95.2365 56.7046L94.6653 59.1382C94.6046 59.4054 94.6242 59.6846 94.7215 59.9408C94.8189 60.1969 94.9896 60.4186 95.2125 60.5782L97.6125 62.3158L98.9949 63.2182C99.1109 63.2966 99.2158 63.3902 99.3069 63.4966L103.372 68.3734L105.768 65.0086Z" fill="white"/>
<path d="M125.145 47.9629C125.145 47.9629 119.745 48.4429 116.088 57.3277C112.43 66.2125 110.448 66.6877 109.185 65.9677C108.322 65.4422 107.486 64.8735 106.68 64.2637C106.431 64.08 106.121 63.9994 105.814 64.0387C105.507 64.0781 105.228 64.2343 105.033 64.4749L102.739 67.3549C102.571 67.5656 102.48 67.8271 102.48 68.0965C102.48 68.3659 102.571 68.6273 102.739 68.8381C104.102 70.5469 107.726 74.4445 111.705 73.3741C117.105 71.9341 121.051 64.2541 121.305 61.8973C121.56 59.5405 125.145 47.9629 125.145 47.9629Z" fill="#7694FF"/>
<path opacity="0.6" d="M125.145 47.9629C125.145 47.9629 119.745 48.4429 116.088 57.3277C112.43 66.2125 110.448 66.6877 109.185 65.9677C108.322 65.4422 107.486 64.8735 106.68 64.2637C106.431 64.08 106.121 63.9994 105.814 64.0387C105.507 64.0781 105.228 64.2343 105.033 64.4749L102.739 67.3549C102.571 67.5656 102.48 67.8271 102.48 68.0965C102.48 68.3659 102.571 68.6273 102.739 68.8381C104.102 70.5469 107.726 74.4445 111.705 73.3741C117.105 71.9341 121.051 64.2541 121.305 61.8973C121.56 59.5405 125.145 47.9629 125.145 47.9629Z" fill="white"/>
<path d="M123.796 28.638C123.796 28.638 120.436 26.6028 120.388 28.1964C120.34 29.79 123.897 31.5036 125.409 31.2972L123.796 28.638Z" fill="#263238"/>
<path opacity="0.4" d="M123.796 28.638C123.796 28.638 120.436 26.6028 120.388 28.1964C120.34 29.79 123.897 31.5036 125.409 31.2972L123.796 28.638Z" fill="black"/>
<path d="M121.051 164.997L121.411 172.087C121.418 172.235 121.385 172.383 121.313 172.513C121.242 172.644 121.136 172.752 121.008 172.826C120.317 173.215 119.001 174.439 118.416 174.665C117.36 174.992 116.288 175.264 115.205 175.481C115.029 175.518 114.87 175.614 114.755 175.752C114.641 175.891 114.576 176.064 114.571 176.244C114.568 176.35 114.587 176.455 114.625 176.554C114.663 176.653 114.72 176.743 114.793 176.82C114.867 176.896 114.954 176.958 115.051 177.001C115.148 177.044 115.252 177.067 115.358 177.069L125.832 176.849C126.04 176.853 126.242 176.776 126.395 176.635C126.548 176.493 126.64 176.298 126.653 176.09L127.233 165.348C127.244 165.137 127.172 164.931 127.033 164.772C126.895 164.614 126.699 164.515 126.489 164.498L121.915 164.153C121.801 164.144 121.687 164.16 121.579 164.199C121.472 164.239 121.374 164.3 121.293 164.38C121.211 164.46 121.147 164.556 121.105 164.663C121.064 164.769 121.045 164.883 121.051 164.997Z" fill="#263238"/>
<path d="M119.121 95.6083L120.057 138.52L120.311 164.695C120.321 165.057 120.472 165.401 120.732 165.654C120.992 165.907 121.341 166.048 121.703 166.048H126.647C126.993 166.049 127.326 165.921 127.583 165.689C127.839 165.458 128 165.139 128.035 164.795C128.625 158.925 130.987 149.613 129.931 138.64C129.931 138.64 133.478 109.84 133.694 101.042L132.892 93.2227L119.121 95.6083Z" fill="#263238"/>
<path d="M149.246 165.266L151.977 171.813C152.035 171.95 152.053 172.1 152.03 172.247C152.007 172.393 151.944 172.531 151.848 172.643C151.22 173.399 150.553 174.122 149.851 174.808C148.967 175.471 148.051 176.09 147.105 176.661C146.952 176.755 146.835 176.898 146.774 177.068C146.713 177.237 146.711 177.422 146.769 177.592C146.802 177.693 146.854 177.785 146.923 177.866C146.991 177.946 147.075 178.012 147.169 178.059C147.263 178.107 147.366 178.136 147.471 178.144C147.576 178.152 147.682 178.139 147.782 178.106L157.747 174.803C157.946 174.738 158.112 174.598 158.209 174.412C158.305 174.227 158.326 174.01 158.265 173.81L155.16 163.504C155.1 163.302 154.964 163.131 154.78 163.029C154.596 162.926 154.379 162.901 154.176 162.957L149.755 164.181C149.646 164.213 149.546 164.268 149.46 164.342C149.374 164.416 149.305 164.507 149.257 164.609C149.209 164.712 149.183 164.823 149.181 164.936C149.179 165.05 149.201 165.162 149.246 165.266Z" fill="#263238"/>
<path opacity="0.1" d="M130.564 103.889C130.564 103.889 130.012 111.127 131.4 122.887C131.4 122.887 132.6 114.247 133.267 109.509L130.564 103.889Z" fill="black"/>
<path d="M127.718 95.9101L138.173 139.672L148.253 165.174C148.384 165.498 148.636 165.759 148.955 165.902C149.274 166.045 149.637 166.059 149.966 165.942L155.121 164.272C155.441 164.159 155.707 163.93 155.866 163.63C156.025 163.331 156.066 162.982 155.981 162.654C154.541 157.062 153.264 147.774 148.44 138.174C148.44 138.174 145.56 110.411 141.681 95.5645L127.718 95.9101Z" fill="#263238"/>
<path d="M138.302 48.2513C138.302 48.2513 138.134 48.1889 137.789 48.0977V50.6801H125.309V48.1553L124.8 48.2321L123.24 49.3889C123.24 49.3889 119.933 56.5889 119.136 74.4689V97.7489H144.576L138.302 48.2513Z" fill="#7694FF"/>
<path d="M134.073 46.8786C133.224 44.2578 133.406 40.4994 133.689 38.1426L128.006 43.7634C128.364 44.7637 128.487 45.8328 128.366 46.8882C128.329 47.1343 128.212 47.3615 128.034 47.535C127.855 47.7084 127.624 47.8184 127.377 47.8482L124.977 48.6066L124.689 50.4786L126.153 50.853L128.265 51.141L132.845 50.853L137.88 48.4914C137.114 48.2452 136.321 48.0968 135.518 48.0498C135.202 47.9823 134.906 47.841 134.655 47.6375C134.404 47.4339 134.205 47.1739 134.073 46.8786Z" fill="#FFC3BD"/>
<path opacity="0.2" d="M131.376 40.8691L128.102 44.0755C128.278 44.6689 128.383 45.2813 128.414 45.8995C129.748 45.5923 131.385 44.3347 131.808 42.8227C132.081 41.8915 131.731 40.9507 131.376 40.8691Z" fill="black"/>
<path d="M134.544 33.8802C134.304 38.2002 134.371 40.7346 132.201 42.9522C128.942 46.3122 123.6 44.3346 122.558 40.0434C121.598 36.1506 122.184 29.7618 126.398 28.0434C127.327 27.651 128.34 27.5036 129.342 27.6154C130.343 27.7271 131.299 28.0942 132.118 28.6815C132.938 29.2688 133.592 30.0566 134.019 30.9694C134.446 31.8822 134.632 32.8894 134.558 33.8946L134.544 33.8802Z" fill="#FFC3BD"/>
<path d="M127.8 35.1669C127.8 35.5221 127.617 35.8053 127.387 35.8053C127.157 35.8053 126.969 35.5221 126.969 35.1717C126.969 34.8213 127.152 34.5381 127.382 34.5381C127.613 34.5381 127.8 34.8405 127.8 35.1669Z" fill="#263238"/>
<path d="M123.83 35.1853C123.83 35.5309 123.647 35.8189 123.417 35.8189C123.187 35.8189 122.999 35.5357 122.999 35.1853C122.999 34.8349 123.182 34.5469 123.412 34.5469C123.643 34.5469 123.83 34.8397 123.83 35.1853Z" fill="#263238"/>
<path d="M129.293 33.1847C129.326 33.1738 129.357 33.1558 129.384 33.1319C129.413 33.0866 129.425 33.0318 129.416 32.9785C129.407 32.9252 129.378 32.8772 129.336 32.8439C129.073 32.6478 128.768 32.5173 128.445 32.463C128.122 32.4088 127.79 32.4324 127.478 32.5319C127.451 32.5403 127.426 32.5541 127.405 32.5726C127.383 32.591 127.366 32.6137 127.353 32.6392C127.341 32.6647 127.334 32.6924 127.333 32.7207C127.332 32.749 127.337 32.7772 127.347 32.8036C127.357 32.83 127.373 32.854 127.392 32.8741C127.412 32.8942 127.436 32.91 127.462 32.9206C127.489 32.9311 127.517 32.9361 127.545 32.9353C127.573 32.9345 127.601 32.9279 127.627 32.9159C127.875 32.8407 128.138 32.8254 128.393 32.8713C128.648 32.9172 128.889 33.0229 129.096 33.1799C129.126 33.197 129.159 33.2064 129.194 33.2072C129.228 33.2081 129.262 33.2003 129.293 33.1847Z" fill="#263238"/>
<path d="M122.006 33.1981C122.035 33.2154 122.068 33.2246 122.102 33.2246C122.136 33.2246 122.169 33.2154 122.198 33.1981C122.401 33.0456 122.637 32.9425 122.887 32.8967C123.137 32.8508 123.394 32.8637 123.638 32.9341C123.663 32.944 123.69 32.9488 123.717 32.9481C123.744 32.9474 123.771 32.9413 123.795 32.9301C123.82 32.9189 123.842 32.9028 123.861 32.8829C123.879 32.863 123.893 32.8396 123.902 32.8141C123.912 32.7892 123.917 32.7626 123.917 32.7358C123.916 32.7089 123.911 32.6824 123.9 32.6579C123.889 32.6333 123.874 32.6111 123.854 32.5926C123.835 32.5741 123.812 32.5596 123.787 32.5501C123.474 32.4494 123.142 32.4251 122.818 32.4794C122.494 32.5337 122.187 32.6649 121.924 32.8621C121.882 32.8929 121.852 32.9394 121.844 32.9915C121.835 33.0435 121.846 33.097 121.876 33.1405C121.911 33.1751 121.957 33.1956 122.006 33.1981Z" fill="#263238"/>
<path d="M134.486 35.8004C134.174 35.492 133.803 35.2485 133.396 35.0837C132.99 34.919 132.554 34.8363 132.115 34.8404H130.128C130.091 34.3105 129.857 33.8134 129.473 33.4467C129.089 33.0799 128.581 32.87 128.05 32.858C127.519 32.846 127.002 33.0328 126.602 33.3817C126.201 33.7307 125.946 34.2167 125.885 34.7444C125.809 34.7122 125.727 34.6956 125.645 34.6956C125.562 34.6956 125.481 34.7122 125.405 34.7444C125.364 34.2044 125.116 33.701 124.712 33.3401C124.309 32.9792 123.781 32.7889 123.24 32.8091C122.698 32.8293 122.186 33.0584 121.81 33.4484C121.435 33.8384 121.225 34.3589 121.225 34.9004C121.225 35.4419 121.435 35.9624 121.81 36.3524C122.186 36.7424 122.698 36.9716 123.24 36.9918C123.781 37.012 124.309 36.8216 124.712 36.4607C125.116 36.0998 125.364 35.5964 125.405 35.0564C125.466 35.0053 125.543 34.9772 125.623 34.9772C125.703 34.9772 125.78 35.0053 125.841 35.0564C125.859 35.6046 126.087 36.1249 126.479 36.5091C126.87 36.8933 127.394 37.1119 127.943 37.1193C128.491 37.1267 129.021 36.9224 129.423 36.5489C129.825 36.1755 130.067 35.6615 130.099 35.114H132.12C132.524 35.1133 132.924 35.1927 133.297 35.3476C133.671 35.5024 134.009 35.7298 134.294 36.0164L134.937 36.6596L135.129 36.4628L134.486 35.8004ZM123.302 36.8228C122.933 36.8238 122.571 36.7151 122.264 36.5105C121.956 36.3059 121.716 36.0146 121.574 35.6735C121.432 35.3324 121.394 34.9568 121.466 34.5943C121.537 34.2318 121.714 33.8986 121.975 33.637C122.236 33.3754 122.569 33.1971 122.931 33.1247C123.294 33.0522 123.669 33.0889 124.011 33.2301C124.352 33.3713 124.644 33.6106 124.85 33.9178C125.055 34.2249 125.165 34.5861 125.165 34.9556C125.161 35.4475 124.963 35.918 124.614 36.2649C124.266 36.6119 123.794 36.8072 123.302 36.8084V36.8228ZM128.001 36.8228C127.632 36.8228 127.271 36.7133 126.964 36.5081C126.657 36.303 126.418 36.0114 126.276 35.6702C126.135 35.329 126.098 34.9535 126.17 34.5913C126.242 34.2291 126.42 33.8964 126.681 33.6353C126.942 33.3742 127.275 33.1963 127.637 33.1243C127.999 33.0522 128.375 33.0892 128.716 33.2306C129.057 33.3719 129.349 33.6112 129.554 33.9183C129.759 34.2253 129.869 34.5863 129.869 34.9556C129.865 35.4483 129.666 35.9196 129.317 36.2666C128.967 36.6137 128.494 36.8084 128.001 36.8084V36.8228Z" fill="#7694FF"/>
<path d="M134.04 27.8659C133.556 27.085 132.893 26.431 132.106 25.9584C131.319 25.4858 130.43 25.2083 129.513 25.1491C128.222 25.0819 126.816 25.4323 125.712 24.7603C125.308 24.5107 124.987 24.1459 124.598 23.8771C124.414 23.7261 124.193 23.6262 123.958 23.5874C123.723 23.5487 123.482 23.5724 123.259 23.6563C122.529 24.0636 121.941 24.6852 121.575 25.4372C121.21 26.1891 121.084 27.0352 121.214 27.8611C121.416 28.612 121.812 29.2969 122.361 29.8476C122.91 30.3984 123.593 30.7957 124.344 31.0003C126.297 31.5187 128.414 30.9091 130.406 31.2595C131.476 31.4467 132.168 32.6323 132.436 33.6883C132.484 33.8707 132.768 34.1251 132.892 34.2691C132.892 35.1811 132.892 36.3043 132.892 37.2163C133.09 36.7877 133.414 36.4297 133.82 36.1903C134.227 35.9509 134.697 35.8416 135.168 35.8771L133.56 41.3155C135.547 39.1841 136.88 36.5267 137.4 33.6595C137.62 32.39 137.492 31.0846 137.03 29.8819C136.801 29.278 136.39 28.7599 135.855 28.3989C135.319 28.0379 134.685 27.8517 134.04 27.8659Z" fill="#263238"/>
<path d="M136.67 37.9122C136.091 38.8309 135.174 39.4845 134.116 39.7314C132.71 40.0434 132.081 38.7714 132.537 37.4802C132.945 36.3282 134.169 34.7634 135.547 35.0226C136.924 35.2818 137.366 36.7602 136.67 37.9122Z" fill="#FFC3BD"/>
<path d="M125.501 35.1719C125.084 36.2465 124.522 37.2591 123.83 38.1815C124.469 38.7575 125.515 38.4887 125.515 38.4887L125.501 35.1719Z" fill="#ED847E"/>
<path opacity="0.1" d="M119.419 97.7676L119.64 99.3228L137.98 100.288V97.7676H119.419Z" fill="black"/>
<path d="M126.585 47.7715C126.585 47.7715 125.597 50.1283 128.165 50.4307C130.733 50.7331 135.96 47.7715 135.96 47.7715L137.069 48.0259C137.069 48.0259 137.04 52.2883 131.361 53.9299C131.361 53.9299 129.72 51.8083 128.083 51.7699C126.446 51.7315 124.281 53.4883 124.281 53.4883C124.281 53.4883 123.22 50.6803 125.98 47.8003L126.585 47.7715Z" fill="#7694FF"/>
<g opacity="0.2">
<path opacity="0.2" d="M126.585 47.7715C126.585 47.7715 125.597 50.1283 128.165 50.4307C130.733 50.7331 135.96 47.7715 135.96 47.7715L137.069 48.0259C137.069 48.0259 137.04 52.2883 131.361 53.9299C131.361 53.9299 129.72 51.8083 128.083 51.7699C126.446 51.7315 124.281 53.4883 124.281 53.4883C124.281 53.4883 123.22 50.6803 125.98 47.8003L126.585 47.7715Z" fill="black"/>
</g>
<path d="M126.585 47.7715C126.585 47.7715 122.985 49.2883 121.665 59.0083C120.345 68.7283 119.865 86.9683 120.225 95.4883C120.585 104.008 121.065 109.528 118.425 109.168C118.425 109.168 118.185 95.4883 118.425 80.2483C118.665 65.0083 117.105 48.0499 126.585 47.7715Z" fill="#7694FF"/>
<path opacity="0.8" d="M126.585 47.7715C126.585 47.7715 122.985 49.2883 121.665 59.0083C120.345 68.7283 119.865 86.9683 120.225 95.4883C120.585 104.008 121.065 109.528 118.425 109.168C118.425 109.168 118.185 95.4883 118.425 80.2483C118.665 65.0083 117.105 48.0499 126.585 47.7715Z" fill="white"/>
<path d="M137.4 47.7715C137.4 47.7715 133.08 50.1715 132.6 65.3683C132.12 80.5651 132.283 109.37 137.4 109.85C142.516 110.33 148.123 107.45 148.123 107.45C148.123 107.45 147.758 101.939 146.803 94.9699C146.001 89.1379 144.648 82.2835 144.12 76.7299C143.51 70.3363 147 52.7299 144.763 50.9683C142.526 49.2067 137.4 47.7715 137.4 47.7715Z" fill="#7694FF"/>
<path opacity="0.8" d="M137.4 47.7715C137.4 47.7715 133.08 50.1715 132.6 65.3683C132.12 80.5651 132.283 109.37 137.4 109.85C142.516 110.33 148.123 107.45 148.123 107.45C148.123 107.45 147.758 101.939 146.803 94.9699C146.001 89.1379 144.648 82.2835 144.12 76.7299C143.51 70.3363 147 52.7299 144.763 50.9683C142.526 49.2067 137.4 47.7715 137.4 47.7715Z" fill="white"/>
<path d="M135.014 88.7871L142.141 87.7627L142.27 88.6606C142.329 89.0727 142.222 89.4914 141.973 89.8246C141.724 90.1579 141.352 90.3784 140.94 90.4376L136.92 91.0154C136.508 91.0746 136.09 90.9677 135.756 90.7183C135.423 90.4688 135.203 90.0971 135.143 89.6851L135.014 88.7871Z" fill="#7694FF"/>
<path opacity="0.6" d="M135.014 88.7871L142.141 87.7627L142.27 88.6606C142.329 89.0727 142.222 89.4914 141.973 89.8246C141.724 90.1579 141.352 90.3784 140.94 90.4376L136.92 91.0154C136.508 91.0746 136.09 90.9677 135.756 90.7183C135.423 90.4688 135.203 90.0971 135.143 89.6851L135.014 88.7871Z" fill="white"/>
<path d="M131.736 83.67H121.56C121.367 83.6657 121.182 83.5919 121.039 83.4623C120.897 83.3327 120.805 83.1559 120.782 82.9644L119.136 67.3309C119.125 67.2419 119.133 67.1516 119.16 67.0661C119.187 66.9806 119.232 66.9019 119.292 66.8354C119.352 66.7689 119.426 66.7161 119.508 66.6807C119.591 66.6453 119.68 66.628 119.769 66.63H129.96C130.152 66.6333 130.337 66.706 130.48 66.8348C130.623 66.9637 130.714 67.1398 130.737 67.3309L132.379 82.9644C132.392 83.0548 132.385 83.1468 132.358 83.234C132.331 83.3211 132.285 83.4013 132.224 83.4687C132.162 83.5361 132.087 83.5891 132.002 83.6239C131.918 83.6588 131.827 83.6745 131.736 83.67Z" fill="#263238"/>
<path opacity="0.5" d="M131.736 83.67H121.56C121.367 83.6657 121.182 83.5919 121.039 83.4623C120.897 83.3327 120.805 83.1559 120.782 82.9644L119.136 67.3309C119.125 67.2419 119.133 67.1516 119.16 67.0661C119.187 66.9806 119.232 66.9019 119.292 66.8354C119.352 66.7689 119.426 66.7161 119.508 66.6807C119.591 66.6453 119.68 66.628 119.769 66.63H129.96C130.152 66.6333 130.337 66.706 130.48 66.8348C130.623 66.9637 130.714 67.1398 130.737 67.3309L132.379 82.9644C132.392 83.0548 132.385 83.1468 132.358 83.234C132.331 83.3211 132.285 83.4013 132.224 83.4687C132.162 83.5361 132.087 83.5891 132.002 83.6239C131.918 83.6588 131.827 83.6745 131.736 83.67Z" fill="white"/>
<path d="M126.201 67.8692H123.758C123.519 67.8617 123.291 67.769 123.115 67.6079C122.939 67.4467 122.826 67.2278 122.798 66.9908L122.644 65.5508H126.839L126.993 66.9908C127.008 67.1023 126.998 67.2156 126.965 67.3229C126.931 67.4303 126.875 67.5291 126.8 67.6126C126.724 67.6961 126.632 67.7623 126.528 67.8066C126.425 67.8509 126.313 67.8722 126.201 67.8692Z" fill="#263238"/>
<path opacity="0.7" d="M126.201 67.8692H123.758C123.519 67.8617 123.291 67.769 123.115 67.6079C122.939 67.4467 122.826 67.2278 122.798 66.9908L122.644 65.5508H126.839L126.993 66.9908C127.008 67.1023 126.998 67.2156 126.965 67.3229C126.931 67.4303 126.875 67.5291 126.8 67.6126C126.724 67.6961 126.632 67.7623 126.528 67.8066C126.425 67.8509 126.313 67.8722 126.201 67.8692Z" fill="white"/>
<path d="M130.425 66.6309H129.945C130.138 66.6341 130.322 66.7068 130.465 66.8357C130.608 66.9645 130.7 67.1407 130.723 67.3317L132.364 82.9653C132.377 83.0543 132.37 83.1451 132.344 83.2312C132.318 83.3173 132.273 83.3967 132.214 83.4638C132.154 83.531 132.08 83.5843 131.997 83.62C131.915 83.6558 131.826 83.6731 131.736 83.6709H132.216C132.306 83.6731 132.395 83.6558 132.477 83.62C132.56 83.5843 132.634 83.531 132.694 83.4638C132.753 83.3967 132.798 83.3173 132.824 83.2312C132.85 83.1451 132.857 83.0543 132.844 82.9653L131.203 67.3317C131.18 67.1407 131.088 66.9645 130.945 66.8357C130.802 66.7068 130.618 66.6341 130.425 66.6309Z" fill="#263238"/>
<path opacity="0.7" d="M130.425 66.6309H129.945C130.138 66.6341 130.322 66.7068 130.465 66.8357C130.608 66.9645 130.7 67.1407 130.723 67.3317L132.364 82.9653C132.377 83.0543 132.37 83.1451 132.344 83.2312C132.318 83.3173 132.273 83.3967 132.214 83.4638C132.154 83.531 132.08 83.5843 131.997 83.62C131.915 83.6558 131.826 83.6731 131.736 83.6709H132.216C132.306 83.6731 132.395 83.6558 132.477 83.62C132.56 83.5843 132.634 83.531 132.694 83.4638C132.753 83.3967 132.798 83.3173 132.824 83.2312C132.85 83.1451 132.857 83.0543 132.844 82.9653L131.203 67.3317C131.18 67.1407 131.088 66.9645 130.945 66.8357C130.802 66.7068 130.618 66.6341 130.425 66.6309Z" fill="white"/>
<path d="M141.1 73.1014L135.422 74.383L132.907 72.8854C132.618 72.7156 132.279 72.6495 131.947 72.6982L129.902 72.9958C129.677 73.0274 129.463 73.1117 129.277 73.2419C129.091 73.372 128.938 73.5443 128.832 73.7446L128.352 74.5798C128.191 74.8724 128.136 75.2117 128.198 75.5398L128.357 76.4998C128.401 76.7818 128.529 77.0441 128.723 77.2535C128.917 77.4629 129.168 77.6099 129.446 77.6758L132.897 78.5302C133.168 78.599 133.454 78.5873 133.718 78.4966L136.118 77.6854L142.997 76.8838L141.1 73.1014Z" fill="#7694FF"/>
<path opacity="0.3" d="M141.1 73.1014L135.422 74.383L132.907 72.8854C132.618 72.7156 132.279 72.6495 131.947 72.6982L129.902 72.9958C129.677 73.0274 129.463 73.1117 129.277 73.2419C129.091 73.372 128.938 73.5443 128.832 73.7446L128.352 74.5798C128.191 74.8724 128.136 75.2117 128.198 75.5398L128.357 76.4998C128.401 76.7818 128.529 77.0441 128.723 77.2535C128.917 77.4629 129.168 77.6099 129.446 77.6758L132.897 78.5302C133.168 78.599 133.454 78.5873 133.718 78.4966L136.118 77.6854L142.997 76.8838L141.1 73.1014Z" fill="white"/>
<path d="M141.091 76.783C141.184 77.0987 141.384 77.3718 141.658 77.5543C141.932 77.7368 142.261 77.8172 142.589 77.7814C144.389 77.5942 147.782 76.8982 150.225 74.3686C153.705 70.7686 148.877 57.0406 146.985 53.6086C144.873 49.7686 141.6 49.2165 141.6 49.2165C137.385 47.7765 137.985 51.6886 139.2 56.4886C140.414 61.2886 144.96 68.2486 145.08 69.5686C145.157 70.4182 142.56 71.4117 140.692 72.0165C140.491 72.0809 140.307 72.1898 140.154 72.335C140.001 72.4802 139.882 72.6581 139.807 72.8555C139.732 73.0528 139.702 73.2646 139.72 73.475C139.738 73.6854 139.803 73.8891 139.91 74.0709C140.415 74.9225 140.811 75.8335 141.091 76.783Z" fill="#7694FF"/>
<path opacity="0.6" d="M141.091 76.783C141.184 77.0987 141.384 77.3718 141.658 77.5543C141.932 77.7368 142.261 77.8172 142.589 77.7814C144.389 77.5942 147.782 76.8982 150.225 74.3686C153.705 70.7686 148.877 57.0406 146.985 53.6086C144.873 49.7686 141.6 49.2165 141.6 49.2165C137.385 47.7765 137.985 51.6886 139.2 56.4886C140.414 61.2886 144.96 68.2486 145.08 69.5686C145.157 70.4182 142.56 71.4117 140.692 72.0165C140.491 72.0809 140.307 72.1898 140.154 72.335C140.001 72.4802 139.882 72.6581 139.807 72.8555C139.732 73.0528 139.702 73.2646 139.72 73.475C139.738 73.6854 139.803 73.8891 139.91 74.0709C140.415 74.9225 140.811 75.8335 141.091 76.783Z" fill="white"/>
<path d="M99.3933 48.0977H97.4733C97.1941 48.0989 96.9267 48.2108 96.7297 48.4087C96.5327 48.6066 96.4221 48.8744 96.4221 49.1537C96.4224 49.3458 96.4753 49.5342 96.5752 49.6984C96.6751 49.8626 96.818 49.9962 96.9885 50.0849V67.0529C96.9885 67.2117 97.0198 67.369 97.0806 67.5158C97.1414 67.6625 97.2305 67.7959 97.3428 67.9082C97.4551 68.0205 97.5885 68.1096 97.7352 68.1704C97.882 68.2312 98.0393 68.2625 98.1981 68.2625H98.6781C98.9989 68.2625 99.3066 68.135 99.5334 67.9082C99.7603 67.6813 99.8877 67.3737 99.8877 67.0529V50.0993C100.058 50.0106 100.201 49.877 100.301 49.7128C100.401 49.5486 100.454 49.3602 100.454 49.1681C100.456 49.0278 100.43 48.8885 100.377 48.7584C100.325 48.6283 100.247 48.51 100.148 48.4103C100.05 48.3107 99.9319 48.2317 99.8023 48.178C99.6726 48.1243 99.5336 48.097 99.3933 48.0977Z" fill="#7694FF"/>
<path opacity="0.6" d="M99.3933 48.0977H97.4733C97.1941 48.0989 96.9267 48.2108 96.7297 48.4087C96.5327 48.6066 96.4221 48.8744 96.4221 49.1537C96.4224 49.3458 96.4753 49.5342 96.5752 49.6984C96.6751 49.8626 96.818 49.9962 96.9885 50.0849V67.0529C96.9885 67.2117 97.0198 67.369 97.0806 67.5158C97.1414 67.6625 97.2305 67.7959 97.3428 67.9082C97.4551 68.0205 97.5885 68.1096 97.7352 68.1704C97.882 68.2312 98.0393 68.2625 98.1981 68.2625H98.6781C98.9989 68.2625 99.3066 68.135 99.5334 67.9082C99.7603 67.6813 99.8877 67.3737 99.8877 67.0529V50.0993C100.058 50.0106 100.201 49.877 100.301 49.7128C100.401 49.5486 100.454 49.3602 100.454 49.1681C100.456 49.0278 100.43 48.8885 100.377 48.7584C100.325 48.6283 100.247 48.51 100.148 48.4103C100.05 48.3107 99.9319 48.2317 99.8023 48.178C99.6726 48.1243 99.5336 48.097 99.3933 48.0977Z" fill="white"/>
<path d="M96.8157 48.3281C97.8599 48.6928 98.997 48.6928 100.041 48.3281C99.857 48.1811 99.6289 48.1 99.3933 48.0977H97.4733C97.2343 48.0978 97.0025 48.1791 96.8157 48.3281Z" fill="#7694FF"/>
<path d="M98.4285 58.0673C97.9485 58.0673 97.5261 57.9377 97.5165 57.7793V67.0673C97.5165 67.2455 97.5873 67.4164 97.7133 67.5425C97.8393 67.6685 98.0103 67.7393 98.1885 67.7393H98.6685C98.8467 67.7393 99.0176 67.6685 99.1436 67.5425C99.2697 67.4164 99.3405 67.2455 99.3405 67.0673V57.7793C99.3309 57.9377 98.9277 58.0673 98.4285 58.0673Z" fill="#7694FF"/>
<path d="M99.3405 57.7752C99.3405 57.9384 98.9325 58.068 98.4285 58.068C97.9245 58.068 97.5165 57.9384 97.5165 57.7752C97.5165 57.612 97.9245 57.4824 98.4285 57.4824C98.9325 57.4824 99.3405 57.612 99.3405 57.7752Z" fill="#7694FF"/>
<path opacity="0.3" d="M99.3405 57.7752C99.3405 57.9384 98.9325 58.068 98.4285 58.068C97.9245 58.068 97.5165 57.9384 97.5165 57.7752C97.5165 57.612 97.9245 57.4824 98.4285 57.4824C98.9325 57.4824 99.3405 57.612 99.3405 57.7752Z" fill="black"/>
<g opacity="0.8">
<path opacity="0.8" d="M97.5067 50.2004V67.0484C97.5067 67.1197 97.535 67.1881 97.5854 67.2385C97.6359 67.2889 97.7042 67.3172 97.7755 67.3172C97.8468 67.3172 97.9152 67.2889 97.9656 67.2385C98.016 67.1881 98.0443 67.1197 98.0443 67.0484V50.2004C98.0443 50.1291 98.016 50.0608 97.9656 50.0104C97.9152 49.96 97.8468 49.9316 97.7755 49.9316C97.7042 49.9316 97.6359 49.96 97.5854 50.0104C97.535 50.0608 97.5067 50.1291 97.5067 50.2004Z" fill="white"/>
</g>
<path d="M126.36 40.4899C126.747 40.4039 127.113 40.2399 127.435 40.008C127.756 39.7761 128.028 39.4812 128.232 39.1411C128.243 39.1166 128.244 39.089 128.237 39.0634C128.229 39.0377 128.212 39.0159 128.189 39.0019C128.165 38.9901 128.138 38.988 128.113 38.996C128.088 39.0041 128.067 39.0217 128.054 39.0451C127.828 39.4115 127.52 39.7208 127.154 39.9488C126.789 40.1769 126.376 40.3177 125.947 40.3603C125.932 40.357 125.916 40.3571 125.9 40.3607C125.885 40.3644 125.871 40.3714 125.858 40.3813C125.846 40.3912 125.836 40.4037 125.829 40.4179C125.823 40.4322 125.819 40.4477 125.819 40.4635C125.819 40.4793 125.823 40.4948 125.829 40.5091C125.836 40.5233 125.846 40.5358 125.858 40.5457C125.871 40.5556 125.885 40.5626 125.9 40.5663C125.916 40.5699 125.932 40.57 125.947 40.5667C126.086 40.5492 126.224 40.5236 126.36 40.4899Z" fill="#263238"/>
<path d="M37.1954 93.3996C36.8786 93.3612 27.701 94.2635 27.1154 104.104L28.685 110.915C36.106 108.164 44.2855 108.275 51.629 111.227L51.7346 111.27L51.0818 103.48C51.0818 103.48 48.7442 94.7388 37.1954 93.3996Z" fill="#7694FF"/>
<path d="M56.4673 140.886L54.6241 141.045C53.9508 129.341 52.6288 117.683 50.6641 106.125C50.3104 104.257 49.5894 102.478 48.543 100.891C47.4965 99.3043 46.1455 97.9409 44.5681 96.88C43.9017 96.3993 43.1756 96.0072 42.4081 95.7136C40.9974 95.1093 39.4833 94.7833 37.9489 94.7536C37.3258 94.7537 36.7035 94.797 36.0865 94.8832C34.6941 95.097 33.3653 95.6131 32.1937 96.3952C31.6445 96.8155 31.1189 97.2658 30.6193 97.744C30.3601 98.0189 30.1196 98.3107 29.8993 98.6176C29.0898 99.779 28.5317 101.096 28.2606 102.486C27.9895 103.875 28.0114 105.306 28.3249 106.686C30.2787 117.252 31.6424 127.918 32.4097 138.635L30.5665 138.76C29.8066 128.125 28.4557 117.541 26.5201 107.056C26.1517 105.423 26.1292 103.73 26.4541 102.088C26.779 100.445 27.444 98.8886 28.4065 97.5184C29.3574 96.1811 30.5916 95.07 32.0212 94.2644C33.4507 93.4587 35.0404 92.9784 36.6769 92.8576C43.8769 92.3776 51.3697 98.2288 52.4785 105.736C54.4551 117.37 55.7868 129.105 56.4673 140.886Z" fill="#263238"/>
<path opacity="0.3" d="M56.4673 140.886L54.6241 141.045C53.9508 129.341 52.6288 117.683 50.6641 106.125C50.3104 104.257 49.5894 102.478 48.543 100.891C47.4965 99.3043 46.1455 97.9409 44.5681 96.88C43.9017 96.3993 43.1756 96.0072 42.4081 95.7136C40.9974 95.1093 39.4833 94.7833 37.9489 94.7536C37.3258 94.7537 36.7035 94.797 36.0865 94.8832C34.6941 95.097 33.3653 95.6131 32.1937 96.3952C31.6445 96.8155 31.1189 97.2658 30.6193 97.744C30.3601 98.0189 30.1196 98.3107 29.8993 98.6176C29.0898 99.779 28.5317 101.096 28.2606 102.486C27.9895 103.875 28.0114 105.306 28.3249 106.686C30.2787 117.252 31.6424 127.918 32.4097 138.635L30.5665 138.76C29.8066 128.125 28.4557 117.541 26.5201 107.056C26.1517 105.423 26.1292 103.73 26.4541 102.088C26.779 100.445 27.444 98.8886 28.4065 97.5184C29.3574 96.1811 30.5916 95.07 32.0212 94.2644C33.4507 93.4587 35.0404 92.9784 36.6769 92.8576C43.8769 92.3776 51.3697 98.2288 52.4785 105.736C54.4551 117.37 55.7868 129.105 56.4673 140.886Z" fill="white"/>
<path d="M34.0416 135.266H69.4032C70.3363 135.266 71.2313 135.636 71.8911 136.296C72.5509 136.956 72.9216 137.851 72.9216 138.784V139.768H30.5232V138.784C30.5232 137.851 30.8939 136.956 31.5537 136.296C32.2135 135.636 33.1085 135.266 34.0416 135.266Z" fill="#7694FF"/>
<path d="M31.9585 176.809H29.7025L31.5457 139.772H34.4161L31.9585 176.809Z" fill="#263238"/>
<path opacity="0.3" d="M31.9585 176.809H29.7025L31.5457 139.772H34.4161L31.9585 176.809Z" fill="white"/>
<path d="M47.0112 176.809H44.76L45.9888 139.772H48.8544L47.0112 176.809Z" fill="#263238"/>
<path opacity="0.3" d="M47.0112 176.809H44.76L45.9888 139.772H48.8544L47.0112 176.809Z" fill="white"/>
<path d="M58.6898 176.809H56.4338L54.5906 139.772H57.461L58.6898 176.809Z" fill="#263238"/>
<path opacity="0.3" d="M58.6898 176.809H56.4338L54.5906 139.772H57.461L58.6898 176.809Z" fill="white"/>
<path d="M73.7427 176.809H71.4915L69.0339 139.772H71.8995L73.7427 176.809Z" fill="#263238"/>
<path opacity="0.3" d="M73.7427 176.809H71.4915L69.0339 139.772H71.8995L73.7427 176.809Z" fill="white"/>
<path d="M74.7697 138.136H49.5745V141.414H74.7697V138.136Z" fill="#7694FF"/>
<path opacity="0.7" d="M74.7697 138.136H49.5745V141.414H74.7697V138.136Z" fill="white"/>
<path d="M49.5745 138.136H28.6705V141.414H49.5745V138.136Z" fill="#7694FF"/>
<path opacity="0.4" d="M49.5745 138.136H28.6705V141.414H49.5745V138.136Z" fill="white"/>
<path d="M87.6243 173.439L91.6755 172.988L92.8515 163.35L87.3651 164.017L87.6243 173.439Z" fill="#FFB573"/>
<path d="M92.0067 171.693L87.2595 171.313C87.1807 171.301 87.1001 171.319 87.0347 171.365C86.9693 171.411 86.9242 171.48 86.9091 171.558V171.587L86.3715 175.321C86.3568 175.52 86.4205 175.716 86.5488 175.867C86.6772 176.019 86.86 176.114 87.0579 176.133C88.7091 176.233 89.4051 176.205 91.4979 176.224C92.7891 176.224 95.8659 176.224 97.6371 176.032C99.4083 175.84 99.1491 174.083 98.3811 174.016C96.5619 173.853 93.8163 173.056 92.6979 172.024C92.5092 171.842 92.2668 171.726 92.0067 171.693Z" fill="#263238"/>
<path opacity="0.2" d="M87.3651 164.026L92.8515 163.35L92.1939 168.721L87.5043 168.745L87.3651 164.026Z" fill="black"/>
<path d="M61.3395 118.062C61.3395 118.062 93.4995 118.696 94.7955 130.783C95.0653 142.077 94.4893 153.376 93.0723 164.584L87.0627 165.338C87.0627 165.338 83.8563 144.309 85.0419 134.138C76.2819 132.558 51.9219 135.175 48.6435 128.339C45.9507 122.762 46.7523 119.459 46.7523 119.459L61.3395 118.062Z" fill="#263238"/>
<path d="M94.258 172.389C94.3288 172.325 94.3812 172.243 94.4099 172.152C94.4386 172.061 94.4425 171.964 94.4212 171.87C94.4152 171.807 94.393 171.747 94.3569 171.695C94.3208 171.643 94.2718 171.601 94.2148 171.573C93.706 171.318 92.4532 172.053 92.2948 172.13C92.2771 172.137 92.2621 172.149 92.2515 172.165C92.2409 172.181 92.2352 172.199 92.2352 172.218C92.2352 172.237 92.2409 172.256 92.2515 172.272C92.2621 172.288 92.2771 172.3 92.2948 172.307C92.6552 172.432 93.0289 172.514 93.4084 172.552C93.702 172.609 94.0063 172.551 94.258 172.389ZM94.1332 171.746C94.1613 171.76 94.1847 171.782 94.2009 171.809C94.217 171.837 94.2251 171.868 94.2244 171.899C94.2406 171.959 94.2402 172.023 94.2233 172.083C94.2064 172.143 94.1736 172.197 94.1284 172.24C93.9124 172.422 93.3556 172.403 92.6116 172.192C93.1252 171.918 93.8596 171.64 94.1332 171.746Z" fill="#7694FF"/>
<path d="M92.4195 172.293C92.8563 172.072 93.5619 171.251 93.4995 170.776C93.4874 170.693 93.4484 170.617 93.3885 170.559C93.3286 170.501 93.2513 170.464 93.1683 170.454C93.0906 170.434 93.0091 170.433 92.9311 170.453C92.8531 170.472 92.7812 170.51 92.7219 170.565C92.2659 170.944 92.2419 172.163 92.2419 172.216C92.2423 172.233 92.2468 172.25 92.2552 172.265C92.2636 172.28 92.2755 172.293 92.2899 172.302H92.3331L92.4195 172.293ZM93.1011 170.641C93.2451 170.67 93.2691 170.742 93.2787 170.8C93.3219 171.107 92.8467 171.76 92.4531 172.024C92.4531 171.621 92.5635 170.929 92.8371 170.704C92.8673 170.678 92.9025 170.659 92.9405 170.647C92.9785 170.636 93.0185 170.632 93.0579 170.637C93.0579 170.637 93.0963 170.68 93.1011 170.641Z" fill="#7694FF"/>
<path opacity="0.3" d="M85.8625 155.963C87.1633 150.529 90.4849 132.299 89.5729 129.083C88.4113 124.95 71.4961 123.179 71.4961 123.179C71.4961 123.179 77.3857 125.756 81.5425 133.792C83.1821 137.001 84.3155 140.445 84.9025 144.001C85.4033 146.996 85.6234 150.032 85.5601 153.068L85.8625 155.963Z" fill="black"/>
<path d="M77.8564 173.146L81.9652 173.266L83.242 163.637L77.4052 163.397L77.8564 173.146Z" fill="#FFB573"/>
<path d="M82.1187 172.048L77.3619 172.024C77.2812 172.02 77.2022 172.048 77.142 172.102C77.0818 172.156 77.0453 172.231 77.0403 172.312L76.7907 176.075C76.7881 176.274 76.8644 176.466 77.0029 176.609C77.1414 176.752 77.3309 176.834 77.5299 176.838C79.1859 176.79 79.9827 176.723 82.0755 176.713C83.3619 176.713 85.9155 176.843 87.6531 176.569C89.3907 176.296 89.0931 174.568 88.3299 174.525C86.5107 174.424 84.0387 173.233 82.8435 172.288C82.6347 172.131 82.3801 172.046 82.1187 172.048Z" fill="#263238"/>
<path d="M84.4131 172.571C84.4793 172.502 84.5257 172.416 84.5476 172.322C84.5695 172.228 84.5662 172.131 84.5379 172.039C84.5252 171.976 84.4976 171.918 84.4575 171.869C84.4174 171.819 84.3659 171.781 84.3075 171.755C83.7939 171.539 82.5891 172.37 82.4547 172.461C82.4341 172.476 82.4203 172.498 82.4163 172.523C82.4134 172.536 82.4131 172.548 82.4151 172.561C82.4172 172.573 82.4217 172.585 82.4284 172.596C82.4351 172.607 82.4438 172.616 82.4541 172.623C82.4644 172.631 82.476 172.636 82.4883 172.639C82.8577 172.73 83.2359 172.782 83.6163 172.792C83.9005 172.825 84.1861 172.745 84.4131 172.571ZM84.2403 171.947C84.2692 171.958 84.2948 171.976 84.3142 171.999C84.3337 172.023 84.3463 172.052 84.3507 172.082C84.3696 172.143 84.3724 172.207 84.359 172.27C84.3455 172.332 84.3162 172.389 84.2739 172.437C84.0915 172.629 83.5203 172.648 82.7619 172.499C83.2563 172.183 83.9619 171.832 84.2403 171.947Z" fill="#7694FF"/>
<path d="M82.5843 172.638C83.0067 172.388 83.6451 171.486 83.5443 171.049C83.5263 170.966 83.4811 170.891 83.416 170.836C83.3508 170.782 83.2693 170.75 83.1843 170.747C83.106 170.731 83.0251 170.735 82.9489 170.759C82.8726 170.782 82.8034 170.824 82.7475 170.881C82.3155 171.294 82.4067 172.513 82.4115 172.566C82.4116 172.582 82.4161 172.597 82.4246 172.611C82.4331 172.625 82.4452 172.636 82.4595 172.643C82.4735 172.647 82.4887 172.647 82.5027 172.643C82.5298 172.649 82.5582 172.648 82.5843 172.638ZM83.1603 170.919C83.3043 170.919 83.3427 171.011 83.3475 171.068C83.4099 171.371 82.9875 172.028 82.6131 172.345C82.6131 171.951 82.6419 171.255 82.9011 171.011C82.9284 170.982 82.9612 170.96 82.9976 170.945C83.034 170.93 83.073 170.923 83.1123 170.924L83.1603 170.919Z" fill="#7694FF"/>
<path opacity="0.2" d="M76.8771 163.23L83.5875 162.582L82.5075 169.153L77.6739 169.201L76.8771 163.23Z" fill="black"/>
<path d="M55.013 118.585C55.013 118.585 86.5202 123.159 86.2802 132.361C87.2402 143.511 83.7458 166.791 83.7458 166.791L76.5746 166.878C76.5746 166.878 74.141 149.478 74.525 135.827C66.6866 136.59 46.4834 135.265 45.389 133.638C40.7426 128.838 42.749 119.799 42.749 119.799L55.013 118.585Z" fill="#263238"/>
<path d="M75.9604 167.527L84.0196 167.459L84.7876 163.634L75.5236 163.701L75.9604 167.527Z" fill="#7694FF"/>
<path d="M59.1603 91.2253C59.2899 91.9597 59.4099 92.5933 59.5587 93.2653C59.7075 93.9373 59.8563 94.5709 60.0387 95.2477C60.3747 96.5485 60.7683 97.8397 61.2051 99.1645C62.0777 101.898 63.3162 104.501 64.8867 106.902C65.352 107.576 65.8739 108.208 66.4467 108.793C67.0872 109.453 67.8215 110.014 68.6259 110.459C70.1631 111.278 71.8863 111.685 73.6275 111.64C75.1611 111.591 76.6767 111.294 78.1155 110.761C78.7937 110.511 79.4571 110.223 80.1027 109.897C80.4342 109.741 80.7549 109.563 81.0627 109.365C81.3699 109.158 81.6531 108.99 82.0227 108.755L80.5827 105.923L79.7523 106.11L78.8787 106.283C78.2931 106.389 77.7123 106.48 77.1267 106.533C76.0586 106.657 74.9789 106.639 73.9155 106.48C72.6742 106.336 71.5377 105.715 70.7475 104.747C70.4469 104.371 70.1726 103.975 69.9267 103.561C69.3653 102.596 68.8837 101.586 68.4867 100.542C68.0451 99.4621 67.6659 98.3197 67.3059 97.1533C66.9459 95.9869 66.6339 94.8061 66.3171 93.6157L65.8803 91.8157C65.7411 91.2253 65.5923 90.5917 65.4867 90.0781L59.1603 91.2253Z" fill="#FFB573"/>
<path opacity="0.2" d="M62.5203 93.4523C61.7619 92.8907 60.0435 95.9147 59.1603 99.5243C59.6403 100.811 60.1491 102.044 60.6627 103.201L66.4467 101.406C65.6355 97.9643 64.2243 94.7147 62.5203 93.4523Z" fill="black"/>
<path d="M81.0722 104.527L83.1938 103.476L83.7458 108.136C83.7458 108.136 80.2034 110.095 79.2722 108.333L79.421 107.138C79.5004 106.612 79.6882 106.108 79.9724 105.659C80.2567 105.21 80.6312 104.824 81.0722 104.527Z" fill="#FFB573"/>
<path d="M85.8052 103.345L87.4852 107.137L83.7268 108.135L83.1748 103.474L85.8052 103.345Z" fill="#FFB573"/>
<path d="M66.1877 88.5518C66.261 92.4271 65.5152 96.2742 63.9989 99.8414C64.8341 101.464 64.8197 103.288 65.3285 105.04C65.8373 106.792 66.4421 108.549 67.5653 109.984C68.6885 111.419 70.4165 112.489 72.2357 112.384C71.9849 111.204 71.9298 109.991 72.0725 108.793C72.111 108.152 72.2953 107.527 72.6114 106.967C72.9274 106.408 73.3669 105.927 73.8965 105.563C72.9707 104.903 72.1307 104.131 71.3957 103.264C71.3957 103.264 69.4229 94.6814 68.0357 90.4574C67.7237 89.5598 67.1237 88.6622 66.1877 88.5518Z" fill="#7694FF"/>
<path opacity="0.8" d="M66.1877 88.5518C66.261 92.4271 65.5152 96.2742 63.9989 99.8414C64.8341 101.464 64.8197 103.288 65.3285 105.04C65.8373 106.792 66.4421 108.549 67.5653 109.984C68.6885 111.419 70.4165 112.489 72.2357 112.384C71.9849 111.204 71.9298 109.991 72.0725 108.793C72.111 108.152 72.2953 107.527 72.6114 106.967C72.9274 106.408 73.3669 105.927 73.8965 105.563C72.9707 104.903 72.1307 104.131 71.3957 103.264C71.3957 103.264 69.4229 94.6814 68.0357 90.4574C67.7237 89.5598 67.1237 88.6622 66.1877 88.5518Z" fill="white"/>
<path d="M58.8339 84.6013L54.0051 83.7373L47.9331 84.0445C47.0117 84.0899 46.1307 84.4368 45.4257 85.0317C44.7206 85.6266 44.2305 86.4367 44.0307 87.3373C43.2243 90.9757 42.6675 96.1501 42.3123 100.614C41.9139 105.625 42.1923 113.094 42.7491 119.814L63.0483 118.125C63.9027 100.499 65.4483 95.0845 65.7747 90.4189C65.8446 89.5043 65.6124 88.592 65.1139 87.822C64.6153 87.0521 63.8778 86.467 63.0147 86.1565L58.8339 84.6013Z" fill="#7694FF"/>
<path d="M58.8339 84.6013L54.0051 83.7373L47.9331 84.0445C47.0117 84.0899 46.1307 84.4368 45.4257 85.0317C44.7206 85.6266 44.2305 86.4367 44.0307 87.3373C43.2243 90.9757 42.6675 96.1501 42.3123 100.614C41.9139 105.625 42.1923 113.094 42.7491 119.814L63.0483 118.125C63.9027 100.499 65.4483 95.0845 65.7747 90.4189C65.8446 89.5043 65.6124 88.592 65.1139 87.822C64.6153 87.0521 63.8778 86.467 63.0147 86.1565L58.8339 84.6013Z" fill="#7694FF"/>
<path opacity="0.3" d="M46.0613 85.7489C50.1173 85.1921 49.5749 94.3361 47.5013 100.965C46.8965 102.885 44.6213 101.987 43.8773 101.445C41.4005 99.7025 40.9445 88.4849 46.0613 85.7489Z" fill="black"/>
<path d="M61.6948 84.9805C64.6132 88.9021 64.1956 99.8605 61.5364 118.062C61.5364 118.062 69.6964 119.502 71.3956 120.4C73.1643 120.126 74.9534 120.007 76.7428 120.044C74.0692 117.332 69.0628 116.368 65.2228 116.267C66.6244 104.857 68.5252 98.4157 67.282 89.7853C66.9508 87.3565 64.0228 85.7629 61.6948 84.9805Z" fill="#7694FF"/>
<path d="M49.8435 83.9922C51.9446 82.7025 54.4292 82.1848 56.8706 82.5282C59.3119 82.8716 61.5573 84.0546 63.2211 85.8738C58.8387 85.0866 54.2931 84.2322 49.8435 83.9922Z" fill="#7694FF"/>
<path opacity="0.8" d="M49.8435 83.9922C51.9446 82.7025 54.4292 82.1848 56.8706 82.5282C59.3119 82.8716 61.5573 84.0546 63.2211 85.8738C58.8387 85.0866 54.2931 84.2322 49.8435 83.9922Z" fill="white"/>
<g opacity="0.8">
<path opacity="0.8" d="M61.6948 84.9805C64.6132 88.9021 64.1956 99.8605 61.5364 118.062C61.5364 118.062 69.6964 119.502 71.3956 120.4C73.1643 120.126 74.9534 120.007 76.7428 120.044C74.0692 117.332 69.0628 116.368 65.2228 116.267C66.6244 104.857 68.5252 98.4157 67.282 89.7853C66.9508 87.3565 64.0228 85.7629 61.6948 84.9805Z" fill="white"/>
</g>
<path d="M43.546 132.357C43.5219 131.371 43.8389 130.406 44.4436 129.626C45.0475 128.857 45.7018 128.129 46.402 127.447C48.25 125.474 50.242 122.968 50.9716 120.367C52.8196 113.786 53.7604 106.879 54.3028 100.063C54.7047 94.3225 53.6841 88.5718 51.3316 83.3203L45.1732 83.8675C44.2516 83.9539 43.5076 84.7939 43.0324 85.5859C44.8468 92.9923 44.4724 100.975 42.4372 108.324C41.386 112.106 39.8356 115.74 38.746 119.512C37.6564 123.285 37.0372 127.308 37.8916 131.143C38.266 132.828 39.6532 134.503 40.9492 135.66C41.8756 136.476 43.4884 136.183 44.722 136.192C44.0733 135.772 43.5771 135.153 43.3066 134.429C43.0361 133.705 43.0056 132.913 43.2196 132.17C43.2676 132.088 43.5556 132.463 43.546 132.357Z" fill="#7694FF"/>
<path opacity="0.8" d="M43.546 132.357C43.5219 131.371 43.8389 130.406 44.4436 129.626C45.0475 128.857 45.7018 128.129 46.402 127.447C48.25 125.474 50.242 122.968 50.9716 120.367C52.8196 113.786 53.7604 106.879 54.3028 100.063C54.7047 94.3225 53.6841 88.5718 51.3316 83.3203L45.1732 83.8675C44.2516 83.9539 43.5076 84.7939 43.0324 85.5859C44.8468 92.9923 44.4724 100.975 42.4372 108.324C41.386 112.106 39.8356 115.74 38.746 119.512C37.6564 123.285 37.0372 127.308 37.8916 131.143C38.266 132.828 39.6532 134.503 40.9492 135.66C41.8756 136.476 43.4884 136.183 44.722 136.192C44.0733 135.772 43.5771 135.153 43.3066 134.429C43.0361 133.705 43.0056 132.913 43.2196 132.17C43.2676 132.088 43.5556 132.463 43.546 132.357Z" fill="white"/>
<path d="M48.8211 99.6401C50.2227 103.35 49.6851 105.717 52.1043 106.302C54.5235 106.888 67.6707 106.859 67.7955 106.269C67.5267 107.368 67.2291 108.328 66.9603 109.422C63.3795 110.062 59.8083 110.731 56.2467 111.429C53.6451 111.942 49.4115 112.643 46.9299 111.717C44.6835 110.882 42.9027 104.517 41.6931 99.8801C42.9747 98.3969 48.8211 99.6401 48.8211 99.6401Z" fill="#FFB573"/>
<path d="M51.8499 84.5823C51.7098 85.4562 51.8997 86.351 52.3827 87.0927C52.867 87.8211 53.4393 88.4869 54.0867 89.0751C54.8787 89.8575 55.8243 90.6975 56.9331 90.5919C57.9555 90.4959 58.5603 90.0063 59.0115 88.8111C59.8323 90.2511 59.8467 90.9471 60.8019 91.0719C61.4211 91.1535 61.9779 90.7167 62.4291 90.2895C63.2259 89.5263 63.5859 89.0895 63.7683 87.9999C64.0659 86.2335 62.6835 84.5295 61.0275 83.8431C59.3457 83.2061 57.5888 82.7883 55.8003 82.5999C54.2307 82.3599 52.2339 82.7775 51.8499 84.5823Z" fill="#7694FF"/>
<path opacity="0.2" d="M51.8499 84.5823C51.7098 85.4562 51.8997 86.351 52.3827 87.0927C52.867 87.8211 53.4393 88.4869 54.0867 89.0751C54.8787 89.8575 55.8243 90.6975 56.9331 90.5919C57.9555 90.4959 58.5603 90.0063 59.0115 88.8111C59.8323 90.2511 59.8467 90.9471 60.8019 91.0719C61.4211 91.1535 61.9779 90.7167 62.4291 90.2895C63.2259 89.5263 63.5859 89.0895 63.7683 87.9999C64.0659 86.2335 62.6835 84.5295 61.0275 83.8431C59.3457 83.2061 57.5888 82.7883 55.8003 82.5999C54.2307 82.3599 52.2339 82.7775 51.8499 84.5823Z" fill="black"/>
<path d="M68.8564 70.5277C68.8564 70.5277 70.5364 65.8333 65.9044 66.4909L68.8564 70.5277Z" fill="#263238"/>
<path opacity="0.7" d="M68.8564 70.5277C68.8564 70.5277 70.5364 65.8333 65.9044 66.4909L68.8564 70.5277Z" fill="white"/>
<path d="M61.6179 86.8334L59.7795 87.8798L57.5907 87.3566L54.6771 84.9854C54.7098 84.9374 54.7467 84.8924 54.7875 84.851C56.6259 82.859 57.2355 78.3566 57.3747 75.707L61.6611 81.7406C60.7971 83.363 60.3603 85.3118 61.6179 86.8334Z" fill="#FFB573"/>
<path d="M57.2404 70.7344C56.7604 74.92 56.2804 77.344 57.9652 79.8544C60.5332 83.6176 65.9908 82.624 67.714 78.6784C69.2788 75.0976 69.8068 68.872 66.0484 66.496C64.7634 65.6796 63.2075 65.405 61.7207 65.7324C60.2339 66.0598 58.9372 66.9625 58.114 68.2432C57.6353 68.9955 57.3363 69.8479 57.2404 70.7344Z" fill="#FFB573"/>
<path d="M69.442 71.0464C69.514 70.744 69.4996 70.048 68.7172 70.1488C68.7172 70.1488 68.2612 69.2512 67.5796 69.8464C67.5796 69.8464 66.7252 69.6496 66.6196 70.2208C66.4948 70.9504 67.2628 70.5136 68.0836 70.9024C68.9044 71.2912 69.3076 71.5552 69.442 71.0464Z" fill="#263238"/>
<path opacity="0.6" d="M69.442 71.0464C69.514 70.744 69.4996 70.048 68.7172 70.1488C68.7172 70.1488 68.2612 69.2512 67.5796 69.8464C67.5796 69.8464 66.7252 69.6496 66.6196 70.2208C66.4948 70.9504 67.2628 70.5136 68.0836 70.9024C68.9044 71.2912 69.3076 71.5552 69.442 71.0464Z" fill="white"/>
<path d="M62.7028 69.769C62.7556 69.4666 63.058 68.8378 63.7252 69.2458C63.7252 69.2458 64.5124 68.617 64.8868 69.4426C64.8868 69.4426 65.746 69.6106 65.602 70.1674C65.4148 70.8874 64.8964 70.1674 63.9892 70.1914C63.082 70.2154 62.6116 70.2874 62.7028 69.769Z" fill="#263238"/>
<path opacity="0.6" d="M62.7028 69.769C62.7556 69.4666 63.058 68.8378 63.7252 69.2458C63.7252 69.2458 64.5124 68.617 64.8868 69.4426C64.8868 69.4426 65.746 69.6106 65.602 70.1674C65.4148 70.8874 64.8964 70.1674 63.9892 70.1914C63.082 70.2154 62.6116 70.2874 62.7028 69.769Z" fill="white"/>
<path d="M59.0787 73.4844C59.0787 73.4844 60.3939 70.8252 59.9619 69.4764C59.5299 68.1276 65.1075 68.0364 64.8963 65.91C64.6851 63.7836 60.7971 62.43 59.6739 64.2204C59.234 64.2628 58.8083 64.3988 58.4254 64.6193C58.0425 64.8399 57.7112 65.1398 57.4538 65.4991C57.1964 65.8583 57.0189 66.2684 56.9333 66.702C56.8476 67.1355 56.8557 67.5823 56.9571 68.0124C56.9571 68.0124 55.1283 69.606 56.8035 72.5484L58.3011 73.95L59.0787 73.4844Z" fill="#263238"/>
<path opacity="0.7" d="M59.0787 73.4844C59.0787 73.4844 60.3939 70.8252 59.9619 69.4764C59.5299 68.1276 65.1075 68.0364 64.8963 65.91C64.6851 63.7836 60.7971 62.43 59.6739 64.2204C59.234 64.2628 58.8083 64.3988 58.4254 64.6193C58.0425 64.8399 57.7112 65.1398 57.4538 65.4991C57.1964 65.8583 57.0189 66.2684 56.9333 66.702C56.8476 67.1355 56.8557 67.5823 56.9571 68.0124C56.9571 68.0124 55.1283 69.606 56.8035 72.5484L58.3011 73.95L59.0787 73.4844Z" fill="white"/>
<path d="M67.9685 78.2795C67.9685 78.2795 65.3861 76.4795 61.0277 76.4459C61.0277 76.4459 59.6741 76.2491 59.3765 74.4155L59.1653 73.1387L58.1525 73.2587L56.6741 76.4123C56.6741 76.4123 56.6261 79.9979 57.5861 80.3915C57.5861 80.3915 58.2917 82.3499 60.2453 82.3883C60.2453 82.3883 60.8933 83.9147 63.3221 82.7963C63.3221 82.7963 64.4069 83.0651 65.7221 81.4427C65.7317 81.4427 66.8645 81.3995 67.9685 78.2795Z" fill="#263238"/>
<path opacity="0.7" d="M67.9685 78.2795C67.9685 78.2795 65.3861 76.4795 61.0277 76.4459C61.0277 76.4459 59.6741 76.2491 59.3765 74.4155L59.1653 73.1387L58.1525 73.2587L56.6741 76.4123C56.6741 76.4123 56.6261 79.9979 57.5861 80.3915C57.5861 80.3915 58.2917 82.3499 60.2453 82.3883C60.2453 82.3883 60.8933 83.9147 63.3221 82.7963C63.3221 82.7963 64.4069 83.0651 65.7221 81.4427C65.7317 81.4427 66.8645 81.3995 67.9685 78.2795Z" fill="white"/>
<path d="M62.5538 78.735C62.1666 78.649 61.8009 78.485 61.4791 78.2531C61.1572 78.0212 60.886 77.7263 60.6818 77.3862C60.6697 77.3619 60.6675 77.3339 60.6755 77.308C60.6836 77.2821 60.7013 77.2602 60.725 77.247C60.7486 77.2352 60.7759 77.2331 60.801 77.2412C60.8261 77.2492 60.8471 77.2669 60.8594 77.2902C61.0859 77.6566 61.3939 77.9659 61.7594 78.194C62.1248 78.4221 62.5379 78.5628 62.9666 78.6054C62.9902 78.6105 63.0113 78.6236 63.0264 78.6423C63.0415 78.6611 63.0498 78.6845 63.0498 78.7086C63.0498 78.7327 63.0415 78.7561 63.0264 78.7749C63.0113 78.7937 62.9902 78.8067 62.9666 78.8118C62.8272 78.7969 62.6892 78.7713 62.5538 78.735Z" fill="#263238"/>
<path d="M65.8804 73.6523C66.0979 74.7536 66.4661 75.8197 66.9748 76.8203C66.7138 76.9412 66.4296 77.0038 66.142 77.0038C65.8544 77.0038 65.5702 76.9412 65.3092 76.8203L65.8804 73.6523Z" fill="#ED893E"/>
<path d="M66.2548 72.7161C66.1219 73.0384 66.0878 73.393 66.1566 73.7348C66.2254 74.0766 66.3941 74.3903 66.6413 74.6361C66.8886 74.882 67.2032 75.049 67.5453 75.1159C67.8875 75.1829 68.2419 75.1467 68.5635 75.0122C68.8851 74.8776 69.1596 74.6506 69.3522 74.3599C69.5447 74.0692 69.6467 73.728 69.6451 73.3793C69.6436 73.0307 69.5386 72.6903 69.3435 72.4013C69.1484 72.1124 68.872 71.8878 68.5492 71.7561C68.3355 71.6682 68.1066 71.6233 67.8756 71.624C67.6446 71.6247 67.416 71.671 67.2028 71.7602C66.9897 71.8493 66.7963 71.9797 66.6336 72.1437C66.4709 72.3077 66.3422 72.5022 66.2548 72.7161Z" fill="#7694FF"/>
<path d="M61.7476 72.0305C61.6147 72.3529 61.5806 72.7074 61.6494 73.0492C61.7182 73.391 61.8869 73.7047 62.1341 73.9506C62.3813 74.1965 62.696 74.3634 63.0381 74.4304C63.3803 74.4973 63.7347 74.4612 64.0563 74.3266C64.3779 74.192 64.6524 73.965 64.845 73.6744C65.0375 73.3837 65.1395 73.0424 65.1379 72.6938C65.1364 72.3451 65.0314 72.0048 64.8363 71.7158C64.6412 71.4268 64.3648 71.2023 64.042 71.0705C63.8283 70.9826 63.5994 70.9378 63.3684 70.9385C63.1374 70.9392 62.9087 70.9854 62.6956 71.0746C62.4825 71.1638 62.2891 71.2941 62.1264 71.4581C61.9637 71.6222 61.835 71.8167 61.7476 72.0305Z" fill="#7694FF"/>
<path opacity="0.6" d="M66.2548 72.7161C66.1219 73.0384 66.0878 73.393 66.1566 73.7348C66.2254 74.0766 66.3941 74.3903 66.6413 74.6361C66.8886 74.882 67.2032 75.049 67.5453 75.1159C67.8875 75.1829 68.2419 75.1467 68.5635 75.0122C68.8851 74.8776 69.1596 74.6506 69.3522 74.3599C69.5447 74.0692 69.6467 73.728 69.6451 73.3793C69.6436 73.0307 69.5386 72.6903 69.3435 72.4013C69.1484 72.1124 68.872 71.8878 68.5492 71.7561C68.3355 71.6682 68.1066 71.6233 67.8756 71.624C67.6446 71.6247 67.416 71.671 67.2028 71.7602C66.9897 71.8493 66.7963 71.9797 66.6336 72.1437C66.4709 72.3077 66.3422 72.5022 66.2548 72.7161Z" fill="white"/>
<path opacity="0.6" d="M61.7476 72.0305C61.6147 72.3529 61.5806 72.7074 61.6494 73.0492C61.7182 73.391 61.8869 73.7047 62.1341 73.9506C62.3813 74.1965 62.696 74.3634 63.0381 74.4304C63.3803 74.4973 63.7347 74.4612 64.0563 74.3266C64.3779 74.192 64.6524 73.965 64.845 73.6744C65.0375 73.3837 65.1395 73.0424 65.1379 72.6938C65.1364 72.3451 65.0314 72.0048 64.8363 71.7158C64.6412 71.4268 64.3648 71.2023 64.042 71.0705C63.8283 70.9826 63.5994 70.9378 63.3684 70.9385C63.1374 70.9392 62.9087 70.9854 62.6956 71.0746C62.4825 71.1638 62.2891 71.2941 62.1264 71.4581C61.9637 71.6222 61.835 71.8167 61.7476 72.0305Z" fill="white"/>
<path opacity="0.9" d="M68.4194 75.0499C68.1009 75.1563 67.7586 75.1686 67.4333 75.0855C67.108 75.0024 66.8135 74.8273 66.5851 74.5812C66.3568 74.3351 66.2041 74.0284 66.1455 73.6978C66.0869 73.3672 66.1247 73.0267 66.2546 72.7171C66.4123 72.3319 66.7037 72.0166 67.0754 71.8291L68.4194 75.0499Z" fill="white"/>
<path opacity="0.9" d="M64.0322 74.3288C63.6019 74.5083 63.118 74.5095 62.6868 74.3322C62.2556 74.1548 61.9125 73.8135 61.733 73.3832C61.5535 72.9529 61.5523 72.4689 61.7297 72.0377C61.907 71.6066 62.2484 71.2635 62.6786 71.084L64.0322 74.3288Z" fill="white"/>
<path d="M66.1155 72.6583C66.2584 72.3054 66.503 72.0029 66.8183 71.7894C67.1335 71.5758 67.5051 71.4608 67.8859 71.459C68.2666 71.4572 68.6393 71.5686 68.9566 71.7791C69.2739 71.9896 69.5214 72.2897 69.6677 72.6413C69.814 72.9928 69.8525 73.3799 69.7783 73.7533C69.704 74.1268 69.5204 74.4697 69.2508 74.7386C68.9812 75.0074 68.6377 75.19 68.264 75.2632C67.8904 75.3364 67.5034 75.2968 67.1523 75.1495C66.6865 74.9541 66.3166 74.583 66.1225 74.1167C65.9284 73.6504 65.9259 73.1264 66.1155 72.6583ZM66.3939 72.7735C66.2733 73.0678 66.2428 73.3912 66.306 73.7029C66.3693 74.0146 66.5235 74.3005 66.7493 74.5245C66.975 74.7485 67.2621 74.9005 67.5743 74.9613C67.8865 75.0222 68.2096 74.9891 68.503 74.8662C68.7963 74.7434 69.0467 74.5363 69.2223 74.2712C69.398 74.0061 69.4911 73.6948 69.4899 73.3768C69.4886 73.0588 69.3931 72.7483 69.2154 72.4845C69.0377 72.2208 68.7858 72.0156 68.4915 71.8951C68.2971 71.814 68.0885 71.7719 67.8778 71.7715C67.6671 71.771 67.4584 71.812 67.2636 71.8923C67.0688 71.9725 66.8917 72.0904 66.7425 72.2391C66.5932 72.3879 66.4748 72.5645 66.3939 72.7591V72.7735Z" fill="#263238"/>
<path d="M61.6085 71.9725C61.751 71.6195 61.9952 71.3169 62.3101 71.1031C62.625 70.8892 62.9964 70.7738 63.377 70.7715C63.7577 70.7692 64.1304 70.8801 64.4479 71.0901C64.7654 71.3 65.0133 71.5997 65.1601 71.9508C65.307 72.302 65.3461 72.6889 65.2726 73.0624C65.199 73.4359 65.0161 73.7791 64.7471 74.0484C64.4781 74.3177 64.1351 74.501 63.7617 74.5749C63.3883 74.6489 63.0014 74.6101 62.6501 74.4637C62.1834 74.2692 61.8124 73.8985 61.6174 73.4321C61.4223 72.9657 61.4191 72.4412 61.6085 71.9725ZM61.8868 72.0877C61.7663 72.382 61.7357 72.7054 61.799 73.0171C61.8622 73.3288 62.0165 73.6147 62.2422 73.8387C62.468 74.0627 62.7551 74.2147 63.0673 74.2756C63.3794 74.3364 63.7026 74.3033 63.9959 74.1805C64.2893 74.0576 64.5396 73.8505 64.7153 73.5854C64.891 73.3203 64.9841 73.0091 64.9828 72.691C64.9816 72.373 64.8861 72.0625 64.7084 71.7987C64.5307 71.535 64.2787 71.3299 63.9845 71.2093C63.789 71.1292 63.5798 71.0884 63.3686 71.0893C63.1574 71.0901 62.9485 71.1325 62.7537 71.2141C62.5589 71.2956 62.3821 71.4148 62.2334 71.5647C62.0847 71.7146 61.9669 71.8923 61.8868 72.0877Z" fill="#263238"/>
<path d="M65.2756 73.0186C65.3299 72.9713 65.3934 72.9356 65.4622 72.914C65.5309 72.8923 65.6033 72.8851 65.675 72.8928C65.7467 72.9004 65.816 72.9228 65.8786 72.9585C65.9412 72.9942 65.9957 73.0424 66.0388 73.1002L66.2836 72.9322C66.22 72.8421 66.1387 72.7659 66.0446 72.7083C65.9505 72.6507 65.8457 72.6129 65.7365 72.5972C65.6274 72.5814 65.5161 72.5881 65.4097 72.6169C65.3032 72.6456 65.2036 72.6957 65.1172 72.7642L65.2756 73.0186Z" fill="#263238"/>
<path d="M61.605 72.5554L57.6752 72.958L57.7055 73.2541L61.6353 72.8514L61.605 72.5554Z" fill="#263238"/>
<path d="M54.5331 74.2331C54.9319 75.2131 55.7012 75.9961 56.6739 76.4123C57.9747 76.9451 58.7907 75.8315 58.5939 74.4923C58.3971 73.3163 57.4803 71.6123 56.1123 71.6123C54.7443 71.6123 54.0531 73.0187 54.5331 74.2331Z" fill="#FFB573"/>
<path d="M75.221 105.995C75.0975 105.613 74.8463 105.286 74.5096 105.068C74.173 104.851 73.7715 104.756 73.373 104.799C72.9773 104.858 72.5975 104.996 72.2561 105.205C71.9148 105.414 71.6188 105.689 71.3858 106.014C70.8835 106.667 70.5589 107.439 70.4436 108.255C70.3284 109.071 70.4264 109.903 70.7282 110.67C70.9068 111.153 71.1901 111.591 71.5577 111.952C71.9253 112.313 72.3682 112.588 72.8546 112.758C73.3461 112.912 73.8751 112.899 74.3582 112.72C74.8413 112.541 75.2512 112.207 75.5234 111.769C74.4482 110.435 74.3618 108.145 75.221 106.662C75.2498 106.44 75.2498 106.216 75.221 105.995Z" fill="#7694FF"/>
<path opacity="0.6" d="M75.221 105.995C75.0975 105.613 74.8463 105.286 74.5096 105.068C74.173 104.851 73.7715 104.756 73.373 104.799C72.9773 104.858 72.5975 104.996 72.2561 105.205C71.9148 105.414 71.6188 105.689 71.3858 106.014C70.8835 106.667 70.5589 107.439 70.4436 108.255C70.3284 109.071 70.4264 109.903 70.7282 110.67C70.9068 111.153 71.1901 111.591 71.5577 111.952C71.9253 112.313 72.3682 112.588 72.8546 112.758C73.3461 112.912 73.8751 112.899 74.3582 112.72C74.8413 112.541 75.2512 112.207 75.5234 111.769C74.4482 110.435 74.3618 108.145 75.221 106.662C75.2498 106.44 75.2498 106.216 75.221 105.995Z" fill="white"/>
<path d="M68.4577 105.4L70.6081 104.857L70.2193 110.089C70.2193 110.089 66.4465 110.445 66.2017 109.369L65.9857 107.742C65.7073 106.269 67.2769 105.649 68.4577 105.4Z" fill="#FFB573"/>
<path d="M73.7376 106.432L72.9984 109.35L70.2144 110.085L70.608 104.857L73.7376 106.432Z" fill="#FFB573"/>
<path d="M86.3376 167.387L93.1344 167.411L93.9888 164.075L86.2224 163.897L86.3376 167.387Z" fill="#7694FF"/>
<path d="M45.2014 84.1602C35.0302 87.9234 42.1054 108.021 45.0094 113.138C46.7974 113.863 48.7177 114.204 50.646 114.14C52.5743 114.075 54.4676 113.606 56.203 112.763C55.4782 110.445 55.243 107.546 56.0542 105.251C54.5374 104.983 52.5118 104.733 50.995 104.464C50.995 104.464 50.035 97.7202 49.8334 92.9874C49.6798 89.2386 48.6478 84.6546 45.2014 84.1602Z" fill="#7694FF"/>
<path opacity="0.8" d="M45.2014 84.1602C35.0302 87.9234 42.1054 108.021 45.0094 113.138C46.7974 113.863 48.7177 114.204 50.646 114.14C52.5743 114.075 54.4676 113.606 56.203 112.763C55.4782 110.445 55.243 107.546 56.0542 105.251C54.5374 104.983 52.5118 104.733 50.995 104.464C50.995 104.464 50.035 97.7202 49.8334 92.9874C49.6798 89.2386 48.6478 84.6546 45.2014 84.1602Z" fill="white"/>
<path d="M55.5697 104.987C54.9218 106.305 54.5665 107.748 54.5281 109.216C54.5126 109.949 54.657 110.676 54.9513 111.348C55.2455 112.019 55.6826 112.619 56.2321 113.104C56.7681 112.727 57.4166 112.544 58.0705 112.586C58.4689 112.586 58.6945 112.586 59.0929 112.586C58.8769 110.333 58.8769 108.065 59.0929 105.813C58.4074 105.695 57.7053 105.718 57.0289 105.88C57.1537 105.266 56.1985 104.867 55.5697 104.987Z" fill="#7694FF"/>
<path opacity="0.6" d="M55.5697 104.987C54.9218 106.305 54.5665 107.748 54.5281 109.216C54.5126 109.949 54.657 110.676 54.9513 111.348C55.2455 112.019 55.6826 112.619 56.2321 113.104C56.7681 112.727 57.4166 112.544 58.0705 112.586C58.4689 112.586 58.6945 112.586 59.0929 112.586C58.8769 110.333 58.8769 108.065 59.0929 105.813C58.4074 105.695 57.7053 105.718 57.0289 105.88C57.1537 105.266 56.1985 104.867 55.5697 104.987Z" fill="white"/>
<path d="M109.162 76.5984L109.899 76.9708C110.111 77.0783 110.272 77.2657 110.346 77.4918C110.421 77.718 110.402 77.9644 110.295 78.1769L106.42 85.8403L104.081 84.6579L107.956 76.9944C108.063 76.782 108.251 76.6209 108.477 76.5466C108.703 76.4723 108.949 76.4909 109.162 76.5984Z" fill="#263238"/>
<path opacity="0.3" d="M109.162 76.5984L109.899 76.9708C110.111 77.0783 110.272 77.2657 110.346 77.4918C110.421 77.718 110.402 77.9644 110.295 78.1769L106.42 85.8403L104.081 84.6579L107.956 76.9944C108.063 76.782 108.251 76.6209 108.477 76.5466C108.703 76.4723 108.949 76.4909 109.162 76.5984Z" fill="white"/>
<path d="M108.619 86.6953H106.181V110.441H108.619V86.6953Z" fill="#7694FF"/>
<path d="M102.077 86.6953H99.6384V89.3737H102.077V86.6953Z" fill="#7694FF"/>
<path opacity="0.2" d="M108.619 86.6953H106.181V110.441H108.619V86.6953Z" fill="black"/>
<path opacity="0.2" d="M102.077 86.6953H99.6384V89.3737H102.077V86.6953Z" fill="black"/>
<path d="M102.931 82.7734H100.982V86.695H102.931V82.7734Z" fill="#7694FF"/>
<path opacity="0.1" d="M102.931 82.7734H100.982V86.695H102.931V82.7734Z" fill="black"/>
<path d="M111.663 86.6814H102.931V82.7598L110.679 84.4206C110.958 84.48 111.208 84.6337 111.387 84.8556C111.566 85.0776 111.663 85.3545 111.663 85.6398V86.6814Z" fill="#7694FF"/>
<path opacity="0.2" d="M111.663 86.6814H102.931V82.7598L110.679 84.4206C110.958 84.48 111.208 84.6337 111.387 84.8556C111.566 85.0776 111.663 85.3545 111.663 85.6398V86.6814Z" fill="white"/>
<path d="M102.466 90.9343L99.6865 89.6335C99.6567 89.6218 99.6321 89.5998 99.617 89.5715C99.602 89.5432 99.5976 89.5105 99.6045 89.4793C99.6115 89.448 99.6293 89.4203 99.6549 89.401C99.6805 89.3818 99.7121 89.3723 99.7441 89.3743H106.114C106.146 89.3723 106.177 89.3818 106.203 89.401C106.228 89.4203 106.246 89.448 106.253 89.4793C106.26 89.5105 106.256 89.5432 106.241 89.5715C106.226 89.5998 106.201 89.6218 106.171 89.6335L103.397 90.9343C103.251 91.0031 103.092 91.0388 102.931 91.0388C102.77 91.0388 102.611 91.0031 102.466 90.9343Z" fill="#263238"/>
<path d="M101.683 91.4608V93.088C101.683 93.6553 102.143 94.1152 102.71 94.1152H103.147C103.714 94.1152 104.174 93.6553 104.174 93.088V91.4608C104.174 90.8935 103.714 90.4336 103.147 90.4336H102.71C102.143 90.4336 101.683 90.8935 101.683 91.4608Z" fill="#263238"/>
<path opacity="0.6" d="M101.683 91.4608V93.088C101.683 93.6553 102.143 94.1152 102.71 94.1152H103.147C103.714 94.1152 104.174 93.6553 104.174 93.088V91.4608C104.174 90.8935 103.714 90.4336 103.147 90.4336H102.71C102.143 90.4336 101.683 90.8935 101.683 91.4608Z" fill="white"/>
<path d="M99.4743 90.5174L98.8516 92.0207C98.6345 92.5448 98.8834 93.1457 99.4075 93.3628L99.8111 93.53C100.335 93.7471 100.936 93.4982 101.153 92.9741L101.776 91.4707C101.993 90.9466 101.744 90.3457 101.22 90.1286L100.816 89.9615C100.292 89.7444 99.6914 89.9933 99.4743 90.5174Z" fill="#263238"/>
<path d="M104.081 91.4676L104.703 92.9709C104.921 93.495 105.521 93.7439 106.046 93.5268L106.449 93.3597C106.973 93.1426 107.222 92.5417 107.005 92.0176L106.382 90.5142C106.165 89.9901 105.564 89.7412 105.04 89.9583L104.637 90.1255C104.113 90.3426 103.864 90.9435 104.081 91.4676Z" fill="#263238"/>
<g opacity="0.3">
<path opacity="0.3" d="M99.4742 90.5184L98.8515 92.0217C98.6344 92.5458 98.8833 93.1467 99.4074 93.3638L99.8109 93.531C100.335 93.7481 100.936 93.4992 101.153 92.975L101.776 91.4717C101.993 90.9476 101.744 90.3467 101.22 90.1296L100.816 89.9624C100.292 89.7453 99.6913 89.9942 99.4742 90.5184Z" fill="white"/>
<path opacity="0.3" d="M104.08 91.4676L104.703 92.9709C104.92 93.495 105.521 93.7439 106.045 93.5268L106.449 93.3597C106.973 93.1426 107.222 92.5417 107.005 92.0176L106.382 90.5142C106.165 89.9901 105.564 89.7412 105.04 89.9583L104.636 90.1255C104.112 90.3426 103.863 90.9435 104.08 91.4676Z" fill="white"/>
</g>
<path d="M108.6 110.441H116.846C117.015 110.44 117.181 110.402 117.332 110.329C117.484 110.257 117.617 110.151 117.723 110.019C117.828 109.888 117.903 109.735 117.941 109.571C117.98 109.408 117.981 109.237 117.946 109.073L113.146 87.6073C113.089 87.3483 112.945 87.1165 112.738 86.9506C112.531 86.7847 112.273 86.6946 112.008 86.6953H102.077V89.3737H108.6V110.441Z" fill="#7694FF"/>
<path opacity="0.3" d="M108.6 110.441H116.846C117.015 110.44 117.181 110.402 117.332 110.329C117.484 110.257 117.617 110.151 117.723 110.019C117.828 109.888 117.903 109.735 117.941 109.571C117.98 109.408 117.981 109.237 117.946 109.073L113.146 87.6073C113.089 87.3483 112.945 87.1165 112.738 86.9506C112.531 86.7847 112.273 86.6946 112.008 86.6953H102.077V89.3737H108.6V110.441Z" fill="white"/>
<path d="M104.256 98.9443H94.3679V100.869H104.256V98.9443Z" fill="#263238"/>
<path d="M114.144 98.9443H104.256V100.869H114.144V98.9443Z" fill="#263238"/>
<path opacity="0.7" d="M104.256 98.9443H94.3679V100.869H104.256V98.9443Z" fill="white"/>
<path opacity="0.3" d="M114.144 98.9443H104.256V100.869H114.144V98.9443Z" fill="white"/>
<path d="M133.363 100.98C133.172 99.7249 132.615 98.5541 131.761 97.6147C130.907 96.6753 129.794 96.0092 128.563 95.7V88.5C128.851 88.4303 129.107 88.2662 129.29 88.0339C129.474 87.8016 129.574 87.5145 129.576 87.2184C129.574 86.8679 129.434 86.5322 129.186 86.2848C128.938 86.0374 128.601 85.8984 128.251 85.8984H125.851C125.501 85.8984 125.165 86.0375 124.918 86.2851C124.67 86.5326 124.531 86.8684 124.531 87.2184C124.531 87.5147 124.632 87.8022 124.815 88.0347C124.999 88.2672 125.256 88.4311 125.544 88.5V95.7C124.351 95.9912 123.266 96.6191 122.42 97.509C121.574 98.3989 121.001 99.5132 120.77 100.719C120.538 101.926 120.659 103.173 121.116 104.312C121.574 105.452 122.349 106.436 123.35 107.148C123.773 107.443 124.275 107.602 124.79 107.604H129.307C129.822 107.605 130.325 107.447 130.747 107.153C131.71 106.465 132.463 105.525 132.925 104.435C133.387 103.346 133.538 102.15 133.363 100.98Z" fill="#7694FF"/>
<path d="M133.363 100.98C133.172 99.7249 132.615 98.5541 131.761 97.6147C130.907 96.6753 129.794 96.0092 128.563 95.7V88.5C128.851 88.4303 129.107 88.2662 129.29 88.0339C129.474 87.8016 129.574 87.5145 129.576 87.2184C129.574 86.8679 129.434 86.5322 129.186 86.2848C128.938 86.0374 128.601 85.8984 128.251 85.8984H125.851C125.501 85.8984 125.165 86.0375 124.918 86.2851C124.67 86.5326 124.531 86.8684 124.531 87.2184C124.531 87.5147 124.632 87.8022 124.815 88.0347C124.999 88.2672 125.256 88.4311 125.544 88.5V95.7C124.351 95.9912 123.266 96.6191 122.42 97.509C121.574 98.3989 121.001 99.5132 120.77 100.719C120.538 101.926 120.659 103.173 121.116 104.312C121.574 105.452 122.349 106.436 123.35 107.148C123.773 107.443 124.275 107.602 124.79 107.604H129.307C129.822 107.605 130.325 107.447 130.747 107.153C131.71 106.465 132.463 105.525 132.925 104.435C133.387 103.346 133.538 102.15 133.363 100.98Z" fill="#7694FF"/>
<path opacity="0.7" d="M133.363 100.98C133.172 99.7249 132.615 98.5541 131.761 97.6147C130.907 96.6753 129.794 96.0092 128.563 95.7V88.5C128.851 88.4303 129.107 88.2662 129.29 88.0339C129.474 87.8016 129.574 87.5145 129.576 87.2184C129.574 86.8679 129.434 86.5322 129.186 86.2848C128.938 86.0374 128.601 85.8984 128.251 85.8984H125.851C125.501 85.8984 125.165 86.0375 124.918 86.2851C124.67 86.5326 124.531 86.8684 124.531 87.2184C124.531 87.5147 124.632 87.8022 124.815 88.0347C124.999 88.2672 125.256 88.4311 125.544 88.5V95.7C124.351 95.9912 123.266 96.6191 122.42 97.509C121.574 98.3989 121.001 99.5132 120.77 100.719C120.538 101.926 120.659 103.173 121.116 104.312C121.574 105.452 122.349 106.436 123.35 107.148C123.773 107.443 124.275 107.602 124.79 107.604H129.307C129.822 107.605 130.325 107.447 130.747 107.153C131.71 106.465 132.463 105.525 132.925 104.435C133.387 103.346 133.538 102.15 133.363 100.98Z" fill="white"/>
<path d="M124.997 86.1719C125.237 86.3687 126.048 86.5126 127.017 86.5126C127.987 86.5126 128.798 86.3687 129.043 86.1719C128.811 85.9862 128.524 85.8847 128.227 85.8838H125.827C125.525 85.881 125.232 85.9828 124.997 86.1719Z" fill="#7694FF"/>
<path d="M132.696 101.08C132.583 100.347 132.324 99.6429 131.933 99.0116C131.866 99.3764 129.696 99.6692 127.018 99.6692C124.339 99.6692 122.141 99.3764 122.102 99.0068C121.569 99.8904 121.287 100.903 121.286 101.935C121.287 102.849 121.505 103.749 121.922 104.562C122.339 105.375 122.944 106.077 123.686 106.61C123.997 106.828 124.368 106.944 124.747 106.941H129.264C129.64 106.947 130.008 106.832 130.315 106.615C131.184 106.002 131.867 105.161 132.287 104.184C132.707 103.207 132.849 102.133 132.696 101.08Z" fill="#7694FF"/>
<path d="M131.942 98.9932C131.942 99.3676 129.739 99.6652 127.018 99.6652C124.296 99.6652 122.098 99.3676 122.098 98.9932C122.098 98.6188 124.301 98.3164 127.018 98.3164C129.734 98.3164 131.942 98.6188 131.942 98.9932Z" fill="#7694FF"/>
<path opacity="0.2" d="M131.942 98.9932C131.942 99.3676 129.739 99.6652 127.018 99.6652C124.296 99.6652 122.098 99.3676 122.098 98.9932C122.098 98.6188 124.301 98.3164 127.018 98.3164C129.734 98.3164 131.942 98.6188 131.942 98.9932Z" fill="black"/>
<path opacity="0.5" d="M121.91 102.084C121.91 102.084 123.048 106.404 124.853 106.116C126.657 105.828 123.566 104.412 121.91 102.084Z" fill="white"/>
<path d="M134.928 110.09L132.797 104.921H133.56C133.676 104.921 133.787 104.874 133.869 104.793C133.951 104.711 133.997 104.6 133.997 104.484V104.316C133.997 104.2 133.951 104.089 133.869 104.007C133.787 103.925 133.676 103.879 133.56 103.879H120.513C120.398 103.879 120.286 103.925 120.205 104.007C120.123 104.089 120.077 104.2 120.077 104.316V104.484C120.077 104.6 120.123 104.711 120.205 104.793C120.286 104.874 120.398 104.921 120.513 104.921H121.277L119.16 110.1C119.069 110.311 119.237 110.402 119.453 110.489C119.669 110.575 119.846 110.633 119.933 110.421L122.189 104.921H126.614V110.301C126.614 110.532 126.801 110.551 127.037 110.551C127.272 110.551 127.454 110.551 127.454 110.301V104.921H131.885L134.155 110.393C134.241 110.604 134.424 110.551 134.635 110.46C134.846 110.369 135 110.301 134.928 110.09Z" fill="#263238"/>
<path opacity="0.4" d="M134.899 110.09L132.768 104.921H133.527C133.642 104.921 133.754 104.874 133.835 104.793C133.917 104.711 133.963 104.6 133.963 104.484V104.316C133.963 104.2 133.917 104.089 133.835 104.007C133.754 103.925 133.642 103.879 133.527 103.879H120.48C120.364 103.879 120.253 103.925 120.171 104.007C120.089 104.089 120.043 104.2 120.043 104.316V104.484C120.043 104.6 120.089 104.711 120.171 104.793C120.253 104.874 120.364 104.921 120.48 104.921H121.243L119.107 110.081C119.021 110.292 119.189 110.383 119.4 110.469C119.611 110.556 119.799 110.613 119.88 110.402L122.155 104.921H126.581V110.301C126.581 110.532 126.773 110.551 127.003 110.551C127.234 110.551 127.426 110.551 127.426 110.301V104.921H131.856L134.122 110.393C134.213 110.604 134.391 110.551 134.602 110.46C134.813 110.369 135 110.301 134.899 110.09Z" fill="white"/>
<path d="M72.7105 114.142V178.15H71.1457L69.7537 117.07H67.9105V114.142H72.7105Z" fill="#7694FF"/>
<path d="M71.3233 178.145H69.8305L67.9105 114.146H69.8833L71.3233 178.145Z" fill="#7694FF"/>
<path opacity="0.3" d="M72.7105 114.142V178.15H71.1457L69.7537 117.07H67.9105V114.142H72.7105Z" fill="white"/>
<path d="M166.584 178.145H165.096L163.176 114.146H165.144L166.584 178.145Z" fill="#7694FF"/>
<path opacity="0.3" d="M166.584 178.145H165.096L163.176 114.146H165.144L166.584 178.145Z" fill="white"/>
<path d="M142.536 114.146V178.145H144.115L145.973 117.07H165.019L166.411 178.145H167.976V114.146H142.536Z" fill="#7694FF"/>
<path opacity="0.5" d="M142.536 114.146V178.145H144.115L145.973 117.07H165.019L166.411 178.145H167.976V114.146H142.536Z" fill="white"/>
<path d="M142.536 178.145H141.043L140.563 114.146H142.536V178.145Z" fill="#7694FF"/>
<path opacity="0.3" d="M142.536 178.145H141.043L140.563 114.146H142.536V178.145Z" fill="white"/>
<path d="M67.8144 114.142V117.07H50.6112L48.7536 178.15H47.1744V114.142H67.8144Z" fill="#7694FF"/>
<path opacity="0.3" d="M67.8144 114.142V117.07H50.6112L48.7536 178.15H47.1744V114.142H67.8144Z" fill="white"/>
<path d="M47.1743 178.145H45.6815L45.2015 114.146H47.1743V178.145Z" fill="#7694FF"/>
<path d="M141.307 110.465H42.5952V114.146H141.307V110.465Z" fill="#7694FF"/>
<path opacity="0.6" d="M141.307 110.465H42.5952V114.146H141.307V110.465Z" fill="white"/>
<path d="M170.587 110.465H139.013V114.146H170.587V110.465Z" fill="#7694FF"/>
<path opacity="0.8" d="M170.587 110.465H139.013V114.146H170.587V110.465Z" fill="white"/>
<path d="M146.318 92.0898H144.768C144.544 92.0898 144.329 92.1788 144.171 92.3373C144.012 92.4957 143.923 92.7106 143.923 92.9346C143.925 93.0912 143.972 93.2439 144.057 93.3755C144.141 93.507 144.262 93.6121 144.403 93.6786V107.32C144.403 107.575 144.504 107.819 144.684 107.999C144.864 108.179 145.109 108.28 145.363 108.28H145.742C145.997 108.28 146.241 108.179 146.421 107.999C146.601 107.819 146.702 107.575 146.702 107.32V93.6882C146.84 93.6183 146.955 93.5118 147.035 93.3805C147.116 93.2492 147.158 93.0982 147.158 92.9442C147.16 92.8329 147.139 92.7224 147.097 92.6191C147.056 92.5158 146.994 92.4218 146.916 92.3424C146.838 92.263 146.745 92.1998 146.642 92.1564C146.54 92.1131 146.43 92.0905 146.318 92.0898Z" fill="#7694FF"/>
<path opacity="0.6" d="M146.318 92.0898H144.768C144.544 92.0898 144.329 92.1788 144.171 92.3373C144.012 92.4957 143.923 92.7106 143.923 92.9346C143.925 93.0912 143.972 93.2439 144.057 93.3755C144.141 93.507 144.262 93.6121 144.403 93.6786V107.32C144.403 107.575 144.504 107.819 144.684 107.999C144.864 108.179 145.109 108.28 145.363 108.28H145.742C145.997 108.28 146.241 108.179 146.421 107.999C146.601 107.819 146.702 107.575 146.702 107.32V93.6882C146.84 93.6183 146.955 93.5118 147.035 93.3805C147.116 93.2492 147.158 93.0982 147.158 92.9442C147.16 92.8329 147.139 92.7224 147.097 92.6191C147.056 92.5158 146.994 92.4218 146.916 92.3424C146.838 92.263 146.745 92.1998 146.642 92.1564C146.54 92.1131 146.43 92.0905 146.318 92.0898Z" fill="white"/>
<path d="M144.25 92.2722C145.087 92.5668 145.999 92.5668 146.837 92.2722C146.689 92.1557 146.507 92.0915 146.318 92.0898H144.768C144.58 92.0915 144.397 92.1557 144.25 92.2722Z" fill="#7694FF"/>
<path d="M145.56 100.121C145.157 100.121 144.835 100.015 144.826 99.8902V107.321C144.827 107.464 144.884 107.601 144.986 107.703C145.087 107.804 145.224 107.862 145.368 107.863H145.747C145.891 107.862 146.028 107.804 146.129 107.703C146.231 107.601 146.288 107.464 146.29 107.321V99.8662C146.266 99.991 145.944 100.121 145.56 100.121Z" fill="#7694FF"/>
<path d="M146.275 99.8612C146.275 99.9908 145.949 100.096 145.546 100.096C145.142 100.096 144.811 99.9908 144.811 99.8612C144.811 99.7316 145.138 99.626 145.546 99.626C145.954 99.626 146.275 99.7316 146.275 99.8612Z" fill="#7694FF"/>
<path opacity="0.3" d="M146.275 99.8612C146.275 99.9908 145.949 100.096 145.546 100.096C145.142 100.096 144.811 99.9908 144.811 99.8612C144.811 99.7316 145.138 99.626 145.546 99.626C145.954 99.626 146.275 99.7316 146.275 99.8612Z" fill="black"/>
<g opacity="0.8">
<path opacity="0.8" d="M144.802 93.7951V107.322C144.802 107.379 144.824 107.434 144.865 107.474C144.905 107.515 144.96 107.538 145.018 107.538C145.075 107.538 145.13 107.515 145.17 107.474C145.211 107.434 145.234 107.379 145.234 107.322V93.7951C145.234 93.7378 145.211 93.6829 145.17 93.6424C145.13 93.6019 145.075 93.5791 145.018 93.5791C144.96 93.5791 144.905 93.6019 144.865 93.6424C144.824 93.6829 144.802 93.7378 144.802 93.7951Z" fill="white"/>
</g>
<path d="M152.28 92.0898H150.73C150.506 92.0898 150.291 92.1788 150.132 92.3373C149.974 92.4957 149.885 92.7106 149.885 92.9346C149.885 93.0886 149.928 93.2396 150.008 93.3709C150.088 93.5022 150.204 93.6087 150.341 93.6786V107.32C150.341 107.575 150.442 107.819 150.622 107.999C150.802 108.179 151.046 108.28 151.301 108.28H151.685C151.939 108.28 152.184 108.179 152.364 107.999C152.544 107.819 152.645 107.575 152.645 107.32V93.6882C152.782 93.6183 152.897 93.5118 152.978 93.3805C153.058 93.2492 153.101 93.0982 153.101 92.9442C153.103 92.7226 153.019 92.5089 152.865 92.349C152.712 92.1892 152.502 92.0961 152.28 92.0898Z" fill="#7694FF"/>
<path opacity="0.6" d="M152.28 92.0898H150.73C150.506 92.0898 150.291 92.1788 150.132 92.3373C149.974 92.4957 149.885 92.7106 149.885 92.9346C149.885 93.0886 149.928 93.2396 150.008 93.3709C150.088 93.5022 150.204 93.6087 150.341 93.6786V107.32C150.341 107.575 150.442 107.819 150.622 107.999C150.802 108.179 151.046 108.28 151.301 108.28H151.685C151.939 108.28 152.184 108.179 152.364 107.999C152.544 107.819 152.645 107.575 152.645 107.32V93.6882C152.782 93.6183 152.897 93.5118 152.978 93.3805C153.058 93.2492 153.101 93.0982 153.101 92.9442C153.103 92.7226 153.019 92.5089 152.865 92.349C152.712 92.1892 152.502 92.0961 152.28 92.0898Z" fill="white"/>
<path d="M150.23 92.2722C150.638 92.451 151.083 92.5268 151.526 92.493C151.97 92.5257 152.415 92.4499 152.822 92.2722C152.673 92.1556 152.489 92.0916 152.299 92.0898H150.749C150.56 92.0915 150.378 92.1557 150.23 92.2722Z" fill="#7694FF"/>
<path d="M151.526 97.4521C151.123 97.4521 150.802 97.3465 150.792 97.2217V107.302C150.793 107.445 150.851 107.582 150.952 107.684C151.054 107.785 151.191 107.843 151.334 107.844H151.718C151.79 107.847 151.861 107.835 151.927 107.81C151.994 107.785 152.055 107.747 152.108 107.699C152.16 107.65 152.202 107.592 152.231 107.527C152.261 107.462 152.278 107.392 152.28 107.321V97.2409C152.246 97.3465 151.925 97.4521 151.526 97.4521Z" fill="#7694FF"/>
<path d="M152.28 97.2411C152.28 97.3707 151.949 97.4763 151.545 97.4763C151.142 97.4763 150.811 97.3707 150.811 97.2411C150.811 97.1115 151.137 97.0059 151.545 97.0059C151.953 97.0059 152.28 97.0875 152.28 97.2411Z" fill="#7694FF"/>
<path opacity="0.3" d="M152.28 97.2411C152.28 97.3707 151.949 97.4763 151.545 97.4763C151.142 97.4763 150.811 97.3707 150.811 97.2411C150.811 97.1115 151.137 97.0059 151.545 97.0059C151.953 97.0059 152.28 97.0875 152.28 97.2411Z" fill="black"/>
<g opacity="0.8">
<path opacity="0.8" d="M150.782 93.7951V107.322C150.782 107.379 150.805 107.434 150.845 107.474C150.886 107.515 150.941 107.538 150.998 107.538C151.056 107.538 151.11 107.515 151.151 107.474C151.191 107.434 151.214 107.379 151.214 107.322V93.7951C151.214 93.7378 151.191 93.6829 151.151 93.6424C151.11 93.6019 151.056 93.5791 150.998 93.5791C150.941 93.5791 150.886 93.6019 150.845 93.6424C150.805 93.6829 150.782 93.7378 150.782 93.7951Z" fill="white"/>
</g>
<path d="M158.28 92.0899H156.735C156.623 92.0892 156.513 92.1106 156.41 92.1528C156.307 92.195 156.213 92.2571 156.134 92.3356C156.055 92.4141 155.993 92.5074 155.95 92.6103C155.907 92.7131 155.885 92.8233 155.885 92.9347C155.885 93.0887 155.928 93.2396 156.008 93.3709C156.089 93.5022 156.204 93.6087 156.341 93.6787V107.32C156.341 107.575 156.442 107.819 156.622 107.999C156.802 108.179 157.046 108.28 157.301 108.28H157.685C157.94 108.28 158.184 108.179 158.364 107.999C158.544 107.819 158.645 107.575 158.645 107.32V93.6883C158.782 93.6183 158.897 93.5118 158.978 93.3805C159.058 93.2492 159.101 93.0983 159.101 92.9443C159.104 92.7226 159.019 92.5089 158.865 92.3491C158.712 92.1892 158.502 92.0961 158.28 92.0899Z" fill="#7694FF"/>
<path opacity="0.6" d="M158.28 92.0899H156.735C156.623 92.0892 156.513 92.1106 156.41 92.1528C156.307 92.195 156.213 92.2571 156.134 92.3356C156.055 92.4141 155.993 92.5074 155.95 92.6103C155.907 92.7131 155.885 92.8233 155.885 92.9347C155.885 93.0887 155.928 93.2396 156.008 93.3709C156.089 93.5022 156.204 93.6087 156.341 93.6787V107.32C156.341 107.575 156.442 107.819 156.622 107.999C156.802 108.179 157.046 108.28 157.301 108.28H157.685C157.94 108.28 158.184 108.179 158.364 107.999C158.544 107.819 158.645 107.575 158.645 107.32V93.6883C158.782 93.6183 158.897 93.5118 158.978 93.3805C159.058 93.2492 159.101 93.0983 159.101 92.9443C159.104 92.7226 159.019 92.5089 158.865 92.3491C158.712 92.1892 158.502 92.0961 158.28 92.0899Z" fill="white"/>
<path d="M156.211 92.2722C156.618 92.451 157.063 92.5268 157.507 92.493C157.95 92.5257 158.395 92.4499 158.803 92.2722C158.653 92.1556 158.469 92.0916 158.28 92.0898H156.734C156.544 92.0908 156.36 92.155 156.211 92.2722Z" fill="#7694FF"/>
<path d="M157.507 100.121C157.104 100.121 156.782 100.015 156.773 99.8902V107.321C156.774 107.464 156.832 107.601 156.933 107.703C157.034 107.804 157.172 107.862 157.315 107.863H157.699C157.842 107.862 157.979 107.804 158.08 107.702C158.18 107.601 158.237 107.464 158.237 107.321V99.8662C158.232 99.991 157.906 100.121 157.507 100.121Z" fill="#7694FF"/>
<path d="M158.242 99.8612C158.242 99.9908 157.91 100.096 157.507 100.096C157.104 100.096 156.773 99.9908 156.773 99.8612C156.773 99.7316 157.099 99.626 157.507 99.626C157.915 99.626 158.242 99.7316 158.242 99.8612Z" fill="#7694FF"/>
<path opacity="0.3" d="M158.242 99.8612C158.242 99.9908 157.91 100.096 157.507 100.096C157.104 100.096 156.773 99.9908 156.773 99.8612C156.773 99.7316 157.099 99.626 157.507 99.626C157.915 99.626 158.242 99.7316 158.242 99.8612Z" fill="black"/>
<g opacity="0.8">
<path opacity="0.8" d="M156.763 93.7951V107.322C156.763 107.379 156.786 107.434 156.827 107.474C156.867 107.515 156.922 107.538 156.979 107.538C157.037 107.538 157.092 107.515 157.132 107.474C157.173 107.434 157.195 107.379 157.195 107.322V93.7951C157.195 93.7378 157.173 93.6829 157.132 93.6424C157.092 93.6019 157.037 93.5791 156.979 93.5791C156.922 93.5791 156.867 93.6019 156.827 93.6424C156.786 93.6829 156.763 93.7378 156.763 93.7951Z" fill="white"/>
</g>
<path d="M162.135 95.7242C162.262 95.7242 162.384 95.6736 162.474 95.5836C162.564 95.4936 162.615 95.3715 162.615 95.2442V94.7642C162.615 94.6369 162.564 94.5148 162.474 94.4248C162.384 94.3348 162.262 94.2842 162.135 94.2842H135.255C135.127 94.2842 135.005 94.3348 134.915 94.4248C134.825 94.5148 134.775 94.6369 134.775 94.7642V95.2442C134.775 95.3715 134.825 95.4936 134.915 95.5836C135.005 95.6736 135.127 95.7242 135.255 95.7242H136.013V109.164H135.255C135.127 109.164 135.005 109.215 134.915 109.305C134.825 109.395 134.775 109.517 134.775 109.644V110.124C134.775 110.251 134.825 110.374 134.915 110.464C135.005 110.554 135.127 110.604 135.255 110.604H162.135C162.262 110.604 162.384 110.554 162.474 110.464C162.564 110.374 162.615 110.251 162.615 110.124V109.644C162.615 109.517 162.564 109.395 162.474 109.305C162.384 109.215 162.262 109.164 162.135 109.164H161.4V95.7242H162.135ZM160.152 109.164H137.213V95.7242H160.152V109.164Z" fill="#263238"/>
<path opacity="0.4" d="M162.135 95.7242C162.262 95.7242 162.384 95.6736 162.474 95.5836C162.564 95.4936 162.615 95.3715 162.615 95.2442V94.7642C162.615 94.6369 162.564 94.5148 162.474 94.4248C162.384 94.3348 162.262 94.2842 162.135 94.2842H135.255C135.127 94.2842 135.005 94.3348 134.915 94.4248C134.825 94.5148 134.775 94.6369 134.775 94.7642V95.2442C134.775 95.3715 134.825 95.4936 134.915 95.5836C135.005 95.6736 135.127 95.7242 135.255 95.7242H136.013V109.164H135.255C135.127 109.164 135.005 109.215 134.915 109.305C134.825 109.395 134.775 109.517 134.775 109.644V110.124C134.775 110.251 134.825 110.374 134.915 110.464C135.005 110.554 135.127 110.604 135.255 110.604H162.135C162.262 110.604 162.384 110.554 162.474 110.464C162.564 110.374 162.615 110.251 162.615 110.124V109.644C162.615 109.517 162.564 109.395 162.474 109.305C162.384 109.215 162.262 109.164 162.135 109.164H161.4V95.7242H162.135ZM160.152 109.164H137.213V95.7242H160.152V109.164Z" fill="white"/>
<path d="M77.2226 109.985C77.2226 110.009 77.2226 110.033 77.2226 110.057C77.2201 110.195 77.1633 110.327 77.0646 110.424C76.9658 110.521 76.833 110.575 76.6946 110.575L63.3794 110.412C63.2503 110.409 63.1269 110.358 63.033 110.269C62.9391 110.181 62.8812 110.06 62.8706 109.932C62.868 109.909 62.868 109.887 62.8706 109.865C62.8734 109.758 62.9084 109.656 62.971 109.57C63.0336 109.484 63.1208 109.42 63.221 109.385C63.2753 109.367 63.332 109.359 63.389 109.361L76.7042 109.519C76.7984 109.516 76.8915 109.541 76.9717 109.59C77.052 109.64 77.1158 109.712 77.1554 109.797C77.1906 109.854 77.2135 109.918 77.2226 109.985Z" fill="#7694FF"/>
<path d="M76.2195 110.575L99.8883 110.412C99.9568 110.412 100.025 110.398 100.088 110.372C100.151 110.345 100.208 110.307 100.257 110.258C100.305 110.21 100.343 110.152 100.369 110.088C100.394 110.025 100.407 109.957 100.407 109.889C100.404 109.751 100.348 109.62 100.25 109.523C100.153 109.426 100.021 109.371 99.8835 109.37L76.2147 109.533C76.0772 109.536 75.946 109.592 75.8492 109.69C75.7524 109.787 75.6975 109.919 75.6963 110.057C75.6988 110.194 75.7549 110.325 75.8526 110.422C75.9503 110.519 76.0819 110.574 76.2195 110.575Z" fill="#7694FF"/>
<path opacity="0.5" d="M76.2195 110.575L99.8883 110.412C99.9568 110.412 100.025 110.398 100.088 110.372C100.151 110.345 100.208 110.307 100.257 110.258C100.305 110.21 100.343 110.152 100.369 110.088C100.394 110.025 100.407 109.957 100.407 109.889C100.404 109.751 100.348 109.62 100.25 109.523C100.153 109.426 100.021 109.371 99.8835 109.37L76.2147 109.533C76.0772 109.536 75.946 109.592 75.8492 109.69C75.7524 109.787 75.6975 109.919 75.6963 110.057C75.6988 110.194 75.7549 110.325 75.8526 110.422C75.9503 110.519 76.0819 110.574 76.2195 110.575Z" fill="black"/>
<path d="M101.621 94.6346L100.555 107.71C100.519 108.085 100.369 108.44 100.125 108.727C99.8816 109.015 99.556 109.221 99.1919 109.318C99.0733 109.353 98.9508 109.374 98.8271 109.38H98.7647L76.9679 109.529H76.9199C76.7103 109.53 76.5027 109.487 76.3108 109.403C76.1189 109.318 75.9469 109.194 75.8061 109.039C75.6653 108.884 75.5587 108.7 75.4934 108.501C75.4281 108.302 75.4055 108.091 75.4271 107.883L76.4927 94.8074C76.536 94.3589 76.7421 93.9418 77.0719 93.6349C77.4018 93.328 77.8327 93.1526 78.2831 93.1418H78.6143L100.08 92.9882C100.293 92.9809 100.506 93.0194 100.703 93.1011C100.901 93.1827 101.078 93.3057 101.224 93.4616C101.37 93.6175 101.481 93.8029 101.549 94.0052C101.618 94.2075 101.642 94.4221 101.621 94.6346Z" fill="#7694FF"/>
<path d="M100.857 92.921L79.0606 93.0746C78.9161 93.0765 78.7725 93.0974 78.6334 93.137C78.2698 93.2331 77.9442 93.4383 77.7006 93.7249C77.4569 94.0115 77.3067 94.3657 77.2702 94.7401L76.2094 107.82C76.1868 108.031 76.2095 108.245 76.2762 108.446C76.3429 108.648 76.452 108.833 76.5962 108.989C76.7403 109.145 76.9161 109.268 77.1119 109.351C77.3076 109.433 77.5188 109.473 77.731 109.467L99.1918 109.313H99.523C99.9738 109.303 100.405 109.128 100.735 108.821C101.065 108.514 101.271 108.096 101.313 107.647L102.36 94.5722C102.381 94.3626 102.359 94.1508 102.293 93.9506C102.227 93.7505 102.12 93.5665 101.978 93.4106C101.836 93.2548 101.663 93.1306 101.47 93.0462C101.277 92.9619 101.068 92.9192 100.857 92.921Z" fill="#7694FF"/>
<path opacity="0.2" d="M100.857 92.921L79.0606 93.0746C78.9161 93.0765 78.7725 93.0974 78.6334 93.137C78.2698 93.2331 77.9442 93.4383 77.7006 93.7249C77.4569 94.0115 77.3067 94.3657 77.2702 94.7401L76.2094 107.82C76.1868 108.031 76.2095 108.245 76.2762 108.446C76.3429 108.648 76.452 108.833 76.5962 108.989C76.7403 109.145 76.9161 109.268 77.1119 109.351C77.3076 109.433 77.5188 109.473 77.731 109.467L99.1918 109.313H99.523C99.9738 109.303 100.405 109.128 100.735 108.821C101.065 108.514 101.271 108.096 101.313 107.647L102.36 94.5722C102.381 94.3626 102.359 94.1508 102.293 93.9506C102.227 93.7505 102.12 93.5665 101.978 93.4106C101.836 93.2548 101.663 93.1306 101.47 93.0462C101.277 92.9619 101.068 92.9192 100.857 92.921Z" fill="white"/>
<path d="M90.0194 102.156C90.0194 102.411 90.1205 102.655 90.3006 102.835C90.4806 103.015 90.7248 103.116 90.9794 103.116C91.1331 103.119 91.2849 103.082 91.421 103.011C91.3294 103.115 91.2206 103.203 91.0994 103.27C90.9009 103.385 90.6758 103.445 90.4465 103.445C90.2173 103.445 89.9921 103.385 89.7935 103.27C89.595 103.156 89.4301 102.991 89.3155 102.793C89.2009 102.594 89.1405 102.369 89.1405 102.14C89.1405 101.91 89.2009 101.685 89.3155 101.487C89.4301 101.288 89.595 101.123 89.7935 101.009C89.9921 100.894 90.2173 100.834 90.4465 100.834C90.6758 100.834 90.9009 100.894 91.0994 101.009C91.252 101.099 91.3857 101.218 91.493 101.36H91.4546C91.3101 101.272 91.1436 101.227 90.9746 101.23C90.7265 101.231 90.4885 101.328 90.3105 101.501C90.1324 101.674 90.0281 101.908 90.0194 102.156Z" fill="white"/>
<path d="M48.0961 113.11L48.0721 113.12L48.0481 113.11L48.0721 113.105L48.0961 113.11Z" fill="#F0F0F0"/>
<path d="M98.2272 27.1937C97.5872 27.2905 96.9332 27.2283 96.323 27.0124C95.7128 26.7966 95.1652 26.4337 94.7285 25.9559C94.2918 25.4782 93.9796 24.9002 93.8193 24.2731C93.659 23.646 93.6556 22.9891 93.8095 22.3604C93.9634 21.7317 94.2697 21.1506 94.7015 20.6684C95.1333 20.1862 95.6772 19.8178 96.2852 19.5957C96.8931 19.3736 97.5464 19.3047 98.1874 19.395C98.8283 19.4854 99.4371 19.7322 99.96 20.1137C100.591 20.5727 101.071 21.2086 101.34 21.9408C101.609 22.673 101.654 23.4686 101.471 24.2267C101.287 24.9849 100.883 25.6715 100.309 26.1997C99.735 26.7278 99.0171 27.0738 98.2464 27.1937H98.2272ZM97.1136 20.0753C96.369 20.1929 95.6882 20.5651 95.1872 21.1284C94.6861 21.6916 94.3959 22.4112 94.3658 23.1644C94.3357 23.9177 94.5677 24.6581 95.0222 25.2595C95.4767 25.8609 96.1256 26.2862 96.8585 26.4629C97.5913 26.6396 98.3628 26.5568 99.0414 26.2286C99.7201 25.9003 100.264 25.347 100.58 24.6628C100.897 23.9786 100.966 23.2059 100.777 22.4762C100.588 21.7465 100.152 21.1049 99.5424 20.6609C99.1967 20.4069 98.8039 20.2243 98.3869 20.1237C97.9699 20.0232 97.537 20.0067 97.1136 20.0753Z" fill="#7694FF"/>
<path d="M101.826 25.9561L101.427 26.5029L105.104 29.184L105.502 28.6372L101.826 25.9561Z" fill="#7694FF"/>
<path d="M100.874 25.2559L100.476 25.8027L101.825 26.7869L102.224 26.2401L100.874 25.2559Z" fill="#7694FF"/>
<path d="M105.927 41.4259L104.89 41.1715C103.774 40.9395 102.686 40.5887 101.645 40.1251L101.511 40.0579C100.488 39.5779 99.2161 38.9491 98.9473 36.8035C98.9483 36.6662 98.9006 36.5331 98.8127 36.4276C98.7249 36.3222 98.6025 36.2513 98.4673 36.2275C88.9681 35.7475 81.4849 30.4963 81.7729 24.4723C82.0609 18.4483 90.0289 13.9123 99.5329 14.3923C109.037 14.8723 116.511 20.1235 116.218 26.1523C116.035 29.9923 112.623 33.4435 107.319 35.1523C107.17 35.2099 106.877 35.2867 106.512 35.3875C105.187 35.7331 102.725 36.3859 102.106 37.6723C101.799 38.3059 102.288 39.1123 102.907 39.5923C103.186 39.7795 105.927 41.4259 105.927 41.4259ZM98.1745 14.7715C89.5009 14.7715 82.4497 18.9763 82.1857 24.4963C81.9025 30.2563 89.2081 35.3491 98.4625 35.7955C98.7043 35.8185 98.9296 35.9286 99.0964 36.1051C99.2633 36.2817 99.3604 36.5127 99.3697 36.7555C99.6145 38.6755 100.723 39.2035 101.698 39.6739L101.837 39.7411C102.302 39.9648 102.783 40.1526 103.277 40.3027C103.048 40.1837 102.827 40.0507 102.615 39.9043C101.837 39.3427 101.266 38.3251 101.679 37.4707C102.384 36.0307 104.971 35.3203 106.363 34.9555C106.625 34.8938 106.883 34.8185 107.136 34.7299C112.282 33.0787 115.575 29.7811 115.752 26.0899C116.031 20.3011 108.73 15.2323 99.4753 14.7859C99.0385 14.7811 98.6017 14.7715 98.1745 14.7715Z" fill="#7694FF"/>
<path d="M72.3025 61.2691C72.9169 60.8227 73.4065 60.0067 73.1041 59.3731C72.4849 58.0867 70.0225 57.4531 68.6977 57.0883C68.3281 56.9875 68.0401 56.9107 67.8865 56.8483C62.5825 55.1443 59.1745 51.6979 58.9873 47.8531C58.6993 41.8243 66.1873 36.5491 75.6721 36.0931C85.1569 35.6371 93.1249 40.1683 93.4321 46.1731C93.7393 52.1779 86.2321 57.4723 76.7425 57.9283C76.6073 57.9522 76.485 58.0231 76.3971 58.1285C76.3092 58.2339 76.2615 58.3671 76.2625 58.5043C75.9889 60.6499 74.7169 61.2643 73.6945 61.7587L73.5601 61.8259C72.5208 62.2901 71.4345 62.641 70.3201 62.8723L69.2401 63.1603C69.2401 63.1603 71.9809 61.4995 72.3025 61.2691ZM75.6913 36.5251C66.4417 36.9715 59.1409 42.0403 59.4193 47.8291C59.5921 51.4963 62.8897 54.7939 68.0305 56.4451C68.2857 56.5336 68.5452 56.6089 68.8081 56.6707C70.1953 57.0355 72.7873 57.7219 73.4881 59.1859C73.9009 60.0403 73.3297 61.0579 72.5521 61.6195C72.3414 61.7659 72.1218 61.899 71.8945 62.0179C72.3876 61.8663 72.8689 61.6786 73.3345 61.4563L73.4689 61.3891C74.4289 60.9091 75.5569 60.3811 75.7969 58.4707C75.8062 58.228 75.9034 57.9969 76.0702 57.8204C76.237 57.6438 76.4623 57.5338 76.7041 57.5107C85.9585 57.0643 93.2641 51.9955 92.9857 46.2067C92.7217 40.6915 85.6657 36.4867 76.9969 36.4867C76.5649 36.4915 76.1329 36.5011 75.6913 36.5251Z" fill="#7694FF"/>
<path d="M78.869 55.2931H72.2882C72.233 55.2936 72.1792 55.2754 72.1356 55.2414C72.092 55.2074 72.0612 55.1597 72.0482 55.1059C72.0359 55.0536 72.0416 54.9987 72.0642 54.95C72.0868 54.9012 72.1251 54.8615 72.173 54.8371L75.5666 53.0611C75.6017 53.0409 75.6414 53.0303 75.6818 53.0303C75.7223 53.0303 75.762 53.0409 75.797 53.0611L78.989 54.8323C79.0527 54.8483 79.1074 54.8888 79.1412 54.9451C79.1749 55.0013 79.1849 55.0687 79.169 55.1323C79.1531 55.196 79.1126 55.2507 79.0563 55.2845C79 55.3182 78.9327 55.3283 78.869 55.3123V55.2931Z" fill="#7694FF"/>
<path d="M75.7057 52.7402C75.6408 52.7402 75.5785 52.7144 75.5326 52.6685C75.4867 52.6226 75.4609 52.5603 75.4609 52.4954V49.721C75.4721 49.6655 75.5021 49.6157 75.5458 49.5798C75.5896 49.544 75.6444 49.5244 75.7009 49.5244C75.7575 49.5244 75.8123 49.544 75.856 49.5798C75.8998 49.6157 75.9298 49.6655 75.9409 49.721V52.4906C75.9422 52.5547 75.9183 52.6168 75.8743 52.6634C75.8304 52.7101 75.7698 52.7377 75.7057 52.7402Z" fill="#7694FF"/>
<path d="M74.9425 53.8915C74.8794 53.9029 74.8144 53.889 74.7614 53.8529C74.7085 53.8168 74.6717 53.7614 74.6592 53.6986C74.6466 53.6357 74.6592 53.5705 74.6942 53.5168C74.7292 53.4631 74.7839 53.4253 74.8465 53.4115C75.7777 52.9843 77.1025 52.1011 76.9873 51.7315C76.9873 51.7027 76.8481 51.5731 76.4161 51.4867C76.3841 51.481 76.3535 51.4689 76.3262 51.4512C76.2989 51.4335 76.2754 51.4105 76.2571 51.3836C76.2387 51.3567 76.226 51.3264 76.2195 51.2945C76.213 51.2626 76.213 51.2297 76.2194 51.1978C76.2257 51.1658 76.2384 51.1355 76.2567 51.1086C76.2749 51.0816 76.2984 51.0586 76.3256 51.0408C76.3529 51.023 76.3834 51.0108 76.4154 51.005C76.4475 50.9991 76.4803 50.9997 76.5121 51.0067C77.0449 51.1123 77.3713 51.3139 77.4721 51.5827C77.5018 51.7104 77.5003 51.8434 77.4677 51.9704C77.4351 52.0974 77.3724 52.2147 77.2849 52.3123C76.9111 52.745 76.4603 53.1047 75.9553 53.3731C75.7105 53.5171 75.4753 53.6419 75.3361 53.7187C75.0001 53.8915 75.0001 53.8915 74.9425 53.8915Z" fill="#7694FF"/>
<path d="M74.8127 51.2518H74.7551C74.5573 51.2046 74.3772 51.1017 74.2361 50.9554C74.0949 50.8092 73.9985 50.6255 73.9583 50.4262C73.9103 50.0854 74.0543 49.5622 74.9999 49.0102C75.4562 48.7536 75.9274 48.5244 76.4111 48.3238C78.6239 47.3638 82.3295 45.6886 82.3295 42.9286C82.3295 41.8582 82.0079 41.095 81.3695 40.6678C79.8095 39.6118 77.8271 41.8006 77.7983 41.8102C77.6735 41.863 76.5407 40.7926 76.4879 40.6678C76.4641 40.608 76.4648 40.5411 76.49 40.4818C76.5152 40.4225 76.5627 40.3755 76.6223 40.351C76.7567 40.2982 79.8671 39.0646 81.6431 40.2598C82.4207 40.7878 82.8143 41.6998 82.8143 42.9286C82.8143 46.0054 78.9263 47.7286 76.6031 48.7702C76.1413 48.9618 75.691 49.1798 75.2543 49.423C74.7023 49.7446 74.4095 50.0854 74.4431 50.359C74.471 50.4618 74.5265 50.555 74.6034 50.6285C74.6804 50.7021 74.776 50.7533 74.8799 50.7766C74.9361 50.7928 74.9847 50.8286 75.0169 50.8776C75.049 50.9265 75.0625 50.9854 75.0549 51.0435C75.0474 51.1015 75.0193 51.155 74.9757 51.1941C74.9321 51.2332 74.876 51.2554 74.8175 51.2566L74.8127 51.2518Z" fill="#7694FF"/>
<path d="M76.6846 42.5209C75.9646 42.5209 75.4318 42.2905 75.3118 41.8681C75.2836 41.686 75.3069 41.4996 75.379 41.33C75.451 41.1603 75.5691 41.0142 75.7198 40.9081C76.1624 40.541 76.6802 40.2755 77.2366 40.1305C78.235 39.8473 79.1854 39.9097 79.5934 40.2841C79.6889 40.3707 79.7587 40.482 79.795 40.6057C79.9726 41.2441 79.147 41.9929 77.875 42.3529C77.4877 42.4626 77.0872 42.5192 76.6846 42.5209Z" fill="#7694FF"/>
<path d="M75.6145 47.9107C74.366 47.9107 73.1685 47.4154 72.2848 46.5335C71.4012 45.6516 70.9034 44.4552 70.9009 43.2067V42.9619H80.3233V43.2067C80.322 44.4547 79.8253 45.6512 78.9424 46.5332C78.0595 47.4153 76.8625 47.9107 75.6145 47.9107Z" fill="#7694FF"/>
<path d="M76.1808 41.8919C75.8203 42.1158 75.4092 42.2451 74.9854 42.2678C74.5617 42.2904 74.1391 42.2057 73.7568 42.0215C73.6049 41.9364 73.4439 41.8688 73.2768 41.8199C73.1088 41.7863 72.9648 41.7143 72.8688 41.8535C72.9382 41.7505 73.0417 41.6752 73.1611 41.641C73.2805 41.6068 73.4081 41.6157 73.5216 41.6663C73.392 41.5127 73.2672 41.3879 73.0752 41.4455C73.488 41.2823 73.5984 41.3111 73.9296 41.6087C74.712 42.3095 75.5568 41.9207 75.6672 41.6951C75.864 41.7911 75.9984 41.8007 76.1808 41.8919Z" fill="#7694FF"/>
</g>
</svg>
