<svg width="535" height="395" viewBox="0 0 535 395" fill="none" xmlns="http://www.w3.org/2000/svg">
<path d="M238.835 135.386C220.914 143.02 181.887 122.352 162.994 117.647C115.317 105.779 59.8663 125.805 64.6244 192.494C71.0398 283.646 205.635 383.822 346.314 335.867C417.375 311.638 475.563 243.913 475.424 162.651C475.124 15.0757 335.173 10.0717 291.195 47.0458C250.008 81.7531 262.443 125.324 238.835 135.386Z" fill="#7694FF"/>
<path opacity="0.9" d="M238.835 135.386C220.914 143.02 181.887 122.352 162.994 117.647C115.317 105.779 59.8663 125.805 64.6244 192.494C71.0398 283.646 205.635 383.822 346.314 335.867C417.375 311.638 475.563 243.913 475.424 162.651C475.124 15.0757 335.173 10.0717 291.195 47.0458C250.008 81.7531 262.443 125.324 238.835 135.386Z" fill="white"/>
<path d="M262.155 394.237C376.651 394.237 469.468 388.818 469.468 382.133C469.468 375.448 376.651 370.029 262.155 370.029C147.658 370.029 54.8409 375.448 54.8409 382.133C54.8409 388.818 147.658 394.237 262.155 394.237Z" fill="#F5F5F5"/>
<path d="M312.911 69.1146H287.249C286.414 69.1324 285.608 69.4295 284.961 69.9585C284.313 70.4876 283.862 71.2181 283.678 72.0336L283.507 72.8356C283.064 74.8251 281.965 76.6078 280.386 77.8973C278.808 79.1869 276.842 79.9084 274.804 79.946H250.425C248.492 79.9891 246.619 79.2657 245.217 77.9336C243.815 76.6015 242.996 74.7688 242.94 72.8356V72.0336C242.921 71.2414 242.588 70.4893 242.015 69.9421C241.442 69.395 240.675 69.0974 239.882 69.1146H214.221C210.006 69.1896 205.965 70.8064 202.862 73.6594C199.759 76.5123 197.809 80.4036 197.38 84.5971L176.787 320.406C176.57 322.377 176.775 324.373 177.389 326.259C178.002 328.145 179.011 329.879 180.348 331.345C181.684 332.811 183.317 333.975 185.139 334.76C186.96 335.546 188.928 335.934 190.912 335.899H289.57C293.785 335.821 297.827 334.202 300.93 331.348C304.032 328.493 305.982 324.6 306.41 320.406L327.046 84.5971C327.262 82.6254 327.056 80.6303 326.441 78.7446C325.825 76.859 324.815 75.126 323.478 73.6612C322.14 72.1964 320.506 71.0333 318.684 70.2493C316.862 69.4653 314.894 69.0785 312.911 69.1146Z" fill="#7694FF"/>
<path opacity="0.7" d="M312.911 69.1146H287.249C286.414 69.1324 285.608 69.4295 284.961 69.9585C284.313 70.4876 283.862 71.2181 283.678 72.0336L283.507 72.8356C283.064 74.8251 281.965 76.6078 280.386 77.8973C278.808 79.1869 276.842 79.9084 274.804 79.946H250.425C248.492 79.9891 246.619 79.2657 245.217 77.9336C243.815 76.6015 242.996 74.7688 242.94 72.8356V72.0336C242.921 71.2414 242.588 70.4893 242.015 69.9421C241.442 69.395 240.675 69.0974 239.882 69.1146H214.221C210.006 69.1896 205.965 70.8064 202.862 73.6594C199.759 76.5123 197.809 80.4036 197.38 84.5971L176.787 320.406C176.57 322.377 176.775 324.373 177.389 326.259C178.002 328.145 179.011 329.879 180.348 331.345C181.684 332.811 183.317 333.975 185.139 334.76C186.96 335.546 188.928 335.934 190.912 335.899H289.57C293.785 335.821 297.827 334.202 300.93 331.348C304.032 328.493 305.982 324.6 306.41 320.406L327.046 84.5971C327.262 82.6254 327.056 80.6303 326.441 78.7446C325.825 76.859 324.815 75.126 323.478 73.6612C322.14 72.1964 320.506 71.0333 318.684 70.2493C316.862 69.4653 314.894 69.0785 312.911 69.1146Z" fill="white"/>
<path d="M302.914 177.578H250.521C250.081 177.585 249.643 177.498 249.239 177.323C248.834 177.149 248.471 176.89 248.174 176.564C247.877 176.239 247.652 175.854 247.515 175.435C247.377 175.016 247.331 174.573 247.378 174.135L251.323 129.024C251.417 128.091 251.85 127.226 252.54 126.591C253.23 125.956 254.128 125.597 255.066 125.581H307.458C307.899 125.572 308.337 125.657 308.743 125.831C309.148 126.006 309.512 126.264 309.81 126.59C310.107 126.916 310.332 127.302 310.468 127.721C310.605 128.141 310.65 128.585 310.602 129.024L306.656 174.135C306.56 175.066 306.126 175.93 305.437 176.565C304.748 177.199 303.85 177.559 302.914 177.578Z" fill="white"/>
<path d="M285.485 318.631H197.808C196.713 318.651 195.625 318.437 194.619 318.004C193.612 317.571 192.709 316.929 191.971 316.119C191.232 315.31 190.675 314.352 190.335 313.31C189.996 312.268 189.882 311.166 190.003 310.077C190.24 307.76 191.318 305.611 193.031 304.035C194.745 302.459 196.977 301.566 199.305 301.523H286.982C288.078 301.503 289.165 301.716 290.172 302.149C291.178 302.582 292.081 303.225 292.82 304.034C293.558 304.844 294.116 305.801 294.455 306.843C294.795 307.885 294.908 308.987 294.788 310.077C294.552 312.394 293.476 314.544 291.761 316.121C290.047 317.697 287.814 318.59 285.485 318.631Z" fill="white"/>
<path d="M292.467 113.177H212.029C211.412 113.196 210.799 113.08 210.231 112.84C209.663 112.599 209.154 112.238 208.738 111.782C208.323 111.326 208.011 110.786 207.824 110.198C207.637 109.61 207.58 108.988 207.656 108.376L208.308 100.891C208.443 99.5938 209.049 98.3906 210.01 97.5083C210.971 96.626 212.221 96.1255 213.526 96.1013H293.964C294.578 96.0902 295.188 96.2099 295.752 96.4523C296.316 96.6947 296.822 97.0544 297.237 97.5074C297.651 97.9604 297.965 98.4964 298.157 99.0799C298.348 99.6633 298.413 100.281 298.348 100.891L297.685 108.376C297.552 109.676 296.948 110.881 295.987 111.766C295.025 112.65 293.773 113.152 292.467 113.177Z" fill="white"/>
<path d="M308.827 100.635C308.79 100.997 308.622 101.333 308.354 101.58C308.086 101.826 307.736 101.965 307.372 101.971C307.201 101.974 307.032 101.94 306.875 101.872C306.718 101.804 306.577 101.704 306.462 101.577C306.347 101.451 306.26 101.302 306.207 101.139C306.153 100.977 306.135 100.805 306.153 100.635C306.19 100.274 306.359 99.9386 306.627 99.694C306.896 99.4494 307.245 99.3123 307.608 99.3089C307.778 99.3049 307.947 99.3373 308.104 99.404C308.261 99.4707 308.402 99.5701 308.518 99.6956C308.633 99.8211 308.72 99.9699 308.773 100.132C308.827 100.294 308.845 100.465 308.827 100.635Z" fill="white"/>
<path d="M308.474 104.635C308.44 104.996 308.274 105.332 308.007 105.578C307.741 105.825 307.393 105.965 307.03 105.971C306.859 105.974 306.69 105.94 306.533 105.872C306.376 105.804 306.235 105.703 306.12 105.577C306.005 105.451 305.918 105.301 305.865 105.139C305.811 104.976 305.793 104.805 305.811 104.635C305.846 104.273 306.012 103.937 306.278 103.691C306.544 103.444 306.892 103.304 307.255 103.298C307.426 103.295 307.595 103.329 307.752 103.397C307.909 103.465 308.05 103.566 308.165 103.692C308.28 103.818 308.367 103.968 308.421 104.13C308.474 104.293 308.492 104.465 308.474 104.635Z" fill="white"/>
<path d="M308.132 108.623C308.095 108.985 307.927 109.321 307.659 109.568C307.391 109.814 307.041 109.953 306.677 109.959C306.506 109.962 306.337 109.928 306.18 109.86C306.023 109.792 305.882 109.692 305.767 109.565C305.652 109.439 305.565 109.29 305.512 109.127C305.458 108.965 305.44 108.793 305.459 108.623C305.495 108.261 305.663 107.924 305.931 107.678C306.2 107.432 306.549 107.292 306.913 107.286C307.084 107.284 307.253 107.318 307.41 107.386C307.567 107.453 307.708 107.554 307.823 107.68C307.938 107.807 308.025 107.956 308.078 108.118C308.132 108.281 308.15 108.453 308.132 108.623Z" fill="white"/>
<path d="M296.402 251.996H198.535C198.094 252.005 197.656 251.919 197.25 251.745C196.845 251.571 196.481 251.312 196.184 250.986C195.886 250.661 195.661 250.275 195.525 249.855C195.388 249.436 195.343 248.992 195.392 248.553L199.947 197.069C200.041 196.137 200.474 195.271 201.163 194.637C201.853 194.002 202.752 193.643 203.689 193.626H301.524C301.964 193.619 302.401 193.706 302.805 193.881C303.209 194.055 303.572 194.314 303.868 194.64C304.165 194.966 304.388 195.351 304.524 195.77C304.66 196.189 304.705 196.632 304.657 197.069L300.155 248.553C300.061 249.487 299.626 250.354 298.934 250.989C298.242 251.624 297.341 251.982 296.402 251.996Z" fill="white"/>
<path d="M225.458 262.752H194.985C194.879 262.754 194.772 262.734 194.674 262.692C194.576 262.649 194.488 262.587 194.416 262.508C194.344 262.429 194.29 262.335 194.257 262.233C194.225 262.132 194.214 262.024 194.226 261.918C194.247 261.69 194.352 261.478 194.519 261.322C194.687 261.166 194.906 261.078 195.135 261.073H225.608C225.716 261.071 225.823 261.092 225.922 261.135C226.021 261.177 226.11 261.241 226.182 261.321C226.254 261.402 226.308 261.496 226.34 261.599C226.372 261.702 226.381 261.811 226.367 261.918C226.344 262.144 226.238 262.354 226.071 262.507C225.904 262.661 225.686 262.748 225.458 262.752Z" fill="white"/>
<path d="M263.545 262.752H230.837C230.729 262.756 230.622 262.736 230.522 262.695C230.423 262.653 230.334 262.591 230.26 262.512C230.187 262.433 230.132 262.339 230.099 262.236C230.065 262.134 230.055 262.025 230.067 261.918C230.088 261.69 230.192 261.478 230.36 261.322C230.528 261.166 230.747 261.078 230.976 261.073H263.694C263.802 261.071 263.909 261.092 264.008 261.135C264.107 261.177 264.196 261.241 264.268 261.321C264.34 261.402 264.394 261.496 264.426 261.599C264.458 261.702 264.467 261.811 264.453 261.918C264.43 262.144 264.325 262.354 264.157 262.507C263.99 262.661 263.772 262.748 263.545 262.752Z" fill="white"/>
<path d="M214.916 270.184H194.344C194.236 270.186 194.128 270.165 194.029 270.122C193.929 270.079 193.84 270.016 193.767 269.936C193.694 269.856 193.639 269.761 193.606 269.658C193.573 269.555 193.562 269.446 193.574 269.339C193.597 269.112 193.702 268.901 193.869 268.745C194.037 268.59 194.255 268.501 194.483 268.494H215.098C215.205 268.494 215.312 268.516 215.411 268.559C215.509 268.602 215.598 268.666 215.67 268.745C215.743 268.825 215.798 268.919 215.832 269.021C215.866 269.123 215.878 269.232 215.867 269.339C215.843 269.573 215.732 269.79 215.556 269.946C215.38 270.103 215.151 270.187 214.916 270.184Z" fill="white"/>
<path d="M254.093 270.184H220.326C220.218 270.186 220.111 270.165 220.011 270.122C219.912 270.08 219.822 270.016 219.75 269.936C219.677 269.856 219.622 269.761 219.588 269.658C219.555 269.555 219.544 269.447 219.556 269.339C219.58 269.11 219.686 268.898 219.856 268.742C220.025 268.587 220.246 268.498 220.476 268.494H254.232C254.34 268.492 254.447 268.513 254.547 268.556C254.646 268.598 254.735 268.662 254.808 268.742C254.881 268.822 254.936 268.917 254.969 269.02C255.003 269.123 255.014 269.231 255.001 269.339C254.98 269.567 254.876 269.779 254.708 269.935C254.541 270.091 254.321 270.179 254.093 270.184Z" fill="white"/>
<path d="M248.639 277.604H193.692C193.584 277.608 193.477 277.589 193.377 277.547C193.278 277.506 193.188 277.443 193.115 277.364C193.042 277.285 192.987 277.191 192.954 277.088C192.92 276.986 192.909 276.878 192.922 276.77C192.945 276.542 193.052 276.329 193.221 276.174C193.391 276.018 193.611 275.93 193.841 275.926H248.789C248.897 275.925 249.003 275.947 249.102 275.991C249.201 276.034 249.289 276.097 249.362 276.177C249.434 276.257 249.489 276.351 249.523 276.453C249.557 276.555 249.569 276.663 249.559 276.77C249.533 276.997 249.425 277.207 249.256 277.361C249.087 277.514 248.868 277.601 248.639 277.604Z" fill="white"/>
<path d="M257.685 277.605H254.061C253.953 277.608 253.846 277.589 253.746 277.547C253.647 277.506 253.557 277.444 253.484 277.364C253.411 277.285 253.356 277.191 253.323 277.089C253.289 276.986 253.278 276.878 253.291 276.771C253.312 276.543 253.416 276.33 253.584 276.175C253.751 276.019 253.971 275.93 254.2 275.926H257.835C257.943 275.924 258.05 275.944 258.149 275.987C258.248 276.03 258.336 276.094 258.409 276.174C258.481 276.254 258.535 276.349 258.567 276.452C258.599 276.555 258.608 276.664 258.594 276.771C258.571 276.997 258.465 277.206 258.298 277.36C258.13 277.514 257.912 277.601 257.685 277.605Z" fill="white"/>
<path d="M218.69 285.035H193.029C192.921 285.036 192.814 285.014 192.716 284.97C192.617 284.927 192.529 284.864 192.456 284.784C192.383 284.704 192.328 284.61 192.294 284.508C192.26 284.406 192.248 284.298 192.259 284.191C192.282 283.962 192.389 283.749 192.558 283.594C192.728 283.438 192.948 283.35 193.178 283.346H218.84C218.948 283.344 219.056 283.365 219.155 283.407C219.254 283.45 219.344 283.513 219.417 283.593C219.489 283.673 219.544 283.768 219.578 283.871C219.611 283.974 219.622 284.083 219.61 284.191C219.586 284.419 219.48 284.632 219.31 284.787C219.141 284.943 218.92 285.031 218.69 285.035Z" fill="white"/>
<path d="M256.017 285.035H224.068C223.961 285.036 223.854 285.014 223.756 284.97C223.657 284.927 223.568 284.864 223.496 284.784C223.423 284.704 223.368 284.61 223.334 284.508C223.3 284.406 223.288 284.298 223.299 284.191C223.322 283.962 223.429 283.749 223.598 283.594C223.768 283.438 223.988 283.35 224.218 283.346H256.156C256.264 283.344 256.372 283.365 256.471 283.407C256.571 283.45 256.66 283.513 256.733 283.593C256.806 283.673 256.861 283.768 256.894 283.871C256.927 283.974 256.938 284.083 256.926 284.191C256.903 284.418 256.798 284.629 256.631 284.784C256.463 284.939 256.245 285.029 256.017 285.035Z" fill="white"/>
<path d="M223.983 292.456H192.387C192.279 292.458 192.172 292.437 192.073 292.394C191.974 292.351 191.886 292.288 191.813 292.208C191.741 292.127 191.687 292.032 191.655 291.929C191.623 291.826 191.614 291.718 191.628 291.611C191.651 291.385 191.757 291.175 191.924 291.022C192.092 290.868 192.31 290.781 192.537 290.777H224.122C224.23 290.773 224.337 290.793 224.436 290.834C224.536 290.875 224.625 290.938 224.698 291.017C224.771 291.096 224.826 291.19 224.86 291.293C224.893 291.395 224.904 291.504 224.892 291.611C224.871 291.839 224.766 292.051 224.599 292.207C224.431 292.363 224.212 292.451 223.983 292.456Z" fill="white"/>
<path d="M254.798 292.456H229.351C229.243 292.458 229.136 292.437 229.037 292.394C228.938 292.351 228.849 292.288 228.777 292.208C228.705 292.127 228.651 292.032 228.619 291.929C228.587 291.826 228.577 291.718 228.591 291.611C228.615 291.385 228.72 291.175 228.888 291.022C229.055 290.868 229.273 290.781 229.5 290.777H254.948C255.056 290.773 255.163 290.793 255.262 290.834C255.362 290.875 255.451 290.938 255.524 291.017C255.597 291.096 255.653 291.19 255.686 291.293C255.719 291.395 255.73 291.504 255.718 291.611C255.694 291.84 255.588 292.052 255.418 292.208C255.249 292.363 255.028 292.451 254.798 292.456Z" fill="white"/>
<path d="M301.673 173.301C301.581 173.408 301.467 173.495 301.341 173.558C301.214 173.62 301.076 173.657 300.934 173.666C300.793 173.675 300.652 173.656 300.518 173.61C300.384 173.564 300.261 173.491 300.155 173.397L256.391 131.633C256.192 131.433 256.081 131.162 256.081 130.879C256.081 130.597 256.192 130.326 256.391 130.125C256.484 130.018 256.597 129.931 256.724 129.869C256.851 129.806 256.989 129.769 257.13 129.76C257.272 129.751 257.413 129.77 257.547 129.816C257.681 129.863 257.804 129.935 257.91 130.029L301.673 171.793C301.873 171.994 301.984 172.265 301.984 172.547C301.984 172.83 301.873 173.101 301.673 173.301Z" fill="#7694FF"/>
<path d="M252.521 173.29C252.434 173.176 252.37 173.046 252.335 172.907C252.299 172.769 252.291 172.624 252.312 172.483C252.333 172.341 252.382 172.205 252.456 172.083C252.531 171.961 252.629 171.855 252.745 171.771L275.071 153.519C275.283 153.336 275.559 153.243 275.839 153.261C276.119 153.279 276.381 153.406 276.568 153.616C276.653 153.729 276.715 153.858 276.75 153.996C276.785 154.133 276.792 154.276 276.771 154.416C276.75 154.557 276.702 154.692 276.628 154.813C276.555 154.934 276.458 155.04 276.343 155.123L254.018 173.386C253.805 173.569 253.53 173.662 253.25 173.644C252.97 173.626 252.708 173.499 252.521 173.29Z" fill="#7694FF"/>
<path d="M281.369 149.692C281.283 149.578 281.221 149.449 281.186 149.312C281.151 149.174 281.144 149.031 281.165 148.891C281.186 148.751 281.235 148.616 281.308 148.495C281.382 148.373 281.478 148.268 281.593 148.184L303.962 129.9C304.174 129.717 304.45 129.624 304.73 129.642C305.01 129.66 305.271 129.787 305.458 129.996C305.544 130.11 305.606 130.239 305.641 130.376C305.676 130.514 305.683 130.657 305.662 130.797C305.641 130.938 305.592 131.072 305.519 131.194C305.445 131.315 305.349 131.421 305.234 131.504L282.866 149.788C282.653 149.972 282.377 150.064 282.097 150.046C281.817 150.028 281.556 149.901 281.369 149.692Z" fill="#7694FF"/>
<g opacity="0.7">
<path opacity="0.7" d="M301.673 173.301C301.581 173.408 301.467 173.495 301.341 173.558C301.214 173.62 301.076 173.657 300.934 173.666C300.793 173.675 300.652 173.656 300.518 173.61C300.384 173.564 300.261 173.491 300.155 173.397L256.391 131.633C256.192 131.433 256.081 131.162 256.081 130.879C256.081 130.597 256.192 130.326 256.391 130.125C256.484 130.018 256.597 129.931 256.724 129.869C256.851 129.806 256.989 129.769 257.13 129.76C257.272 129.751 257.413 129.77 257.547 129.816C257.681 129.863 257.804 129.935 257.91 130.029L301.673 171.793C301.873 171.994 301.984 172.265 301.984 172.547C301.984 172.83 301.873 173.101 301.673 173.301Z" fill="white"/>
</g>
<g opacity="0.7">
<path opacity="0.7" d="M252.521 173.29C252.434 173.176 252.37 173.046 252.335 172.907C252.299 172.769 252.291 172.624 252.312 172.483C252.333 172.341 252.382 172.205 252.456 172.083C252.531 171.961 252.629 171.855 252.745 171.771L275.071 153.519C275.283 153.336 275.559 153.243 275.839 153.261C276.119 153.279 276.381 153.406 276.568 153.616C276.653 153.729 276.715 153.858 276.75 153.996C276.785 154.133 276.792 154.276 276.771 154.416C276.75 154.557 276.702 154.692 276.628 154.813C276.555 154.934 276.458 155.04 276.343 155.123L254.018 173.386C253.805 173.569 253.53 173.662 253.25 173.644C252.97 173.626 252.708 173.499 252.521 173.29Z" fill="white"/>
</g>
<g opacity="0.7">
<path opacity="0.7" d="M281.369 149.692C281.283 149.578 281.221 149.449 281.186 149.312C281.151 149.174 281.144 149.031 281.165 148.891C281.186 148.751 281.235 148.616 281.308 148.495C281.382 148.373 281.478 148.268 281.593 148.184L303.962 129.9C304.174 129.717 304.45 129.624 304.73 129.642C305.01 129.66 305.271 129.787 305.458 129.996C305.544 130.11 305.606 130.239 305.641 130.376C305.676 130.514 305.683 130.657 305.662 130.797C305.641 130.938 305.592 131.072 305.519 131.194C305.445 131.315 305.349 131.421 305.234 131.504L282.866 149.788C282.653 149.972 282.377 150.064 282.097 150.046C281.817 150.028 281.556 149.901 281.369 149.692Z" fill="white"/>
</g>
<path d="M177.215 63.9825H163.315C161.969 63.9881 160.68 64.5268 159.73 65.4807C158.78 66.4346 158.247 67.7259 158.247 69.072V82.9721C158.247 84.3219 158.783 85.6164 159.737 86.5709C160.692 87.5254 161.986 88.0616 163.336 88.0616H177.236C178.586 88.0616 179.881 87.5254 180.835 86.5709C181.789 85.6164 182.326 84.3219 182.326 82.9721V69.072C182.326 68.4018 182.193 67.7383 181.936 67.1194C181.679 66.5005 181.302 65.9385 180.827 65.4656C180.353 64.9927 179.789 64.6182 179.169 64.3637C178.549 64.1092 177.885 63.9797 177.215 63.9825ZM170.297 68.9009C172.382 68.9009 173.505 70.601 173.505 72.686C173.505 74.771 172.382 76.4711 170.297 76.4711C168.212 76.4711 167.089 74.7817 167.089 72.686C167.089 70.5903 168.201 68.9009 170.297 68.9009ZM178.648 83.0897H161.935C161.868 83.0898 161.801 83.0767 161.739 83.051C161.676 83.0253 161.62 82.9876 161.572 82.94L162.641 80.021C162.975 79.1004 163.584 78.3049 164.385 77.7425C165.187 77.1801 166.142 76.8781 167.121 76.8774H173.44C174.421 76.8774 175.378 77.179 176.181 77.7414C176.985 78.3037 177.596 79.0996 177.931 80.021L179 82.94C178.955 82.9873 178.9 83.0249 178.839 83.0506C178.779 83.0763 178.713 83.0896 178.648 83.0897Z" fill="#7694FF"/>
<path opacity="0.7" d="M177.215 63.9825H163.315C161.969 63.9881 160.68 64.5268 159.73 65.4807C158.78 66.4346 158.247 67.7259 158.247 69.072V82.9721C158.247 84.3219 158.783 85.6164 159.737 86.5709C160.692 87.5254 161.986 88.0616 163.336 88.0616H177.236C178.586 88.0616 179.881 87.5254 180.835 86.5709C181.789 85.6164 182.326 84.3219 182.326 82.9721V69.072C182.326 68.4018 182.193 67.7383 181.936 67.1194C181.679 66.5005 181.302 65.9385 180.827 65.4656C180.353 64.9927 179.789 64.6182 179.169 64.3637C178.549 64.1092 177.885 63.9797 177.215 63.9825ZM170.297 68.9009C172.382 68.9009 173.505 70.601 173.505 72.686C173.505 74.771 172.382 76.4711 170.297 76.4711C168.212 76.4711 167.089 74.7817 167.089 72.686C167.089 70.5903 168.201 68.9009 170.297 68.9009ZM178.648 83.0897H161.935C161.868 83.0898 161.801 83.0767 161.739 83.051C161.676 83.0253 161.62 82.9876 161.572 82.94L162.641 80.021C162.975 79.1004 163.584 78.3049 164.385 77.7425C165.187 77.1801 166.142 76.8781 167.121 76.8774H173.44C174.421 76.8774 175.378 77.179 176.181 77.7414C176.985 78.3037 177.596 79.0996 177.931 80.021L179 82.94C178.955 82.9873 178.9 83.0249 178.839 83.0506C178.779 83.0763 178.713 83.0896 178.648 83.0897Z" fill="white"/>
<path d="M127.944 120.951H117.423C116.524 120.95 115.633 121.126 114.801 121.469C113.97 121.812 113.214 122.316 112.578 122.952C111.941 123.587 111.436 124.342 111.091 125.173C110.747 126.004 110.569 126.895 110.569 127.794V138.316C110.569 140.133 111.292 141.877 112.577 143.162C113.862 144.447 115.606 145.169 117.423 145.169H127.944C128.844 145.169 129.735 144.992 130.566 144.647C131.397 144.303 132.151 143.798 132.787 143.161C133.423 142.525 133.926 141.769 134.27 140.938C134.613 140.106 134.789 139.215 134.788 138.316V127.794C134.789 126.895 134.613 126.005 134.27 125.174C133.926 124.343 133.422 123.588 132.786 122.952C132.151 122.317 131.396 121.813 130.565 121.469C129.734 121.126 128.844 120.95 127.944 120.951ZM122.684 138.797C122.684 138.797 118.407 134.103 118.407 131.708C118.407 130.561 118.863 129.46 119.674 128.649C120.485 127.838 121.585 127.383 122.732 127.383C123.879 127.383 124.979 127.838 125.79 128.649C126.601 129.46 127.057 130.561 127.057 131.708C127.004 134.103 122.684 138.797 122.684 138.797Z" fill="#7694FF"/>
<path d="M122.684 129.74C122.292 129.738 121.908 129.853 121.581 130.069C121.254 130.286 120.999 130.595 120.848 130.956C120.697 131.318 120.657 131.717 120.733 132.102C120.809 132.486 120.997 132.84 121.274 133.117C121.552 133.394 121.905 133.583 122.29 133.659C122.675 133.735 123.073 133.695 123.435 133.544C123.797 133.393 124.106 133.138 124.322 132.811C124.539 132.484 124.653 132.1 124.651 131.708C124.651 131.186 124.444 130.685 124.075 130.316C123.706 129.948 123.206 129.74 122.684 129.74Z" fill="#7694FF"/>
<g opacity="0.7">
<path opacity="0.7" d="M127.944 120.951H117.423C116.524 120.95 115.633 121.126 114.801 121.469C113.97 121.812 113.214 122.316 112.578 122.952C111.941 123.587 111.436 124.342 111.091 125.173C110.747 126.004 110.569 126.895 110.569 127.794V138.316C110.569 140.133 111.292 141.877 112.577 143.162C113.862 144.447 115.606 145.169 117.423 145.169H127.944C128.844 145.169 129.735 144.992 130.566 144.647C131.397 144.303 132.151 143.798 132.787 143.161C133.423 142.525 133.926 141.769 134.27 140.938C134.613 140.106 134.789 139.215 134.788 138.316V127.794C134.789 126.895 134.613 126.005 134.27 125.174C133.926 124.343 133.422 123.588 132.786 122.952C132.151 122.317 131.396 121.813 130.565 121.469C129.734 121.126 128.844 120.95 127.944 120.951ZM122.684 138.797C122.684 138.797 118.407 134.103 118.407 131.708C118.407 130.561 118.863 129.46 119.674 128.649C120.485 127.838 121.585 127.383 122.732 127.383C123.879 127.383 124.979 127.838 125.79 128.649C126.601 129.46 127.057 130.561 127.057 131.708C127.004 134.103 122.684 138.797 122.684 138.797Z" fill="white"/>
<path opacity="0.7" d="M122.684 129.74C122.292 129.738 121.908 129.853 121.581 130.069C121.254 130.286 120.999 130.595 120.848 130.956C120.697 131.318 120.657 131.717 120.733 132.102C120.809 132.486 120.997 132.84 121.274 133.117C121.552 133.394 121.905 133.583 122.29 133.659C122.675 133.735 123.073 133.695 123.435 133.544C123.797 133.393 124.106 133.138 124.322 132.811C124.539 132.484 124.653 132.1 124.651 131.708C124.651 131.186 124.444 130.685 124.075 130.316C123.706 129.948 123.206 129.74 122.684 129.74Z" fill="white"/>
</g>
<path d="M358.942 91.1303L365.988 86.5754L358.942 82.0098V91.1303Z" fill="#7694FF"/>
<path d="M368.019 74.1406H354.59C353.073 74.1406 351.618 74.7433 350.545 75.8161C349.472 76.8889 348.869 78.3439 348.869 79.861V93.2906C348.872 94.8069 349.476 96.2602 350.548 97.3324C351.62 98.4046 353.074 99.0082 354.59 99.011H368.019C369.536 99.011 370.992 98.4083 372.064 97.3355C373.137 96.2628 373.74 94.8077 373.74 93.2906V79.861C373.741 79.1094 373.594 78.3649 373.307 77.6703C373.02 76.9756 372.599 76.3444 372.067 75.813C371.536 75.2815 370.905 74.8602 370.21 74.5732C369.515 74.2862 368.771 74.1392 368.019 74.1406ZM361.305 95.5253C359.534 95.5253 357.803 95.0001 356.331 94.0163C354.859 93.0324 353.712 91.6341 353.035 89.9982C352.358 88.3622 352.182 86.5623 352.528 84.8259C352.874 83.0896 353.727 81.495 354.98 80.2438C356.233 78.9926 357.828 78.1411 359.565 77.797C361.302 77.4529 363.102 77.6316 364.737 78.3107C366.372 78.9897 367.769 80.1384 368.751 81.6115C369.733 83.0847 370.256 84.816 370.254 86.5865C370.253 87.7604 370.02 88.9225 369.57 90.0064C369.119 91.0904 368.459 92.075 367.628 92.9041C366.797 93.7331 365.811 94.3904 364.726 94.8383C363.641 95.2862 362.478 95.516 361.305 95.5146V95.5253Z" fill="#7694FF"/>
<g opacity="0.7">
<path opacity="0.7" d="M358.942 91.1303L365.988 86.5754L358.942 82.0098V91.1303Z" fill="white"/>
<path opacity="0.7" d="M368.019 74.1406H354.59C353.073 74.1406 351.618 74.7433 350.545 75.8161C349.472 76.8889 348.869 78.3439 348.869 79.861V93.2906C348.872 94.8069 349.476 96.2602 350.548 97.3324C351.62 98.4046 353.074 99.0082 354.59 99.011H368.019C369.536 99.011 370.992 98.4083 372.064 97.3355C373.137 96.2628 373.74 94.8077 373.74 93.2906V79.861C373.741 79.1094 373.594 78.3649 373.307 77.6703C373.02 76.9756 372.599 76.3444 372.067 75.813C371.536 75.2815 370.905 74.8602 370.21 74.5732C369.515 74.2862 368.771 74.1392 368.019 74.1406ZM361.305 95.5253C359.534 95.5253 357.803 95.0001 356.331 94.0163C354.859 93.0324 353.712 91.6341 353.035 89.9982C352.358 88.3622 352.182 86.5623 352.528 84.8259C352.874 83.0896 353.727 81.495 354.98 80.2438C356.233 78.9926 357.828 78.1411 359.565 77.797C361.302 77.4529 363.102 77.6316 364.737 78.3107C366.372 78.9897 367.769 80.1384 368.751 81.6115C369.733 83.0847 370.256 84.816 370.254 86.5865C370.253 87.7604 370.02 88.9225 369.57 90.0064C369.119 91.0904 368.459 92.075 367.628 92.9041C366.797 93.7331 365.811 94.3904 364.726 94.8383C363.641 95.2862 362.478 95.516 361.305 95.5146V95.5253Z" fill="white"/>
</g>
<path d="M381.203 125.644C381.203 125.366 381.203 125.088 381.203 124.821L382.817 123.923C382.7 123.158 382.499 122.409 382.219 121.688H380.38C380.146 121.186 379.867 120.707 379.546 120.255L380.497 118.684C380.01 118.08 379.461 117.529 378.861 117.037L377.279 117.989C376.83 117.673 376.354 117.398 375.857 117.165V115.316C375.134 115.042 374.385 114.842 373.622 114.717L372.724 116.331C372.457 116.331 372.179 116.331 371.901 116.331C371.623 116.331 371.355 116.331 371.077 116.331L370.179 114.717C369.417 114.844 368.668 115.045 367.944 115.316V117.165C367.446 117.396 366.97 117.671 366.522 117.989L364.94 117.037C364.334 117.526 363.782 118.078 363.293 118.684L364.245 120.255C363.931 120.709 363.656 121.189 363.422 121.688H361.582C361.303 122.41 361.099 123.159 360.973 123.923L362.588 124.821C362.588 125.088 362.588 125.366 362.588 125.644C362.588 125.922 362.588 126.2 362.588 126.468L360.973 127.366C361.098 128.13 361.302 128.879 361.582 129.601H363.422C363.656 130.1 363.931 130.579 364.245 131.033L363.293 132.616C363.785 133.216 364.337 133.764 364.94 134.252L366.522 133.3C366.968 133.621 367.444 133.897 367.944 134.123V135.973C368.667 136.249 369.416 136.449 370.179 136.572L371.077 134.957C371.355 134.957 371.623 134.957 371.901 134.957C372.179 134.957 372.457 134.957 372.724 134.957L373.622 136.572C374.386 136.452 375.135 136.251 375.857 135.973V134.123C376.356 133.895 376.832 133.619 377.279 133.3L378.861 134.252C379.459 133.761 380.007 133.213 380.497 132.616L379.546 131.033C379.867 130.582 380.146 130.102 380.38 129.601H382.219C382.5 128.88 382.701 128.131 382.817 127.366L381.203 126.468C381.182 126.168 381.203 125.922 381.203 125.644ZM371.879 131.974C370.627 131.974 369.403 131.603 368.363 130.907C367.322 130.212 366.51 129.223 366.031 128.067C365.552 126.91 365.427 125.637 365.671 124.409C365.915 123.182 366.518 122.054 367.403 121.168C368.289 120.283 369.416 119.68 370.644 119.436C371.872 119.192 373.145 119.317 374.302 119.796C375.458 120.275 376.447 121.087 377.142 122.128C377.838 123.169 378.209 124.392 378.209 125.644C378.209 127.323 377.542 128.933 376.355 130.12C375.168 131.307 373.558 131.974 371.879 131.974Z" fill="#7694FF"/>
<path opacity="0.7" d="M381.203 125.644C381.203 125.366 381.203 125.088 381.203 124.821L382.817 123.923C382.7 123.158 382.499 122.409 382.219 121.688H380.38C380.146 121.186 379.867 120.707 379.546 120.255L380.497 118.684C380.01 118.08 379.461 117.529 378.861 117.037L377.279 117.989C376.83 117.673 376.354 117.398 375.857 117.165V115.316C375.134 115.042 374.385 114.842 373.622 114.717L372.724 116.331C372.457 116.331 372.179 116.331 371.901 116.331C371.623 116.331 371.355 116.331 371.077 116.331L370.179 114.717C369.417 114.844 368.668 115.045 367.944 115.316V117.165C367.446 117.396 366.97 117.671 366.522 117.989L364.94 117.037C364.334 117.526 363.782 118.078 363.293 118.684L364.245 120.255C363.931 120.709 363.656 121.189 363.422 121.688H361.582C361.303 122.41 361.099 123.159 360.973 123.923L362.588 124.821C362.588 125.088 362.588 125.366 362.588 125.644C362.588 125.922 362.588 126.2 362.588 126.468L360.973 127.366C361.098 128.13 361.302 128.879 361.582 129.601H363.422C363.656 130.1 363.931 130.579 364.245 131.033L363.293 132.616C363.785 133.216 364.337 133.764 364.94 134.252L366.522 133.3C366.968 133.621 367.444 133.897 367.944 134.123V135.973C368.667 136.249 369.416 136.449 370.179 136.572L371.077 134.957C371.355 134.957 371.623 134.957 371.901 134.957C372.179 134.957 372.457 134.957 372.724 134.957L373.622 136.572C374.386 136.452 375.135 136.251 375.857 135.973V134.123C376.356 133.895 376.832 133.619 377.279 133.3L378.861 134.252C379.459 133.761 380.007 133.213 380.497 132.616L379.546 131.033C379.867 130.582 380.146 130.102 380.38 129.601H382.219C382.5 128.88 382.701 128.131 382.817 127.366L381.203 126.468C381.182 126.168 381.203 125.922 381.203 125.644ZM371.879 131.974C370.627 131.974 369.403 131.603 368.363 130.907C367.322 130.212 366.51 129.223 366.031 128.067C365.552 126.91 365.427 125.637 365.671 124.409C365.915 123.182 366.518 122.054 367.403 121.168C368.289 120.283 369.416 119.68 370.644 119.436C371.872 119.192 373.145 119.317 374.302 119.796C375.458 120.275 376.447 121.087 377.142 122.128C377.838 123.169 378.209 124.392 378.209 125.644C378.209 127.323 377.542 128.933 376.355 130.12C375.168 131.307 373.558 131.974 371.879 131.974Z" fill="white"/>
<path d="M356.835 157.433C356.835 157.016 356.835 156.609 356.782 156.203L359.198 154.867C359.016 153.719 358.715 152.594 358.3 151.509L355.541 151.563C355.193 150.814 354.778 150.098 354.301 149.424L355.723 147.061C354.995 146.162 354.174 145.341 353.275 144.613L350.912 146.024C350.235 145.555 349.519 145.143 348.773 144.794V142.036C347.692 141.619 346.571 141.318 345.426 141.138L344.09 143.554C343.684 143.554 343.277 143.554 342.86 143.554C342.443 143.554 342.037 143.554 341.631 143.554L340.326 141.138C339.183 141.321 338.061 141.622 336.979 142.036V144.794C336.233 145.143 335.518 145.554 334.841 146.024L332.531 144.613C331.629 145.341 330.804 146.162 330.072 147.061L331.494 149.424C331.021 150.099 330.609 150.814 330.265 151.563L327.506 151.509C327.086 152.593 326.785 153.718 326.608 154.867L329.024 156.203C328.939 157.021 328.939 157.845 329.024 158.662L326.608 160.01C326.786 161.154 327.087 162.276 327.506 163.356L330.265 163.303C330.607 164.052 331.019 164.768 331.494 165.441L330.072 167.804C330.804 168.704 331.629 169.525 332.531 170.253L334.894 168.842C335.569 169.315 336.284 169.727 337.033 170.071V172.83C338.113 173.249 339.235 173.55 340.38 173.728L341.727 171.311C342.544 171.397 343.369 171.397 344.186 171.311L345.523 173.728C346.668 173.553 347.79 173.251 348.869 172.83V170.071C349.618 169.726 350.333 169.315 351.008 168.842L353.371 170.253C354.27 169.525 355.091 168.704 355.819 167.804L354.397 165.441C354.876 164.769 355.292 164.053 355.638 163.303L358.396 163.356C358.81 162.275 359.111 161.153 359.294 160.01L356.878 158.662C356.814 158.245 356.835 157.85 356.835 157.433ZM342.935 162.929C341.848 162.929 340.786 162.606 339.882 162.002C338.978 161.399 338.274 160.54 337.858 159.536C337.442 158.532 337.333 157.427 337.545 156.361C337.757 155.295 338.28 154.315 339.049 153.547C339.818 152.778 340.797 152.255 341.863 152.043C342.929 151.83 344.034 151.939 345.038 152.355C346.043 152.771 346.901 153.476 347.505 154.379C348.109 155.283 348.431 156.346 348.431 157.433C348.431 158.157 348.288 158.875 348.01 159.543C347.731 160.212 347.324 160.82 346.81 161.33C346.296 161.841 345.687 162.245 345.016 162.52C344.346 162.794 343.627 162.933 342.903 162.929H342.935Z" fill="#7694FF"/>
<path opacity="0.7" d="M356.835 157.433C356.835 157.016 356.835 156.609 356.782 156.203L359.198 154.867C359.016 153.719 358.715 152.594 358.3 151.509L355.541 151.563C355.193 150.814 354.778 150.098 354.301 149.424L355.723 147.061C354.995 146.162 354.174 145.341 353.275 144.613L350.912 146.024C350.235 145.555 349.519 145.143 348.773 144.794V142.036C347.692 141.619 346.571 141.318 345.426 141.138L344.09 143.554C343.684 143.554 343.277 143.554 342.86 143.554C342.443 143.554 342.037 143.554 341.631 143.554L340.326 141.138C339.183 141.321 338.061 141.622 336.979 142.036V144.794C336.233 145.143 335.518 145.554 334.841 146.024L332.531 144.613C331.629 145.341 330.804 146.162 330.072 147.061L331.494 149.424C331.021 150.099 330.609 150.814 330.265 151.563L327.506 151.509C327.086 152.593 326.785 153.718 326.608 154.867L329.024 156.203C328.939 157.021 328.939 157.845 329.024 158.662L326.608 160.01C326.786 161.154 327.087 162.276 327.506 163.356L330.265 163.303C330.607 164.052 331.019 164.768 331.494 165.441L330.072 167.804C330.804 168.704 331.629 169.525 332.531 170.253L334.894 168.842C335.569 169.315 336.284 169.727 337.033 170.071V172.83C338.113 173.249 339.235 173.55 340.38 173.728L341.727 171.311C342.544 171.397 343.369 171.397 344.186 171.311L345.523 173.728C346.668 173.553 347.79 173.251 348.869 172.83V170.071C349.618 169.726 350.333 169.315 351.008 168.842L353.371 170.253C354.27 169.525 355.091 168.704 355.819 167.804L354.397 165.441C354.876 164.769 355.292 164.053 355.638 163.303L358.396 163.356C358.81 162.275 359.111 161.153 359.294 160.01L356.878 158.662C356.814 158.245 356.835 157.85 356.835 157.433ZM342.935 162.929C341.848 162.929 340.786 162.606 339.882 162.002C338.978 161.399 338.274 160.54 337.858 159.536C337.442 158.532 337.333 157.427 337.545 156.361C337.757 155.295 338.28 154.315 339.049 153.547C339.818 152.778 340.797 152.255 341.863 152.043C342.929 151.83 344.034 151.939 345.038 152.355C346.043 152.771 346.901 153.476 347.505 154.379C348.109 155.283 348.431 156.346 348.431 157.433C348.431 158.157 348.288 158.875 348.01 159.543C347.731 160.212 347.324 160.82 346.81 161.33C346.296 161.841 345.687 162.245 345.016 162.52C344.346 162.794 343.627 162.933 342.903 162.929H342.935Z" fill="white"/>
<path d="M317.562 95.4396V101.042L312.216 103.854C312.008 103.966 311.835 104.132 311.713 104.334C311.592 104.537 311.528 104.768 311.528 105.004C311.528 105.24 311.592 105.471 311.713 105.674C311.835 105.876 312.008 106.042 312.216 106.153L317.562 108.965V114.568C317.562 115.167 317.8 115.74 318.223 116.163C318.646 116.587 319.22 116.824 319.818 116.824H338.947C339.546 116.824 340.121 116.587 340.546 116.164C340.971 115.741 341.211 115.168 341.214 114.568V95.4396C341.214 94.8384 340.975 94.2619 340.55 93.8368C340.125 93.4117 339.548 93.1729 338.947 93.1729H319.786C319.192 93.1813 318.624 93.4242 318.208 93.8487C317.791 94.2732 317.559 94.8449 317.562 95.4396Z" fill="#7694FF"/>
<g opacity="0.9">
<path opacity="0.9" d="M324.106 101.279H334.98C335.335 101.279 335.674 101.138 335.925 100.887C336.176 100.636 336.317 100.296 336.317 99.942C336.317 99.5875 336.176 99.2476 335.925 98.9969C335.674 98.7463 335.335 98.6055 334.98 98.6055H324.106C323.751 98.6055 323.412 98.7463 323.161 98.9969C322.91 99.2476 322.769 99.5875 322.769 99.942C322.769 100.296 322.91 100.636 323.161 100.887C323.412 101.138 323.751 101.279 324.106 101.279Z" fill="white"/>
<path opacity="0.9" d="M334.98 103.716H324.106C323.751 103.716 323.412 103.857 323.161 104.107C322.91 104.358 322.769 104.698 322.769 105.052C322.769 105.407 322.91 105.747 323.161 105.997C323.412 106.248 323.751 106.389 324.106 106.389H334.98C335.335 106.389 335.674 106.248 335.925 105.997C336.176 105.747 336.317 105.407 336.317 105.052C336.317 104.698 336.176 104.358 335.925 104.107C335.674 103.857 335.335 103.716 334.98 103.716Z" fill="white"/>
<path opacity="0.9" d="M334.98 108.73H324.106C323.751 108.73 323.412 108.871 323.161 109.122C322.91 109.373 322.769 109.713 322.769 110.067C322.769 110.421 322.91 110.761 323.161 111.012C323.412 111.263 323.751 111.404 324.106 111.404H334.98C335.335 111.404 335.674 111.263 335.925 111.012C336.176 110.761 336.317 110.421 336.317 110.067C336.317 109.713 336.176 109.373 335.925 109.122C335.674 108.871 335.335 108.73 334.98 108.73Z" fill="white"/>
</g>
<path d="M209.463 86.6077H214.028L216.381 91.0664C216.536 91.3571 216.767 91.6002 217.049 91.7697C217.332 91.9392 217.655 92.0287 217.985 92.0287C218.314 92.0287 218.637 91.9392 218.92 91.7697C219.202 91.6002 219.433 91.3571 219.588 91.0664L221.941 86.6077H226.506C226.94 86.6077 227.369 86.5222 227.769 86.356C228.169 86.1899 228.533 85.9463 228.839 85.6394C229.145 85.3324 229.387 84.9681 229.552 84.5673C229.717 84.1665 229.801 83.7372 229.8 83.3038V66.2923C229.8 65.4189 229.453 64.5812 228.835 63.9636C228.217 63.346 227.38 62.999 226.506 62.999H209.463C209.03 62.9976 208.601 63.0819 208.201 63.2469C207.801 63.4119 207.437 63.6544 207.131 63.9605C206.825 64.2666 206.582 64.6301 206.417 65.0303C206.252 65.4305 206.168 65.8594 206.17 66.2923V83.4C206.192 84.2585 206.549 85.0744 207.164 85.6736C207.779 86.2728 208.604 86.608 209.463 86.6077Z" fill="#7694FF"/>
<path opacity="0.9" d="M217.995 68.0996L212.735 71.179V80.1819H216.648V74.1408H219.353V80.1819H223.267V71.179L217.995 68.0996Z" fill="white"/>
<path d="M260.679 331.238H256.616L253.996 326.255C253.866 326.014 253.673 325.812 253.438 325.672C253.203 325.531 252.934 325.457 252.66 325.457C252.386 325.457 252.117 325.531 251.882 325.672C251.646 325.812 251.453 326.014 251.323 326.255L248.704 331.238H244.534C243.538 331.238 242.584 331.633 241.88 332.337C241.176 333.041 240.781 333.995 240.781 334.991V351.136C240.781 352.131 241.176 353.086 241.88 353.79C242.584 354.494 243.538 354.889 244.534 354.889H260.679C261.674 354.889 262.629 354.494 263.333 353.79C264.037 353.086 264.432 352.131 264.432 351.136V334.991C264.432 333.995 264.037 333.041 263.333 332.337C262.629 331.633 261.674 331.238 260.679 331.238Z" fill="#7694FF"/>
<path opacity="0.9" d="M254.895 337.407C254.11 336.623 253.119 336.078 252.037 335.836C250.954 335.595 249.825 335.667 248.782 336.044C247.739 336.42 246.824 337.087 246.146 337.964C245.468 338.842 245.054 339.894 244.952 340.999C244.85 342.103 245.065 343.214 245.572 344.201C246.078 345.187 246.856 346.009 247.812 346.57C248.769 347.131 249.866 347.408 250.974 347.369C252.083 347.329 253.157 346.974 254.071 346.346C254.116 346.611 254.239 346.857 254.424 347.052L258.059 350.676C258.305 350.922 258.637 351.06 258.984 351.06C259.331 351.06 259.664 350.922 259.909 350.676C260.155 350.431 260.292 350.099 260.292 349.752C260.292 349.405 260.155 349.072 259.909 348.827L256.285 345.202C256.09 345.009 255.839 344.882 255.568 344.838C256.337 343.715 256.69 342.358 256.567 341.002C256.444 339.646 255.853 338.375 254.895 337.407ZM253.654 344.432C253.081 345.004 252.352 345.394 251.557 345.551C250.763 345.709 249.94 345.628 249.192 345.317C248.444 345.007 247.805 344.482 247.355 343.809C246.905 343.136 246.665 342.344 246.665 341.535C246.665 340.725 246.905 339.933 247.355 339.26C247.805 338.587 248.444 338.062 249.192 337.752C249.94 337.442 250.763 337.36 251.557 337.518C252.352 337.675 253.081 338.065 253.654 338.637C254.035 339.017 254.337 339.469 254.543 339.966C254.749 340.463 254.856 340.996 254.856 341.535C254.856 342.073 254.749 342.606 254.543 343.103C254.337 343.6 254.035 344.052 253.654 344.432Z" fill="white"/>
<path d="M433.35 223.716C433.35 223.716 424.635 245.315 416.103 247.645C407.57 249.976 394.718 248.084 394.718 248.084L390.741 249.153L386.838 248.576H386.699L382.304 248.469C382.146 248.482 381.987 248.45 381.846 248.375C381.705 248.301 381.589 248.188 381.51 248.05C381.432 247.912 381.394 247.754 381.402 247.595C381.41 247.436 381.464 247.283 381.556 247.154L383.128 245.015C383.26 244.84 383.443 244.709 383.652 244.641L387.843 243.294C388.009 243.257 388.18 243.257 388.346 243.294L394.761 244.309C394.761 244.309 412.564 241.39 414.381 239.744C416.199 238.097 421.556 220.829 421.556 220.829L433.35 223.716Z" fill="#EEC1BB"/>
<path opacity="0.1" d="M395.157 244.17L394.74 244.234L388.324 243.218C388.159 243.181 387.987 243.181 387.822 243.218L383.63 244.565C383.421 244.633 383.238 244.764 383.106 244.94L381.535 247.078C381.442 247.208 381.389 247.361 381.381 247.52C381.373 247.678 381.41 247.836 381.489 247.975C381.568 248.113 381.684 248.226 381.825 248.3C381.966 248.374 382.125 248.406 382.283 248.393L386.678 248.5H386.817L389.436 248.885C391.671 247.759 393.625 246.148 395.157 244.17Z" fill="black"/>
<path d="M438.61 202.321C432.28 200.246 423.374 205.004 419.963 224.935L433.104 228.816C433.104 228.816 447.656 205.293 438.61 202.321Z" fill="#7694FF"/>
<path d="M401.786 176.274C401.786 176.937 402.139 177.461 402.566 177.461C402.994 177.461 403.368 176.894 403.336 176.253C403.304 175.611 402.983 175.076 402.556 175.087C402.128 175.098 401.786 175.622 401.786 176.274Z" fill="#263238"/>
<path d="M404.373 176.926L401.262 182.069C401.262 182.069 402.331 183.288 404.673 182.39L404.373 176.926Z" fill="#D4827D"/>
<path d="M404.961 172.147C404.923 172.19 404.875 172.222 404.821 172.241C404.766 172.26 404.708 172.264 404.651 172.253C404.231 172.181 403.799 172.211 403.391 172.339C402.984 172.467 402.613 172.691 402.31 172.991C402.244 173.052 402.158 173.086 402.069 173.086C401.98 173.086 401.894 173.052 401.829 172.991C401.767 172.924 401.733 172.836 401.733 172.745C401.733 172.654 401.767 172.566 401.829 172.499C402.206 172.113 402.672 171.824 403.186 171.659C403.701 171.493 404.247 171.455 404.78 171.548C404.825 171.553 404.868 171.567 404.908 171.589C404.947 171.612 404.982 171.642 405.01 171.678C405.038 171.713 405.058 171.754 405.07 171.798C405.082 171.842 405.085 171.888 405.079 171.933C405.063 172.014 405.022 172.089 404.961 172.147Z" fill="#263238"/>
<path d="M426.945 171.612C427.426 180.304 427.822 183.983 423.983 188.922C417.856 194.215 407.421 195.06 404.341 186.688C401.572 179.203 401.251 166.233 409.292 161.753C410.656 160.993 412.156 160.51 413.707 160.33C415.258 160.15 416.829 160.278 418.331 160.706C419.832 161.134 421.234 161.854 422.458 162.824C423.681 163.795 424.7 164.997 425.459 166.362C426.348 167.975 426.857 169.771 426.945 171.612Z" fill="#EEC1BB"/>
<path d="M414.83 190.634L417.033 203.518L427.768 201.037L424.015 187.886L414.83 190.634Z" fill="#EEC1BB"/>
<path d="M407.1 172.253C407.645 166.608 405.699 173.13 403.09 165.678C400.481 158.225 412.81 152.173 414.777 153.563C416.744 154.953 415.622 157.081 422.144 158.289C423.923 158.572 425.539 159.493 426.688 160.88C427.837 162.268 428.442 164.026 428.388 165.827C428.388 165.827 432.141 167.559 430.805 175.622C429.824 180.787 427.625 185.644 424.389 189.789C424.389 189.789 421.92 187.244 417.974 189.586C416.434 188.581 415.132 187.253 414.157 185.694C412.403 183.063 411.858 180.561 409.452 180.348C404.427 179.888 406.918 174.114 407.1 172.253Z" fill="#263238"/>
<path d="M427.693 166.801C427.693 166.801 433.04 163.529 430.666 160.097C428.292 156.664 429.436 163.882 427.693 166.801Z" fill="#263238"/>
<path d="M408.629 175.535C407.443 176.861 406.832 178.603 406.929 180.379C407.079 182.731 409.388 183.148 411.206 181.865C413.023 180.582 414.745 178.08 413.697 176.017C413.465 175.566 413.123 175.182 412.703 174.898C412.283 174.614 411.799 174.44 411.294 174.392C410.79 174.345 410.282 174.424 409.816 174.624C409.35 174.824 408.942 175.137 408.629 175.535Z" fill="#FFC3BD"/>
<path opacity="0.1" d="M415.034 191.853L415.91 196.964C415.833 195.698 416.007 194.43 416.422 193.231C416.837 192.033 417.484 190.929 418.327 189.981C417.672 190.023 417.035 190.214 416.465 190.538C415.894 190.862 415.405 191.312 415.034 191.853Z" fill="black"/>
<path d="M339.556 225.084H336.488V243.186H339.556V225.084Z" fill="#7694FF"/>
<path opacity="0.7" d="M339.556 225.084H336.488V243.186H339.556V225.084Z" fill="white"/>
<path d="M318.471 189.137H310.826C309.451 189.137 308.132 189.683 307.159 190.656C306.187 191.628 305.64 192.947 305.64 194.323V229.746C305.64 230.427 305.775 231.102 306.035 231.731C306.296 232.36 306.678 232.932 307.159 233.413C307.641 233.895 308.212 234.277 308.842 234.537C309.471 234.798 310.145 234.932 310.826 234.932H318.471V189.137Z" fill="#7694FF"/>
<path d="M365.229 189.137H313.499C310.635 189.137 308.313 191.458 308.313 194.323V229.735C308.313 232.6 310.635 234.921 313.499 234.921H365.229C368.093 234.921 370.415 232.6 370.415 229.735V194.323C370.415 191.458 368.093 189.137 365.229 189.137Z" fill="#7694FF"/>
<path opacity="0.5" d="M365.229 189.137H313.499C310.635 189.137 308.313 191.458 308.313 194.323V229.735C308.313 232.6 310.635 234.921 313.499 234.921H365.229C368.093 234.921 370.415 232.6 370.415 229.735V194.323C370.415 191.458 368.093 189.137 365.229 189.137Z" fill="white"/>
<path d="M365.229 191.275H313.499C311.816 191.275 310.452 192.64 310.452 194.323V229.736C310.452 231.419 311.816 232.783 313.499 232.783H365.229C366.912 232.783 368.276 231.419 368.276 229.736V194.323C368.276 192.64 366.912 191.275 365.229 191.275Z" fill="#263238"/>
<path d="M326.854 250.778C326.944 247.876 328.16 245.123 330.244 243.102C332.329 241.08 335.119 239.95 338.022 239.95C340.926 239.95 343.715 241.08 345.8 243.102C347.884 245.123 349.1 247.876 349.19 250.778H326.854Z" fill="#7694FF"/>
<path d="M353.211 246.972H330.874V250.596H375.547V249.11L353.211 246.972Z" fill="#7694FF"/>
<path opacity="0.8" d="M353.211 246.972H330.874V250.596H375.547V249.11L353.211 246.972Z" fill="white"/>
<path d="M353.211 250.596H330.874V246.972L353.211 249.11V250.596Z" fill="#7694FF"/>
<path opacity="0.6" d="M353.211 250.596H330.874V246.972L353.211 249.11V250.596Z" fill="white"/>
<path d="M402.459 375.386H356.386C355.467 375.388 354.556 375.208 353.707 374.857C352.857 374.506 352.085 373.991 351.435 373.342C350.784 372.692 350.268 371.921 349.916 371.072C349.564 370.223 349.383 369.313 349.383 368.393V262.454C349.383 261.535 349.564 260.624 349.916 259.775C350.268 258.926 350.784 258.155 351.435 257.505C352.085 256.856 352.857 256.341 353.707 255.99C354.556 255.639 355.467 255.46 356.386 255.461H402.459C402.956 255.461 403.432 255.658 403.783 256.009C404.133 256.36 404.331 256.836 404.331 257.332C404.331 257.828 404.133 258.304 403.783 258.655C403.432 259.006 402.956 259.203 402.459 259.203H356.386C355.96 259.196 355.538 259.274 355.142 259.432C354.747 259.59 354.387 259.825 354.083 260.124C353.78 260.422 353.539 260.778 353.374 261.171C353.21 261.564 353.125 261.985 353.125 262.411V368.351C353.125 368.776 353.21 369.198 353.374 369.591C353.539 369.983 353.78 370.339 354.083 370.638C354.387 370.936 354.747 371.172 355.142 371.33C355.538 371.488 355.96 371.565 356.386 371.558H402.459C402.956 371.558 403.432 371.755 403.783 372.106C404.133 372.457 404.331 372.933 404.331 373.429C404.342 373.682 404.302 373.935 404.213 374.172C404.125 374.409 403.989 374.625 403.814 374.808C403.639 374.991 403.429 375.137 403.196 375.236C402.963 375.335 402.712 375.386 402.459 375.386Z" fill="#263238"/>
<g opacity="0.5">
<path opacity="0.5" d="M402.459 375.386H356.386C355.467 375.388 354.556 375.208 353.707 374.857C352.857 374.506 352.085 373.991 351.435 373.342C350.784 372.692 350.268 371.921 349.916 371.072C349.564 370.223 349.383 369.313 349.383 368.393V262.454C349.383 261.535 349.564 260.624 349.916 259.775C350.268 258.926 350.784 258.155 351.435 257.505C352.085 256.856 352.857 256.341 353.707 255.99C354.556 255.639 355.467 255.46 356.386 255.461H402.459C402.956 255.461 403.432 255.658 403.783 256.009C404.133 256.36 404.331 256.836 404.331 257.332C404.331 257.828 404.133 258.304 403.783 258.655C403.432 259.006 402.956 259.203 402.459 259.203H356.386C355.96 259.196 355.538 259.274 355.142 259.432C354.747 259.59 354.387 259.825 354.083 260.124C353.78 260.422 353.539 260.778 353.374 261.171C353.21 261.564 353.125 261.985 353.125 262.411V368.351C353.125 368.776 353.21 369.198 353.374 369.591C353.539 369.983 353.78 370.339 354.083 370.638C354.387 370.936 354.747 371.172 355.142 371.33C355.538 371.488 355.96 371.565 356.386 371.558H402.459C402.956 371.558 403.432 371.755 403.783 372.106C404.133 372.457 404.331 372.933 404.331 373.429C404.342 373.682 404.302 373.935 404.213 374.172C404.125 374.409 403.989 374.625 403.814 374.808C403.639 374.991 403.429 375.137 403.196 375.236C402.963 375.335 402.712 375.386 402.459 375.386Z" fill="white"/>
</g>
<path d="M356.204 250.596H290.778V256.081H356.204V250.596Z" fill="#7694FF"/>
<path opacity="0.2" d="M356.204 250.596H290.778V256.081H356.204V250.596Z" fill="white"/>
<path d="M409.014 250.596H353.211V256.081H409.014V250.596Z" fill="#7694FF"/>
<path opacity="0.5" d="M409.014 250.596H353.211V256.081H409.014V250.596Z" fill="white"/>
<path d="M389.447 336.52L392.537 367.763H385.138L377.728 337.332L389.447 336.52Z" fill="#EEC1BB"/>
<path d="M384.443 365.677L393.884 365.838C394.057 365.842 394.223 365.904 394.355 366.015C394.487 366.126 394.577 366.278 394.611 366.447L396.194 374.156C396.261 374.484 396.196 374.824 396.014 375.104C395.832 375.384 395.547 375.582 395.221 375.653H394.953C391.543 375.536 388.538 375.301 384.261 375.226C379.268 375.14 380.519 375.76 374.638 375.75C371.099 375.75 370.521 371.697 372.018 371.526C378.915 370.778 379.663 368.714 382.358 366.298C382.953 365.842 383.695 365.622 384.443 365.677Z" fill="#263238"/>
<path opacity="0.1" d="M391.735 359.604L389.447 336.52L377.728 337.332L383.149 359.604H391.735Z" fill="black"/>
<path d="M440.107 264.485L409.762 265.555C409.762 265.555 368.886 279.85 367.816 290.831C366.64 302.144 380.369 354.119 380.369 354.119H392.569C392.569 354.119 389.201 315.98 387.918 304.304C386.635 292.628 430.463 296.488 438.076 286.533C445.036 277.402 440.107 264.485 440.107 264.485Z" fill="#263238"/>
<path opacity="0.2" d="M440.107 264.485L409.762 265.555C409.762 265.555 368.886 279.85 367.816 290.831C366.64 302.144 380.369 354.119 380.369 354.119H392.569C392.569 354.119 389.201 315.98 387.918 304.304C386.635 292.628 430.463 296.488 438.076 286.533C445.036 277.402 440.107 264.485 440.107 264.485Z" fill="black"/>
<path d="M394.601 352.408L394.868 356.717H379.792L378.316 352.408H394.601Z" fill="#7694FF"/>
<path d="M361.208 338.006L362.021 367.763H354.75L350.441 338.006H361.208Z" fill="#EEC1BB"/>
<path d="M353.745 365.678L363.186 365.838C363.359 365.842 363.525 365.905 363.657 366.016C363.789 366.126 363.88 366.279 363.914 366.448L365.496 374.157C365.563 374.484 365.498 374.825 365.316 375.105C365.134 375.385 364.849 375.582 364.523 375.654H364.256C360.845 375.536 357.84 375.301 353.563 375.226C348.559 375.141 349.821 375.761 343.94 375.75C340.401 375.75 339.824 371.698 341.321 371.527C348.217 370.778 348.966 368.715 351.66 366.298C352.255 365.841 352.997 365.62 353.745 365.678Z" fill="#263238"/>
<path opacity="0.1" d="M361.797 359.583L361.208 338.006H350.441L353.574 359.604C355.916 359.615 359.134 359.594 361.797 359.583Z" fill="black"/>
<path d="M426.913 266.998C426.913 266.998 429.436 290.072 405.967 291.152C382.497 292.232 364.17 294.916 363.636 303.266C363.101 311.617 363.636 354.162 363.636 354.162H350.88C350.88 354.162 345.918 327.26 343.983 310.58C342.101 294.381 338.637 282.63 355.285 277.145C372.959 271.307 404.373 265.918 404.373 265.918L426.998 264.485L426.913 266.998Z" fill="#263238"/>
<path d="M365.517 352.408L364.716 356.717H350.709L349.233 352.408H365.517Z" fill="#7694FF"/>
<path d="M431.97 200.802C431.97 200.802 431.97 195.606 421.46 196.204C410.297 196.846 412.403 201.828 412.403 201.828L431.97 200.802Z" fill="#7694FF"/>
<path opacity="0.3" d="M431.97 200.802C431.97 200.802 431.97 195.606 421.46 196.204C410.297 196.846 412.403 201.828 412.403 201.828L431.97 200.802Z" fill="black"/>
<path d="M441.764 224.111C441.059 234.386 441.305 265.298 441.305 265.298C441.305 265.298 418.851 266.773 401.23 266.196L399.188 206.736C399.195 205.685 399.52 204.66 400.119 203.796C400.718 202.932 401.563 202.269 402.545 201.892C407.528 199.957 419.225 197.765 437.52 200.171C443.828 201.016 442.598 211.964 441.764 224.111Z" fill="#7694FF"/>
<path d="M402.791 223.716C402.791 223.716 394.066 245.315 385.544 247.645C377.022 249.976 364.159 248.084 364.159 248.084L360.182 249.153L356.29 248.576H356.151L351.746 248.469C351.587 248.482 351.428 248.45 351.288 248.375C351.147 248.301 351.03 248.188 350.952 248.05C350.873 247.912 350.835 247.754 350.843 247.595C350.852 247.436 350.905 247.283 350.997 247.154L352.58 245.015C352.712 244.84 352.895 244.709 353.104 244.641L357.284 243.294C357.453 243.257 357.629 243.257 357.798 243.294L364.213 244.309C364.213 244.309 382.016 241.39 383.823 239.744C385.63 238.097 391.008 220.829 391.008 220.829L402.791 223.716Z" fill="#EEC1BB"/>
<path opacity="0.1" d="M402.566 213.665C402.566 213.665 401.209 215.28 399.562 217.611L400.15 234.825C406.704 231.928 409.303 215.055 409.303 215.055L405.026 212.04L402.566 213.665Z" fill="black"/>
<path d="M408.052 202.321C401.722 200.246 392.804 205.004 389.393 224.935L402.545 228.773C402.545 228.773 417.097 205.293 408.052 202.321Z" fill="#7694FF"/>
<path d="M416.424 302.347H406.533V331.334H416.424V302.347Z" fill="#263238"/>
<path opacity="0.6" d="M416.424 302.347H406.533V331.334H416.424V302.347Z" fill="white"/>
<path d="M417.953 357.594V320.77H404.994V357.594L375.493 361.689V365.784L411.473 362.716L447.453 365.784V361.689L417.953 357.594Z" fill="#263238"/>
<path d="M375.066 375.825C377.221 375.825 378.968 374.078 378.968 371.922C378.968 369.767 377.221 368.02 375.066 368.02C372.91 368.02 371.163 369.767 371.163 371.922C371.163 374.078 372.91 375.825 375.066 375.825Z" fill="#7694FF"/>
<path d="M447.453 375.825C449.608 375.825 451.355 374.078 451.355 371.922C451.355 369.767 449.608 368.02 447.453 368.02C445.297 368.02 443.55 369.767 443.55 371.922C443.55 374.078 445.297 375.825 447.453 375.825Z" fill="#7694FF"/>
<path d="M411.473 375.825C413.629 375.825 415.376 374.078 415.376 371.922C415.376 369.767 413.629 368.02 411.473 368.02C409.318 368.02 407.57 369.767 407.57 371.922C407.57 374.078 409.318 375.825 411.473 375.825Z" fill="#7694FF"/>
<path opacity="0.3" d="M416.424 302.347H406.533V309.511H416.424V302.347Z" fill="black"/>
<path d="M450.575 236.643H418.348C415.815 236.645 413.373 237.592 411.501 239.298C409.628 241.004 408.459 243.348 408.223 245.87L405.507 274.985C405.205 278.194 403.759 281.187 401.433 283.417C399.106 285.648 396.055 286.966 392.836 287.132L361.732 288.693C359.912 288.786 358.197 289.575 356.942 290.896C355.686 292.217 354.986 293.97 354.985 295.793V296.445C354.985 298.007 355.606 299.506 356.711 300.611C357.816 301.716 359.314 302.336 360.877 302.336H455.6L460.701 247.805C460.838 246.393 460.678 244.967 460.232 243.62C459.785 242.273 459.062 241.034 458.109 239.983C457.155 238.932 455.992 238.091 454.695 237.516C453.397 236.941 451.994 236.643 450.575 236.643Z" fill="#7694FF"/>
<path opacity="0.3" d="M450.575 236.643H418.348C415.815 236.645 413.373 237.592 411.501 239.298C409.628 241.004 408.459 243.348 408.223 245.87L405.507 274.985C405.205 278.194 403.759 281.187 401.433 283.417C399.106 285.648 396.055 286.966 392.836 287.132L361.732 288.693C359.912 288.786 358.197 289.575 356.942 290.896C355.686 292.217 354.986 293.97 354.985 295.793V296.445C354.985 298.007 355.606 299.506 356.711 300.611C357.816 301.716 359.314 302.336 360.877 302.336H455.6L460.701 247.805C460.838 246.393 460.678 244.967 460.232 243.62C459.785 242.273 459.062 241.034 458.109 239.983C457.155 238.932 455.992 238.091 454.695 237.516C453.397 236.941 451.994 236.643 450.575 236.643Z" fill="white"/>
<path d="M376.605 269.447H381.043V292.66C381.043 293.227 380.817 293.771 380.416 294.172C380.015 294.573 379.471 294.799 378.904 294.799H378.744C378.177 294.799 377.633 294.573 377.232 294.172C376.831 293.771 376.605 293.227 376.605 292.66V269.447Z" fill="#263238"/>
<path opacity="0.2" d="M376.605 269.447H381.043V292.66C381.043 293.227 380.817 293.771 380.416 294.172C380.015 294.573 379.471 294.799 378.904 294.799H378.744C378.177 294.799 377.633 294.573 377.232 294.172C376.831 293.771 376.605 293.227 376.605 292.66V269.447Z" fill="white"/>
<path d="M398.001 262.786H388.132V270.965H398.022C398.577 270.994 399.131 270.909 399.652 270.716C400.173 270.523 400.649 270.227 401.052 269.844C401.455 269.462 401.775 269.001 401.994 268.491C402.213 267.98 402.326 267.431 402.326 266.875C402.326 266.32 402.213 265.77 401.994 265.26C401.775 264.75 401.455 264.289 401.052 263.907C400.649 263.524 400.173 263.227 399.652 263.035C399.131 262.842 398.577 262.757 398.022 262.786H398.001Z" fill="#7694FF"/>
<path opacity="0.5" d="M398.001 262.786H388.132V270.965H398.022C398.577 270.994 399.131 270.909 399.652 270.716C400.173 270.523 400.649 270.227 401.052 269.844C401.455 269.462 401.775 269.001 401.994 268.491C402.213 267.98 402.326 267.431 402.326 266.875C402.326 266.32 402.213 265.77 401.994 265.26C401.775 264.75 401.455 264.289 401.052 263.907C400.649 263.524 400.173 263.227 399.652 263.035C399.131 262.842 398.577 262.757 398.022 262.786H398.001Z" fill="white"/>
<path d="M394.055 262.785H359.487C357.308 262.785 355.542 264.552 355.542 266.731V267.03C355.542 269.209 357.308 270.975 359.487 270.975H394.055C396.234 270.975 398.001 269.209 398.001 267.03V266.731C398.001 264.552 396.234 262.785 394.055 262.785Z" fill="#7694FF"/>
<path opacity="0.3" d="M394.055 262.785H359.487C357.308 262.785 355.542 264.552 355.542 266.731V267.03C355.542 269.209 357.308 270.975 359.487 270.975H394.055C396.234 270.975 398.001 269.209 398.001 267.03V266.731C398.001 264.552 396.234 262.785 394.055 262.785Z" fill="white"/>
<path d="M457.824 302.347H410.447L415.729 245.924C415.966 243.401 417.134 241.058 419.007 239.352C420.879 237.645 423.321 236.698 425.854 236.696H458.081C459.496 236.698 460.896 236.994 462.19 237.567C463.484 238.139 464.645 238.976 465.597 240.022C466.55 241.068 467.274 242.302 467.724 243.644C468.173 244.986 468.337 246.407 468.207 247.816L463.598 297.151C463.448 298.577 462.774 299.897 461.708 300.857C460.642 301.816 459.259 302.347 457.824 302.347Z" fill="#7694FF"/>
<path opacity="0.5" d="M457.824 302.347H410.447L415.729 245.924C415.966 243.401 417.134 241.058 419.007 239.352C420.879 237.645 423.321 236.698 425.854 236.696H458.081C459.496 236.698 460.896 236.994 462.19 237.567C463.484 238.139 464.645 238.976 465.597 240.022C466.55 241.068 467.274 242.302 467.724 243.644C468.173 244.986 468.337 246.407 468.207 247.816L463.598 297.151C463.448 298.577 462.774 299.897 461.708 300.857C460.642 301.816 459.259 302.347 457.824 302.347Z" fill="white"/>
<path d="M347.148 375.386H301.075C300.156 375.388 299.245 375.208 298.395 374.857C297.546 374.506 296.774 373.991 296.123 373.342C295.473 372.692 294.957 371.921 294.605 371.072C294.253 370.223 294.071 369.313 294.071 368.393V262.454C294.071 261.535 294.253 260.624 294.605 259.775C294.957 258.926 295.473 258.155 296.123 257.505C296.774 256.856 297.546 256.341 298.395 255.99C299.245 255.639 300.156 255.46 301.075 255.461H347.148C347.644 255.461 348.12 255.658 348.471 256.009C348.822 256.36 349.019 256.836 349.019 257.332C349.019 257.828 348.822 258.304 348.471 258.655C348.12 259.006 347.644 259.203 347.148 259.203H301.075C300.649 259.196 300.226 259.274 299.831 259.432C299.435 259.59 299.075 259.825 298.772 260.124C298.468 260.422 298.227 260.778 298.063 261.171C297.898 261.564 297.814 261.985 297.814 262.411V368.351C297.814 368.776 297.898 369.198 298.063 369.591C298.227 369.983 298.468 370.339 298.772 370.638C299.075 370.936 299.435 371.172 299.831 371.33C300.226 371.488 300.649 371.565 301.075 371.558H347.148C347.644 371.558 348.12 371.755 348.471 372.106C348.822 372.457 349.019 372.933 349.019 373.429C349.031 373.682 348.991 373.935 348.902 374.172C348.813 374.409 348.677 374.625 348.502 374.808C348.327 374.991 348.117 375.137 347.884 375.236C347.652 375.335 347.401 375.386 347.148 375.386Z" fill="#263238"/>
<g opacity="0.5">
<path opacity="0.5" d="M347.148 375.386H301.075C300.156 375.388 299.245 375.208 298.395 374.857C297.546 374.506 296.774 373.991 296.123 373.342C295.473 372.692 294.957 371.921 294.605 371.072C294.253 370.223 294.071 369.313 294.071 368.393V262.454C294.071 261.535 294.253 260.624 294.605 259.775C294.957 258.926 295.473 258.155 296.123 257.505C296.774 256.856 297.546 256.341 298.395 255.99C299.245 255.639 300.156 255.46 301.075 255.461H347.148C347.644 255.461 348.12 255.658 348.471 256.009C348.822 256.36 349.019 256.836 349.019 257.332C349.019 257.828 348.822 258.304 348.471 258.655C348.12 259.006 347.644 259.203 347.148 259.203H301.075C300.649 259.196 300.226 259.274 299.831 259.432C299.435 259.59 299.075 259.825 298.772 260.124C298.468 260.422 298.227 260.778 298.063 261.171C297.898 261.564 297.814 261.985 297.814 262.411V368.351C297.814 368.776 297.898 369.198 298.063 369.591C298.227 369.983 298.468 370.339 298.772 370.638C299.075 370.936 299.435 371.172 299.831 371.33C300.226 371.488 300.649 371.565 301.075 371.558H347.148C347.644 371.558 348.12 371.755 348.471 372.106C348.822 372.457 349.019 372.933 349.019 373.429C349.031 373.682 348.991 373.935 348.902 374.172C348.813 374.409 348.677 374.625 348.502 374.808C348.327 374.991 348.117 375.137 347.884 375.236C347.652 375.335 347.401 375.386 347.148 375.386Z" fill="white"/>
</g>
<path d="M316.696 199.722L313.489 197.584C313.407 197.532 313.34 197.46 313.293 197.375C313.247 197.29 313.222 197.194 313.222 197.097C313.222 197 313.247 196.905 313.293 196.82C313.34 196.735 313.407 196.663 313.489 196.611L316.696 194.472C316.814 194.395 316.958 194.367 317.096 194.395C317.234 194.423 317.356 194.505 317.434 194.622C317.508 194.739 317.534 194.88 317.506 195.016C317.478 195.152 317.399 195.271 317.284 195.349L314.622 197.113L317.284 198.878C317.399 198.956 317.478 199.075 317.506 199.211C317.534 199.347 317.508 199.488 317.434 199.605C317.349 199.715 317.226 199.788 317.088 199.81C316.951 199.832 316.811 199.8 316.696 199.722Z" fill="white"/>
<path d="M323.796 199.573C323.732 199.456 323.715 199.318 323.749 199.189C323.783 199.06 323.865 198.949 323.978 198.878L326.64 197.114L323.978 195.317C323.863 195.239 323.784 195.119 323.758 194.982C323.732 194.846 323.761 194.705 323.839 194.59C323.877 194.532 323.925 194.483 323.982 194.444C324.039 194.405 324.104 194.378 324.171 194.364C324.239 194.35 324.308 194.35 324.376 194.363C324.444 194.376 324.508 194.402 324.566 194.44L327.773 196.579C327.855 196.631 327.922 196.703 327.969 196.788C328.016 196.873 328.04 196.968 328.04 197.065C328.04 197.162 328.016 197.258 327.969 197.343C327.922 197.428 327.855 197.5 327.773 197.552L324.566 199.69C324.508 199.735 324.442 199.768 324.372 199.787C324.301 199.805 324.228 199.809 324.155 199.798C324.083 199.787 324.014 199.761 323.952 199.722C323.891 199.684 323.837 199.633 323.796 199.573Z" fill="white"/>
<path d="M319.401 201.016C319.335 200.995 319.274 200.961 319.22 200.917C319.167 200.872 319.124 200.817 319.092 200.756C319.06 200.694 319.041 200.627 319.035 200.557C319.029 200.488 319.038 200.419 319.059 200.353L321.273 193.36C321.292 193.294 321.325 193.233 321.368 193.18C321.412 193.127 321.465 193.083 321.526 193.051C321.587 193.019 321.654 193 321.722 192.994C321.791 192.988 321.86 192.996 321.925 193.018C321.991 193.037 322.052 193.07 322.105 193.113C322.158 193.157 322.202 193.211 322.234 193.272C322.266 193.332 322.285 193.399 322.291 193.467C322.296 193.536 322.288 193.605 322.267 193.67L320.064 200.673C320.044 200.74 320.01 200.801 319.965 200.854C319.921 200.908 319.866 200.951 319.804 200.983C319.743 201.015 319.675 201.034 319.606 201.04C319.537 201.045 319.467 201.037 319.401 201.016Z" fill="white"/>
<path d="M337.557 206.362H313.745C313.673 206.362 313.601 206.348 313.534 206.319C313.467 206.291 313.407 206.25 313.356 206.199C313.305 206.147 313.265 206.085 313.238 206.018C313.212 205.951 313.199 205.878 313.2 205.806C313.199 205.733 313.212 205.661 313.238 205.594C313.265 205.527 313.305 205.465 313.356 205.413C313.407 205.362 313.467 205.321 313.534 205.293C313.601 205.264 313.673 205.25 313.745 205.25H337.557C337.705 205.25 337.846 205.309 337.95 205.413C338.054 205.517 338.113 205.659 338.113 205.806C338.113 205.879 338.099 205.951 338.071 206.019C338.043 206.086 338.002 206.148 337.95 206.199C337.899 206.251 337.837 206.292 337.77 206.32C337.702 206.348 337.63 206.362 337.557 206.362Z" fill="white"/>
<path d="M364.908 206.362H341.086C341.013 206.362 340.94 206.348 340.873 206.32C340.805 206.292 340.744 206.251 340.692 206.199C340.641 206.148 340.6 206.086 340.572 206.019C340.544 205.952 340.53 205.879 340.53 205.806C340.54 205.666 340.604 205.536 340.707 205.44C340.81 205.345 340.945 205.293 341.086 205.293H364.887C365.034 205.293 365.176 205.352 365.28 205.456C365.384 205.56 365.443 205.702 365.443 205.849C365.432 205.985 365.372 206.113 365.273 206.208C365.175 206.302 365.045 206.357 364.908 206.362Z" fill="white"/>
<path d="M327.357 211.26H313.745C313.673 211.26 313.601 211.245 313.534 211.217C313.467 211.189 313.407 211.148 313.356 211.096C313.305 211.044 313.265 210.983 313.238 210.915C313.212 210.848 313.199 210.776 313.2 210.704C313.2 210.559 313.257 210.42 313.36 210.318C313.462 210.216 313.601 210.158 313.745 210.158H327.357C327.502 210.158 327.642 210.215 327.746 210.317C327.85 210.419 327.91 210.558 327.913 210.704C327.913 210.851 327.854 210.992 327.75 211.097C327.645 211.201 327.504 211.26 327.357 211.26Z" fill="white"/>
<path d="M353.189 211.26H330.896C330.823 211.26 330.751 211.245 330.684 211.217C330.618 211.189 330.557 211.148 330.506 211.096C330.455 211.044 330.415 210.983 330.389 210.915C330.362 210.848 330.349 210.776 330.35 210.704C330.35 210.559 330.408 210.42 330.51 210.318C330.612 210.216 330.751 210.158 330.896 210.158H353.189C353.334 210.158 353.472 210.216 353.575 210.318C353.677 210.42 353.734 210.559 353.734 210.704C353.736 210.776 353.723 210.848 353.696 210.915C353.669 210.983 353.629 211.044 353.579 211.096C353.528 211.148 353.467 211.189 353.4 211.217C353.333 211.245 353.262 211.26 353.189 211.26Z" fill="white"/>
<path d="M350.014 216.167H313.745C313.6 216.164 313.461 216.104 313.359 216C313.257 215.896 313.2 215.756 313.2 215.611C313.199 215.538 313.212 215.466 313.238 215.399C313.265 215.331 313.305 215.27 313.356 215.218C313.407 215.166 313.467 215.125 313.534 215.097C313.601 215.069 313.673 215.055 313.745 215.055H350.014C350.161 215.055 350.302 215.113 350.407 215.218C350.511 215.322 350.57 215.463 350.57 215.611C350.57 215.758 350.511 215.9 350.407 216.004C350.302 216.108 350.161 216.167 350.014 216.167Z" fill="white"/>
<path d="M361.134 216.167H353.563C353.416 216.167 353.275 216.108 353.17 216.004C353.066 215.9 353.007 215.758 353.007 215.611C353.007 215.463 353.066 215.322 353.17 215.218C353.275 215.113 353.416 215.055 353.563 215.055H361.134C361.281 215.055 361.423 215.113 361.527 215.218C361.631 215.322 361.69 215.463 361.69 215.611C361.69 215.758 361.631 215.9 361.527 216.004C361.423 216.108 361.281 216.167 361.134 216.167Z" fill="white"/>
<path d="M330.682 221.064H313.745C313.673 221.064 313.601 221.05 313.534 221.022C313.467 220.994 313.407 220.952 313.356 220.901C313.305 220.849 313.265 220.788 313.238 220.72C313.212 220.653 313.199 220.581 313.2 220.508C313.199 220.436 313.212 220.364 313.238 220.296C313.265 220.229 313.305 220.167 313.356 220.116C313.407 220.064 313.467 220.023 313.534 219.995C313.601 219.967 313.673 219.952 313.745 219.952H330.682C330.829 219.952 330.971 220.011 331.075 220.115C331.179 220.219 331.238 220.361 331.238 220.508C331.238 220.656 331.179 220.797 331.075 220.901C330.971 221.006 330.829 221.064 330.682 221.064Z" fill="white"/>
<path d="M355.306 221.064H334.232C334.084 221.064 333.943 221.006 333.838 220.901C333.734 220.797 333.676 220.656 333.676 220.508C333.676 220.361 333.734 220.219 333.838 220.115C333.943 220.011 334.084 219.952 334.232 219.952H355.306C355.454 219.952 355.595 220.011 355.699 220.115C355.804 220.219 355.862 220.361 355.862 220.508C355.862 220.656 355.804 220.797 355.699 220.901C355.595 221.006 355.454 221.064 355.306 221.064Z" fill="white"/>
<path d="M337.557 225.961H313.745C313.673 225.961 313.601 225.946 313.534 225.918C313.467 225.89 313.407 225.849 313.356 225.797C313.305 225.746 313.265 225.684 313.238 225.617C313.212 225.549 313.199 225.477 313.2 225.405C313.2 225.26 313.257 225.121 313.36 225.019C313.462 224.917 313.601 224.859 313.745 224.859H337.557C337.63 224.858 337.702 224.871 337.769 224.898C337.836 224.925 337.898 224.965 337.95 225.015C338.001 225.066 338.042 225.127 338.071 225.194C338.099 225.26 338.113 225.332 338.113 225.405C338.113 225.552 338.054 225.694 337.95 225.798C337.846 225.902 337.705 225.961 337.557 225.961Z" fill="white"/>
<path d="M357.905 225.961H341.086C340.938 225.961 340.797 225.902 340.692 225.798C340.588 225.694 340.53 225.552 340.53 225.405C340.53 225.332 340.544 225.26 340.572 225.194C340.6 225.127 340.641 225.066 340.693 225.015C340.745 224.965 340.806 224.925 340.874 224.898C340.941 224.871 341.013 224.858 341.086 224.859H357.883C358.028 224.859 358.167 224.917 358.269 225.019C358.371 225.121 358.428 225.26 358.428 225.405C358.431 225.548 358.378 225.686 358.28 225.79C358.182 225.894 358.047 225.955 357.905 225.961Z" fill="white"/>
<path d="M151.264 130.254C151.703 135.29 150.612 144.411 146.816 147.362C153.007 149.596 159.572 153.446 163.764 158.524C167.923 152.473 163.197 149.019 163.197 149.019C157.851 147.116 158.418 143.063 159.797 139.332L151.264 130.254Z" fill="#B97964"/>
<path d="M171.505 125.913C171.441 126.544 171.74 127.089 172.157 127.132C172.574 127.174 172.948 126.683 173.013 126.062C173.077 125.442 172.777 124.886 172.36 124.843C171.943 124.801 171.58 125.282 171.505 125.913Z" fill="#263238"/>
<path d="M172.2 124.854L173.75 124.555C173.75 124.555 172.863 125.699 172.2 124.854Z" fill="#263238"/>
<path d="M171.719 126.586C172.155 128.09 172.792 129.528 173.611 130.863C173.265 131.063 172.879 131.186 172.48 131.223C172.081 131.26 171.679 131.21 171.302 131.077L171.719 126.586Z" fill="#A24E3F"/>
<path d="M173.301 122.587C173.4 122.572 173.491 122.523 173.558 122.448C173.624 122.377 173.661 122.284 173.661 122.186C173.661 122.089 173.624 121.996 173.558 121.924C173.118 121.523 172.589 121.233 172.014 121.079C171.439 120.924 170.836 120.91 170.254 121.037C170.172 121.094 170.114 121.179 170.093 121.276C170.071 121.373 170.086 121.475 170.136 121.561C170.169 121.616 170.217 121.661 170.273 121.691C170.33 121.721 170.393 121.735 170.457 121.732C170.919 121.644 171.396 121.664 171.849 121.792C172.302 121.92 172.719 122.152 173.066 122.47C173.128 122.535 173.212 122.577 173.301 122.587Z" fill="#263238"/>
<path d="M150.762 121.893C150.516 129.709 150.249 133.034 153.734 137.397C158.984 143.951 168.49 142.518 171.035 134.905C173.323 128.051 173.344 116.375 166.148 112.59C158.952 108.805 150.986 114.055 150.762 121.893Z" fill="#B97964"/>
<path d="M151.104 136.658C143.416 135.343 145.619 130.5 145.619 130.5C138.049 128.971 143.897 125.271 143.897 125.271C137.6 122.555 143.897 120.117 143.897 120.117C137.824 115.081 146.485 113.338 146.485 113.338C144.346 105.479 151.831 108.709 151.831 108.709C155.894 101.951 159.401 108.398 159.401 108.398C166.522 98.7754 168.255 106.891 168.255 106.891C175.536 104.977 172.745 112.633 172.745 112.633C178.733 114.236 174.028 117.273 174.028 117.273C176.338 120.192 167.987 120.695 167.987 120.695C167.987 120.695 171.965 127.11 167.987 128.874L157.872 136.626C157.872 136.626 153.2 134.723 151.104 136.658Z" fill="#263238"/>
<path d="M158.664 130.35C158.664 130.35 164.01 117.519 159.829 106.571L163.357 105.362C163.357 105.362 167.966 121.283 158.664 130.35Z" fill="#7694FF"/>
<path d="M163.999 128.939C164.876 130.778 165.218 131.58 166.48 132.146C166.869 132.37 167.316 132.474 167.764 132.445C168.213 132.417 168.643 132.257 169.001 131.985C169.359 131.714 169.629 131.343 169.778 130.919C169.926 130.495 169.947 130.037 169.837 129.602C169.506 127.763 168.094 125.057 166.137 125.004C165.68 125.006 165.231 125.131 164.839 125.366C164.446 125.601 164.123 125.937 163.905 126.339C163.686 126.741 163.58 127.194 163.596 127.652C163.613 128.109 163.752 128.553 163.999 128.939Z" fill="#B97964"/>
<path d="M158.471 155.648C158.471 155.648 165.71 160.995 168.65 163.133L189.596 153.253C189.567 152.092 189.888 150.949 190.517 149.972C191.146 148.996 192.055 148.232 193.125 147.779L194.622 147.159L197.776 145.747C198.364 145.485 199.011 145.382 199.651 145.45C200.291 145.517 200.902 145.753 201.422 146.132C202.033 146.578 202.491 147.201 202.734 147.917C202.978 148.633 202.993 149.406 202.78 150.131C202.34 151.635 201.518 152.999 200.393 154.089C199.269 155.18 197.881 155.96 196.365 156.354L193.307 157.156C193.307 157.156 175.354 170.757 168.939 171.078C162.523 171.398 153.125 165.101 153.125 165.101L158.471 155.648Z" fill="#B97964"/>
<path d="M141.064 146.634C146.592 146.634 152.772 150.077 162.449 156.385C161.059 160.933 158.474 165.024 154.964 168.232C154.964 168.232 149.618 166.8 142.518 160.117C133.964 152.023 137.674 146.644 141.064 146.634Z" fill="#263238"/>
<path d="M246.063 162.652H193.67C193.229 162.659 192.792 162.572 192.388 162.397C191.983 162.223 191.62 161.964 191.323 161.638C191.025 161.313 190.801 160.928 190.664 160.509C190.526 160.09 190.48 159.647 190.527 159.209L194.472 114.108C194.566 113.176 194.999 112.31 195.689 111.676C196.379 111.041 197.277 110.682 198.214 110.665H250.607C251.047 110.658 251.484 110.745 251.888 110.92C252.293 111.094 252.655 111.353 252.951 111.679C253.248 112.005 253.471 112.39 253.607 112.809C253.743 113.228 253.788 113.671 253.74 114.108L249.794 159.209C249.7 160.139 249.269 161.003 248.581 161.638C247.894 162.272 246.998 162.633 246.063 162.652Z" fill="#7694FF"/>
<path opacity="0.4" d="M246.063 162.652H193.67C193.229 162.659 192.792 162.572 192.388 162.397C191.983 162.223 191.62 161.964 191.323 161.638C191.025 161.313 190.801 160.928 190.664 160.509C190.526 160.09 190.48 159.647 190.527 159.209L194.472 114.108C194.566 113.176 194.999 112.31 195.689 111.676C196.379 111.041 197.277 110.682 198.214 110.665H250.607C251.047 110.658 251.484 110.745 251.888 110.92C252.293 111.094 252.655 111.353 252.951 111.679C253.248 112.005 253.471 112.39 253.607 112.809C253.743 113.228 253.788 113.671 253.74 114.108L249.794 159.209C249.7 160.139 249.269 161.003 248.581 161.638C247.894 162.272 246.998 162.633 246.063 162.652Z" fill="white"/>
<path opacity="0.7" d="M246.255 160.513C246.609 160.507 246.949 160.37 247.209 160.13C247.47 159.889 247.632 159.561 247.666 159.209L251.612 114.108C251.63 113.943 251.613 113.775 251.561 113.616C251.51 113.458 251.425 113.312 251.313 113.188C251.201 113.065 251.063 112.967 250.91 112.901C250.757 112.834 250.592 112.801 250.425 112.804H198.033C197.677 112.81 197.336 112.946 197.074 113.186C196.812 113.427 196.647 113.755 196.611 114.108L192.676 159.209C192.658 159.374 192.675 159.542 192.726 159.701C192.778 159.859 192.863 160.005 192.975 160.129C193.087 160.252 193.224 160.35 193.377 160.416C193.53 160.483 193.696 160.516 193.863 160.513H246.255Z" fill="white"/>
<path d="M209.848 133.996L192.74 158.76V159.209C192.722 159.374 192.739 159.542 192.791 159.701C192.842 159.859 192.927 160.005 193.039 160.129C193.151 160.252 193.289 160.35 193.442 160.416C193.595 160.483 193.76 160.516 193.927 160.513H223.609L209.848 133.996Z" fill="#7694FF"/>
<path opacity="0.3" d="M209.848 133.996L192.74 158.76V159.209C192.722 159.374 192.739 159.542 192.791 159.701C192.842 159.859 192.927 160.005 193.039 160.129C193.151 160.252 193.289 160.35 193.442 160.416C193.595 160.483 193.76 160.516 193.927 160.513H223.609L209.848 133.996Z" fill="white"/>
<path d="M247.816 157.487L233.478 130.254L212.243 160.513H246.255C246.609 160.507 246.949 160.371 247.209 160.13C247.47 159.889 247.632 159.562 247.667 159.209L247.816 157.487Z" fill="#7694FF"/>
<path d="M227.939 125.442C227.808 126.745 227.204 127.955 226.24 128.842C225.276 129.729 224.02 130.231 222.711 130.254C222.094 130.265 221.483 130.145 220.916 129.901C220.35 129.658 219.842 129.296 219.426 128.841C219.01 128.386 218.696 127.847 218.505 127.261C218.314 126.675 218.249 126.055 218.316 125.442C218.444 124.137 219.048 122.924 220.012 122.035C220.976 121.146 222.233 120.642 223.545 120.62C224.162 120.608 224.775 120.729 225.342 120.973C225.909 121.217 226.418 121.58 226.834 122.036C227.249 122.493 227.563 123.033 227.754 123.62C227.945 124.207 228.008 124.828 227.939 125.442Z" fill="#7694FF"/>
<path opacity="0.4" d="M227.939 125.442C227.808 126.745 227.204 127.955 226.24 128.842C225.276 129.729 224.02 130.231 222.711 130.254C222.094 130.265 221.483 130.145 220.916 129.901C220.35 129.658 219.842 129.296 219.426 128.841C219.01 128.386 218.696 127.847 218.505 127.261C218.314 126.675 218.249 126.055 218.316 125.442C218.444 124.137 219.048 122.924 220.012 122.035C220.976 121.146 222.233 120.642 223.545 120.62C224.162 120.608 224.775 120.729 225.342 120.973C225.909 121.217 226.418 121.58 226.834 122.036C227.249 122.493 227.563 123.033 227.754 123.62C227.945 124.207 228.008 124.828 227.939 125.442Z" fill="white"/>
<path d="M97.1933 344.688L91.8685 360.47L100.027 363.806L106.41 349.243L97.1933 344.688Z" fill="#B97964"/>
<path d="M102.956 363.411C102.915 363.385 102.881 363.349 102.858 363.306C102.835 363.262 102.825 363.214 102.828 363.165C102.834 363.118 102.855 363.074 102.888 363.039C102.92 363.004 102.963 362.981 103.01 362.972C103.181 362.972 107.03 362.074 108.463 362.972C108.734 363.138 108.93 363.403 109.008 363.71C109.068 363.881 109.074 364.067 109.024 364.241C108.974 364.415 108.872 364.57 108.73 364.683C108.185 365.068 106.913 364.908 105.747 364.544C104.786 364.247 103.853 363.868 102.956 363.411ZM103.769 363.336C105.448 364.084 107.821 364.801 108.442 364.33C108.527 364.266 108.634 364.159 108.549 363.828C108.532 363.731 108.492 363.639 108.433 363.561C108.373 363.483 108.295 363.42 108.206 363.379C108.08 363.299 107.943 363.238 107.8 363.197C106.46 362.987 105.092 363.034 103.769 363.336Z" fill="#7694FF"/>
<path d="M102.839 363.357C102.818 363.321 102.807 363.281 102.807 363.24C102.807 363.198 102.818 363.158 102.839 363.122C102.839 363.015 103.908 360.556 105.416 359.914C105.631 359.824 105.862 359.778 106.095 359.778C106.328 359.778 106.559 359.824 106.774 359.914C107.362 360.16 107.458 360.534 107.405 360.791C107.276 361.914 104.389 363.25 103.128 363.4C103.113 363.407 103.096 363.411 103.079 363.411C103.063 363.411 103.046 363.407 103.031 363.4C102.998 363.41 102.963 363.411 102.93 363.403C102.896 363.396 102.865 363.38 102.839 363.357ZM106.464 360.331C106.187 360.23 105.884 360.23 105.608 360.331C104.656 360.922 103.91 361.792 103.47 362.823C104.849 362.491 106.816 361.358 106.955 360.684C106.955 360.62 106.955 360.449 106.592 360.299H106.464V360.331Z" fill="#7694FF"/>
<path d="M102.4 361.796L92.1572 358.588C91.9696 358.53 91.768 358.538 91.5854 358.61C91.4028 358.682 91.2501 358.814 91.1521 358.984L86.7255 366.746C86.6298 366.91 86.5674 367.09 86.542 367.278C86.5165 367.466 86.5285 367.656 86.5772 367.839C86.626 368.022 86.7104 368.194 86.8258 368.344C86.9412 368.494 87.0852 368.62 87.2494 368.714C87.3368 368.767 87.4301 368.81 87.5274 368.842C91.2377 369.911 94.5844 370.724 99.1821 372.157C104.614 373.825 103.031 374.049 109.383 376.113C113.21 377.353 115.263 373.194 113.659 372.477C106.485 369.27 106.41 366.746 104.357 363.186C103.893 362.503 103.198 362.009 102.4 361.796Z" fill="#263238"/>
<path opacity="0.2" d="M94.6378 352.259L103.192 356.578L106.41 349.243L97.1933 344.688L94.6378 352.259Z" fill="#263238"/>
<path d="M133.355 198.717C133.355 198.717 121.861 207.495 124.32 234.996C124.555 237.541 125.389 240.203 125.389 243.111C125.389 245.047 124.854 246.405 124.224 250.756C123.304 257.086 121.615 280.695 119.829 283.764C118.043 286.832 117.316 286.287 112.344 294.755C106.998 303.865 100.048 319.84 94.6699 346.913C98.261 349.447 102.363 351.166 106.688 351.949C106.688 351.949 136.06 305.629 142.304 288.383C147.896 272.954 154.558 223.715 154.558 223.715L155.092 202.331L133.355 198.717Z" fill="#7694FF"/>
<path opacity="0.1" d="M145.929 234.995H137.61C137.61 234.995 134.873 261.17 143.919 283.004C144.86 279.497 145.811 275.295 146.742 270.75L150.345 247.698C149.832 243.806 149.436 240.833 149.372 240.641C149.19 240.031 145.929 234.995 145.929 234.995Z" fill="black"/>
<path d="M144.56 351.04L144.614 367.816L154.076 367.185L155.531 351.04H144.56Z" fill="#B97964"/>
<path d="M155.167 366.896C155.12 366.89 155.076 366.869 155.041 366.837C155.007 366.804 154.983 366.761 154.975 366.714C154.964 366.667 154.968 366.618 154.987 366.574C155.007 366.529 155.04 366.492 155.082 366.468C155.231 366.383 158.578 364.33 160.235 364.693C160.544 364.762 160.815 364.946 160.994 365.207C161.105 365.351 161.169 365.525 161.179 365.706C161.188 365.888 161.143 366.068 161.048 366.223C160.225 366.839 159.208 367.139 158.182 367.067C157.174 367.101 156.165 367.044 155.167 366.896ZM155.916 366.565C157.744 366.725 160.193 366.618 160.652 365.966C160.716 365.88 160.77 365.741 160.588 365.453C160.538 365.369 160.47 365.297 160.389 365.243C160.307 365.189 160.215 365.155 160.118 365.143C159.972 365.121 159.825 365.121 159.679 365.143C158.344 365.366 157.065 365.85 155.916 366.565Z" fill="#7694FF"/>
<path d="M155.039 366.896C155.003 366.873 154.974 366.841 154.953 366.804C154.932 366.767 154.922 366.725 154.921 366.682C154.921 366.565 155.103 363.902 156.311 362.833C156.483 362.675 156.686 362.554 156.907 362.477C157.127 362.399 157.361 362.368 157.594 362.384C158.236 362.384 158.45 362.748 158.482 363.015C158.728 364.084 156.45 366.319 155.274 366.885C155.243 366.896 155.209 366.896 155.178 366.885C155.134 366.905 155.085 366.909 155.039 366.896ZM157.455 362.833C157.161 362.839 156.879 362.953 156.664 363.154C155.959 364.025 155.541 365.093 155.467 366.212C156.653 365.453 158.14 363.731 158.054 363.068C158.054 363.004 158.001 362.833 157.584 362.812H157.455V362.833Z" fill="#7694FF"/>
<path d="M154.119 365.56L143.427 365.945C143.232 365.954 143.045 366.028 142.898 366.156C142.75 366.284 142.65 366.459 142.614 366.651L140.989 375.44C140.917 375.813 140.996 376.199 141.208 376.514C141.421 376.828 141.75 377.046 142.123 377.118C142.226 377.129 142.329 377.129 142.433 377.118C146.293 376.905 149.714 376.573 154.526 376.413C160.203 376.21 158.803 376.937 165.464 376.798C169.495 376.701 170.062 372.104 168.351 371.943C160.513 371.238 159.615 368.907 156.504 366.223C155.819 365.714 154.969 365.478 154.119 365.56Z" fill="#263238"/>
<path opacity="0.2" d="M144.592 359.722L154.771 359.508L155.531 351.04H144.56L144.592 359.722Z" fill="#263238"/>
<path d="M139.759 195.669C139.759 195.669 128.287 210.863 136.787 240.577L146.41 283.977C146.41 283.977 137.279 303.715 142.133 355.787C146.838 356.448 151.619 356.339 156.29 355.466C156.29 355.466 166.982 300.475 168.597 281.903C170.382 261.437 169.313 199.753 169.313 199.753L139.759 195.669Z" fill="#7694FF"/>
<path d="M146.688 146.42C146.688 146.42 144.913 138.829 156.311 142.143C167.709 145.458 166.747 151.948 166.747 151.948L146.688 146.42Z" fill="#263238"/>
<path opacity="0.4" d="M146.688 146.42C146.688 146.42 144.913 138.829 156.311 142.143C167.709 145.458 166.747 151.948 166.747 151.948L146.688 146.42Z" fill="black"/>
<path d="M174.959 165.41C174.959 168.072 173.889 171.922 172.82 176.231C172.328 178.273 171.879 180.401 171.58 182.56C169.965 194.322 169.441 206.714 169.441 206.714C163.149 208.087 156.642 208.149 150.325 206.896C144.008 205.643 138.016 203.103 132.724 199.433C132.724 199.433 137.204 195.637 136.284 169.345C135.867 157.498 131.591 143.416 151.168 145.629C167.699 147.5 173.259 152.633 174.595 160.663C174.595 160.759 174.595 160.866 174.595 160.973L174.691 161.721C174.853 162.944 174.942 164.176 174.959 165.41Z" fill="#263238"/>
<path opacity="0.4" d="M174.959 165.41C174.959 168.073 173.889 171.922 172.82 176.231C168.351 170.885 163.871 160.78 163.871 160.78L167.56 155.349L174.06 158.375C174.285 159.126 174.464 159.89 174.595 160.663C174.595 160.759 174.595 160.866 174.595 160.973L174.691 161.721C174.853 162.945 174.942 164.176 174.959 165.41Z" fill="black"/>
<path d="M181.77 160.77C181.77 160.77 188.185 167.1 190.719 169.644L212.895 162.994C213.04 161.847 213.525 160.77 214.288 159.902C215.05 159.033 216.054 158.412 217.172 158.118L218.733 157.712L222.069 156.792C222.69 156.624 223.345 156.621 223.968 156.785C224.591 156.948 225.16 157.271 225.619 157.722C226.157 158.252 226.517 158.935 226.651 159.678C226.785 160.421 226.686 161.187 226.367 161.871C225.707 163.292 224.691 164.518 223.417 165.431C222.143 166.343 220.655 166.911 219.097 167.078L215.953 167.41C215.953 167.41 196.162 178.22 189.789 177.621C183.416 177.022 175.044 169.356 175.044 169.356L181.77 160.77Z" fill="#B97964"/>
<path d="M165.838 149.254C171.313 150.056 176.905 154.408 185.587 162.085C183.53 166.379 180.358 170.042 176.402 172.692C176.402 172.692 171.345 170.479 165.314 162.812C158.022 153.531 162.523 148.762 165.838 149.254Z" fill="#263238"/>
</svg>
