<svg width="353" height="166" viewBox="0 0 353 166" fill="none" xmlns="http://www.w3.org/2000/svg">
<mask id="mask0_496_2522" style="mask-type:alpha" maskUnits="userSpaceOnUse" x="0" y="0" width="353" height="166">
<rect width="353" height="166" rx="10" fill="#C4C4C4"/>
</mask>
<g mask="url(#mask0_496_2522)">
<circle cx="221.5" cy="47.5" r="193.5" fill="url(#paint0_linear_496_2522)"/>
<path d="M131.18 38.7945C114.381 47.9705 64.3323 73.4364 72.0218 113.421C80.0298 155.087 112.442 155.663 153.639 142.15C192.126 129.532 190.315 173.914 242.376 156.847C286.45 142.396 304.909 67.5463 240.699 32.6194C201.721 11.4118 150.169 28.4114 131.18 38.7945Z" fill="#7694FF"/>
<path opacity="0.9" d="M131.18 38.7945C114.381 47.9705 64.3323 73.4364 72.0218 113.421C80.0298 155.087 112.442 155.663 153.639 142.15C192.126 129.532 190.315 173.914 242.376 156.847C286.45 142.396 304.909 67.5463 240.699 32.6194C201.721 11.4118 150.169 28.4114 131.18 38.7945Z" fill="white" fill-opacity="0.48"/>
<path d="M258.582 100.204C254.625 100.204 249.954 92.9783 245.829 86.5965C243.125 82.4164 240.498 78.3537 237.704 75.4199H246.953V70.9492H235.608C237.637 68.6357 239.559 65.6683 241.532 62.6227C244.628 57.8279 248.484 51.8652 251.429 51.8652H260.102V47.3945H251.429C246.047 47.3945 242.029 53.6143 237.777 60.1973C234.681 64.9865 230.825 70.9492 227.874 70.9492H128.883C125.938 70.9492 122.082 64.9865 118.986 60.1973C114.728 53.6143 110.71 47.4113 105.334 47.4113H96.6554V51.8819H105.334C108.279 51.8819 112.135 57.8447 115.231 62.6394C117.198 65.685 119.143 68.6524 121.149 70.966H80.969V75.4366H126.044C123.25 78.3705 120.618 82.4332 117.919 86.6132C113.795 92.9895 109.123 100.221 105.166 100.221H88.7256V104.691H105.178C111.565 104.691 116.483 97.0913 121.68 89.0441C125.804 82.6623 130.476 75.4366 134.432 75.4366H229.322C233.278 75.4366 237.95 82.6623 242.074 89.0441C247.277 97.0913 252.189 104.691 258.582 104.691H275.023V100.221L258.582 100.204Z" fill="#263238"/>
<g opacity="0.4">
<path opacity="0.4" d="M233.552 74.3516L233.317 74.698C236.609 76.9669 239.727 81.5493 243.164 86.8582L243.516 86.6291C240.051 81.281 236.911 76.6651 233.552 74.3516Z" fill="white"/>
<path opacity="0.4" d="M247.869 93.2324L247.523 93.4727C248.986 95.6874 250.671 97.7471 252.552 99.6198L252.837 99.3125C250.977 97.4618 249.312 95.4244 247.869 93.2324Z" fill="white"/>
<path opacity="0.4" d="M244.232 88.5104C244.958 89.628 245.679 90.7457 246.405 91.8186L246.752 91.5839C246.031 90.5054 245.31 89.3933 244.584 88.2812L244.232 88.5104Z" fill="white"/>
<path opacity="0.4" d="M254.385 100.5L254.139 100.835C255.41 101.861 256.978 102.449 258.61 102.512H269.697V102.093H258.582C257.049 102.023 255.579 101.465 254.385 100.5Z" fill="white"/>
<path opacity="0.4" d="M275.023 102.107H271.67V102.527H275.023V102.107Z" fill="white"/>
<path opacity="0.4" d="M84.3222 72.8535H80.9692V73.2726H84.3222V72.8535Z" fill="white"/>
<path opacity="0.4" d="M100.573 72.8535H87.5691V73.2726H100.573V72.8535Z" fill="white"/>
<path opacity="0.4" d="M103.826 72.8544V73.2735H129.828V72.8544H128.884C127.798 72.8209 126.747 72.4627 125.866 71.8262L125.637 72.1782C126.032 72.4419 126.451 72.6683 126.889 72.8544H103.826Z" fill="white"/>
<path opacity="0.4" d="M211.093 72.8535H198.089V73.2726H211.093V72.8535Z" fill="white"/>
<path opacity="0.4" d="M240.348 73.2735V72.8544H229.875C230.312 72.6671 230.731 72.4408 231.127 72.1782L230.892 71.8262C230.012 72.4637 228.961 72.8219 227.875 72.8544H214.345V73.2735H229.322C230.116 73.2809 230.9 73.4462 231.63 73.7597L231.792 73.3741L231.513 73.2735H240.348Z" fill="white"/>
<path opacity="0.4" d="M194.836 72.8535H188.337V73.2726H194.836V72.8535Z" fill="white"/>
<path opacity="0.4" d="M185.085 72.8535H159.083V73.2726H185.085V72.8535Z" fill="white"/>
<path opacity="0.4" d="M246.953 72.8535H243.6V73.2726H246.953V72.8535Z" fill="white"/>
<path opacity="0.4" d="M238.894 62.8463L238.542 62.6172C236.799 65.294 234.77 68.3117 232.73 70.3179L233.021 70.614C235.094 68.5799 237.14 65.5399 238.894 62.8463Z" fill="white"/>
<path opacity="0.4" d="M251.429 49.718H254.324V49.2988H251.429C247.16 49.2988 243.281 55.2895 239.861 60.576L240.213 60.8051C243.578 55.608 247.389 49.718 251.429 49.718Z" fill="white"/>
<path opacity="0.4" d="M260.102 49.2988H256.749V49.718H260.102V49.2988Z" fill="white"/>
<path opacity="0.4" d="M124.033 70.3218C121.987 68.3156 119.959 65.2923 118.221 62.6211L117.869 62.8502C119.624 65.5438 121.669 68.5838 123.736 70.618L124.033 70.3218Z" fill="white"/>
<path opacity="0.4" d="M116.55 60.8227L116.902 60.5936C113.476 55.3071 109.598 49.3164 105.334 49.3164H102.434V49.7355H105.334C109.369 49.7188 113.186 55.6088 116.55 60.8227Z" fill="white"/>
<path opacity="0.4" d="M100.008 49.2988H96.6555V49.718H100.008V49.2988Z" fill="white"/>
<path opacity="0.4" d="M142.832 72.8535H141.843V73.2726H142.832H145.196H155.836V72.8535H145.196H142.832Z" fill="white"/>
<path opacity="0.4" d="M120.232 86.6291L120.584 86.8582C124.021 81.5493 127.134 76.9669 130.431 74.698L130.191 74.3516C126.832 76.6651 123.691 81.281 120.232 86.6291Z" fill="white"/>
<path opacity="0.4" d="M134.421 72.8535H133.08V73.0156C132.698 73.103 132.324 73.2226 131.962 73.3732L132.124 73.7588C132.854 73.4464 133.639 73.2812 134.432 73.2726H139.875V72.8535H134.432H134.421Z" fill="white"/>
<path opacity="0.4" d="M105.178 102.106H94.0795V102.525H105.178C106.81 102.463 108.378 101.875 109.648 100.849L109.403 100.514C108.202 101.484 106.72 102.042 105.178 102.106Z" fill="white"/>
<path opacity="0.4" d="M116.991 91.5839L117.344 91.8186C118.064 90.7345 118.791 89.6224 119.512 88.5104L119.16 88.2812C118.439 89.3933 117.718 90.5054 116.991 91.5839Z" fill="white"/>
<path opacity="0.4" d="M110.883 99.2695L111.174 99.5769C113.057 97.7055 114.742 95.6457 116.203 93.4298L115.862 93.1895C114.416 95.382 112.748 97.4195 110.883 99.2695Z" fill="white"/>
<path opacity="0.4" d="M92.0787 102.107H88.7257V102.527H92.0787V102.107Z" fill="white"/>
</g>
<path d="M105.356 91.6465H101.265C100.791 91.6469 100.324 91.7645 99.9056 91.9887C99.4874 92.2129 99.131 92.5368 98.868 92.9318L98.27 93.8371C98.0299 94.1998 97.7036 94.4974 97.3204 94.7031C96.9371 94.9089 96.5088 95.0165 96.0738 95.0162H85.4952C85.2694 95.0162 85.0458 95.0608 84.8373 95.1474C84.6288 95.2339 84.4394 95.3608 84.2801 95.5207C84.1207 95.6806 83.9944 95.8704 83.9085 96.0792C83.8226 96.288 83.7788 96.5117 83.7796 96.7374V113.24H107.614V95.0162L107.401 93.4347C107.335 92.9394 107.091 92.4851 106.715 92.1562C106.339 91.8272 105.856 91.6461 105.356 91.6465Z" fill="#7694FF"/>
<path opacity="0.2" d="M105.356 91.6465H101.265C100.791 91.6469 100.324 91.7645 99.9056 91.9887C99.4874 92.2129 99.131 92.5368 98.868 92.9318L98.27 93.8371C98.0299 94.1998 97.7036 94.4974 97.3204 94.7031C96.9371 94.9089 96.5088 95.0165 96.0738 95.0162H85.4952C85.2694 95.0162 85.0458 95.0608 84.8373 95.1474C84.6288 95.2339 84.4394 95.3608 84.2801 95.5207C84.1207 95.6806 83.9944 95.8704 83.9085 96.0792C83.8226 96.288 83.7788 96.5117 83.7796 96.7374V113.24H107.614V95.0162L107.401 93.4347C107.335 92.9394 107.091 92.4851 106.715 92.1562C106.339 91.8272 105.856 91.6461 105.356 91.6465Z" fill="white"/>
<path d="M105.825 97.1016H85.5679V110.955H105.825V97.1016Z" fill="#263238"/>
<path opacity="0.9" d="M105.825 97.1016H85.5679V110.955H105.825V97.1016Z" fill="white"/>
<path d="M107.614 113.238H83.7795L80.2812 100.503C80.2203 100.278 80.2121 100.042 80.2571 99.8128C80.302 99.584 80.3991 99.3686 80.5406 99.1833C80.6821 98.998 80.8644 98.8477 81.0733 98.7441C81.2822 98.6406 81.5122 98.5864 81.7454 98.5859H101.304C101.97 98.5876 102.616 98.807 103.145 99.2107C103.674 99.6143 104.056 100.18 104.233 100.821L107.614 113.238Z" fill="#7694FF"/>
<path opacity="0.6" d="M107.614 113.238H83.7795L80.2812 100.503C80.2203 100.278 80.2121 100.042 80.2571 99.8128C80.302 99.584 80.3991 99.3686 80.5406 99.1833C80.6821 98.998 80.8644 98.8477 81.0733 98.7441C81.2822 98.6406 81.5122 98.5864 81.7454 98.5859H101.304C101.97 98.5876 102.616 98.807 103.145 99.2107C103.674 99.6143 104.056 100.18 104.233 100.821L107.614 113.238Z" fill="white"/>
<path d="M79.024 30.9668H83.4444C83.9565 30.9667 84.4606 31.0932 84.9121 31.335C85.3635 31.5768 85.7481 31.9264 86.0318 32.3527L86.6744 33.3307C86.9352 33.7218 87.2883 34.0427 87.7025 34.2649C88.1168 34.4871 88.5794 34.6039 89.0495 34.6048H100.455C100.946 34.6048 101.416 34.7997 101.763 35.1466C102.11 35.4934 102.305 35.9639 102.305 36.4545V52.75C102.305 53.1516 102.145 53.5368 101.861 53.8209C101.577 54.1049 101.192 54.2644 100.79 54.2644H78.1076C77.7059 54.2644 77.3207 54.1049 77.0367 53.8209C76.7527 53.5368 76.5931 53.1516 76.5931 52.75V34.6048L76.8223 32.8948C76.8962 32.3624 77.1594 31.8744 77.5638 31.5204C77.9682 31.1663 78.4866 30.9698 79.024 30.9668Z" fill="#7694FF"/>
<path opacity="0.6" d="M79.024 30.9668H83.4444C83.9565 30.9667 84.4606 31.0932 84.9121 31.335C85.3635 31.5768 85.7481 31.9264 86.0318 32.3527L86.6744 33.3307C86.9352 33.7218 87.2883 34.0427 87.7025 34.2649C88.1168 34.4871 88.5794 34.6039 89.0495 34.6048H100.455C100.946 34.6048 101.416 34.7997 101.763 35.1466C102.11 35.4934 102.305 35.9639 102.305 36.4545V52.75C102.305 53.1516 102.145 53.5368 101.861 53.8209C101.577 54.1049 101.192 54.2644 100.79 54.2644H78.1076C77.7059 54.2644 77.3207 54.1049 77.0367 53.8209C76.7527 53.5368 76.5931 53.1516 76.5931 52.75V34.6048L76.8223 32.8948C76.8962 32.3624 77.1594 31.8744 77.5638 31.5204C77.9682 31.1663 78.4866 30.9698 79.024 30.9668Z" fill="white"/>
<path d="M97.6834 34.6035H95.3978V50.4352H97.6834V34.6035Z" fill="#263238"/>
<path opacity="0.5" d="M97.6834 34.6035H95.3978V50.4352H97.6834V34.6035Z" fill="white"/>
<path d="M96.6103 35.3594H94.8556V36.6615H96.6103V35.3594Z" fill="#263238"/>
<path d="M96.6103 38.1973H94.8556V39.4993H96.6103V38.1973Z" fill="#263238"/>
<path d="M96.6103 41.0371H94.8556V42.3392H96.6103V41.0371Z" fill="#263238"/>
<path d="M96.6103 43.877H94.8556V45.179H96.6103V43.877Z" fill="#263238"/>
<path d="M96.6103 46.7148H94.8556V48.0169H96.6103V46.7148Z" fill="#263238"/>
<path opacity="0.7" d="M96.6103 35.3594H94.8556V36.6615H96.6103V35.3594Z" fill="white"/>
<path opacity="0.7" d="M96.6103 38.1973H94.8556V39.4993H96.6103V38.1973Z" fill="white"/>
<path opacity="0.7" d="M96.6103 41.0371H94.8556V42.3392H96.6103V41.0371Z" fill="white"/>
<path opacity="0.7" d="M96.6103 43.877H94.8556V45.179H96.6103V43.877Z" fill="white"/>
<path opacity="0.7" d="M96.6103 46.7148H94.8556V48.0169H96.6103V46.7148Z" fill="white"/>
<path d="M98.3095 36.6602H96.5548V37.9622H98.3095V36.6602Z" fill="#263238"/>
<path d="M98.3095 39.502H96.5548V40.804H98.3095V39.502Z" fill="#263238"/>
<path d="M98.3095 42.3398H96.5548V43.6419H98.3095V42.3398Z" fill="#263238"/>
<path d="M98.3095 45.1777H96.5548V46.4798H98.3095V45.1777Z" fill="#263238"/>
<path d="M98.3095 48.0176H96.5548V49.3197H98.3095V48.0176Z" fill="#263238"/>
<g opacity="0.8">
<path opacity="0.8" d="M98.3095 36.6602H96.5548V37.9622H98.3095V36.6602Z" fill="white"/>
<path opacity="0.8" d="M98.3097 39.502H96.5549V40.804H98.3097V39.502Z" fill="white"/>
<path opacity="0.8" d="M98.3097 42.3398H96.5549V43.6419H98.3097V42.3398Z" fill="white"/>
<path opacity="0.8" d="M98.3097 45.1777H96.5549V46.4798H98.3097V45.1777Z" fill="white"/>
<path opacity="0.8" d="M98.3097 48.0176H96.5549V49.3197H98.3097V48.0176Z" fill="white"/>
</g>
<path d="M94.0956 49.3262V54.5177H99.1251V49.3262H94.0956ZM98.3147 53.5733H94.9618V50.265H98.3147V53.5733Z" fill="#263238"/>
<path opacity="0.7" d="M94.0956 49.3262V54.5177H99.1251V49.3262H94.0956ZM98.3147 53.5733H94.9618V50.265H98.3147V53.5733Z" fill="white"/>
<path d="M95.5095 60.9102H72.2119V66.1017L77.3979 71.2876H100.69V66.0961L95.5095 60.9102Z" fill="#7694FF"/>
<path opacity="0.3" d="M95.5095 60.9102H72.2119V66.1017L77.3979 71.2876H100.69V66.0961L95.5095 60.9102Z" fill="white"/>
<path d="M100.695 71.2812H77.3977V76.4728H100.695V71.2812Z" fill="#7694FF"/>
<path opacity="0.3" d="M100.695 71.2812H77.3977V76.4728H100.695V71.2812Z" fill="white"/>
<path d="M100.695 76.4707H77.3977V81.6622H100.695V76.4707Z" fill="#7694FF"/>
<path opacity="0.6" d="M100.695 76.4707H77.3977V81.6622H100.695V76.4707Z" fill="white"/>
<path d="M100.695 66.0957H77.3977V71.2872H100.695V66.0957Z" fill="#7694FF"/>
<path d="M86.1824 81.6651H91.4131V66.0961L86.2271 60.9102H80.9965L86.1824 66.0961V81.6651Z" fill="#7694FF"/>
<path opacity="0.2" d="M86.1824 81.6651H91.4131V66.0961L86.2271 60.9102H80.9965L86.1824 66.0961V81.6651Z" fill="black"/>
<path d="M84.7911 69.8047V77.9524H92.6818V69.8047H84.7911ZM91.4133 76.4715H86.177V71.28H91.4077L91.4133 76.4715Z" fill="#263238"/>
<path opacity="0.5" d="M84.7911 69.8047V77.9524H92.6818V69.8047H84.7911ZM91.4133 76.4715H86.177V71.28H91.4077L91.4133 76.4715Z" fill="white"/>
<path d="M72.2119 60.9102V66.1017L77.3979 71.2876V66.0961L72.2119 60.9102Z" fill="#263238"/>
<path opacity="0.5" d="M72.2119 60.9102V66.1017L77.3979 71.2876V66.0961L72.2119 60.9102Z" fill="white"/>
<path d="M72.2119 66.0957V71.2928L77.3979 76.4732V71.2817L72.2119 66.0957Z" fill="#263238"/>
<path opacity="0.6" d="M72.2119 66.0957V71.2928L77.3979 76.4732V71.2817L72.2119 66.0957Z" fill="white"/>
<path d="M72.2119 71.2891V76.4806L77.3979 81.6665V76.475L72.2119 71.2891Z" fill="#263238"/>
<path opacity="0.8" d="M72.2119 71.2891V76.4806L77.3979 81.6665V76.475L72.2119 71.2891Z" fill="white"/>
<path d="M279.499 84.793H254.094V118.982H279.499V84.793Z" fill="#7694FF"/>
<path opacity="0.7" d="M279.499 84.793H254.094V118.982H279.499V84.793Z" fill="white"/>
<path opacity="0.7" d="M277.839 86.4531H255.754V95.3553H277.839V86.4531Z" fill="white"/>
<path opacity="0.7" d="M277.839 97.4336H255.754V106.336H277.839V97.4336Z" fill="white"/>
<path d="M277.839 91.2518L275.777 88.7427L273.234 91.8442L270.692 88.1895L267.992 90.8886L265.344 89.3965L262.929 93.3977L260.521 89.3965L257.788 90.9445L255.754 89.7933V90.7433L257.788 91.8945L260.23 90.5142L262.929 95.0072L265.634 90.5142L268.132 91.9224L270.574 89.4748L273.178 93.2189L275.777 90.0504L277.839 92.5595V91.2518Z" fill="#7694FF"/>
<path opacity="0.5" d="M277.839 91.2518L275.777 88.7427L273.234 91.8442L270.692 88.1895L267.992 90.8886L265.344 89.3965L262.929 93.3977L260.521 89.3965L257.788 90.9445L255.754 89.7933V90.7433L257.788 91.8945L260.23 90.5142L262.929 95.0072L265.634 90.5142L268.132 91.9224L270.574 89.4748L273.178 93.2189L275.777 90.0504L277.839 92.5595V91.2518Z" fill="white"/>
<path d="M277.839 100.138L275.76 101.312L273.027 99.7637L270.619 103.765L268.21 99.7693L265.561 101.256L262.862 98.5566L260.32 102.211L257.771 99.1099L255.754 101.574V102.882L257.771 100.418L260.37 103.586L262.974 99.842L265.416 102.29L267.914 100.887L270.619 105.374L273.324 100.887L275.76 102.262L277.839 101.094V100.138Z" fill="#7694FF"/>
<path opacity="0.5" d="M277.839 100.138L275.76 101.312L273.027 99.7637L270.619 103.765L268.21 99.7693L265.561 101.256L262.862 98.5566L260.32 102.211L257.771 99.1099L255.754 101.574V102.882L257.771 100.418L260.37 103.586L262.974 99.842L265.416 102.29L267.914 100.887L270.619 105.374L273.324 100.887L275.76 102.262L277.839 101.094V100.138Z" fill="white"/>
<path d="M264.874 108.833H277.526C277.635 108.833 277.741 108.789 277.818 108.712C277.896 108.634 277.939 108.529 277.939 108.419C277.939 108.31 277.896 108.205 277.818 108.127C277.741 108.049 277.635 108.006 277.526 108.006H264.874C264.764 108.006 264.659 108.049 264.581 108.127C264.504 108.205 264.46 108.31 264.46 108.419C264.46 108.529 264.504 108.634 264.581 108.712C264.659 108.789 264.764 108.833 264.874 108.833Z" fill="#263238"/>
<path d="M264.874 111.12H275.866C275.969 111.108 276.063 111.059 276.131 110.982C276.199 110.905 276.237 110.806 276.237 110.703C276.237 110.601 276.199 110.501 276.131 110.425C276.063 110.348 275.969 110.299 275.866 110.287H264.874C264.772 110.299 264.678 110.348 264.61 110.425C264.541 110.501 264.503 110.601 264.503 110.703C264.503 110.806 264.541 110.905 264.61 110.982C264.678 111.059 264.772 111.108 264.874 111.12Z" fill="#263238"/>
<path d="M264.874 113.354H275.866C275.969 113.342 276.063 113.293 276.131 113.217C276.199 113.14 276.237 113.041 276.237 112.938C276.237 112.835 276.199 112.736 276.131 112.659C276.063 112.582 275.969 112.533 275.866 112.521H264.874C264.772 112.533 264.678 112.582 264.61 112.659C264.541 112.736 264.503 112.835 264.503 112.938C264.503 113.041 264.541 113.14 264.61 113.217C264.678 113.293 264.772 113.342 264.874 113.354Z" fill="#263238"/>
<path d="M264.874 115.591H276.419C276.529 115.591 276.634 115.547 276.712 115.47C276.789 115.392 276.833 115.287 276.833 115.177C276.833 115.068 276.789 114.962 276.712 114.885C276.634 114.807 276.529 114.764 276.419 114.764H264.874C264.764 114.764 264.659 114.807 264.581 114.885C264.504 114.962 264.46 115.068 264.46 115.177C264.46 115.287 264.504 115.392 264.581 115.47C264.659 115.547 264.764 115.591 264.874 115.591Z" fill="#263238"/>
<g opacity="0.4">
<path opacity="0.4" d="M264.874 108.833H277.526C277.635 108.833 277.741 108.789 277.818 108.712C277.896 108.634 277.939 108.529 277.939 108.419C277.939 108.31 277.896 108.205 277.818 108.127C277.741 108.049 277.635 108.006 277.526 108.006H264.874C264.764 108.006 264.659 108.049 264.581 108.127C264.504 108.205 264.46 108.31 264.46 108.419C264.46 108.529 264.504 108.634 264.581 108.712C264.659 108.789 264.764 108.833 264.874 108.833Z" fill="white"/>
<path opacity="0.4" d="M264.874 111.118H275.866C275.968 111.106 276.063 111.057 276.131 110.98C276.199 110.903 276.237 110.804 276.237 110.701C276.237 110.599 276.199 110.499 276.131 110.423C276.063 110.346 275.968 110.297 275.866 110.285H264.874C264.772 110.297 264.678 110.346 264.609 110.423C264.541 110.499 264.503 110.599 264.503 110.701C264.503 110.804 264.541 110.903 264.609 110.98C264.678 111.057 264.772 111.106 264.874 111.118Z" fill="white"/>
<path opacity="0.4" d="M264.874 113.354H275.866C275.968 113.342 276.063 113.293 276.131 113.217C276.199 113.14 276.237 113.041 276.237 112.938C276.237 112.835 276.199 112.736 276.131 112.659C276.063 112.582 275.968 112.533 275.866 112.521H264.874C264.772 112.533 264.678 112.582 264.609 112.659C264.541 112.736 264.503 112.835 264.503 112.938C264.503 113.041 264.541 113.14 264.609 113.217C264.678 113.293 264.772 113.342 264.874 113.354Z" fill="white"/>
<path opacity="0.4" d="M264.874 115.587H276.419C276.529 115.587 276.634 115.543 276.712 115.466C276.789 115.388 276.833 115.283 276.833 115.173C276.833 115.064 276.789 114.958 276.712 114.881C276.634 114.803 276.529 114.76 276.419 114.76H264.874C264.764 114.76 264.659 114.803 264.581 114.881C264.504 114.958 264.46 115.064 264.46 115.173C264.46 115.283 264.504 115.388 264.581 115.466C264.659 115.543 264.764 115.587 264.874 115.587Z" fill="white"/>
</g>
<path d="M278.197 32.2012H255.1V63.2833H278.197V32.2012Z" fill="#7694FF"/>
<path opacity="0.6" d="M278.197 32.2012H255.1V63.2833H278.197V32.2012Z" fill="white"/>
<path opacity="0.7" d="M276.687 33.709H256.609V41.8008H276.687V33.709Z" fill="white"/>
<path d="M264.964 44.2329H276.47C276.562 44.2217 276.647 44.1771 276.708 44.1076C276.77 44.0382 276.804 43.9485 276.804 43.8557C276.804 43.7629 276.77 43.6733 276.708 43.6038C276.647 43.5343 276.562 43.4898 276.47 43.4785H264.964C264.871 43.4898 264.787 43.5343 264.725 43.6038C264.663 43.6733 264.63 43.7629 264.63 43.8557C264.63 43.9485 264.663 44.0382 264.725 44.1076C264.787 44.1771 264.871 44.2217 264.964 44.2329Z" fill="#263238"/>
<path d="M264.964 46.2974H274.961C275.053 46.2862 275.138 46.2416 275.2 46.1721C275.261 46.1026 275.295 46.013 275.295 45.9202C275.295 45.8274 275.261 45.7378 275.2 45.6683C275.138 45.5988 275.053 45.5542 274.961 45.543H264.964C264.871 45.5542 264.787 45.5988 264.725 45.6683C264.663 45.7378 264.63 45.8274 264.63 45.9202C264.63 46.013 264.663 46.1026 264.725 46.1721C264.787 46.2416 264.871 46.2862 264.964 46.2974Z" fill="#263238"/>
<path d="M264.964 48.3404H274.961C275.053 48.3291 275.138 48.2846 275.2 48.2151C275.261 48.1456 275.295 48.056 275.295 47.9631C275.295 47.8703 275.261 47.7807 275.2 47.7112C275.138 47.6417 275.053 47.5972 274.961 47.5859H264.964C264.871 47.5972 264.787 47.6417 264.725 47.7112C264.663 47.7807 264.63 47.8703 264.63 47.9631C264.63 48.056 264.663 48.1456 264.725 48.2151C264.787 48.2846 264.871 48.3291 264.964 48.3404Z" fill="#263238"/>
<path d="M264.964 50.397H275.464C275.556 50.3858 275.641 50.3412 275.702 50.2717C275.764 50.2022 275.798 50.1126 275.798 50.0198C275.798 49.927 275.764 49.8374 275.702 49.7679C275.641 49.6984 275.556 49.6538 275.464 49.6426H264.964C264.871 49.6538 264.787 49.6984 264.725 49.7679C264.663 49.8374 264.63 49.927 264.63 50.0198C264.63 50.1126 264.663 50.2022 264.725 50.2717C264.787 50.3412 264.871 50.3858 264.964 50.397Z" fill="#263238"/>
<path d="M264.964 52.44H273.452C273.544 52.4287 273.629 52.3842 273.691 52.3147C273.752 52.2452 273.786 52.1556 273.786 52.0628C273.786 51.9699 273.752 51.8803 273.691 51.8108C273.629 51.7414 273.544 51.6968 273.452 51.6855H264.964C264.871 51.6968 264.787 51.7414 264.725 51.8108C264.663 51.8803 264.63 51.9699 264.63 52.0628C264.63 52.1556 264.663 52.2452 264.725 52.3147C264.787 52.3842 264.871 52.4287 264.964 52.44Z" fill="#263238"/>
<path d="M264.964 54.5044H276.47C276.562 54.4932 276.647 54.4486 276.708 54.3791C276.77 54.3096 276.804 54.22 276.804 54.1272C276.804 54.0344 276.77 53.9448 276.708 53.8753C276.647 53.8058 276.562 53.7612 276.47 53.75H264.964C264.871 53.7612 264.787 53.8058 264.725 53.8753C264.663 53.9448 264.63 54.0344 264.63 54.1272C264.63 54.22 264.663 54.3096 264.725 54.3791C264.787 54.4486 264.871 54.4932 264.964 54.5044Z" fill="#263238"/>
<path d="M264.964 56.5552H274.961C275.053 56.544 275.138 56.4994 275.2 56.4299C275.261 56.3604 275.295 56.2708 275.295 56.178C275.295 56.0852 275.261 55.9956 275.2 55.9261C275.138 55.8566 275.053 55.812 274.961 55.8008H264.964C264.871 55.812 264.787 55.8566 264.725 55.9261C264.663 55.9956 264.63 56.0852 264.63 56.178C264.63 56.2708 264.663 56.3604 264.725 56.4299C264.787 56.4994 264.871 56.544 264.964 56.5552Z" fill="#263238"/>
<path d="M264.964 58.5884H274.961C275.053 58.5772 275.138 58.5326 275.2 58.4631C275.261 58.3936 275.295 58.304 275.295 58.2112C275.295 58.1184 275.261 58.0288 275.2 57.9593C275.138 57.8898 275.053 57.8452 274.961 57.834H264.964C264.871 57.8452 264.787 57.8898 264.725 57.9593C264.663 58.0288 264.63 58.1184 264.63 58.2112C264.63 58.304 264.663 58.3936 264.725 58.4631C264.787 58.5326 264.871 58.5772 264.964 58.5884Z" fill="#263238"/>
<path d="M264.964 60.6626H275.464C275.556 60.6514 275.641 60.6068 275.702 60.5373C275.764 60.4678 275.798 60.3782 275.798 60.2854C275.798 60.1926 275.764 60.103 275.702 60.0335C275.641 59.964 275.556 59.9194 275.464 59.9082H264.964C264.871 59.9194 264.787 59.964 264.725 60.0335C264.663 60.103 264.63 60.1926 264.63 60.2854C264.63 60.3782 264.663 60.4678 264.725 60.5373C264.787 60.6068 264.871 60.6514 264.964 60.6626Z" fill="#263238"/>
<g opacity="0.4">
<path opacity="0.4" d="M264.964 44.2329H276.47C276.562 44.2217 276.647 44.1771 276.708 44.1076C276.77 44.0382 276.804 43.9485 276.804 43.8557C276.804 43.7629 276.77 43.6733 276.708 43.6038C276.647 43.5343 276.562 43.4898 276.47 43.4785H264.964C264.871 43.4898 264.787 43.5343 264.725 43.6038C264.663 43.6733 264.63 43.7629 264.63 43.8557C264.63 43.9485 264.663 44.0382 264.725 44.1076C264.787 44.1771 264.871 44.2217 264.964 44.2329Z" fill="white"/>
</g>
<g opacity="0.4">
<path opacity="0.4" d="M264.964 46.2974H274.961C275.053 46.2862 275.138 46.2416 275.2 46.1721C275.261 46.1026 275.295 46.013 275.295 45.9202C275.295 45.8274 275.261 45.7378 275.2 45.6683C275.138 45.5988 275.053 45.5542 274.961 45.543H264.964C264.871 45.5542 264.787 45.5988 264.725 45.6683C264.663 45.7378 264.63 45.8274 264.63 45.9202C264.63 46.013 264.663 46.1026 264.725 46.1721C264.787 46.2416 264.871 46.2862 264.964 46.2974Z" fill="white"/>
</g>
<g opacity="0.4">
<path opacity="0.4" d="M264.963 48.3384H274.961C275.053 48.3272 275.138 48.2826 275.199 48.2131C275.261 48.1436 275.295 48.054 275.295 47.9612C275.295 47.8684 275.261 47.7788 275.199 47.7093C275.138 47.6398 275.053 47.5952 274.961 47.584H264.963C264.871 47.5952 264.786 47.6398 264.725 47.7093C264.663 47.7788 264.629 47.8684 264.629 47.9612C264.629 48.054 264.663 48.1436 264.725 48.2131C264.786 48.2826 264.871 48.3272 264.963 48.3384Z" fill="white"/>
</g>
<g opacity="0.4">
<path opacity="0.4" d="M264.963 50.395H275.464C275.556 50.3838 275.641 50.3392 275.702 50.2698C275.764 50.2003 275.798 50.1106 275.798 50.0178C275.798 49.925 275.764 49.8354 275.702 49.7659C275.641 49.6964 275.556 49.6519 275.464 49.6406H264.963C264.871 49.6519 264.786 49.6964 264.725 49.7659C264.663 49.8354 264.629 49.925 264.629 50.0178C264.629 50.1106 264.663 50.2003 264.725 50.2698C264.786 50.3392 264.871 50.3838 264.963 50.395Z" fill="white"/>
</g>
<g opacity="0.4">
<path opacity="0.4" d="M264.963 52.4419H273.452C273.544 52.4307 273.629 52.3861 273.69 52.3166C273.752 52.2471 273.786 52.1575 273.786 52.0647C273.786 51.9719 273.752 51.8823 273.69 51.8128C273.629 51.7433 273.544 51.6987 273.452 51.6875H264.963C264.871 51.6987 264.786 51.7433 264.725 51.8128C264.663 51.8823 264.629 51.9719 264.629 52.0647C264.629 52.1575 264.663 52.2471 264.725 52.3166C264.786 52.3861 264.871 52.4307 264.963 52.4419Z" fill="white"/>
</g>
<g opacity="0.4">
<path opacity="0.4" d="M264.964 54.5044H276.47C276.562 54.4932 276.647 54.4486 276.708 54.3791C276.77 54.3096 276.804 54.22 276.804 54.1272C276.804 54.0344 276.77 53.9448 276.708 53.8753C276.647 53.8058 276.562 53.7612 276.47 53.75H264.964C264.871 53.7612 264.787 53.8058 264.725 53.8753C264.663 53.9448 264.63 54.0344 264.63 54.1272C264.63 54.22 264.663 54.3096 264.725 54.3791C264.787 54.4486 264.871 54.4932 264.964 54.5044Z" fill="white"/>
</g>
<g opacity="0.4">
<path opacity="0.4" d="M264.963 56.5533H274.961C275.053 56.542 275.138 56.4974 275.199 56.428C275.261 56.3585 275.295 56.2689 275.295 56.176C275.295 56.0832 275.261 55.9936 275.199 55.9241C275.138 55.8546 275.053 55.8101 274.961 55.7988H264.963C264.871 55.8101 264.786 55.8546 264.725 55.9241C264.663 55.9936 264.629 56.0832 264.629 56.176C264.629 56.2689 264.663 56.3585 264.725 56.428C264.786 56.4974 264.871 56.542 264.963 56.5533Z" fill="white"/>
</g>
<g opacity="0.4">
<path opacity="0.4" d="M264.964 58.5884H274.961C275.053 58.5772 275.138 58.5326 275.2 58.4631C275.261 58.3936 275.295 58.304 275.295 58.2112C275.295 58.1184 275.261 58.0288 275.2 57.9593C275.138 57.8898 275.053 57.8452 274.961 57.834H264.964C264.871 57.8452 264.787 57.8898 264.725 57.9593C264.663 58.0288 264.63 58.1184 264.63 58.2112C264.63 58.304 264.663 58.3936 264.725 58.4631C264.787 58.5326 264.871 58.5772 264.964 58.5884Z" fill="white"/>
</g>
<g opacity="0.4">
<path opacity="0.4" d="M264.964 60.6626H275.464C275.556 60.6514 275.641 60.6068 275.702 60.5373C275.764 60.4678 275.798 60.3782 275.798 60.2854C275.798 60.1926 275.764 60.103 275.702 60.0335C275.641 59.964 275.556 59.9194 275.464 59.9082H264.964C264.871 59.9194 264.787 59.964 264.725 60.0335C264.663 60.103 264.63 60.1926 264.63 60.2854C264.63 60.3782 264.663 60.4678 264.725 60.5373C264.787 60.6068 264.871 60.6514 264.964 60.6626Z" fill="white"/>
</g>
<path d="M262.27 43.8574H256.609V49.5184H262.27V43.8574Z" fill="#7694FF"/>
<path opacity="0.3" d="M262.27 43.8574H256.609V49.5184H262.27V43.8574Z" fill="white"/>
<path d="M262.818 38.0078H261.287V41.0702H262.818V38.0078Z" fill="#7694FF"/>
<path d="M265.886 36.4707H264.355V41.0643H265.886V36.4707Z" fill="#7694FF"/>
<path d="M268.948 37.2422H267.417V41.0702H268.948V37.2422Z" fill="#7694FF"/>
<path d="M272.01 34.9395H270.479V41.0698H272.01V34.9395Z" fill="#7694FF"/>
<path d="M266.886 58.0254H243.789V89.1075H266.886V58.0254Z" fill="#7694FF"/>
<path opacity="0.8" d="M266.886 58.0254H243.789V89.1075H266.886V58.0254Z" fill="white"/>
<path d="M253.653 61.3833H265.159C265.251 61.3721 265.336 61.3275 265.397 61.258C265.459 61.1885 265.493 61.0989 265.493 61.0061C265.493 60.9133 265.459 60.8237 265.397 60.7542C265.336 60.6847 265.251 60.6401 265.159 60.6289H253.653C253.561 60.6401 253.476 60.6847 253.414 60.7542C253.353 60.8237 253.319 60.9133 253.319 61.0061C253.319 61.0989 253.353 61.1885 253.414 61.258C253.476 61.3275 253.561 61.3721 253.653 61.3833Z" fill="#263238"/>
<path d="M253.653 63.4126H263.65C263.742 63.4014 263.827 63.3568 263.889 63.2873C263.95 63.2178 263.984 63.1282 263.984 63.0354C263.984 62.9426 263.95 62.853 263.889 62.7835C263.827 62.714 263.742 62.6694 263.65 62.6582H253.653C253.561 62.6694 253.476 62.714 253.414 62.7835C253.353 62.853 253.319 62.9426 253.319 63.0354C253.319 63.1282 253.353 63.2178 253.414 63.2873C253.476 63.3568 253.561 63.4014 253.653 63.4126Z" fill="#263238"/>
<path d="M253.653 65.4634H263.65C263.742 65.4522 263.827 65.4076 263.889 65.3381C263.95 65.2686 263.984 65.179 263.984 65.0862C263.984 64.9934 263.95 64.9038 263.889 64.8343C263.827 64.7648 263.742 64.7202 263.65 64.709H253.653C253.561 64.7202 253.476 64.7648 253.414 64.8343C253.353 64.9038 253.319 64.9934 253.319 65.0862C253.319 65.179 253.353 65.2686 253.414 65.3381C253.476 65.4076 253.561 65.4522 253.653 65.4634Z" fill="#263238"/>
<path d="M253.653 67.5298H264.153C264.245 67.5186 264.33 67.474 264.392 67.4045C264.453 67.335 264.487 67.2454 264.487 67.1526C264.487 67.0598 264.453 66.9702 264.392 66.9007C264.33 66.8312 264.245 66.7866 264.153 66.7754H253.653C253.561 66.7866 253.476 66.8312 253.414 66.9007C253.353 66.9702 253.319 67.0598 253.319 67.1526C253.319 67.2454 253.353 67.335 253.414 67.4045C253.476 67.474 253.561 67.5186 253.653 67.5298Z" fill="#263238"/>
<path d="M253.653 69.5708H262.141C262.233 69.5596 262.318 69.515 262.38 69.4455C262.441 69.376 262.475 69.2864 262.475 69.1936C262.475 69.1008 262.441 69.0112 262.38 68.9417C262.318 68.8722 262.233 68.8276 262.141 68.8164H253.653C253.561 68.8276 253.476 68.8722 253.414 68.9417C253.353 69.0112 253.319 69.1008 253.319 69.1936C253.319 69.2864 253.353 69.376 253.414 69.4455C253.476 69.515 253.561 69.5596 253.653 69.5708Z" fill="#263238"/>
<path d="M253.653 71.6255H265.159C265.251 71.6143 265.336 71.5697 265.397 71.5002C265.459 71.4307 265.493 71.3411 265.493 71.2483C265.493 71.1555 265.459 71.0659 265.397 70.9964C265.336 70.9269 265.251 70.8823 265.159 70.8711H253.653C253.561 70.8823 253.476 70.9269 253.414 70.9964C253.353 71.0659 253.319 71.1555 253.319 71.2483C253.319 71.3411 253.353 71.4307 253.414 71.5002C253.476 71.5697 253.561 71.6143 253.653 71.6255Z" fill="#263238"/>
<path d="M253.653 73.6783H263.65C263.742 73.667 263.827 73.6224 263.889 73.553C263.95 73.4835 263.984 73.3939 263.984 73.301C263.984 73.2082 263.95 73.1186 263.889 73.0491C263.827 72.9796 263.742 72.9351 263.65 72.9238H253.653C253.561 72.9351 253.476 72.9796 253.414 73.0491C253.353 73.1186 253.319 73.2082 253.319 73.301C253.319 73.3939 253.353 73.4835 253.414 73.553C253.476 73.6224 253.561 73.667 253.653 73.6783Z" fill="#263238"/>
<path d="M253.653 75.731H263.65C263.742 75.7197 263.827 75.6752 263.889 75.6057C263.95 75.5362 263.984 75.4466 263.984 75.3538C263.984 75.261 263.95 75.1713 263.889 75.1019C263.827 75.0324 263.742 74.9878 263.65 74.9766H253.653C253.561 74.9878 253.476 75.0324 253.414 75.1019C253.353 75.1713 253.319 75.261 253.319 75.3538C253.319 75.4466 253.353 75.5362 253.414 75.6057C253.476 75.6752 253.561 75.7197 253.653 75.731Z" fill="#263238"/>
<path d="M253.653 79.8267H262.141C262.233 79.8155 262.318 79.7709 262.38 79.7014C262.441 79.6319 262.475 79.5423 262.475 79.4495C262.475 79.3567 262.441 79.2671 262.38 79.1976C262.318 79.1281 262.233 79.0835 262.141 79.0723H253.653C253.561 79.0835 253.476 79.1281 253.414 79.1976C253.353 79.2671 253.319 79.3567 253.319 79.4495C253.319 79.5423 253.353 79.6319 253.414 79.7014C253.476 79.7709 253.561 79.8155 253.653 79.8267Z" fill="#263238"/>
<path d="M253.653 81.899H265.159C265.251 81.8877 265.336 81.8431 265.397 81.7737C265.459 81.7042 265.493 81.6146 265.493 81.5217C265.493 81.4289 265.459 81.3393 265.397 81.2698C265.336 81.2003 265.251 81.1558 265.159 81.1445H253.653C253.561 81.1558 253.476 81.2003 253.414 81.2698C253.353 81.3393 253.319 81.4289 253.319 81.5217C253.319 81.6146 253.353 81.7042 253.414 81.7737C253.476 81.8431 253.561 81.8877 253.653 81.899Z" fill="#263238"/>
<path d="M253.653 83.9497H263.65C263.742 83.9385 263.827 83.8939 263.889 83.8244C263.95 83.7549 263.984 83.6653 263.984 83.5725C263.984 83.4797 263.95 83.3901 263.889 83.3206C263.827 83.2511 263.742 83.2065 263.65 83.1953H253.653C253.561 83.2065 253.476 83.2511 253.414 83.3206C253.353 83.3901 253.319 83.4797 253.319 83.5725C253.319 83.6653 253.353 83.7549 253.414 83.8244C253.476 83.8939 253.561 83.9385 253.653 83.9497Z" fill="#263238"/>
<path d="M253.653 86.0064H263.65C263.742 85.9951 263.827 85.9506 263.889 85.8811C263.95 85.8116 263.984 85.722 263.984 85.6292C263.984 85.5363 263.95 85.4467 263.889 85.3772C263.827 85.3078 263.742 85.2632 263.65 85.252H253.653C253.561 85.2632 253.476 85.3078 253.414 85.3772C253.353 85.4467 253.319 85.5363 253.319 85.6292C253.319 85.722 253.353 85.8116 253.414 85.8811C253.476 85.9506 253.561 85.9951 253.653 86.0064Z" fill="#263238"/>
<path d="M253.653 77.7837H264.153C264.245 77.7725 264.33 77.7279 264.392 77.6584C264.453 77.5889 264.487 77.4993 264.487 77.4065C264.487 77.3137 264.453 77.2241 264.392 77.1546C264.33 77.0851 264.245 77.0405 264.153 77.0293H253.653C253.561 77.0405 253.476 77.0851 253.414 77.1546C253.353 77.2241 253.319 77.3137 253.319 77.4065C253.319 77.4993 253.353 77.5889 253.414 77.6584C253.476 77.7279 253.561 77.7725 253.653 77.7837Z" fill="#263238"/>
<g opacity="0.4">
<path opacity="0.4" d="M253.653 61.3853H265.159C265.252 61.374 265.336 61.3295 265.398 61.26C265.46 61.1905 265.493 61.1009 265.493 61.0081C265.493 60.9153 265.46 60.8256 265.398 60.7562C265.336 60.6867 265.252 60.6421 265.159 60.6309H253.653C253.561 60.6421 253.476 60.6867 253.415 60.7562C253.353 60.8256 253.319 60.9153 253.319 61.0081C253.319 61.1009 253.353 61.1905 253.415 61.26C253.476 61.3295 253.561 61.374 253.653 61.3853Z" fill="white"/>
<path opacity="0.4" d="M253.653 63.4126H263.651C263.743 63.4014 263.828 63.3568 263.889 63.2873C263.951 63.2178 263.985 63.1282 263.985 63.0354C263.985 62.9426 263.951 62.853 263.889 62.7835C263.828 62.714 263.743 62.6694 263.651 62.6582H253.653C253.561 62.6694 253.476 62.714 253.415 62.7835C253.353 62.853 253.319 62.9426 253.319 63.0354C253.319 63.1282 253.353 63.2178 253.415 63.2873C253.476 63.3568 253.561 63.4014 253.653 63.4126Z" fill="white"/>
<path opacity="0.4" d="M253.653 65.4654H263.651C263.743 65.4541 263.828 65.4096 263.889 65.3401C263.951 65.2706 263.985 65.181 263.985 65.0881C263.985 64.9953 263.951 64.9057 263.889 64.8362C263.828 64.7667 263.743 64.7222 263.651 64.7109H253.653C253.561 64.7222 253.476 64.7667 253.415 64.8362C253.353 64.9057 253.319 64.9953 253.319 65.0881C253.319 65.181 253.353 65.2706 253.415 65.3401C253.476 65.4096 253.561 65.4541 253.653 65.4654Z" fill="white"/>
<path opacity="0.4" d="M253.653 67.5279H264.154C264.246 67.5166 264.33 67.4721 264.392 67.4026C264.454 67.3331 264.488 67.2435 264.488 67.1506C264.488 67.0578 264.454 66.9682 264.392 66.8987C264.33 66.8292 264.246 66.7847 264.154 66.7734H253.653C253.561 66.7847 253.476 66.8292 253.415 66.8987C253.353 66.9682 253.319 67.0578 253.319 67.1506C253.319 67.2435 253.353 67.3331 253.415 67.4026C253.476 67.4721 253.561 67.5166 253.653 67.5279Z" fill="white"/>
<path opacity="0.4" d="M253.653 69.5728H262.142C262.234 69.5615 262.319 69.517 262.38 69.4475C262.442 69.378 262.476 69.2884 262.476 69.1956C262.476 69.1028 262.442 69.0131 262.38 68.9436C262.319 68.8742 262.234 68.8296 262.142 68.8184H253.653C253.561 68.8296 253.476 68.8742 253.415 68.9436C253.353 69.0131 253.319 69.1028 253.319 69.1956C253.319 69.2884 253.353 69.378 253.415 69.4475C253.476 69.517 253.561 69.5615 253.653 69.5728Z" fill="white"/>
<path opacity="0.4" d="M253.653 71.6275H265.159C265.252 71.6162 265.336 71.5717 265.398 71.5022C265.459 71.4327 265.493 71.3431 265.493 71.2503C265.493 71.1574 265.459 71.0678 265.398 70.9983C265.336 70.9289 265.252 70.8843 265.159 70.873H253.653C253.561 70.8843 253.476 70.9289 253.415 70.9983C253.353 71.0678 253.319 71.1574 253.319 71.2503C253.319 71.3431 253.353 71.4327 253.415 71.5022C253.476 71.5717 253.561 71.6162 253.653 71.6275Z" fill="white"/>
<path opacity="0.4" d="M253.653 73.6783H263.651C263.743 73.667 263.828 73.6224 263.889 73.553C263.951 73.4835 263.985 73.3939 263.985 73.301C263.985 73.2082 263.951 73.1186 263.889 73.0491C263.828 72.9796 263.743 72.9351 263.651 72.9238H253.653C253.561 72.9351 253.476 72.9796 253.415 73.0491C253.353 73.1186 253.319 73.2082 253.319 73.301C253.319 73.3939 253.353 73.4835 253.415 73.553C253.476 73.6224 253.561 73.667 253.653 73.6783Z" fill="white"/>
<path opacity="0.4" d="M253.653 75.7368H263.651C263.743 75.7256 263.828 75.681 263.889 75.6115C263.951 75.5421 263.985 75.4525 263.985 75.3596C263.985 75.2668 263.951 75.1772 263.889 75.1077C263.828 75.0382 263.743 74.9937 263.651 74.9824H253.653C253.561 74.9937 253.476 75.0382 253.415 75.1077C253.353 75.1772 253.319 75.2668 253.319 75.3596C253.319 75.4525 253.353 75.5421 253.415 75.6115C253.476 75.681 253.561 75.7256 253.653 75.7368Z" fill="white"/>
<path opacity="0.4" d="M253.653 79.8267H262.142C262.234 79.8155 262.319 79.7709 262.38 79.7014C262.442 79.6319 262.476 79.5423 262.476 79.4495C262.476 79.3567 262.442 79.2671 262.38 79.1976C262.319 79.1281 262.234 79.0835 262.142 79.0723H253.653C253.561 79.0835 253.476 79.1281 253.415 79.1976C253.353 79.2671 253.319 79.3567 253.319 79.4495C253.319 79.5423 253.353 79.6319 253.415 79.7014C253.476 79.7709 253.561 79.8155 253.653 79.8267Z" fill="white"/>
<path opacity="0.4" d="M253.653 81.899H265.159C265.252 81.8877 265.336 81.8431 265.398 81.7737C265.459 81.7042 265.493 81.6146 265.493 81.5217C265.493 81.4289 265.459 81.3393 265.398 81.2698C265.336 81.2003 265.252 81.1558 265.159 81.1445H253.653C253.561 81.1558 253.476 81.2003 253.415 81.2698C253.353 81.3393 253.319 81.4289 253.319 81.5217C253.319 81.6146 253.353 81.7042 253.415 81.7737C253.476 81.8431 253.561 81.8877 253.653 81.899Z" fill="white"/>
<path opacity="0.4" d="M253.653 83.9497H263.651C263.743 83.9385 263.828 83.8939 263.889 83.8244C263.951 83.7549 263.985 83.6653 263.985 83.5725C263.985 83.4797 263.951 83.3901 263.889 83.3206C263.828 83.2511 263.743 83.2065 263.651 83.1953H253.653C253.561 83.2065 253.476 83.2511 253.415 83.3206C253.353 83.3901 253.319 83.4797 253.319 83.5725C253.319 83.6653 253.353 83.7549 253.415 83.8244C253.476 83.8939 253.561 83.9385 253.653 83.9497Z" fill="white"/>
<path opacity="0.4" d="M253.653 86.0044H263.651C263.743 85.9932 263.828 85.9486 263.889 85.8791C263.951 85.8096 263.985 85.72 263.985 85.6272C263.985 85.5344 263.951 85.4448 263.889 85.3753C263.828 85.3058 263.743 85.2612 263.651 85.25H253.653C253.561 85.2612 253.476 85.3058 253.415 85.3753C253.353 85.4448 253.319 85.5344 253.319 85.6272C253.319 85.72 253.353 85.8096 253.415 85.8791C253.476 85.9486 253.561 85.9932 253.653 86.0044Z" fill="white"/>
<path opacity="0.4" d="M253.653 77.7857H264.154C264.246 77.7744 264.33 77.7299 264.392 77.6604C264.454 77.5909 264.488 77.5013 264.488 77.4085C264.488 77.3156 264.454 77.226 264.392 77.1565C264.33 77.0871 264.246 77.0425 264.154 77.0312H253.653C253.561 77.0425 253.476 77.0871 253.415 77.1565C253.353 77.226 253.319 77.3156 253.319 77.4085C253.319 77.5013 253.353 77.5909 253.415 77.6604C253.476 77.7299 253.561 77.7744 253.653 77.7857Z" fill="white"/>
</g>
<path d="M247.338 71.7625L246.427 70.8516C246.103 71.1726 245.846 71.5548 245.672 71.976C245.497 72.3972 245.408 72.8489 245.41 73.3048H246.701C246.7 73.0184 246.756 72.7346 246.865 72.4699C246.974 72.2052 247.135 71.9647 247.338 71.7625Z" fill="#7694FF"/>
<path d="M248.875 75.4822C248.298 75.4807 247.745 75.2504 247.337 74.8419C246.93 74.4333 246.701 73.8798 246.701 73.3027H245.41C245.41 74.2216 245.775 75.1029 246.425 75.7527C247.074 76.4024 247.956 76.7675 248.875 76.7675V75.4822Z" fill="#7694FF"/>
<path opacity="0.3" d="M248.875 75.4822C248.298 75.4807 247.745 75.2504 247.337 74.8419C246.93 74.4333 246.701 73.8798 246.701 73.3027H245.41C245.41 74.2216 245.775 75.1029 246.425 75.7527C247.074 76.4024 247.956 76.7675 248.875 76.7675V75.4822Z" fill="white"/>
<path d="M247.338 71.762C247.539 71.5591 247.779 71.3983 248.042 71.2889C248.306 71.1795 248.589 71.1237 248.875 71.1249V69.834C248.42 69.834 247.97 69.9238 247.55 70.0984C247.13 70.2729 246.748 70.5287 246.427 70.8511L247.338 71.762Z" fill="#7694FF"/>
<path opacity="0.5" d="M247.338 71.762C247.539 71.5591 247.779 71.3983 248.042 71.2889C248.306 71.1795 248.589 71.1237 248.875 71.1249V69.834C248.42 69.834 247.97 69.9238 247.55 70.0984C247.13 70.2729 246.748 70.5287 246.427 70.8511L247.338 71.762Z" fill="black"/>
<path d="M251.032 73.3013C251.032 73.8793 250.802 74.4336 250.394 74.8424C249.985 75.2511 249.431 75.4807 248.853 75.4807V76.766C249.32 76.7848 249.786 76.709 250.223 76.5431C250.66 76.3773 251.059 76.1249 251.396 75.8011C251.733 75.4773 252.001 75.0887 252.184 74.6586C252.368 74.2286 252.462 73.7659 252.462 73.2985C252.462 72.831 252.368 72.3684 252.184 71.9383C252.001 71.5083 251.733 71.1197 251.396 70.7958C251.059 70.472 250.66 70.2196 250.223 70.0538C249.786 69.888 249.32 69.8122 248.853 69.8309V71.1218C249.139 71.1211 249.423 71.177 249.687 71.2862C249.952 71.3955 250.193 71.556 250.395 71.7585C250.598 71.961 250.758 72.2016 250.868 72.4663C250.977 72.7311 251.033 73.0148 251.032 73.3013Z" fill="#7694FF"/>
<path opacity="0.2" d="M250.417 74.8395L251.328 75.756C251.651 75.4344 251.907 75.0521 252.082 74.631C252.256 74.21 252.346 73.7585 252.345 73.3027H251.032C251.036 73.5868 250.984 73.8688 250.878 74.1326C250.773 74.3964 250.616 74.6366 250.417 74.8395Z" fill="black"/>
<path d="M247.338 65.2148L246.427 66.1257C246.747 66.4491 247.129 66.7056 247.549 66.8802C247.969 67.0548 248.42 67.1441 248.875 67.1428V65.8575C248.589 65.8576 248.306 65.8008 248.042 65.6905C247.778 65.5802 247.539 65.4185 247.338 65.2148Z" fill="#7694FF"/>
<path d="M251.032 63.6758C251.032 64.2538 250.802 64.8081 250.394 65.2169C249.985 65.6256 249.431 65.8552 248.853 65.8552V67.1405C249.772 67.1405 250.654 66.7757 251.304 66.1261C251.955 65.4765 252.321 64.5952 252.323 63.6758H251.032Z" fill="#7694FF"/>
<path opacity="0.3" d="M251.032 63.6758C251.032 64.2538 250.802 64.8081 250.394 65.2169C249.985 65.6256 249.431 65.8552 248.853 65.8552V67.1405C249.772 67.1405 250.654 66.7757 251.304 66.1261C251.955 65.4765 252.321 64.5952 252.323 63.6758H251.032Z" fill="white"/>
<path d="M247.338 65.2126C247.135 65.0115 246.974 64.7721 246.865 64.5082C246.755 64.2444 246.7 63.9614 246.701 63.6758H245.41C245.409 64.1308 245.498 64.5816 245.673 65.0018C245.847 65.422 246.104 65.8033 246.427 66.1235L247.338 65.2126Z" fill="#7694FF"/>
<path opacity="0.5" d="M247.338 65.2126C247.135 65.0115 246.974 64.7721 246.865 64.5082C246.755 64.2444 246.7 63.9614 246.701 63.6758H245.41C245.409 64.1308 245.498 64.5816 245.673 65.0018C245.847 65.422 246.104 65.8033 246.427 66.1235L247.338 65.2126Z" fill="black"/>
<path d="M248.875 61.4946C249.161 61.4938 249.445 61.5497 249.71 61.659C249.974 61.7682 250.215 61.9288 250.417 62.1313C250.62 62.3338 250.78 62.5744 250.89 62.8391C250.999 63.1039 251.055 63.3876 251.054 63.674H252.345C252.364 63.2069 252.288 62.7409 252.122 62.3038C251.956 61.8668 251.704 61.4677 251.38 61.1306C251.056 60.7935 250.668 60.5253 250.238 60.3421C249.808 60.1589 249.345 60.0645 248.877 60.0645C248.41 60.0645 247.947 60.1589 247.517 60.3421C247.087 60.5253 246.699 60.7935 246.375 61.1306C246.051 61.4677 245.799 61.8668 245.633 62.3038C245.467 62.7409 245.391 63.2069 245.41 63.674H246.701C246.7 63.3881 246.756 63.1048 246.865 62.8404C246.974 62.576 247.134 62.3357 247.336 62.1333C247.537 61.9308 247.777 61.7702 248.041 61.6606C248.306 61.551 248.589 61.4946 248.875 61.4946Z" fill="#7694FF"/>
<path opacity="0.2" d="M250.417 62.1292L251.328 61.2183C251.007 60.8945 250.625 60.6378 250.203 60.4632C249.782 60.2886 249.33 60.1995 248.875 60.2012V61.4921C249.161 61.4905 249.445 61.5461 249.71 61.6554C249.975 61.7648 250.215 61.9259 250.417 62.1292Z" fill="black"/>
<path d="M250.417 81.3894L251.328 80.4785C251.652 80.7995 251.908 81.1818 252.083 81.6029C252.258 82.0241 252.347 82.4758 252.345 82.9318H251.032C251.036 82.6469 250.983 82.3641 250.878 82.0994C250.772 81.8348 250.616 81.5935 250.417 81.3894Z" fill="#7694FF"/>
<path d="M248.875 85.1111C249.453 85.1111 250.007 84.8815 250.416 84.4727C250.824 84.064 251.054 83.5097 251.054 82.9316H252.345C252.345 83.852 251.979 84.7347 251.328 85.3855C250.678 86.0363 249.795 86.402 248.875 86.402V85.1111Z" fill="#7694FF"/>
<path opacity="0.3" d="M248.875 85.1111C249.453 85.1111 250.007 84.8815 250.416 84.4727C250.824 84.064 251.054 83.5097 251.054 82.9316H252.345C252.345 83.852 251.979 84.7347 251.328 85.3855C250.678 86.0363 249.795 86.402 248.875 86.402V85.1111Z" fill="white"/>
<path d="M250.417 81.3909C250.214 81.1886 249.974 81.0282 249.709 80.9189C249.444 80.8095 249.161 80.7535 248.875 80.7538V79.4629C249.33 79.4624 249.782 79.5521 250.203 79.7266C250.624 79.9012 251.006 80.1572 251.328 80.48L250.417 81.3909Z" fill="#7694FF"/>
<path opacity="0.5" d="M250.417 81.3909C250.214 81.1886 249.974 81.0282 249.709 80.9189C249.444 80.8095 249.161 80.7535 248.875 80.7538V79.4629C249.33 79.4624 249.782 79.5521 250.203 79.7266C250.624 79.9012 251.006 80.1572 251.328 80.48L250.417 81.3909Z" fill="black"/>
<path d="M246.701 82.9332C246.701 83.5103 246.93 84.0638 247.338 84.4723C247.745 84.8809 248.298 85.1112 248.875 85.1127V86.4036C247.955 86.4036 247.072 86.0379 246.421 85.3871C245.77 84.7363 245.405 83.8536 245.405 82.9332C245.405 82.0128 245.77 81.1301 246.421 80.4793C247.072 79.8285 247.955 79.4629 248.875 79.4629V80.7538C248.298 80.7553 247.745 80.9855 247.338 81.3941C246.93 81.8027 246.701 82.3562 246.701 82.9332Z" fill="#7694FF"/>
<path opacity="0.2" d="M247.338 84.4754L246.427 85.4142C246.104 85.0926 245.848 84.7103 245.673 84.2892C245.499 83.8682 245.409 83.4167 245.41 82.9609H246.701C246.706 83.5298 246.935 84.0737 247.338 84.4754Z" fill="black"/>
<path d="M183.659 119.906H197.177C197.57 119.906 197.947 120.062 198.224 120.34C198.502 120.618 198.658 120.994 198.658 121.387V122.209C198.658 122.601 198.502 122.978 198.224 123.256C197.947 123.534 197.57 123.69 197.177 123.69H183.659V119.906Z" fill="#263238"/>
<path d="M157.233 119.906H185.996C186.36 119.906 186.71 120.051 186.968 120.309C187.225 120.567 187.37 120.916 187.37 121.281V122.292C187.37 122.657 187.225 123.007 186.968 123.265C186.71 123.522 186.36 123.667 185.996 123.667H157.233C156.867 123.667 156.515 123.522 156.257 123.263C155.998 123.004 155.852 122.653 155.852 122.287V121.287C155.852 121.105 155.887 120.925 155.956 120.757C156.025 120.59 156.127 120.437 156.255 120.309C156.383 120.181 156.536 120.079 156.704 120.01C156.871 119.941 157.051 119.906 157.233 119.906Z" fill="black"/>
<path opacity="0.5" d="M157.233 119.906H185.996C186.36 119.906 186.71 120.051 186.968 120.309C187.225 120.567 187.37 120.916 187.37 121.281V122.292C187.37 122.657 187.225 123.007 186.968 123.265C186.71 123.522 186.36 123.667 185.996 123.667H157.233C156.867 123.667 156.515 123.522 156.257 123.263C155.998 123.004 155.852 122.653 155.852 122.287V121.287C155.852 121.105 155.887 120.925 155.956 120.757C156.025 120.59 156.127 120.437 156.255 120.309C156.383 120.181 156.536 120.079 156.704 120.01C156.871 119.941 157.051 119.906 157.233 119.906Z" fill="white"/>
<path d="M179.681 119.914H186.968L182.302 102.479H179.681V119.914Z" fill="#263238"/>
<path d="M185.906 119.914H171.03L169.549 102.479H181.24L185.906 119.914Z" fill="black"/>
<path opacity="0.3" d="M185.906 119.914H171.03L169.549 102.479H181.24L185.906 119.914Z" fill="white"/>
<path d="M223.375 52.3791H216.614L211.355 112.235H218.117C218.816 112.224 219.486 111.956 220.001 111.484C220.516 111.011 220.84 110.366 220.911 109.67L225.695 54.9609C225.734 54.6347 225.702 54.3039 225.603 53.9907C225.504 53.6774 225.339 53.389 225.12 53.1446C224.9 52.9002 224.631 52.7054 224.33 52.5734C224.029 52.4414 223.704 52.3752 223.375 52.3791Z" fill="#263238"/>
<path d="M216.58 112.239H134.723C134.395 112.245 134.069 112.181 133.767 112.051C133.466 111.921 133.195 111.728 132.974 111.485C132.753 111.242 132.586 110.955 132.485 110.643C132.384 110.33 132.35 110 132.387 109.674L137.171 54.9641C137.243 54.2697 137.567 53.6258 138.082 53.1542C138.597 52.6826 139.267 52.4159 139.965 52.4047H221.817C222.144 52.3987 222.47 52.4627 222.771 52.5924C223.072 52.722 223.342 52.9143 223.563 53.1564C223.784 53.3986 223.951 53.6851 224.053 53.9968C224.154 54.3085 224.188 54.6382 224.152 54.9641L219.369 109.674C219.298 110.368 218.975 111.013 218.461 111.485C217.947 111.958 217.278 112.226 216.58 112.239Z" fill="#263238"/>
<path opacity="0.7" d="M216.58 112.239H134.723C134.395 112.245 134.069 112.181 133.767 112.051C133.466 111.921 133.195 111.728 132.974 111.485C132.753 111.242 132.586 110.955 132.485 110.643C132.384 110.33 132.35 110 132.387 109.674L137.171 54.9641C137.243 54.2697 137.567 53.6258 138.082 53.1542C138.597 52.6826 139.267 52.4159 139.965 52.4047H221.817C222.144 52.3987 222.47 52.4627 222.771 52.5924C223.072 52.722 223.342 52.9143 223.563 53.1564C223.784 53.3986 223.951 53.6851 224.053 53.9968C224.154 54.3085 224.188 54.6382 224.152 54.9641L219.369 109.674C219.298 110.368 218.975 111.013 218.461 111.485C217.947 111.958 217.278 112.226 216.58 112.239Z" fill="white"/>
<path opacity="0.9" d="M214.395 105.227H138.148C137.862 105.233 137.578 105.178 137.316 105.065C137.053 104.951 136.817 104.783 136.625 104.571C136.433 104.36 136.288 104.109 136.201 103.836C136.114 103.564 136.086 103.276 136.12 102.992L140.093 57.5365C140.153 56.9324 140.433 56.3713 140.878 55.9594C141.324 55.5474 141.906 55.3133 142.513 55.3012H218.76C219.046 55.2952 219.33 55.3507 219.592 55.4638C219.855 55.5769 220.091 55.7451 220.283 55.9569C220.475 56.1688 220.62 56.4194 220.707 56.6919C220.794 56.9644 220.822 57.2524 220.788 57.5365L216.815 102.992C216.755 103.596 216.475 104.157 216.03 104.569C215.584 104.981 215.002 105.215 214.395 105.227Z" fill="#FAFAFA"/>
<path d="M194.428 71.3759H191.762L192.226 66.0391H194.897L194.428 71.3759Z" fill="#7694FF"/>
<path opacity="0.2" d="M194.428 71.3759H191.762L192.226 66.0391H194.897L194.428 71.3759Z" fill="black"/>
<path d="M199.765 71.3735H197.099L197.798 63.3711H200.464L199.765 71.3735Z" fill="#7694FF"/>
<path d="M205.102 71.3739H202.431L203.018 64.707H205.683L205.102 71.3739Z" fill="#7694FF"/>
<path d="M210.438 71.3732H207.767L208.7 60.7051H211.372L210.438 71.3732Z" fill="#7694FF"/>
<path opacity="0.4" d="M210.438 71.3732H207.767L208.7 60.7051H211.372L210.438 71.3732Z" fill="black"/>
<path d="M213.104 70.8823H189.633C189.928 67.4921 190.226 64.1 190.528 60.706C190.583 60.0746 189.594 60.0746 189.538 60.706C189.233 64.2602 188.922 67.8162 188.605 71.3741C188.607 71.5041 188.659 71.6283 188.751 71.7202C188.843 71.8121 188.967 71.8644 189.097 71.8659H213.127C213.257 71.8629 213.381 71.8083 213.471 71.7139C213.561 71.6196 213.61 71.4934 213.607 71.3629C213.604 71.2325 213.55 71.1086 213.455 71.0185C213.361 70.9283 213.235 70.8794 213.104 70.8823Z" fill="#7694FF"/>
<path opacity="0.5" d="M213.104 70.8823H189.633C189.928 67.4921 190.226 64.1 190.528 60.706C190.583 60.0746 189.594 60.0746 189.538 60.706C189.233 64.2602 188.922 67.8162 188.605 71.3741C188.607 71.5041 188.659 71.6283 188.751 71.7202C188.843 71.8121 188.967 71.8644 189.097 71.8659H213.127C213.257 71.8629 213.381 71.8083 213.471 71.7139C213.561 71.6196 213.61 71.4934 213.607 71.3629C213.604 71.2325 213.55 71.1086 213.455 71.0185C213.361 70.9283 213.235 70.8794 213.104 70.8823Z" fill="white"/>
<path d="M150.443 68.4844L148.705 70.0882C149.233 70.6585 149.875 71.1115 150.589 71.4176C151.303 71.7238 152.074 71.8763 152.851 71.8653L153.047 69.63C152.556 69.6328 152.071 69.5322 151.622 69.3348C151.174 69.1374 150.772 68.8476 150.443 68.4844Z" fill="#7694FF"/>
<path opacity="0.5" d="M150.443 68.4844L148.705 70.0882C149.233 70.6585 149.875 71.1115 150.589 71.4176C151.303 71.7238 152.074 71.8763 152.851 71.8653L153.047 69.63C152.556 69.6328 152.071 69.5322 151.622 69.3348C151.174 69.1374 150.772 68.8476 150.443 68.4844Z" fill="black"/>
<path d="M157.177 65.7841C157.07 66.8192 156.589 67.7795 155.823 68.4837C155.057 69.188 154.059 69.5873 153.019 69.6065L152.823 71.8418C154.479 71.8122 156.066 71.1773 157.285 70.057C158.504 68.9367 159.271 67.4087 159.44 65.7617L157.177 65.7841Z" fill="#7694FF"/>
<path opacity="0.1" d="M157.177 65.7841C157.07 66.8192 156.589 67.7795 155.823 68.4837C155.057 69.188 154.059 69.5873 153.019 69.6065L152.823 71.8418C154.479 71.8122 156.066 71.1773 157.285 70.057C158.504 68.9367 159.271 67.4087 159.44 65.7617L157.177 65.7841Z" fill="black"/>
<path d="M150.443 68.4843C150.116 68.1208 149.868 67.6928 149.716 67.228C149.564 66.7632 149.511 66.2717 149.56 65.7852H147.324C147.245 66.5606 147.329 67.3439 147.571 68.085C147.812 68.8261 148.206 69.5084 148.727 70.0881L150.443 68.4843Z" fill="#7694FF"/>
<path d="M153.69 61.9408C154.179 61.9314 154.665 62.0266 155.115 62.22C155.565 62.4135 155.968 62.7007 156.298 63.0625C156.629 63.4243 156.878 63.8523 157.029 64.318C157.18 64.7838 157.231 65.2764 157.177 65.7632H159.412C159.492 64.9933 159.409 64.215 159.167 63.4796C158.926 62.7442 158.531 62.0683 158.01 61.4961C157.488 60.924 156.852 60.4687 156.142 60.1601C155.432 59.8515 154.665 59.6965 153.891 59.7054C152.234 59.7352 150.646 60.3709 149.427 61.4923C148.208 62.6137 147.442 64.1431 147.274 65.7911H149.509C149.609 64.7468 150.09 63.7759 150.862 63.0652C151.634 62.3545 152.641 61.954 153.69 61.9408Z" fill="#7694FF"/>
<path opacity="0.2" d="M153.69 61.9408C154.179 61.9314 154.665 62.0266 155.115 62.22C155.565 62.4135 155.968 62.7007 156.298 63.0625C156.629 63.4243 156.878 63.8523 157.029 64.318C157.18 64.7838 157.231 65.2764 157.177 65.7632H159.412C159.492 64.9933 159.409 64.215 159.167 63.4796C158.926 62.7442 158.531 62.0683 158.01 61.4961C157.488 60.924 156.852 60.4687 156.142 60.1601C155.432 59.8515 154.665 59.6965 153.891 59.7054C152.234 59.7352 150.646 60.3709 149.427 61.4923C148.208 62.6137 147.442 64.1431 147.274 65.7911H149.509C149.609 64.7468 150.09 63.7759 150.862 63.0652C151.634 62.3545 152.641 61.954 153.69 61.9408Z" fill="white"/>
<path opacity="0.6" d="M156.294 63.0572L158.032 61.4589C157.505 60.8877 156.864 60.4338 156.151 60.1267C155.438 59.8195 154.667 59.6661 153.891 59.6763L153.69 61.9116C154.18 61.9081 154.665 62.0083 155.114 62.2057C155.563 62.4032 155.965 62.6934 156.294 63.0572Z" fill="white"/>
<path d="M167.359 68.4844L165.621 70.0882C166.149 70.6583 166.791 71.111 167.505 71.4171C168.219 71.7233 168.99 71.8759 169.767 71.8653L169.968 69.63C169.477 69.6332 168.991 69.5329 168.541 69.3355C168.092 69.1381 167.689 68.8481 167.359 68.4844Z" fill="#7694FF"/>
<path opacity="0.5" d="M167.359 68.4844L165.621 70.0882C166.149 70.6583 166.791 71.111 167.505 71.4171C168.219 71.7233 168.99 71.8759 169.767 71.8653L169.968 69.63C169.477 69.6332 168.991 69.5329 168.541 69.3355C168.092 69.1381 167.689 68.8481 167.359 68.4844Z" fill="black"/>
<path d="M174.12 65.7841C174.014 66.8182 173.533 67.7778 172.768 68.4819C172.004 69.186 171.008 69.586 169.968 69.6065L169.767 71.8418C171.422 71.8122 173.01 71.1773 174.229 70.057C175.448 68.9367 176.214 67.4087 176.384 65.7617L174.12 65.7841Z" fill="#7694FF"/>
<path opacity="0.1" d="M174.12 65.7841C174.014 66.8182 173.533 67.7778 172.768 68.4819C172.004 69.186 171.008 69.586 169.968 69.6065L169.767 71.8418C171.422 71.8122 173.01 71.1773 174.229 70.057C175.448 68.9367 176.214 67.4087 176.384 65.7617L174.12 65.7841Z" fill="black"/>
<path d="M167.358 68.4843C167.032 68.1202 166.785 67.6922 166.633 67.2275C166.481 66.7629 166.427 66.2717 166.475 65.7852H164.24C164.161 66.5606 164.245 67.3439 164.486 68.085C164.728 68.8261 165.122 69.5084 165.643 70.0881L167.358 68.4843Z" fill="#7694FF"/>
<path d="M170.633 61.9408C171.123 61.9314 171.609 62.0266 172.059 62.22C172.509 62.4135 172.912 62.7007 173.242 63.0625C173.572 63.4243 173.821 63.8523 173.973 64.318C174.124 64.7838 174.174 65.2764 174.12 65.7632H176.356C176.436 64.9933 176.353 64.215 176.111 63.4796C175.869 62.7442 175.475 62.0683 174.953 61.4961C174.432 60.924 173.795 60.4687 173.085 60.1601C172.376 59.8515 171.608 59.6965 170.834 59.7054C169.178 59.7352 167.59 60.3709 166.371 61.4923C165.152 62.6137 164.386 64.1431 164.218 65.7911H166.453C166.552 64.7468 167.034 63.7759 167.806 63.0652C168.577 62.3545 169.584 61.954 170.633 61.9408Z" fill="#7694FF"/>
<path opacity="0.2" d="M170.633 61.9408C171.123 61.9314 171.609 62.0266 172.059 62.22C172.509 62.4135 172.912 62.7007 173.242 63.0625C173.572 63.4243 173.821 63.8523 173.973 64.318C174.124 64.7838 174.174 65.2764 174.12 65.7632H176.356C176.436 64.9933 176.353 64.215 176.111 63.4796C175.869 62.7442 175.475 62.0683 174.953 61.4961C174.432 60.924 173.795 60.4687 173.085 60.1601C172.376 59.8515 171.608 59.6965 170.834 59.7054C169.178 59.7352 167.59 60.3709 166.371 61.4923C165.152 62.6137 164.386 64.1431 164.218 65.7911H166.453C166.552 64.7468 167.034 63.7759 167.806 63.0652C168.577 62.3545 169.584 61.954 170.633 61.9408Z" fill="white"/>
<path opacity="0.6" d="M173.238 63.0572L174.976 61.4589C174.449 60.8877 173.808 60.4338 173.095 60.1267C172.382 59.8195 171.611 59.6661 170.835 59.6763L170.634 61.9116C171.124 61.9081 171.609 62.0083 172.058 62.2057C172.507 62.4032 172.909 62.6934 173.238 63.0572Z" fill="white"/>
<path d="M192.819 91.1658H189.633L189.907 87.9805H193.098L192.819 91.1658ZM190.382 90.4728H192.182L192.344 88.6734H190.544L190.382 90.4728Z" fill="#7694FF"/>
<path d="M192.394 96.0291H189.209L189.482 92.8438H192.673L192.394 96.0291ZM189.963 95.3361H191.762L191.919 93.5367H190.12L189.963 95.3361Z" fill="#7694FF"/>
<path d="M191.969 100.863H188.784L189.063 97.6836H192.249L191.969 100.863ZM189.561 100.176H191.36L191.517 98.371H189.717L189.561 100.176Z" fill="#7694FF"/>
<path d="M195.026 90.4404C194.926 90.4427 194.828 90.4235 194.736 90.3844C194.644 90.3452 194.562 90.2868 194.495 90.2133C194.428 90.1397 194.377 90.0526 194.346 89.9578C194.315 89.863 194.305 89.7627 194.316 89.6637C194.338 89.4536 194.436 89.2587 194.591 89.1156C194.747 88.9726 194.949 88.8912 195.16 88.8869H205.817C205.917 88.8847 206.016 88.9038 206.107 88.943C206.199 88.9822 206.281 89.0405 206.348 89.1141C206.416 89.1877 206.466 89.2748 206.497 89.3696C206.528 89.4644 206.538 89.5646 206.527 89.6637C206.506 89.8742 206.409 90.0698 206.253 90.2131C206.098 90.3564 205.895 90.4373 205.683 90.4404H195.026Z" fill="#7694FF"/>
<path opacity="0.7" d="M195.026 90.4404C194.926 90.4427 194.828 90.4235 194.736 90.3844C194.644 90.3452 194.562 90.2868 194.495 90.2133C194.428 90.1397 194.377 90.0526 194.346 89.9578C194.315 89.863 194.305 89.7627 194.316 89.6637C194.338 89.4536 194.436 89.2587 194.591 89.1156C194.747 88.9726 194.949 88.8912 195.16 88.8869H205.817C205.917 88.8847 206.016 88.9038 206.107 88.943C206.199 88.9822 206.281 89.0405 206.348 89.1141C206.416 89.1877 206.466 89.2748 206.497 89.3696C206.528 89.4644 206.538 89.5646 206.527 89.6637C206.506 89.8742 206.409 90.0698 206.253 90.2131C206.098 90.3564 205.895 90.4373 205.683 90.4404H195.026Z" fill="white"/>
<path d="M194.182 100.054C194.083 100.054 193.985 100.034 193.894 99.994C193.803 99.9542 193.722 99.8958 193.655 99.8226C193.588 99.7494 193.537 99.6631 193.506 99.5691C193.474 99.4751 193.463 99.3755 193.472 99.2768C193.494 99.0658 193.593 98.8701 193.749 98.727C193.906 98.5838 194.11 98.503 194.322 98.5001H203.263C203.362 98.4987 203.461 98.5184 203.552 98.5579C203.643 98.5975 203.724 98.6559 203.791 98.7294C203.857 98.8029 203.907 98.8897 203.938 98.9841C203.968 99.0785 203.978 99.1783 203.967 99.2768C203.945 99.4869 203.848 99.6818 203.692 99.8249C203.537 99.9679 203.335 100.049 203.123 100.054H194.182Z" fill="#7694FF"/>
<path opacity="0.4" d="M194.182 100.054C194.083 100.054 193.985 100.034 193.894 99.994C193.803 99.9542 193.722 99.8958 193.655 99.8226C193.588 99.7494 193.537 99.6631 193.506 99.5691C193.474 99.4751 193.463 99.3755 193.472 99.2768C193.494 99.0658 193.593 98.8701 193.749 98.727C193.906 98.5838 194.11 98.503 194.322 98.5001H203.263C203.362 98.4987 203.461 98.5184 203.552 98.5579C203.643 98.5975 203.724 98.6559 203.791 98.7294C203.857 98.8029 203.907 98.8897 203.938 98.9841C203.968 99.0785 203.978 99.1783 203.967 99.2768C203.945 99.4869 203.848 99.6818 203.692 99.8249C203.537 99.9679 203.335 100.049 203.123 100.054H194.182Z" fill="white"/>
<path d="M194.59 95.202C194.491 95.2034 194.393 95.1836 194.301 95.1441C194.21 95.1046 194.128 95.0463 194.061 94.9729C193.994 94.8996 193.943 94.8128 193.912 94.7184C193.881 94.624 193.87 94.5241 193.881 94.4253C193.903 94.2142 194.001 94.0186 194.158 93.8754C194.314 93.7322 194.518 93.6515 194.73 93.6485H202.973C203.072 93.6472 203.171 93.6669 203.262 93.7064C203.353 93.7459 203.435 93.8042 203.502 93.8776C203.569 93.951 203.62 94.0377 203.651 94.1321C203.682 94.2265 203.693 94.3264 203.683 94.4253C203.661 94.6354 203.563 94.8303 203.408 94.9733C203.252 95.1164 203.05 95.1977 202.839 95.202H194.59Z" fill="#7694FF"/>
<path opacity="0.2" d="M194.59 95.202C194.491 95.2034 194.393 95.1836 194.301 95.1441C194.21 95.1046 194.128 95.0463 194.061 94.9729C193.994 94.8996 193.943 94.8128 193.912 94.7184C193.881 94.624 193.87 94.5241 193.881 94.4253C193.903 94.2142 194.001 94.0186 194.158 93.8754C194.314 93.7322 194.518 93.6515 194.73 93.6485H202.973C203.072 93.6472 203.171 93.6669 203.262 93.7064C203.353 93.7459 203.435 93.8042 203.502 93.8776C203.569 93.951 203.62 94.0377 203.651 94.1321C203.682 94.2265 203.693 94.3264 203.683 94.4253C203.661 94.6354 203.563 94.8303 203.408 94.9733C203.252 95.1164 203.05 95.1977 202.839 95.202H194.59Z" fill="white"/>
<path d="M184.269 95.7829C183.472 94.6652 182.669 93.5681 181.86 92.4914C181.82 92.4272 181.767 92.3727 181.703 92.3318C181.64 92.291 181.568 92.2648 181.493 92.2551C181.418 92.2455 181.342 92.2527 181.27 92.2761C181.198 92.2996 181.133 92.3388 181.078 92.3908L178.524 95.185C177.853 94.0673 177.188 92.9888 176.518 91.8879C176.479 91.8224 176.426 91.7666 176.363 91.7246C176.3 91.6826 176.228 91.6554 176.152 91.6452C176.077 91.635 176.001 91.642 175.928 91.6656C175.856 91.6892 175.79 91.7289 175.736 91.7817C174.853 92.592 173.992 93.4302 173.087 94.2182C172.818 94.0729 172.528 93.9052 172.293 93.7488L170.84 92.8882C170.725 92.8241 170.59 92.807 170.463 92.8403C170.336 92.8736 170.227 92.9549 170.158 93.067L167.577 96.8056C166.936 95.5612 166.295 94.315 165.654 93.067C165.586 92.9549 165.476 92.8736 165.349 92.8403C165.222 92.807 165.087 92.8241 164.972 92.8882L163.737 93.5476C163.492 93.6873 162.62 94.1064 162.407 94.2908C162.063 94.0566 161.705 93.8438 161.334 93.6538L160.044 92.8882C159.929 92.8215 159.794 92.8028 159.666 92.8364C159.538 92.8699 159.428 92.9529 159.362 93.067C159.295 93.1811 159.276 93.3171 159.31 93.4449C159.344 93.5728 159.427 93.6821 159.541 93.7488C160.256 94.1735 161.53 95.3526 162.374 95.347C163.218 95.3414 164.224 94.5423 165.023 94.0226L167.085 98.0238C167.13 98.0978 167.193 98.1591 167.268 98.2016C167.344 98.2441 167.429 98.2664 167.515 98.2664C167.602 98.2664 167.687 98.2441 167.762 98.2016C167.837 98.1591 167.901 98.0978 167.945 98.0238L170.74 93.9835L172.908 95.2632C173.003 95.317 173.114 95.3384 173.223 95.3243C173.331 95.3102 173.433 95.2613 173.511 95.185L175.981 92.9161L178.021 96.2691C178.06 96.3341 178.114 96.3894 178.177 96.4309C178.241 96.4724 178.313 96.499 178.388 96.5087C178.463 96.5184 178.54 96.5109 178.612 96.4868C178.684 96.4627 178.749 96.4227 178.803 96.3697L181.396 93.5085L183.414 96.2691C183.788 96.7944 184.649 96.297 184.269 95.7829Z" fill="#7694FF"/>
<path d="M183.464 99.8691H159.719C160.021 96.4379 160.321 93.0067 160.619 89.5755C160.675 88.9384 159.68 88.9384 159.624 89.5755L158.68 100.366C158.681 100.498 158.734 100.624 158.827 100.717C158.92 100.81 159.046 100.862 159.177 100.864H183.464C183.596 100.864 183.722 100.811 183.816 100.718C183.909 100.625 183.961 100.498 183.961 100.366C183.961 100.235 183.909 100.108 183.816 100.015C183.722 99.9215 183.596 99.8691 183.464 99.8691Z" fill="#7694FF"/>
<path opacity="0.5" d="M183.464 99.8691H159.719C160.021 96.4379 160.321 93.0067 160.619 89.5755C160.675 88.9384 159.68 88.9384 159.624 89.5755L158.68 100.366C158.681 100.498 158.734 100.624 158.827 100.717C158.92 100.81 159.046 100.862 159.177 100.864H183.464C183.596 100.864 183.722 100.811 183.816 100.718C183.909 100.625 183.961 100.498 183.961 100.366C183.961 100.235 183.909 100.108 183.816 100.015C183.722 99.9215 183.596 99.8691 183.464 99.8691Z" fill="white"/>
<path d="M209.315 85.2372H166.939L167.884 74.4238H210.26L209.315 85.2372Z" fill="#7694FF"/>
<path opacity="0.9" d="M209.315 85.2372H166.939L167.884 74.4238H210.26L209.315 85.2372Z" fill="white"/>
<path d="M174.534 82.738L173.898 81.976C173.722 82.02 173.542 82.042 173.358 82.042C172.966 82.042 172.606 81.95 172.278 81.766C171.95 81.582 171.69 81.328 171.498 81.004C171.306 80.676 171.21 80.306 171.21 79.894C171.21 79.486 171.306 79.12 171.498 78.796C171.69 78.468 171.95 78.212 172.278 78.028C172.606 77.844 172.966 77.752 173.358 77.752C173.754 77.752 174.114 77.844 174.438 78.028C174.766 78.212 175.024 78.468 175.212 78.796C175.404 79.12 175.5 79.486 175.5 79.894C175.5 80.266 175.42 80.606 175.26 80.914C175.104 81.218 174.89 81.466 174.618 81.658L175.578 82.738H174.534ZM172.074 79.894C172.074 80.174 172.128 80.42 172.236 80.632C172.344 80.844 172.494 81.008 172.686 81.124C172.882 81.236 173.106 81.292 173.358 81.292C173.61 81.292 173.832 81.236 174.024 81.124C174.216 81.008 174.366 80.844 174.474 80.632C174.582 80.42 174.636 80.174 174.636 79.894C174.636 79.614 174.582 79.37 174.474 79.162C174.366 78.95 174.216 78.788 174.024 78.676C173.832 78.564 173.61 78.508 173.358 78.508C173.106 78.508 172.882 78.564 172.686 78.676C172.494 78.788 172.344 78.95 172.236 79.162C172.128 79.37 172.074 79.614 172.074 79.894ZM176.965 77.812V80.404C176.965 80.688 177.039 80.906 177.187 81.058C177.335 81.206 177.543 81.28 177.811 81.28C178.083 81.28 178.293 81.206 178.441 81.058C178.589 80.906 178.663 80.688 178.663 80.404V77.812H179.509V80.398C179.509 80.754 179.431 81.056 179.275 81.304C179.123 81.548 178.917 81.732 178.657 81.856C178.401 81.98 178.115 82.042 177.799 82.042C177.487 82.042 177.203 81.98 176.947 81.856C176.695 81.732 176.495 81.548 176.347 81.304C176.199 81.056 176.125 80.754 176.125 80.398V77.812H176.965ZM181.16 77.812V82H180.32V77.812H181.16ZM181.786 79.9C181.786 79.488 181.878 79.12 182.062 78.796C182.25 78.468 182.504 78.214 182.824 78.034C183.148 77.85 183.51 77.758 183.91 77.758C184.378 77.758 184.788 77.878 185.14 78.118C185.492 78.358 185.738 78.69 185.878 79.114H184.912C184.816 78.914 184.68 78.764 184.504 78.664C184.332 78.564 184.132 78.514 183.904 78.514C183.66 78.514 183.442 78.572 183.25 78.688C183.062 78.8 182.914 78.96 182.806 79.168C182.702 79.376 182.65 79.62 182.65 79.9C182.65 80.176 182.702 80.42 182.806 80.632C182.914 80.84 183.062 81.002 183.25 81.118C183.442 81.23 183.66 81.286 183.904 81.286C184.132 81.286 184.332 81.236 184.504 81.136C184.68 81.032 184.816 80.88 184.912 80.68H185.878C185.738 81.108 185.492 81.442 185.14 81.682C184.792 81.918 184.382 82.036 183.91 82.036C183.51 82.036 183.148 81.946 182.824 81.766C182.504 81.582 182.25 81.328 182.062 81.004C181.878 80.68 181.786 80.312 181.786 79.9ZM188.96 82L187.436 80.134V82H186.596V77.812H187.436V79.69L188.96 77.812H189.974L188.246 79.888L190.022 82H188.96ZM192.844 77.812V82H192.004V77.812H192.844ZM197.256 82H196.416L194.514 79.126V82H193.674V77.806H194.514L196.416 80.686V77.806H197.256V82ZM200.672 77.812V78.49H198.926V79.564H200.264V80.23H198.926V82H198.086V77.812H200.672ZM203.212 82.042C202.82 82.042 202.46 81.95 202.132 81.766C201.804 81.582 201.544 81.328 201.352 81.004C201.16 80.676 201.064 80.306 201.064 79.894C201.064 79.486 201.16 79.12 201.352 78.796C201.544 78.468 201.804 78.212 202.132 78.028C202.46 77.844 202.82 77.752 203.212 77.752C203.608 77.752 203.968 77.844 204.292 78.028C204.62 78.212 204.878 78.468 205.066 78.796C205.258 79.12 205.354 79.486 205.354 79.894C205.354 80.306 205.258 80.676 205.066 81.004C204.878 81.328 204.62 81.582 204.292 81.766C203.964 81.95 203.604 82.042 203.212 82.042ZM203.212 81.292C203.464 81.292 203.686 81.236 203.878 81.124C204.07 81.008 204.22 80.844 204.328 80.632C204.436 80.42 204.49 80.174 204.49 79.894C204.49 79.614 204.436 79.37 204.328 79.162C204.22 78.95 204.07 78.788 203.878 78.676C203.686 78.564 203.464 78.508 203.212 78.508C202.96 78.508 202.736 78.564 202.54 78.676C202.348 78.788 202.198 78.95 202.09 79.162C201.982 79.37 201.928 79.614 201.928 79.894C201.928 80.174 201.982 80.42 202.09 80.632C202.198 80.844 202.348 81.008 202.54 81.124C202.736 81.236 202.96 81.292 203.212 81.292Z" fill="#7694FF"/>
<path d="M210.065 86.0618H166.046L167.163 73.6055H211.182L210.065 86.0618ZM167.834 84.4188H208.561L209.366 75.254H168.639L167.834 84.4188Z" fill="#263238"/>
<path d="M239.514 127.508H124.602V191.757H239.514V127.508Z" fill="#7694FF"/>
<path d="M116.119 191.76H126.837L126.837 127.511H116.119V191.76Z" fill="#7694FF"/>
<path opacity="0.3" d="M116.119 191.76H126.837L126.837 127.511H116.119V191.76Z" fill="white"/>
<path d="M231.535 127.508H113.867V133.191H231.535V127.508Z" fill="#7694FF"/>
<path opacity="0.6" d="M231.535 127.508H113.867V133.191H231.535V127.508Z" fill="white"/>
<path d="M116.119 127.508H111.621V191.757H116.119V127.508Z" fill="#7694FF"/>
<path opacity="0.5" d="M116.119 127.508H111.621V191.757H116.119V127.508Z" fill="white"/>
<path d="M234.675 191.76H245.393V127.511H234.675V191.76Z" fill="#7694FF"/>
<path opacity="0.3" d="M234.675 191.76H245.393V127.511H234.675V191.76Z" fill="white"/>
<path d="M238.374 128.732H248.093V123.798H238.374V128.732Z" fill="#7694FF"/>
<path opacity="0.3" d="M238.374 128.732H248.093V123.798H238.374V128.732Z" fill="white"/>
<path d="M227.109 136.26H178.563V191.757H227.109V136.26Z" fill="#7694FF"/>
<path opacity="0.5" d="M227.109 136.26H178.563V191.757H227.109V136.26Z" fill="white"/>
<path d="M230.176 136.26H227.108V191.757H230.176V136.26Z" fill="#7694FF"/>
<path opacity="0.2" d="M230.176 136.26H227.108V191.757H230.176V136.26Z" fill="white"/>
<path d="M224.04 154.488H181.631V167.325H224.04V154.488Z" fill="#7694FF"/>
<path d="M224.04 139.283H181.631V152.12H224.04V139.283Z" fill="#7694FF"/>
<g opacity="0.7">
<path opacity="0.7" d="M224.04 154.49H181.631V167.327H224.04V154.49Z" fill="white"/>
<path opacity="0.7" d="M224.04 139.283H181.631V152.12H224.04V139.283Z" fill="white"/>
</g>
<path d="M234.675 127.508H230.176V191.757H234.675V127.508Z" fill="#7694FF"/>
<path opacity="0.1" d="M239.514 127.508H124.602V191.757H239.514V127.508Z" fill="white"/>
<path opacity="0.5" d="M234.675 127.508H230.176V191.757H234.675V127.508Z" fill="white"/>
<path d="M238.369 123.807H107.921V128.741H238.369V123.807Z" fill="#7694FF"/>
<path opacity="0.6" d="M238.369 123.807H107.921V128.741H238.369V123.807Z" fill="white"/>
<path d="M202.973 144.309H201.503C201.132 144.309 200.777 144.456 200.515 144.718C200.253 144.98 200.106 145.335 200.106 145.706C200.106 146.076 200.253 146.432 200.515 146.694C200.777 146.956 201.132 147.103 201.503 147.103H202.973C203.343 147.103 203.698 146.956 203.96 146.694C204.222 146.432 204.37 146.076 204.37 145.706C204.37 145.335 204.222 144.98 203.96 144.718C203.698 144.456 203.343 144.309 202.973 144.309Z" fill="#7694FF"/>
<path d="M202.973 159.514H201.503C201.132 159.514 200.777 159.661 200.515 159.923C200.253 160.185 200.106 160.54 200.106 160.911C200.106 161.281 200.253 161.637 200.515 161.899C200.777 162.161 201.132 162.308 201.503 162.308H202.973C203.343 162.308 203.698 162.161 203.96 161.899C204.222 161.637 204.37 161.281 204.37 160.911C204.37 160.54 204.222 160.185 203.96 159.923C203.698 159.661 203.343 159.514 202.973 159.514Z" fill="#7694FF"/>
<path opacity="0.3" d="M202.883 145.706C202.883 145.982 202.801 146.252 202.648 146.482C202.494 146.712 202.276 146.891 202.021 146.996C201.765 147.102 201.484 147.13 201.213 147.076C200.942 147.022 200.693 146.889 200.498 146.694C200.303 146.498 200.17 146.249 200.116 145.978C200.062 145.707 200.089 145.426 200.195 145.171C200.301 144.916 200.48 144.698 200.71 144.544C200.94 144.391 201.21 144.309 201.486 144.309C201.856 144.309 202.212 144.456 202.474 144.718C202.736 144.98 202.883 145.335 202.883 145.706Z" fill="#FAFAFA"/>
<path opacity="0.3" d="M202.883 160.911C202.883 161.187 202.801 161.457 202.648 161.687C202.494 161.917 202.276 162.096 202.021 162.201C201.765 162.307 201.484 162.335 201.213 162.281C200.942 162.227 200.693 162.094 200.498 161.899C200.303 161.703 200.17 161.454 200.116 161.183C200.062 160.912 200.089 160.631 200.195 160.376C200.301 160.121 200.48 159.903 200.71 159.749C200.94 159.596 201.21 159.514 201.486 159.514C201.856 159.514 202.212 159.661 202.474 159.923C202.736 160.185 202.883 160.54 202.883 160.911Z" fill="#FAFAFA"/>
<path d="M153.986 67.5904C153.186 68.7081 154.947 72.3125 154.947 72.3125L147.017 73.2681L148.571 64.623C148.571 64.623 154.913 66.2604 153.986 67.5904Z" fill="#CE7A63"/>
<path opacity="0.2" d="M153.863 69.2049C153.702 68.6681 153.746 68.0906 153.986 67.5843C154.545 66.7572 152.309 65.8128 150.56 65.2148C151.002 66.0643 152.17 68.1878 153.863 69.2049Z" fill="black"/>
<path d="M144.765 107.5C144.765 107.5 143.536 111.077 143.357 119.795C143.245 124.992 142.736 133.207 142.345 139.013C142.233 140.689 142.127 142.187 142.043 143.321C141.939 144.763 141.603 146.178 141.049 147.513C140.669 148.44 140.194 149.714 139.702 151.296C138.72 154.509 138.014 157.799 137.59 161.131C136.287 170.877 134.795 189.766 134.795 189.766L139.618 190.392L151.499 146.373L164.156 107.467L144.765 107.5Z" fill="#263238"/>
<path opacity="0.2" d="M157.367 128.489L156.858 124.655L152.712 121.174L151.32 120.486C153.408 126.52 154.231 132.919 153.74 139.285L157.367 128.489Z" fill="black"/>
<path d="M167.917 107.677L173.724 189.434L168.806 190.272C168.806 190.272 162.234 167.645 161.122 155.139C160.99 153.813 160.942 152.48 160.977 151.149C161.027 149.447 160.802 147.749 160.312 146.119L159.619 143.789L155.746 130.673C154.96 127.93 153.659 125.362 151.912 123.107C149.895 120.564 147.403 115.635 148.437 107.459L166.649 106.18L167.917 107.677Z" fill="#263238"/>
<path d="M149.733 102.516C149.733 102.516 152.555 101.957 153.505 102.03C154.54 102.272 155.551 102.603 156.528 103.019C156.744 103.089 156.938 103.214 157.09 103.383C157.242 103.551 157.348 103.756 157.396 103.978C157.444 104.199 157.433 104.43 157.364 104.646C157.295 104.862 157.171 105.057 157.003 105.21C157.003 105.21 155.455 107.199 154.679 107.367C153.131 107.691 148.694 105.316 148.694 105.316L149.733 102.516Z" fill="#CE7A63"/>
<path d="M149.593 101.162L148.028 106.22L149.532 106.348L150.912 101.928L149.593 101.162Z" fill="#263238"/>
<path opacity="0.2" d="M149.593 101.162L148.028 106.22L149.532 106.348L150.912 101.928L149.593 101.162Z" fill="white"/>
<path d="M140.306 77.0663C140.133 76.8411 139.905 76.6645 139.644 76.5538C139.383 76.4431 139.098 76.4021 138.816 76.4347C138.535 76.4674 138.266 76.5727 138.038 76.7402C137.809 76.9077 137.628 77.1318 137.511 77.3904C135.751 81.157 131.308 91.1433 131.292 95.9939C131.292 102.035 149.034 105.611 149.034 105.611L150.107 102.141L137.903 94.6304L141.418 86.3429C141.418 86.3429 142.289 79.7878 140.306 77.0663Z" fill="#7694FF"/>
<path opacity="0.1" d="M140.306 77.0663C140.133 76.8411 139.905 76.6645 139.644 76.5538C139.383 76.4431 139.098 76.4021 138.816 76.4347C138.535 76.4674 138.266 76.5727 138.038 76.7402C137.809 76.9077 137.628 77.1318 137.511 77.3904C135.751 81.157 131.308 91.1433 131.292 95.9939C131.292 102.035 149.034 105.611 149.034 105.611L150.107 102.141L137.903 94.6304L141.418 86.3429C141.418 86.3429 142.289 79.7878 140.306 77.0663Z" fill="black"/>
<g opacity="0.4">
<path opacity="0.4" d="M140.669 77.6719L138.752 77.9345L137.634 78.7225L138.948 92.1344L141.401 86.3561C141.401 86.3561 142.178 80.6449 140.669 77.6719Z" fill="black"/>
<path opacity="0.4" d="M144.368 98.6057L139.294 95.4707L140.032 103.004C141.093 103.4 142.155 103.753 143.161 104.066L144.368 98.6057Z" fill="black"/>
</g>
<path d="M167.644 107.634C167.644 107.634 158.898 110.495 144.575 108.193L137.707 79.2624C137.477 78.1975 137.599 77.0867 138.054 76.097C138.51 75.1074 139.275 74.2924 140.233 73.7746C143.178 72.1429 149.012 70.6117 160.519 71.2431C161.901 71.3205 163.222 71.8428 164.283 72.7321C165.345 73.6214 166.09 74.83 166.409 76.1776L167.644 107.634Z" fill="#7694FF"/>
<path d="M144.676 72.4391L145.547 70.3882C145.547 70.3882 148.995 68.6446 154.841 69.4661L156.232 71.0755C156.232 71.0755 149.688 71.232 144.676 72.4391Z" fill="#263238"/>
<path d="M158.132 57.4129C158.21 57.7371 158.099 58.0444 157.881 58.0891C157.663 58.1338 157.406 57.9047 157.322 57.5862C157.238 57.2676 157.322 56.9547 157.568 56.91C157.814 56.8653 158.048 57.0888 158.132 57.4129Z" fill="#263238"/>
<path d="M157.836 58.3965L160.071 60.5815C159.806 60.8365 159.485 61.0266 159.134 61.1371C158.784 61.2477 158.412 61.2755 158.048 61.2186L157.836 58.3965Z" fill="#BA4D3C"/>
<path d="M145.095 58.8687C145.95 63.2444 146.213 65.1221 148.789 67.1171C152.578 69.0115 157.993 68.1789 158.49 63.6412C158.943 59.5617 157.473 53.1016 152.812 51.8387C151.239 51.3965 149.555 51.5935 148.127 52.3868C146.698 53.1801 145.641 54.5055 145.184 56.0746C144.931 56.9854 144.901 57.9436 145.095 58.8687Z" fill="#CE7A63"/>
<path d="M156.484 56.3821C156.513 56.3826 156.543 56.3757 156.569 56.362C156.595 56.3484 156.618 56.3284 156.635 56.3039C156.753 56.119 156.913 55.9648 157.103 55.8541C157.292 55.7433 157.505 55.6791 157.724 55.6668C157.747 55.6683 157.77 55.6651 157.792 55.6574C157.814 55.6496 157.833 55.6375 157.85 55.6218C157.867 55.6061 157.88 55.5871 157.889 55.566C157.898 55.5449 157.903 55.5221 157.903 55.4991C157.903 55.4517 157.884 55.4062 157.851 55.3727C157.817 55.3391 157.772 55.3203 157.724 55.3203C157.446 55.3248 157.172 55.3986 156.929 55.5352C156.686 55.6718 156.481 55.8669 156.333 56.1027C156.309 56.1424 156.3 56.1899 156.31 56.2355C156.319 56.2811 156.345 56.3215 156.383 56.3486C156.414 56.3671 156.448 56.3785 156.484 56.3821Z" fill="#263238"/>
<path opacity="0.4" d="M167.359 93.3724L166.772 82.7546L162.983 77.7251L160.91 75.8027L159.311 76.9204C159.311 76.9204 159.529 82.7993 167.359 93.3724Z" fill="black"/>
<path d="M168.588 78.3045C170.689 82.1605 171.5 84.4517 172.22 85.3961C172.266 85.4593 172.328 85.5088 172.4 85.5393C172.472 85.5698 172.551 85.5802 172.628 85.5693L184.895 83.7867C184.997 83.771 185.101 83.7922 185.189 83.8465C185.277 83.9007 185.343 83.9845 185.375 84.0829L186.364 87.1173C186.384 87.1723 186.392 87.2306 186.388 87.2887C186.384 87.3468 186.369 87.4036 186.343 87.4557C186.317 87.5078 186.28 87.5541 186.236 87.592C186.192 87.6299 186.14 87.6585 186.085 87.6761L174.584 91.5879C173.564 91.9869 172.454 92.0978 171.374 91.9085C170.295 91.7193 169.289 91.2373 168.465 90.515C165.198 87.648 162.537 84.1555 160.641 80.2437C159.758 78.5001 157.708 75.2701 161.077 72.4201C163.855 70.0562 167.208 75.7451 168.588 78.3045Z" fill="#7694FF"/>
<path opacity="0.1" d="M168.588 78.3045C170.689 82.1605 171.5 84.4517 172.22 85.3961C172.266 85.4593 172.328 85.5088 172.4 85.5393C172.472 85.5698 172.551 85.5802 172.628 85.5693L184.895 83.7867C184.997 83.771 185.101 83.7922 185.189 83.8465C185.277 83.9007 185.343 83.9845 185.375 84.0829L186.364 87.1173C186.384 87.1723 186.392 87.2306 186.388 87.2887C186.384 87.3468 186.369 87.4036 186.343 87.4557C186.317 87.5078 186.28 87.5541 186.236 87.592C186.192 87.6299 186.14 87.6585 186.085 87.6761L174.584 91.5879C173.564 91.9869 172.454 92.0978 171.374 91.9085C170.295 91.7193 169.289 91.2373 168.465 90.515C165.198 87.648 162.537 84.1555 160.641 80.2437C159.758 78.5001 157.708 75.2701 161.077 72.4201C163.855 70.0562 167.208 75.7451 168.588 78.3045Z" fill="white"/>
<path d="M185.252 84.0807L187.778 81.1077C188.052 80.7838 188.416 80.5484 188.823 80.4315L194.775 78.6992C194.872 78.6725 194.976 78.6802 195.069 78.7209C195.161 78.7616 195.237 78.8328 195.283 78.9227C195.311 78.9765 195.327 79.0355 195.331 79.096C195.335 79.1564 195.326 79.2169 195.305 79.2737C195.284 79.3305 195.251 79.3823 195.209 79.4258C195.167 79.4692 195.116 79.5034 195.06 79.5262L192.601 80.5321C192.516 80.5665 192.443 80.6274 192.395 80.7058C192.347 80.7843 192.325 80.8762 192.333 80.968L192.456 82.4545C192.492 82.8994 192.39 83.3445 192.164 83.7294C191.938 84.1144 191.599 84.4204 191.193 84.606L189.405 85.4219L189.198 85.5001L186.124 86.5339C186.067 86.5535 186.006 86.5607 185.946 86.5552C185.886 86.5498 185.828 86.5317 185.775 86.5022C185.722 86.4726 185.676 86.4323 185.64 86.3839C185.604 86.3355 185.579 86.28 185.565 86.221L185.157 84.4607C185.143 84.3943 185.144 84.3255 185.161 84.2596C185.177 84.1937 185.208 84.1324 185.252 84.0807Z" fill="#CE7A63"/>
<path d="M184.531 83.7736L186.046 87.596C186.068 87.6518 186.102 87.7025 186.144 87.7448C186.187 87.7872 186.238 87.8204 186.294 87.8423C186.35 87.8643 186.41 87.8746 186.47 87.8726C186.53 87.8706 186.589 87.8564 186.644 87.8307L187.147 87.5848C187.247 87.5363 187.324 87.4514 187.364 87.3475C187.403 87.2437 187.401 87.1287 187.359 87.026L185.917 83.3601C185.88 83.2682 185.813 83.1914 185.727 83.1418C185.641 83.0922 185.54 83.0727 185.442 83.0862L184.883 83.1756C184.817 83.1836 184.753 83.2068 184.696 83.2435C184.64 83.2802 184.593 83.3295 184.559 83.3873C184.525 83.4452 184.505 83.5102 184.5 83.5772C184.495 83.6442 184.506 83.7114 184.531 83.7736Z" fill="#263238"/>
<path d="M148.09 67.2534C148.09 67.2534 148.738 66.3313 150.694 67.3987C150.694 67.3987 153.488 64.286 153.555 61.3745C153.555 61.3745 155.606 61.0001 155.439 59.6701C155.271 58.34 154.287 56.6133 154.494 55.4118C154.701 54.2103 156.696 51.0585 155.003 49.6558C153.309 48.2532 153.108 49.9241 152.147 50.1029C151.186 50.2817 145.396 50.4941 144.653 54.5735C143.814 55.5213 143.32 56.7244 143.25 57.988C143.18 59.2517 143.539 60.5019 144.267 61.5365C146.799 65.4819 148.09 67.2534 148.09 67.2534Z" fill="#263238"/>
<path d="M153.645 58.6399L158.719 55.8457C158.719 55.8457 159.993 59.1651 159.378 59.3328C158.764 59.5004 157.964 56.8907 157.964 56.8907L154.354 58.584L153.645 58.6399Z" fill="#7694FF"/>
<path opacity="0.7" d="M158.093 56.9596L158.479 56.7305C158.479 56.7305 159.524 59.0776 159.239 59.2843C158.954 59.4911 158.093 56.9596 158.093 56.9596Z" fill="white"/>
<path d="M154.355 58.742C154.734 58.9942 155.06 59.3191 155.313 59.698C155.567 60.0769 155.742 60.5022 155.83 60.9494C156.054 62.1341 154.936 62.6259 153.846 62.2012C152.863 61.8211 151.566 60.7426 151.84 59.5914C151.908 59.3374 152.037 59.1041 152.217 58.9123C152.396 58.7205 152.62 58.5761 152.869 58.492C153.118 58.4079 153.384 58.3867 153.644 58.4303C153.903 58.4739 154.147 58.581 154.355 58.742Z" fill="#CE7A63"/>
</g>
<defs>
<linearGradient id="paint0_linear_496_2522" x1="443.27" y1="-111.394" x2="77.7154" y2="138.157" gradientUnits="userSpaceOnUse">
<stop stop-color="#7694FF"/>
<stop offset="1" stop-color="white"/>
</linearGradient>
</defs>
</svg>
